<?xml version="1.0" encoding="UTF-8"?><svg id="Layer_1" xmlns="http://www.w3.org/2000/svg" viewBox="0 0 1234.04 201.64"><g><path d="M326.82,134.18h-59.66c1.55-1.61,2.54-2.68,3.56-3.7,19.94-20.09,39.86-40.2,59.86-60.22,2.09-2.09,3.06-4.23,3.03-7.21-.13-12.72-.05-25.45-.05-38.17,0-6.3,.03-12.61-.02-18.91-.02-2.89-1.28-4.73-3.59-5.56-1.16-.42-2.35-.26-3.53-.26-18.92-.01-37.85,.07-56.77-.08-3.28-.03-6.43,1.27-8.75,3.6-18.58,18.75-37.28,37.39-56,56.01-.98,.98-1.82,2.72-3.44,2.55-.12-12.45-.05-24.9-.05-37.34,0-6.3,.03-12.61-.02-18.91-.02-2.89-1.28-4.73-3.59-5.56-1.16-.42-2.35-.26-3.53-.26-18.92-.01-37.85,.07-56.77-.08-3.28-.03-6.43,1.27-8.75,3.6-18.58,18.75-37.28,37.39-56,56.01-1.09,1.09-2,3.12-3.99,2.42-2.26-.79-1.49-2.99-1.5-4.66-.04-17.24-.01-34.49-.03-51.73,0-3.14-2.55-5.7-5.69-5.71-7.46-.02-14.93,0-22.39,0-3.03,0-6.07,.27-9.02,.98C12.73,5.15,.52,20.16,.11,37.93c-.18,7.73-.08,15.46-.07,23.19,0,4.81,1.28,6.03,6.18,6.03,17.13,0,34.25,0,51.38,0,.95,0,1.92-.08,2.85,.05,2.01,.27,2.62,1.68,1.42,3.27-.57,.75-1.31,1.37-1.99,2.05-18.92,18.92-37.82,37.87-56.81,56.72C.99,131.31,.01,133.4,.03,136.41c.12,19.5,.15,39.01,0,58.51-.04,4.76,1.39,6.61,6.41,6.57,18.91-.17,37.82-.08,56.73-.08,3.34,0,4.04,.7,4.04-4.22,.02-41.26,0-82.53,.02-123.79,0-4.86,1.26-6.12,6.09-6.12,18.32,0,36.63,0,54.95,0,.48,0,.95-.02,1.43,0,2.89,.17,4.36,1.58,4.55,4.39,.06,.95,.01,1.9,.01,2.85,0,20.02,0,39.85-.02,59.54v45.53c0,.32,0,.63,0,.95,0,.35,0,.71,0,1.06v19.92h60.41c3.9,0,7.05-3.16,7.05-7.05v-53.35c0-3.9-3.16-7.05-7.05-7.05h-59.51c1.47-1.53,2.44-2.57,3.43-3.57,14.52-14.24,28.52-28.99,42.99-43.27,4.81-4.75,9.68-9.5,14.25-14.48,2.46-2.55,4.13-4.71,7.91-5.15,5.77-.68,11.53-.29,17.32-.29,12.92,0,25.84-.03,38.76-.03h.61c.48,0,.95-.02,1.43,0,2.89,.17,4.36,1.58,4.55,4.39,.06,.95,.01,1.9,.01,2.85,0,19.89,0,39.78,0,59.67v67.46h60.41c3.9,0,7.05-3.16,7.05-7.05v-53.35c0-3.9-3.16-7.05-7.05-7.05Z" fill="#c9f500"/><path d="M47.02,22.7c-3.26-3.34-7.56-5.21-12.1-5.27-.08,0-.16,0-.24,0-4.51,0-8.79,1.79-12.07,5.03-3.28,3.25-5.1,7.54-5.15,12.07-.05,4.88,1.68,9.34,4.85,12.55,3.15,3.19,7.55,4.95,12.38,4.96h.03c4.67,0,9.04-1.77,12.31-4.98,3.26-3.2,5.05-7.49,5.05-12.06,0-4.59-1.8-8.95-5.07-12.29Zm-12.16,24.06c-.06,0-.12,0-.17,0-6.44,0-11.76-5.25-11.85-11.69-.05-3.19,1.15-6.2,3.37-8.47,2.21-2.26,5.16-3.52,8.31-3.54h.11c6.61,0,11.82,5.13,11.85,11.67,.03,6.77-4.96,11.94-11.61,12.04Z" fill="#1e1e1e"/><path d="M307.21,19.08c-.14,0-.29,0-.44,0-3.12,0-6.23,0-9.35,0-.34,0-.58,.09-.81,.33-.88,.9-1.78,1.77-2.66,2.67-.2,.2-.39,.29-.67,.29-6.06,0-12.12,0-18.19,0-.38,0-.49-.09-.49-.48,.02-3.36,.02-6.72,0-10.08,0-.35,.08-.47,.45-.46,13.21,.01,26.42,0,39.63,0,.3,0,.51,.08,.73,.3,2.38,2.39,4.77,4.78,7.16,7.16,.21,.21,.3,.42,.3,.72,0,13.23,0,26.46,0,39.69,0,.32-.08,.4-.4,.39-3.39-.01-6.79-.01-10.18,0-.32,0-.44-.06-.44-.42,.01-6.1,.01-12.19,0-18.29,0-.29,.1-.48,.3-.67,.91-.89,1.81-1.8,2.71-2.7,.15-.14,.27-.27,.27-.52-.01-3.31,0-6.61,0-9.92,0-.03-.03-.05-.09-.15-.45,.46-.89,.92-1.33,1.36-10.32,10.32-20.64,20.64-30.96,30.98-.3,.3-.43,.27-.71-.01-2.36-2.38-4.74-4.76-7.12-7.12-.25-.25-.27-.37,0-.63,8.72-8.71,17.43-17.43,26.15-26.15,1.98-1.99,3.97-3.97,5.95-5.96,.08-.08,.21-.12,.2-.33Z" fill="#1e1e1e"/></g><g><path d="M548.14,106.9h18.68c.57,0,.86-.24,.86-.71V7.79c0-.47-.29-.71-.86-.71h-18.68c-.28,0-.52,.24-.71,.71V106.19c0,.47,.24,.71,.71,.71Z" fill="#fff"/><path d="M894.47,7.08c-18.73,37.46-28.66,56.95-29.8,58.47-5.04,11.41-8.22,17.11-9.55,17.11,0-.28-.14-.43-.43-.43-.57-.28-4.47-7.65-11.69-22.1-17.49-35.08-26.62-52.76-27.38-53.05h-20.96l-.71,.43,42.35,83.56c3.61,10.55,9.74,15.83,18.4,15.83h1.57c4.85,0,9.27-2,13.26-5.99,26.9-52.86,42.59-84.13,47.06-93.83h-22.1Z" fill="#fff"/><path d="M957.22,106.9c.57,0,.86-.24,.86-.71V7.79c0-.47-.29-.71-.86-.71h-18.68c-.28,0-.52,.24-.71,.71V106.19c0,.47,.24,.71,.71,.71h18.68Z" fill="#fff"/><g><path d="M682.4,68.56c-3.75-4.13-9.85-3.96-13.5,.27-.04,.05-.09,.1-.13,.15-3.4,3.82-3.28,9.96,.06,13.85h-.02l20.72,24.08h27.67l-34.8-38.34Z" fill="#fff"/><path d="M637.09,45.15s.09-.1,.14-.15h0c3.42-3.85,3.32-10.01-.05-13.92l-20.59-23.85-.13-.15h-27.67l34.78,38.32c3.75,4.14,9.87,3.98,13.53-.25Z" fill="#fff"/><path d="M668.74,45s.09,.1,.13,.15c3.66,4.22,9.76,4.4,13.5,.27h.02l34.8-38.34h-27.67l-20.72,24.08c-3.34,3.89-3.46,10.01-.06,13.85Z" fill="#fff"/><path d="M588.78,106.91h27.67l20.72-23.99c3.37-3.91,3.47-10.07,.05-13.92-.04-.05-.09-.1-.14-.15-3.67-4.22-9.78-4.39-13.53-.25h0s-34.78,38.31-34.78,38.31Z" fill="#fff"/></g><path d="M1090.95,56.99c3.7-2.18,6.67-5.15,8.9-8.9,2.23-3.75,3.35-8.05,3.35-12.89,0-3.89-.74-7.55-2.21-10.96-1.47-3.42-3.47-6.38-5.98-8.9-2.52-2.51-5.48-4.51-8.9-5.98-3.42-1.47-7.07-2.21-10.96-2.21h-94.31V106.82h94.31c3.89,0,7.55-.73,10.96-2.21,3.42-1.47,6.38-3.46,8.9-5.98,2.51-2.51,4.51-5.48,5.98-8.9,1.47-3.42,2.21-7.07,2.21-10.96,0-4.84-1.12-9.14-3.35-12.89-2.23-3.75-5.2-6.71-8.9-8.9Zm-6.69,25.34c-.67,1.52-1.57,2.8-2.71,3.84-1.14,1.05-2.49,1.9-4.06,2.56-1.57,.67-3.3,1-5.2,1h-71.43v-24.63h71.43c1.9,0,3.63,.31,5.2,.93,1.57,.62,2.92,1.5,4.06,2.63,1.14,1.14,2.04,2.45,2.71,3.92,.66,1.47,1,3.11,1,4.91,0,1.71-.33,3.32-1,4.84Zm0-41.01c-.67,1.52-1.57,2.85-2.71,3.99-1.14,1.14-2.49,2.02-4.06,2.63-1.57,.62-3.3,.93-5.2,.93h-71.43V24.24h71.43c1.9,0,3.63,.33,5.2,1,1.57,.67,2.92,1.52,4.06,2.56,1.14,1.05,2.04,2.33,2.71,3.84,.66,1.52,1,3.13,1,4.84s-.33,3.32-1,4.84Z" fill="#fff"/><path d="M1234.03,24.28V8.76c0-.91-.74-1.65-1.65-1.65h-106.83V106.86h108.48v-17.16h-88.55v-24.74h88.55v-16.34h-88.55V24.28h88.55Z" fill="#fff"/><path d="M522.63,106.67h-20.93V27.44h-.66l-33.11,74.44h-17.35l-33.64-75.5h-.66V106.67h-20V7.31h33.64l29.14,67.02h.53L488.46,7.31h34.17V106.67Z" fill="#fff"/></g><path d="M443.33,179.35l15.46,14.04h-15.53l-13.33-12.77h-23.55v12.77h-10.57v-50.64h36.24c9.08,0,24.19,1.42,24.19,18.94,0,11.14-6.1,15.75-12.91,17.66Zm-36.95-8.58h29.65c7.16,0,8.94-5.11,8.94-9.08s-1.77-9.01-8.94-9.01h-29.65v18.09Z" fill="#fff"/><path d="M574.7,193.3c-9.14,0-16.49-4.12-21.85-12.24-2.4-3.94-3.62-8.06-3.62-12.23v-1.44c0-6.96,3.16-13.35,9.39-18.97,4.66-3.64,10.05-5.5,15.98-5.5h19.54c8.62,0,15.48,3.61,20.98,11.03,.83,1.15,1.53,2.37,2.13,3.71h-12.36c-3.08-2.87-6.54-4.32-10.31-4.32h-20.71c-5.06,0-9.22,2.52-12.37,7.49-1.23,2.17-1.87,4.52-1.87,6.84v.9c0,5.98,3.28,10.56,9.76,13.61,1.85,.5,3.31,.73,4.66,.73h20.71c3.74,0,7.08-1.47,10.23-4.5h12.35c-2.56,5.6-6.85,9.9-12.75,12.77-3.27,1.42-6.91,2.15-10.82,2.15h-19.09Z" fill="#fff"/><path d="M531.04,142.9v9.72h-44.54v11.28h44.54v9.01h-44.54v10.92h44.54v9.72h-55.11v-50.64h55.11Z" fill="#fff"/><g><path d="M694.33,151.07c-.15,0-.3,0-.46,0-3.27,0-6.53,0-9.8,0-.35,0-.6,.09-.85,.35-.92,.94-1.86,1.86-2.78,2.8-.21,.21-.41,.3-.7,.3-6.35,0-12.71,0-19.06,0-.4,0-.52-.09-.52-.51,.02-3.52,.02-7.04,0-10.56,0-.37,.09-.49,.47-.49,13.84,.01,27.69,.01,41.53,0,.31,0,.54,.09,.76,.31,2.49,2.51,5,5.01,7.5,7.51,.22,.22,.32,.44,.32,.76,0,13.86,0,27.73,0,41.59,0,.33-.08,.41-.41,.41-3.56-.01-7.11-.01-10.67,0-.34,0-.46-.06-.46-.44,.01-6.39,.01-12.78,0-19.17,0-.3,.11-.5,.31-.7,.95-.94,1.89-1.88,2.84-2.83,.15-.15,.29-.29,.29-.55-.01-3.47,0-6.93,0-10.4,0-.03-.03-.05-.1-.15-.47,.48-.93,.96-1.39,1.43-10.82,10.82-21.64,21.64-32.45,32.46-.31,.31-.46,.28-.75-.01-2.48-2.5-4.97-4.98-7.47-7.46-.26-.26-.28-.39,0-.66,9.14-9.13,18.27-18.27,27.4-27.41,2.08-2.08,4.16-4.16,6.24-6.24,.08-.08,.22-.13,.21-.34Z" fill="#c9f500"/><path d="M746.15,185.44c.15,0,.3,0,.46,0,3.27,0,6.53,0,9.8,0,.35,0,.6-.09,.85-.35,.92-.94,1.86-1.86,2.78-2.8,.21-.21,.41-.3,.7-.3,6.35,0,12.71,0,19.06,0,.4,0,.52,.09,.52,.51-.02,3.52-.02,7.04,0,10.56,0,.37-.09,.49-.47,.49-13.84-.01-27.69-.01-41.53,0-.31,0-.54-.09-.76-.31-2.49-2.51-5-5.01-7.5-7.51-.22-.22-.32-.44-.32-.76,0-13.86,0-27.73,0-41.59,0-.33,.08-.41,.41-.41,3.56,.01,7.11,.01,10.67,0,.34,0,.46,.06,.46,.44-.01,6.39-.01,12.78,0,19.17,0,.3-.11,.5-.31,.7-.95,.94-1.89,1.88-2.84,2.83-.15,.15-.29,.29-.29,.55,.01,3.47,0,6.93,0,10.4,0,.03,.03,.05,.1,.15,.47-.48,.93-.96,1.39-1.43,10.82-10.82,21.64-21.64,32.45-32.46,.31-.31,.46-.28,.75,.01,2.48,2.5,4.97,4.98,7.47,7.46,.26,.26,.28,.39,0,.66-9.14,9.13-18.27,18.27-27.4,27.41-2.08,2.08-4.16,4.16-6.24,6.24-.08,.08-.22,.13-.21,.34Z" fill="#c9f500"/></g><path d="M842.39,143.1l-18.32,50.71h11.11l3.96-11.07h25.76l3.78,11.07h11.18l-17.82-50.71h-19.65Zm-.34,30.7l10.17-28.76,9.78,28.76h-19.96Z" fill="#fff"/><path d="M943.12,163.48c1.01-.84,1.85-1.88,2.49-3.09,.65-1.22,.97-2.55,.97-3.94,0-1.99-.41-3.79-1.21-5.37-.8-1.57-1.86-2.87-3.15-3.86-1.27-.97-2.78-1.79-4.5-2.43-1.7-.63-3.44-1.08-5.16-1.33-1.72-.24-3.51-.37-5.32-.37h-29.27v50.71h10.36v-18.04h27.32v18.04h10.95v-27.25h-9.12c.75-.25,1.5-.56,2.24-.91,1.27-.61,2.42-1.33,3.41-2.16Zm-34.8-11.03h18.91c1.11,0,2.19,.12,3.19,.35,.99,.23,1.95,.6,2.85,1.08,.85,.46,1.54,1.14,2.03,2.02,.5,.88,.75,1.95,.75,3.18,0,2.3-.82,4.07-2.49,5.42-1.68,1.36-3.84,2.05-6.4,2.05h-18.85v-14.1Z" fill="#fff"/><polygon points="964.33 152.8 982.89 152.8 982.89 193.81 993.21 193.81 993.21 152.8 1011.84 152.8 1011.84 143.1 964.33 143.1 964.33 152.8" fill="#fff"/><rect x="1030.21" y="143.1" width="10.36" height="50.71" fill="#fff"/><path d="M1091.18,164.86l-16.75-1.49c-1.87-.2-3.31-.76-4.26-1.69-.95-.92-1.42-2.12-1.42-3.66,0-.78,.14-1.49,.43-2.11,.29-.62,.64-1.14,1.06-1.53,.42-.4,.99-.74,1.71-1.03,.75-.3,1.44-.53,2.06-.67,.62-.14,1.43-.26,2.39-.34,.99-.08,1.78-.13,2.35-.14,.59-.01,1.35-.02,2.3-.02h1.89c.42,0,1.06,.02,1.9,.07,.84,.05,1.5,.1,1.97,.17,.48,.07,1.08,.18,1.81,.33,.7,.14,1.25,.31,1.65,.51,.43,.21,.89,.48,1.4,.81,.46,.3,.81,.64,1.05,1.02,.25,.4,.48,.89,.66,1.45,.18,.55,.27,1.17,.27,1.83v.48h9.98v-.48c0-1.86-.23-3.57-.7-5.08-.46-1.51-1.09-2.81-1.86-3.86-.77-1.05-1.76-1.97-2.95-2.75-1.17-.77-2.39-1.39-3.62-1.84-1.22-.45-2.65-.81-4.23-1.08-1.57-.27-3.07-.44-4.48-.53-1.39-.08-2.95-.12-4.64-.12-1.55,0-3.05,.06-4.46,.17-1.41,.12-2.89,.33-4.41,.63-1.52,.3-2.93,.7-4.2,1.18-1.28,.48-2.52,1.13-3.69,1.91-1.18,.79-2.2,1.72-3.01,2.76-.82,1.05-1.47,2.31-1.95,3.77-.48,1.45-.72,3.08-.72,4.83,0,3.99,1.23,7.32,3.67,9.89,2.43,2.56,5.76,4.06,9.91,4.47l16.8,1.56c1.85,.29,3.23,.79,4.11,1.48,.82,.65,1.24,1.76,1.24,3.28,0,.69-.12,1.33-.34,1.88-.22,.54-.57,.99-1.02,1.35-.5,.4-1.01,.75-1.53,1.05-.5,.29-1.17,.52-1.99,.69-.88,.18-1.62,.33-2.23,.45-.58,.11-1.39,.18-2.39,.22-1.03,.03-1.79,.06-2.29,.07-.49,.01-1.21,.02-2.16,.02s-1.75-.01-2.41-.03c-.66-.02-1.48-.08-2.43-.17-.95-.09-1.76-.22-2.41-.39-.66-.17-1.36-.41-2.1-.72-.7-.3-1.27-.66-1.69-1.08-.42-.42-.77-.96-1.06-1.61-.28-.64-.43-1.39-.43-2.22v-.48h-9.98v.48c0,1.8,.23,3.46,.7,4.95,.47,1.49,1.11,2.78,1.92,3.83,.8,1.04,1.8,1.97,2.97,2.76,1.16,.78,2.38,1.41,3.64,1.87,1.25,.46,2.66,.83,4.21,1.11,1.54,.28,3.03,.47,4.44,.58,1.41,.1,2.94,.16,4.56,.16,1.74,0,3.35-.04,4.78-.12,1.44-.08,3.02-.26,4.7-.53,1.68-.27,3.21-.63,4.52-1.08,1.32-.45,2.64-1.07,3.91-1.85,1.29-.79,2.38-1.73,3.24-2.8,.86-1.07,1.56-2.4,2.08-3.95,.51-1.55,.77-3.3,.77-5.22,0-3.88-1.2-7.05-3.58-9.4-2.36-2.34-5.61-3.69-9.66-4.02Z" fill="#fff"/><polygon points="1121.75 152.8 1140.31 152.8 1140.31 193.81 1150.64 193.81 1150.64 152.8 1169.27 152.8 1169.27 143.1 1121.75 143.1 1121.75 152.8" fill="#fff"/><path d="M1220.8,164.32l-16.75-1.49c-1.87-.2-3.31-.76-4.26-1.69-.95-.92-1.42-2.12-1.42-3.66,0-.78,.14-1.49,.43-2.11,.29-.62,.64-1.14,1.06-1.53,.42-.4,.99-.74,1.71-1.03,.75-.3,1.44-.53,2.06-.67,.62-.14,1.43-.26,2.39-.34,.99-.08,1.78-.13,2.35-.14,.59-.01,1.35-.02,2.3-.02h1.89c.42,0,1.06,.02,1.9,.07,.84,.05,1.5,.1,1.97,.17,.48,.07,1.08,.18,1.81,.33,.7,.14,1.25,.31,1.65,.51,.43,.21,.89,.48,1.4,.81,.46,.3,.81,.64,1.05,1.02,.25,.4,.48,.89,.66,1.45,.18,.55,.27,1.17,.27,1.83v.48h9.98v-.48c0-1.86-.23-3.57-.7-5.08-.46-1.51-1.09-2.81-1.86-3.86-.77-1.05-1.76-1.97-2.95-2.75-1.17-.77-2.39-1.39-3.62-1.84-1.22-.45-2.65-.81-4.23-1.08-1.57-.27-3.07-.44-4.48-.53-1.39-.08-2.95-.12-4.64-.12-1.55,0-3.05,.06-4.46,.17-1.41,.12-2.89,.33-4.41,.63-1.52,.3-2.93,.7-4.2,1.18-1.28,.48-2.52,1.13-3.69,1.91-1.18,.79-2.2,1.72-3.01,2.76-.82,1.05-1.47,2.31-1.95,3.77-.48,1.45-.72,3.08-.72,4.83,0,3.99,1.23,7.32,3.67,9.89,2.43,2.56,5.76,4.06,9.91,4.47l16.8,1.56c1.85,.29,3.23,.79,4.11,1.48,.82,.65,1.24,1.76,1.24,3.28,0,.69-.12,1.33-.34,1.88-.22,.54-.57,.99-1.02,1.35-.5,.4-1.01,.75-1.53,1.05-.5,.29-1.17,.52-1.99,.69-.88,.18-1.62,.33-2.23,.45-.58,.11-1.39,.18-2.39,.22-1.03,.03-1.79,.06-2.29,.07-.49,.01-1.21,.02-2.16,.02s-1.75-.01-2.41-.03c-.66-.02-1.48-.08-2.43-.17-.95-.09-1.76-.22-2.41-.39-.66-.17-1.36-.41-2.1-.72-.7-.3-1.27-.66-1.69-1.08-.42-.42-.77-.96-1.06-1.61-.28-.64-.43-1.39-.43-2.22v-.48h-9.98v.48c0,1.8,.23,3.46,.7,4.95,.47,1.49,1.11,2.78,1.92,3.83,.8,1.04,1.8,1.97,2.97,2.76,1.16,.78,2.38,1.41,3.64,1.87,1.25,.46,2.66,.83,4.21,1.11,1.54,.28,3.03,.47,4.44,.58,1.41,.1,2.94,.16,4.56,.16,1.74,0,3.35-.04,4.78-.12,1.44-.08,3.02-.26,4.7-.53,1.68-.27,3.21-.63,4.52-1.08,1.32-.45,2.64-1.07,3.91-1.85,1.29-.79,2.38-1.73,3.24-2.8,.86-1.07,1.56-2.4,2.08-3.95,.51-1.55,.77-3.3,.77-5.22,0-3.88-1.2-7.05-3.58-9.4-2.36-2.34-5.61-3.69-9.66-4.02Z" fill="#fff"/></svg>