<?xml version="1.0" encoding="utf-8"?>
<!-- Generator: Adobe Illustrator 26.5.0, SVG Export Plug-In . SVG Version: 6.00 Build 0)  -->
<svg version="1.1" id="Layer_1" xmlns="http://www.w3.org/2000/svg" xmlns:xlink="http://www.w3.org/1999/xlink" x="0px" y="0px"
	 viewBox="0 0 512 512" style="enable-background:new 0 0 512 512;" xml:space="preserve">
<style type="text/css">
	.st0{fill:#C9F401;}
	.st1{fill:#1E1E1E;}
</style>
<path class="st0" d="M70,0h372c38.7,0,70,31.3,70,70v372c0,38.7-31.3,70-70,70H70c-38.7,0-70-31.3-70-70V70C0,31.3,31.3,0,70,0z"/>
<g>
	<path class="st1" d="M445.2,295.5h-70.6c1.8-1.9,3-3.2,4.2-4.4c23.6-23.8,47.2-47.6,70.8-71.2c2.5-2.5,3.6-5,3.6-8.5
		c-0.1-15-0.1-30.1-0.1-45.2c0-7.5,0-14.9,0-22.4c0-3.4-1.5-5.6-4.2-6.6c-1.4-0.5-2.8-0.3-4.2-0.3c-22.4,0-44.8,0.1-67.2-0.1
		c-3.9,0-7.6,1.5-10.3,4.3c-22,22.2-44.1,44.2-66.3,66.3c-1.2,1.2-2.2,3.2-4.1,3c-0.1-14.7-0.1-29.5-0.1-44.2c0-7.5,0-14.9,0-22.4
		c0-3.4-1.5-5.6-4.2-6.6c-1.4-0.5-2.8-0.3-4.2-0.3c-22.4,0-44.8,0.1-67.2-0.1c-3.9,0-7.6,1.5-10.3,4.3c-22,22.2-44.1,44.2-66.3,66.3
		c-1.3,1.3-2.4,3.7-4.7,2.9c-2.7-0.9-1.8-3.5-1.8-5.5c0-20.4,0-40.8,0-61.2c0-3.7-3-6.7-6.7-6.8c-8.8,0-17.7,0-26.5,0
		c-3.6,0-7.2,0.3-10.7,1.2c-20.6,4.9-35,22.7-35.5,43.7c-0.2,9.1-0.1,18.3-0.1,27.4c0,5.7,1.5,7.1,7.3,7.1c20.3,0,40.5,0,60.8,0
		c1.1,0,2.3-0.1,3.4,0.1c2.4,0.3,3.1,2,1.7,3.9c-0.7,0.9-1.6,1.6-2.4,2.4c-22.4,22.4-44.7,44.8-67.2,67.1c-2.5,2.5-3.6,4.9-3.6,8.5
		c0.1,23.1,0.2,46.1,0,69.2c0,5.6,1.7,7.8,7.6,7.8c22.4-0.2,44.7-0.1,67.1-0.1c4,0,4.8,0.8,4.8-5c0-48.8,0-97.6,0-146.5
		c0-5.8,1.5-7.2,7.2-7.2c21.7,0,43.3,0,65,0c0.6,0,1.1,0,1.7,0c3.4,0.2,5.2,1.9,5.4,5.2c0.1,1.1,0,2.2,0,3.4c0,23.7,0,47.2,0,70.4
		v53.9c0,0.4,0,0.8,0,1.1c0,0.4,0,0.8,0,1.3v23.6h71.5c4.6,0,8.3-3.7,8.3-8.3v-63.1c0-4.6-3.7-8.3-8.3-8.3h-70.4
		c1.7-1.8,2.9-3,4.1-4.2c17.2-16.9,33.7-34.3,50.9-51.2c5.7-5.6,11.4-11.2,16.9-17.1c2.9-3,4.9-5.6,9.4-6.1
		c6.8-0.8,13.6-0.3,20.5-0.3c15.3,0,30.6,0,45.9,0h0.7c0.6,0,1.1,0,1.7,0c3.4,0.2,5.2,1.9,5.4,5.2c0.1,1.1,0,2.2,0,3.4
		c0,23.5,0,47.1,0,70.6v79.8h71.5c4.6,0,8.3-3.7,8.3-8.3v-63.1C453.5,299.2,449.8,295.5,445.2,295.5L445.2,295.5z"/>
	<path class="st0" d="M114.1,163.6c-3.9-3.9-8.9-6.2-14.3-6.2c-0.1,0-0.2,0-0.3,0c-5.3,0-10.4,2.1-14.3,6c-3.9,3.8-6,8.9-6.1,14.3
		c-0.1,5.8,2,11.1,5.7,14.8c3.7,3.8,8.9,5.9,14.6,5.9h0c5.5,0,10.7-2.1,14.6-5.9c3.9-3.8,6-8.9,6-14.3
		C120.1,172.7,118,167.5,114.1,163.6L114.1,163.6z M99.7,192.1c-0.1,0-0.1,0-0.2,0c-7.6,0-13.9-6.2-14-13.8c-0.1-3.8,1.4-7.3,4-10
		c2.6-2.7,6.1-4.2,9.8-4.2h0.1c7.8,0,14,6.1,14,13.8C113.5,185.8,107.6,191.9,99.7,192.1z"/>
	<path class="st0" d="M422,159.3c-0.2,0-0.3,0-0.5,0c-3.7,0-7.4,0-11.1,0c-0.4,0-0.7,0.1-1,0.4c-1,1.1-2.1,2.1-3.1,3.2
		c-0.2,0.2-0.5,0.3-0.8,0.3c-7.2,0-14.3,0-21.5,0c-0.5,0-0.6-0.1-0.6-0.6c0-4,0-7.9,0-11.9c0-0.4,0.1-0.6,0.5-0.6
		c15.6,0,31.3,0,46.9,0c0.4,0,0.6,0.1,0.9,0.3c2.8,2.8,5.6,5.7,8.5,8.5c0.3,0.3,0.4,0.5,0.4,0.8c0,15.6,0,31.3,0,47
		c0,0.4-0.1,0.5-0.5,0.5c-4,0-8,0-12,0c-0.4,0-0.5-0.1-0.5-0.5c0-7.2,0-14.4,0-21.6c0-0.3,0.1-0.6,0.4-0.8c1.1-1.1,2.1-2.1,3.2-3.2
		c0.2-0.2,0.3-0.3,0.3-0.6c0-3.9,0-7.8,0-11.7c0,0,0-0.1-0.1-0.2c-0.5,0.6-1.1,1.1-1.6,1.6c-12.2,12.2-24.4,24.4-36.6,36.7
		c-0.3,0.4-0.5,0.3-0.8,0c-2.8-2.8-5.6-5.6-8.4-8.4c-0.3-0.3-0.3-0.4,0-0.8c10.3-10.3,20.6-20.6,30.9-30.9c2.3-2.3,4.7-4.7,7-7
		C421.8,159.6,422,159.6,422,159.3L422,159.3z"/>
</g>
</svg>
