<?xml version="1.0" encoding="UTF-8"?>
<svg id="Layer_1" data-name="Layer 1" xmlns="http://www.w3.org/2000/svg" viewBox="0 0 737 124.55">
  <g>
    <path d="M675.65,122.99c33.53,0,60.72-27.19,60.72-60.72S709.17,1.55,675.65,1.55s-60.72,27.19-60.72,60.72,27.19,60.72,60.72,60.72Z" style="fill: none; stroke: #eac218; stroke-linecap: round; stroke-linejoin: round; stroke-width: 1.28px;"/>
    <path d="M675.65,119.58c31.66,0,57.31-25.66,57.31-57.31s-25.66-57.31-57.31-57.31-57.31,25.66-57.31,57.31,25.66,57.31,57.31,57.31Z" style="fill: none; stroke: #eac218; stroke-linecap: round; stroke-linejoin: round; stroke-width: 1.28px;"/>
    <path d="M675.65,116.18c29.78,0,53.91-24.13,53.91-53.91s-24.13-53.91-53.91-53.91-53.91,24.13-53.91,53.91,24.17,53.91,53.91,53.91Z" style="fill: none; stroke: #eac218; stroke-linecap: round; stroke-linejoin: round; stroke-width: 1.28px;"/>
    <path d="M675.65,112.73c27.87,0,50.46-22.59,50.46-50.46s-22.59-50.46-50.46-50.46-50.46,22.59-50.46,50.46,22.59,50.46,50.46,50.46Z" style="fill: none; stroke: #eac218; stroke-linecap: round; stroke-linejoin: round; stroke-width: 1.28px;"/>
    <path d="M675.65,109.33c26,0,47.06-21.06,47.06-47.06s-21.06-47.06-47.06-47.06-47.06,21.06-47.06,47.06,21.06,47.06,47.06,47.06Z" style="fill: none; stroke: #eac218; stroke-linecap: round; stroke-linejoin: round; stroke-width: 1.28px;"/>
    <path d="M675.65,105.92c24.13,0,43.66-19.53,43.66-43.66s-19.53-43.66-43.66-43.66-43.66,19.53-43.66,43.66,19.57,43.66,43.66,43.66Z" style="fill: none; stroke: #eac218; stroke-linecap: round; stroke-linejoin: round; stroke-width: 1.28px;"/>
    <path d="M675.65,102.48c22.21,0,40.21-18,40.21-40.21s-18-40.21-40.21-40.21-40.21,18-40.21,40.21,18,40.21,40.21,40.21Z" style="fill: none; stroke: #eac218; stroke-linecap: round; stroke-linejoin: round; stroke-width: 1.28px;"/>
    <path d="M675.65,99.07c20.34,0,36.81-16.47,36.81-36.81s-16.47-36.81-36.81-36.81-36.81,16.47-36.81,36.81,16.51,36.81,36.81,36.81Z" style="fill: none; stroke: #eac218; stroke-linecap: round; stroke-linejoin: round; stroke-width: 1.28px;"/>
    <path d="M675.65,95.67c18.47,0,33.4-14.93,33.4-33.4s-14.93-33.4-33.4-33.4-33.4,14.93-33.4,33.4,14.98,33.4,33.4,33.4Z" style="fill: none; stroke: #eac218; stroke-linecap: round; stroke-linejoin: round; stroke-width: 1.28px;"/>
    <path d="M675.65,65.21c1.62,0,2.94-1.32,2.94-2.94s-1.32-2.94-2.94-2.94-2.94,1.32-2.94,2.94,1.32,2.94,2.94,2.94Z" style="fill: #f8d84d;"/>
  </g>
  <g>
    <path d="M365.23,122.77l185.17-.1c3.15,0,5.75-2.54,5.72-5.78l-.08-109.4c0-3.15-2.54-5.75-5.78-5.72l-185.07,.07c-3.15,0-5.75,2.54-5.72,5.78l.08,109.4c-.04,3.21,2.54,5.75,5.68,5.75Z" style="fill: none; stroke: #fb2962; stroke-linecap: round; stroke-linejoin: round; stroke-width: 3.55px;"/>
    <path d="M448.93,48.17l.03,28.2,25.83-14.09-25.85-14.11Z" style="fill: #fb2962;"/>
    <path d="M375.5,106.74l164.64-.08" style="fill: none; stroke: #fb2962; stroke-linecap: round; stroke-linejoin: round; stroke-width: 2.15px;"/>
    <path d="M393.24,111.66c2.87,1.48,6.45,.33,7.93-2.54s.33-6.45-2.54-7.93-6.45-.33-7.93,2.54-.33,6.45,2.54,7.93Z" style="fill: #fb2962;"/>
  </g>
  <g>
    <path d="M294.02,122.37l-106.96,.03c-3.66,0-6.64-2.97-6.65-6.63l-.03-106.96c0-3.66,2.97-6.64,6.63-6.65l106.96-.03c3.66,0,6.64,2.97,6.65,6.63l.03,106.96c-.07,3.7-2.97,6.64-6.63,6.65Z" style="fill: none; stroke: #6666bf; stroke-linecap: round; stroke-linejoin: round; stroke-width: 3.55px;"/>
    <path d="M238.93,77.28l-.02,17.42" style="fill: none; stroke: #fff; stroke-linecap: round; stroke-linejoin: round; stroke-width: 3.55px;"/>
    <path d="M256.88,54.78l.03,4.29c-.03,9.91-8.02,17.95-17.93,17.91-9.91-.03-17.95-8.02-17.91-17.93l-.03-4.29" style="fill: none; stroke: #fff; stroke-linecap: round; stroke-linejoin: round; stroke-width: 3.55px;"/>
    <path d="M238.9,67.03c-4.77-.01-8.62-3.86-8.58-8.55l.02-17.61c.01-4.77,3.86-8.62,8.55-8.58,4.77,.01,8.62,3.86,8.58,8.55l-.02,17.61c.06,4.74-3.78,8.59-8.55,8.58Z" style="fill: none; stroke: #6666bf; stroke-linecap: round; stroke-linejoin: round; stroke-width: 3.55px;"/>
  </g>
  <g>
    <path d="M64.91,81.61V39.15h16.65" style="fill: none; stroke: #03cddc; stroke-linecap: round; stroke-linejoin: round; stroke-width: 3.55px;"/>
    <path d="M57.41,89.74c-4.18,0-7.58-3.39-7.58-7.58s3.39-7.58,7.58-7.58,7.58,3.39,7.58,7.58c-.08,4.18-3.39,7.58-7.58,7.58Z" style="fill: none; stroke: #03cddc; stroke-linecap: round; stroke-linejoin: round; stroke-width: 3.55px;"/>
    <path d="M61.67,122.17c33.07,0,59.9-26.83,59.9-59.9S94.74,2.38,61.67,2.38,1.78,29.21,1.78,62.27s26.83,59.9,59.9,59.9Z" style="fill: none; stroke: #03cddc; stroke-linecap: round; stroke-linejoin: round; stroke-width: 3.55px;"/>
  </g>
</svg>