<?xml version="1.0" encoding="utf-8"?>
<!-- Generator: Adobe Illustrator 26.5.0, SVG Export Plug-In . SVG Version: 6.00 Build 0)  -->
<svg version="1.1" id="Layer_1" xmlns="http://www.w3.org/2000/svg" xmlns:xlink="http://www.w3.org/1999/xlink" x="0px" y="0px"
	 viewBox="0 0 761 478" style="enable-background:new 0 0 761 478;" xml:space="preserve">
<style type="text/css">
	.st0{fill:none;}
	.st1{fill:#4611EA;}
	.st2{fill:none;stroke:#F8D84D;stroke-width:3;stroke-linecap:round;stroke-linejoin:round;stroke-miterlimit:10;}
	.st3{fill:#F8D84D;}
	.st4{fill:none;stroke:#6BD3B1;stroke-width:3;stroke-linecap:round;stroke-linejoin:round;stroke-miterlimit:10;}
	.st5{fill:#6BD3B1;}
	.st6{fill:none;stroke:#4611EA;stroke-width:3;stroke-linecap:round;stroke-linejoin:round;stroke-miterlimit:10;}
	.st7{fill:none;stroke:#FFFFFF;stroke-width:3;stroke-linecap:round;stroke-linejoin:round;stroke-miterlimit:10;}
	.st8{fill:none;stroke:#7D58F0;stroke-width:3;stroke-linecap:round;stroke-linejoin:round;stroke-miterlimit:10;}
	.st9{fill:#7D58F0;}
	.st10{fill:none;stroke:#ED616C;stroke-width:3;stroke-linecap:round;stroke-linejoin:round;stroke-miterlimit:10;}
</style>
<rect class="st0" width="761" height="478"/>
<path class="st1" d="M511.9,82V46.6L476.6,82H511.9z"/>
<g id="Disk">
	<path class="st2" d="M617.9,371.8c78.8,0,142.7-63.9,142.7-142.7S696.7,86.4,617.9,86.4s-142.7,63.9-142.7,142.7
		S539.1,371.8,617.9,371.8z"/>
	<path class="st2" d="M617.9,363.8c74.4,0,134.7-60.3,134.7-134.7S692.3,94.4,617.9,94.4s-134.7,60.3-134.7,134.7
		S543.5,363.8,617.9,363.8z"/>
	<path class="st2" d="M617.9,355.8c70,0,126.7-56.7,126.7-126.7s-56.7-126.7-126.7-126.7c-70,0-126.7,56.7-126.7,126.7
		S548,355.8,617.9,355.8z"/>
	<path class="st2" d="M617.9,347.7c65.5,0,118.6-53.1,118.6-118.6s-53.1-118.6-118.6-118.6s-118.6,53.1-118.6,118.6
		S552.4,347.7,617.9,347.7z"/>
	<path class="st2" d="M617.9,339.7c61.1,0,110.6-49.5,110.6-110.6S679,118.5,617.9,118.5c-61.1,0-110.6,49.5-110.6,110.6
		S556.8,339.7,617.9,339.7z"/>
	<path class="st2" d="M617.9,331.7c56.7,0,102.6-45.9,102.6-102.6s-45.9-102.6-102.6-102.6c-56.7,0-102.6,45.9-102.6,102.6
		S561.3,331.7,617.9,331.7z"/>
	<path class="st2" d="M617.9,323.6c52.2,0,94.5-42.3,94.5-94.5s-42.3-94.5-94.5-94.5c-52.2,0-94.5,42.3-94.5,94.5
		S565.7,323.6,617.9,323.6z"/>
	<path class="st2" d="M617.9,315.6c47.8,0,86.5-38.7,86.5-86.5s-38.7-86.5-86.5-86.5c-47.8,0-86.5,38.7-86.5,86.5
		S570.2,315.6,617.9,315.6z"/>
	<path class="st2" d="M617.9,307.6c43.4,0,78.5-35.1,78.5-78.5s-35.1-78.5-78.5-78.5c-43.4,0-78.5,35.1-78.5,78.5
		S574.6,307.6,617.9,307.6z"/>
	<path class="st3" d="M617.9,236c3.8,0,6.9-3.1,6.9-6.9c0-3.8-3.1-6.9-6.9-6.9c-3.8,0-6.9,3.1-6.9,6.9
		C611,232.9,614.1,236,617.9,236z"/>
</g>
<g id="Video">
	<path class="st4" d="M119.4,457.1L348.6,339c3.9-2,5.5-6.8,3.4-10.8l-69.8-135.4c-2-3.9-6.8-5.5-10.8-3.4l-229.1,118
		c-3.9,2-5.5,6.8-3.4,10.8l69.8,135.4C110.7,457.6,115.5,459.1,119.4,457.1z"/>
	<path class="st5" d="M175.5,311.4l18,34.9l23-33.9L175.5,311.4z"/>
	<path class="st4" d="M121.9,430.7l203.8-105"/>
	<path class="st5" d="M147,425.5c4.5,0,8.2-3.7,8.2-8.2c0-4.5-3.7-8.2-8.2-8.2c-4.5,0-8.2,3.7-8.2,8.2
		C138.8,421.8,142.5,425.5,147,425.5z"/>
</g>
<g id="Audio">
	<path class="st6" d="M453,476.6l-116.7-55.7c-4-1.9-5.7-6.7-3.8-10.7l55.7-116.7c1.9-4,6.7-5.7,10.7-3.8l116.7,55.7
		c4,1.9,5.7,6.7,3.8,10.7l-55.7,116.7C461.7,476.8,457,478.5,453,476.6z"/>
	<path class="st7" d="M416.4,398.7l-9.1,19"/>
	<path class="st7" d="M447.7,383.5l-2.2,4.7c-5.2,10.8-18.1,15.4-28.9,10.2c-10.8-5.2-15.4-18.1-10.2-28.9l2.2-4.7"/>
	<path class="st7" d="M421.7,387.5c-5.2-2.5-7.4-8.7-4.9-13.8l9.2-19.2c2.5-5.2,8.7-7.4,13.8-4.9c5.2,2.5,7.4,8.7,4.9,13.8
		l-9.2,19.2C433.1,387.8,426.9,390,421.7,387.5z"/>
</g>
<g>
	<path class="st8" d="M236.6,107.2l139,141.5c3.1,3.2,8.2,3.2,11.3,0.1l94.8-93.1c3.2-3.1,3.2-8.2,0.1-11.3L342.8,2.9
		c-3.1-3.2-8.2-3.2-11.3-0.1l-94.8,93.1C233.5,99,233.5,104.1,236.6,107.2z"/>
	<path class="st9" d="M351.7,151.2l13.6-45.9L319.1,118L351.7,151.2z"/>
	<path class="st9" d="M363.7,163.4l9.1-30.8l-31,8.5L363.7,163.4z"/>
	<path class="st9" d="M383.8,127.1c2.9,0,5.3-2.4,5.3-5.3c0-2.9-2.4-5.3-5.3-5.3s-5.3,2.4-5.3,5.3
		C378.5,124.7,380.9,127.1,383.8,127.1z"/>
</g>
<g id="Music">
	<path class="st10" d="M161.4,168.1v-53.8h21.1"/>
	<path class="st10" d="M151.9,178.4c-5.3,0-9.6-4.3-9.6-9.6s4.3-9.6,9.6-9.6s9.6,4.3,9.6,9.6C161.4,174.1,157.2,178.4,151.9,178.4z"
		/>
	<path class="st10" d="M157.3,219.5c41.9,0,75.9-34,75.9-75.9s-34-75.9-75.9-75.9c-41.9,0-75.9,34-75.9,75.9
		S115.4,219.5,157.3,219.5z"/>
</g>
<path class="st1" d="M275.7,447.6c5.3,0,9.6-4.3,9.6-9.6s-4.3-9.6-9.6-9.6s-9.6,4.3-9.6,9.6S270.4,447.6,275.7,447.6z"/>
<path class="st1" d="M560.5,423.9h-14.9l-7.4,12.8l7.4,12.9h14.9l7.4-12.9L560.5,423.9z"/>
</svg>
