<?xml version="1.0" encoding="UTF-8"?>
<svg width="32px" height="32px" viewBox="0 0 32 32" version="1.1" xmlns="http://www.w3.org/2000/svg" xmlns:xlink="http://www.w3.org/1999/xlink">
    <!-- Generator: Sketch 62 (91390) - https://sketch.com -->
    <title>25728FB4-6D97-409C-91F0-7A42AD38E3B6</title>
    <desc>Created with Sketch.</desc>
    <g id="控件" stroke="none" stroke-width="1" fill="none" fill-rule="evenodd">
        <g id="icon/placeholder-/album-" fill-rule="nonzero">
            <path d="M16.2222222,14 C17.4529915,14 18.4444444,15.010101 18.4444444,16.2222222 C18.4444444,17.4343434 17.4529915,18.4444444 16.2222222,18.4444444 C14.991453,18.4444444 14,17.4343434 14,16.2222222 C14,15.010101 14.991453,14 16.2222222,14 Z" id="路径" fill="#A6A6A6"></path>
            <g id="编组">
                <path d="M30.3652174,17.3276596 C29.3565217,19.812766 27.7217391,21.9574468 26.5391304,23.3191489 C26.6434783,23.8638298 26.4695652,24.4425532 26.0521739,24.8510638 L23.5478261,27.3361702 C22.8521739,28.0170213 21.7391304,28.0170213 21.0434783,27.3361702 C20.3478261,26.6553191 20.3478261,25.5319149 21.0434783,24.8510638 L23.5478261,22.3659574 C23.9652174,21.9574468 24.5217391,21.787234 25.0782609,21.8893617 C26.5043478,20.3914894 29.4608696,16.4765957 30.5043478,9.42978723 C28.0347826,3.88085106 22.5043478,0 16.0347826,0 C7.30434783,0 0.208695652,7.11489362 0.208695652,15.8638298 C0.208695652,24.612766 7.30434783,31.7276596 16.0347826,31.7276596 C24.7652174,31.7276596 31.8608696,24.612766 31.8608696,15.8638298 C31.8608696,14.8085106 31.7565217,13.787234 31.5478261,12.8 C31.3043478,14.3319149 30.9217391,15.9659574 30.3652174,17.3276596 Z M9.28695652,15.8297872 C9.28695652,12.0851064 12.3130435,9.05531915 16.0695652,9.05531915 C19.826087,9.05531915 22.8521739,12.0851064 22.8521739,15.8297872 C22.8521739,19.5744681 19.826087,22.6042553 16.0695652,22.6042553 C12.3130435,22.6042553 9.28695652,19.5744681 9.28695652,15.8297872 Z" id="形状" fill="#A6A6A6"></path>
                <path d="M30.5391304,9.39574468 C30.9913043,10.4510638 31.373913,11.5744681 31.5826087,12.7319149 C31.4086957,11.506383 30.6782609,9.77021277 30.5391304,9.39574468 Z" id="路径" fill="#000000"></path>
            </g>
        </g>
    </g>
</svg>