<svg width="70" height="70" xmlns="http://www.w3.org/2000/svg"><defs><linearGradient x1="0%" y1="-21.435%" x2="125.638%" y2="130.38%" id="a"><stop stop-color="#1b8ff3" offset="0%"/><stop stop-color="#00cfdd" offset="100%"/></linearGradient></defs><g transform="translate(1 1)" fill="none" fill-rule="evenodd"><circle stroke="#FFF" opacity=".2" cx="34" cy="34" r="34"/><path d="M15 .7C6.716.7 0 7.416 0 15.7a14.78 14.78 0 00.42 3.44 10 10 0 012.64-4.54 12 12 0 0123.89 0 10 10 0 012.64 4.54A14.76 14.76 0 0030 15.7a15 15 0 00-15-15zM8.11 15.2h-.53c-2.85 0-5.15 3.36-5.15 7.5 0 4.14 2.31 7.5 5.15 7.5h.53A2 2 0 0010 28.06V17.35a2 2 0 00-1.89-2.15zm14.31 0h-.53A2 2 0 0020 17.35v10.71a2 2 0 001.89 2.14h.53c2.85 0 5.15-3.36 5.15-7.5 0-4.14-2.31-7.5-5.15-7.5z" transform="translate(19 19)" fill="url(#a)"/></g></svg>