<?xml version="1.0" encoding="utf-8"?>
<!-- Generator: Adobe Illustrator 26.5.0, SVG Export Plug-In . SVG Version: 6.00 Build 0)  -->
<svg version="1.1" id="Layer_1" xmlns="http://www.w3.org/2000/svg" xmlns:xlink="http://www.w3.org/1999/xlink" x="0px" y="0px"
	 viewBox="0 0 1027 600" style="enable-background:new 0 0 1027 600;" xml:space="preserve">
<style type="text/css">
	.st0{fill:#EBEBEB;}
	.st1{fill:#E0E0E0;}
	.st2{fill:#F5F5F5;}
	.st3{fill:#00C5CD;}
	.st4{fill:#263238;}
	.st5{opacity:0.8;}
	.st6{fill:#FFFFFF;}
	.st7{fill:#FFBE9D;}
	.st8{fill:#EB996E;}
	.st9{fill:#455A64;}
	.st10{opacity:0.3;}
	.st11{fill:#FAFAFA;}
	.st12{opacity:0.3;enable-background:new    ;}
</style>
<g>
	<path class="st0" d="M668.49,387.52c0,0-9.72-7.02-22.86,16.37s-18.38,37-18.38,37s-3.43,4.87-6.72,1.46s-7.64-12.91-13.56-11.48
		c-6.13,1.48-8.42,8.17-7.67,18.16c0.75,10,1.56,31.95,1.64,33.93c0.07,1.98-1.2,4.81-3.79,2.8s-17.44-19.92-25.55-12.38
		c-8.11,7.54-1.46,35.04-0.78,38.07c0.67,3.03,0,4.27-1.42,4.94c-1.42,0.67-5.86-5.82-10.28-10.75s-10.47-9.88-14.77-5.06
		c-4.31,4.81-6.44,25.04,11.61,58.94l9.39,15.18l17.91-0.24c38.32-2.86,54.37-15.55,56.08-21.72c1.71-6.17-5.67-8.61-12.2-9.72
		c-6.53-1.11-14.43-1.36-14.59-2.96s0.53-2.79,3.44-3.84c2.91-1.05,29.71-10.1,31.77-20.98c2.06-10.87-21.04-13.83-24.06-15
		c-3.02-1.17-1.34-3.72,0.35-4.69s20.73-12.03,29.57-16.74c8.84-4.72,13.23-10.2,11.27-16.18c-1.95-5.76-12.28-4.37-16.94-5.33
		s-2.41-6.47-2.41-6.47s8.72-11.66,21.47-35.28c12.75-23.63,1.32-28.17,1.32-28.17"/>
	<path class="st1" d="M562.29,577.85c9.44-17.32,26.73-47.83,41.43-74.09c14.7-26.26,27.99-50.04,37.51-67.36l11.26-20.45l3.07-5.57
		l0.81-1.43c0.18-0.32,0.29-0.48,0.29-0.48s-0.07,0.17-0.24,0.51l-0.76,1.47c-0.7,1.3-1.7,3.19-2.97,5.61
		c-2.59,4.87-6.39,11.9-11.1,20.56c-9.44,17.32-22.67,41.14-37.37,67.36c-14.7,26.22-32.03,56.78-41.56,74.08"/>
	<path class="st1" d="M612.48,444.42c0.17,0.39,0.31,0.79,0.4,1.2c0.23,0.81,0.52,1.97,0.87,3.4c0.69,2.89,1.54,6.89,2.41,11.33
		s1.59,8.35,2.15,11.38c0.28,1.36,0.49,2.51,0.67,3.44c0.12,0.42,0.19,0.84,0.2,1.28c-0.18-0.39-0.32-0.79-0.41-1.2
		c-0.23-0.81-0.52-1.96-0.85-3.42c-0.65-2.89-1.46-6.9-2.31-11.34c-0.85-4.44-1.64-8.32-2.24-11.36c-0.28-1.36-0.51-2.51-0.69-3.44
		C612.57,445.28,612.51,444.85,612.48,444.42z"/>
	<path class="st1" d="M620.76,476.86c0-0.16,8.14-2.26,18.28-4.73c10.14-2.47,18.37-4.33,18.4-4.19c0.04,0.14-8.14,2.26-18.28,4.73
		C629.02,475.14,620.8,477.01,620.76,476.86z"/>
	<path class="st1" d="M596.36,516.23c0.44-0.04,0.88-0.04,1.31,0l3.61,0.17c3.02,0.13,7.22,0.29,11.8,0.3s8.78-0.1,11.8-0.2
		l3.61-0.13c0.44-0.05,0.88-0.05,1.31,0c-0.42,0.11-0.86,0.18-1.3,0.2c-0.84,0.08-2.07,0.19-3.61,0.3
		c-3.02,0.22-7.22,0.4-11.82,0.38c-4.61-0.01-8.81-0.24-11.82-0.48c-1.52-0.12-2.73-0.23-3.61-0.34
		C597.21,516.41,596.78,516.35,596.36,516.23z"/>
	<path class="st1" d="M582.41,488.48c0.26,0.32,0.48,0.67,0.66,1.03c0.43,0.78,0.97,1.74,1.6,2.89c1.34,2.41,3.15,5.87,5.12,9.62
		c1.97,3.75,3.73,7.22,4.97,9.73l1.46,2.97c0.19,0.36,0.35,0.74,0.47,1.13c-0.26-0.32-0.49-0.66-0.66-1.03l-1.61-2.89
		c-1.34-2.41-3.14-5.87-5.11-9.62c-1.97-3.75-3.73-7.22-4.98-9.73l-1.44-2.97C582.68,489.26,582.52,488.88,582.41,488.48z"/>
	<path class="st1" d="M556.44,520.46c0.32,0.41,0.6,0.85,0.83,1.32l2.07,3.69c1.73,3.14,4.09,7.49,6.66,12.32
		c2.57,4.82,4.87,9.2,6.51,12.39l1.92,3.79c0.24,0.46,0.46,0.93,0.64,1.42c-0.32-0.41-0.6-0.85-0.83-1.32l-2.08-3.7
		c-1.72-3.13-4.08-7.48-6.65-12.31s-4.87-9.2-6.51-12.39l-1.92-3.79C556.82,521.42,556.61,520.95,556.44,520.46z"/>
	<path class="st1" d="M574.86,554.43c0.56-0.04,1.12-0.04,1.67,0h4.55c3.83,0,9.13,0,14.98-0.1c5.85-0.1,11.14-0.38,14.98-0.6
		l4.53-0.25c0.56-0.04,1.12-0.04,1.67,0c-0.55,0.13-1.1,0.21-1.66,0.24c-1.06,0.12-2.61,0.28-4.52,0.42
		c-3.83,0.32-9.13,0.64-14.99,0.77s-11.16,0.06-15-0.07c-1.92-0.07-3.48-0.14-4.55-0.22C575.96,554.6,575.4,554.54,574.86,554.43z"
		/>
	<path class="st0" d="M416.9,576.68c22.22-13.93,28.47-41.52,28.87-66.59c0.07-4.19,0.75-8.58-1.06-12.34
		c-1.8-3.77-6.32-6.5-10.14-4.92c-3.18,1.3-4.7,4.81-6.59,7.75c-2.52,3.86-6.07,6.93-10.26,8.87c-2.73,1.2-6.01,1.92-8.62,0.35
		c-3.5-2.17-3.68-7.22-3.44-11.32l1.3-23.23c0.23-4.15,0.46-8.42-0.64-12.4c-1.09-3.98-3.77-7.82-7.66-9.12
		c-3.9-1.3-8.9,0.73-9.94,4.81c-0.24,1.71-0.37,3.44-0.38,5.17c-0.19,1.72-1.09,3.61-2.75,3.98c-1.66,0.37-3.3-0.85-4.47-2.13
		c-4.08-4.41-6.71-9.96-9.17-15.47s-4.81-11.15-8.42-15.91s-8.87-8.66-14.8-9.3c-5.93-0.64-12.46,2.72-14.25,8.49
		s1.31,11.9,4.81,16.84c5.16,7.31,11.36,13.84,18.39,19.38c1.38,0.85,2.45,2.11,3.06,3.61c0.77,2.81-2,5.44-4.81,6.21
		c-3.15,0.88-6.5,0.38-9.76,0.6s-6.83,1.48-8.22,4.47c-1.91,4.16,1.42,8.79,4.81,11.88c6.71,6.19,14.45,11.18,22.86,14.75
		c3,1.28,6.17,2.41,8.53,4.68c2.36,2.27,3.61,6.09,2.02,8.94c-1.59,2.85-5.51,3.61-8.68,2.85c-3.18-0.76-5.94-2.63-8.94-3.95
		c-5.61-2.41-12.99-2.41-16.84,2.35c-2.56,3.12-3.01,7.63-1.98,11.55c1.2,3.88,3.18,7.48,5.8,10.59
		c8.5,11.32,19.86,20.19,32.91,25.68c13.02,5.24,25.26,7.11,38.64,2.95"/>
	<path class="st1" d="M411.22,560.67c-3.48-13.84-7.75-27.47-12.79-40.83l-3.9-10.53c-1.29-3.45-2.56-6.88-4.02-10.15
		c-2.81-6.28-5.96-12.39-9.44-18.32c-3.28-5.68-6.62-10.95-9.76-15.85c-3.14-4.91-6.18-9.42-9.12-13.41
		c-4.61-6.33-9.71-12.29-15.25-17.82c-1.95-1.95-3.52-3.42-4.6-4.4l-1.2-1.11c-0.14-0.13-0.29-0.25-0.45-0.35
		c0.12,0.14,0.25,0.28,0.38,0.41l1.2,1.2c1.05,1.01,2.57,2.51,4.5,4.5c5.44,5.59,10.46,11.58,15.01,17.92
		c2.9,4.01,5.89,8.53,9.03,13.44s6.41,10.19,9.62,15.87c3.45,5.92,6.58,12.02,9.37,18.27c1.44,3.26,2.71,6.65,3.99,10.12
		c1.29,3.46,2.57,6.96,3.9,10.53c5.03,13.32,9.31,26.92,12.81,40.72"/>
	<path class="st1" d="M390.31,499.13c0.22-0.57,0.39-1.16,0.49-1.76c0.28-1.13,0.61-2.79,1.01-4.81c0.79-4.1,1.7-9.82,2.67-16.12
		c0.97-6.3,1.95-12.03,2.8-16.06c0.42-2.04,0.78-3.7,1.05-4.81c0.17-0.58,0.28-1.19,0.32-1.79c-0.27,0.55-0.48,1.12-0.61,1.72
		c-0.35,1.11-0.79,2.74-1.28,4.81c-1,4.07-2.07,9.76-3.04,16.06c-0.97,6.3-1.79,11.85-2.41,16.14c-0.3,1.95-0.57,3.61-0.77,4.9
		C390.4,497.97,390.32,498.55,390.31,499.13z"/>
	<path class="st1" d="M337.38,486.48c0.7,0.17,1.4,0.3,2.12,0.36c1.37,0.18,3.34,0.45,5.77,0.85c4.81,0.77,11.55,2.08,18.86,3.84
		c7.31,1.76,13.86,3.61,18.56,5.16c2.41,0.73,4.25,1.37,5.56,1.82c0.66,0.27,1.35,0.48,2.06,0.61c-0.63-0.35-1.28-0.65-1.96-0.9
		c-1.28-0.52-3.14-1.2-5.49-2.06c-4.67-1.64-11.21-3.61-18.55-5.39c-6.25-1.52-12.58-2.72-18.96-3.61
		c-2.41-0.34-4.45-0.52-5.82-0.61C338.82,486.46,338.1,486.43,337.38,486.48z"/>
	<path class="st1" d="M410.61,559.66c0.16-0.2,0.29-0.41,0.4-0.64c0.28-0.52,0.61-1.13,1.01-1.89c0.88-1.64,2.07-4.05,3.51-7.05
		c2.87-6.01,6.6-14.43,10.59-23.72c3.98-9.29,7.61-17.75,10.37-23.79c1.35-2.94,2.41-5.35,3.28-7.15l0.88-1.95
		c0.12-0.22,0.21-0.46,0.26-0.71c-0.16,0.19-0.29,0.41-0.4,0.64c-0.28,0.51-0.61,1.13-1.01,1.89c-0.87,1.64-2.07,4.04-3.5,7.05
		c-2.89,6.01-6.6,14.43-10.6,23.72c-3.99,9.29-7.61,17.74-10.37,23.79c-1.35,2.94-2.41,5.35-3.28,7.15l-0.88,1.95
		C410.76,559.17,410.67,559.41,410.61,559.66z"/>
	<path class="st1" d="M340.77,533.23c0.21,0.14,0.44,0.25,0.69,0.32l2.02,0.79l7.48,2.85c6.32,2.41,15,5.81,24.59,9.62
		s18.32,7.13,24.68,9.41c3.19,1.14,5.77,2.03,7.57,2.61l2.08,0.66c0.24,0.09,0.48,0.15,0.73,0.18c0,0-0.23-0.14-0.69-0.34
		l-2.03-0.78l-7.47-2.85c-6.32-2.41-15-5.82-24.6-9.62s-18.36-7.13-24.67-9.41c-3.19-1.14-5.77-2.03-7.57-2.61l-2.08-0.66
		C341.27,533.32,341.02,533.26,340.77,533.23z"/>
	<circle class="st1" cx="307.09" cy="97.84" r="6.09"/>
	<path class="st1" d="M311.76,95.71c-0.24,0.28-5.08-3.93-9.97-10.07c-4.9-6.13-8.73-11.08-8.49-11.32
		c0.24-0.24,4.68,4.35,9.53,10.47C307.67,90.9,312.01,95.43,311.76,95.71z"/>
	<path class="st1" d="M303.06,65.63c0.35,0-0.34,3.4-3.28,6.19c-2.95,2.79-6.32,3.33-6.35,2.94c-0.04-0.4,2.79-1.4,5.43-3.96
		S302.69,65.49,303.06,65.63z"/>
	<path class="st1" d="M306.73,70.77c0.36,0-0.17,3.39-3.25,5.91c-3.08,2.51-6.47,2.41-6.41,2.08c0.06-0.32,2.89-0.85,5.56-3.12
		C305.3,73.38,306.35,70.64,306.73,70.77z"/>
	<circle class="st1" cx="719.74" cy="348.21" r="6.09"/>
	<path class="st1" d="M724.47,345.24c-0.24,0.28-5.08-3.93-9.97-10.07c-4.9-6.13-8.73-11.08-8.49-11.32s4.69,4.37,9.53,10.47
		C720.37,340.42,724.73,344.97,724.47,345.24z"/>
	<path class="st1" d="M715.78,315.17c0.35,0-0.32,3.4-3.28,6.19s-6.32,3.33-6.35,2.98c-0.04-0.35,2.79-1.4,5.43-3.96
		C714.2,317.82,715.4,315.02,715.78,315.17z"/>
	<path class="st1" d="M719.45,320.3c0.36,0-0.17,3.39-3.25,5.91c-3.08,2.51-6.47,2.41-6.41,2.09c0.06-0.31,2.89-0.87,5.56-3.13
		C718.01,322.91,719.07,320.16,719.45,320.3z"/>
	<path class="st1" d="M709.33,85.06c-2.81,1.84-6.58,1.06-8.43-1.75c-1.84-2.81-1.06-6.58,1.75-8.43c2.81-1.84,6.58-1.06,8.43,1.75
		c0,0,0,0.01,0,0.01c1.84,2.8,1.06,6.57-1.74,8.41C709.34,85.06,709.33,85.06,709.33,85.06z"/>
	<path class="st1" d="M710.54,83.19c-0.35-0.12,1.7-6.19,5.49-13.06s6.9-12.32,7.22-12.17c0.31,0.14-2.24,6.01-6.01,12.81
		C713.46,77.56,710.89,83.34,710.54,83.19z"/>
	<path class="st1" d="M735.01,63.66c0.08,0.35-3.28,1-6.99-0.66c-3.7-1.66-5.5-4.56-5.2-4.72s2.41,2.03,5.74,3.49
		S734.99,63.28,735.01,63.66z"/>
	<path class="st1" d="M731.66,69.03c0.13,0.34-3.19,1.13-6.7-0.75s-4.73-5.04-4.38-5.12c0.35-0.08,1.9,2.33,5.02,3.93
		C728.71,68.69,731.63,68.63,731.66,69.03z"/>
	<path class="st1" d="M287.88,256.03c-3.06,2.36-7.46,1.79-9.82-1.28c-2.36-3.06-1.79-7.46,1.28-9.82c3.06-2.36,7.46-1.79,9.82,1.28
		c0,0,0.01,0.01,0.01,0.01C291.52,249.29,290.94,253.68,287.88,256.03C287.88,256.03,287.88,256.03,287.88,256.03z"/>
	<path class="st1" d="M289.11,253.81c-0.65-0.17,1-7.41,4.81-15.64c3.81-8.23,7.02-14.59,7.61-14.43c0.59,0.16-1.65,7.22-5.4,15.36
		C292.38,247.24,289.74,254,289.11,253.81z"/>
	<path class="st1" d="M319.92,236.98c0,0.57-5.82,0.78-11.92-2.8c-2.64-1.48-4.82-3.65-6.3-6.29c-1.09-2.09-0.93-3.61-0.64-3.68
		c0.29-0.07,0.79,1.2,2.09,2.77c1.71,2.06,3.77,3.79,6.09,5.12C314.7,235.33,320.06,236.23,319.92,236.98z"/>
	<path class="st1" d="M306.29,269.19c-3.07,2.35-7.45,1.76-9.8-1.3c-2.35-3.07-1.76-7.45,1.3-9.8c3.06-2.34,7.45-1.76,9.79,1.3
		c2.35,3.04,1.79,7.42-1.25,9.77C306.32,269.17,306.31,269.18,306.29,269.19z"/>
	<path class="st1" d="M307.53,266.98c-0.66-0.18,1-7.41,4.81-15.64s7.02-14.58,7.61-14.43c0.59,0.14-1.65,7.22-5.4,15.37
		C310.81,260.43,308.15,267.16,307.53,266.98z"/>
	<path class="st1" d="M318.14,241.4c0.07,0.63-5.49,1.2-11.32-1.96c-5.83-3.16-8.42-8.06-7.89-8.34c0.53-0.28,3.77,3.43,9.05,6.19
		C313.26,240.07,318.17,240.69,318.14,241.4z"/>
	<path class="st0" d="M748.82,178.48c-0.81,3.62-4.4,5.9-8.01,5.09s-5.9-4.4-5.09-8.01c0.81-3.62,4.4-5.9,8.01-5.09
		c0,0,0.01,0,0.01,0C747.36,171.28,749.63,174.87,748.82,178.48z"/>
	<path class="st0" d="M748.41,176.09c-0.58,0.28-3.81-6.01-6.09-14.43c-2.27-8.42-3.79-15.05-3.22-15.25
		c0.57-0.2,3.24,6.34,5.46,14.62C746.79,169.29,748.94,175.81,748.41,176.09z"/>
	<path class="st0" d="M760.68,144.76c0.36,0.41-3.8,4.15-10.49,5.26c-2.85,0.55-5.79,0.29-8.5-0.75c-2.09-0.87-2.94-2.12-2.73-2.31
		s1.31,0.38,3.24,0.75c2.52,0.45,5.1,0.45,7.63,0C755.82,146.76,760.31,144.14,760.68,144.76z"/>
	<path class="st0" d="M770.46,176.83c-0.81,3.61-4.39,5.89-8,5.08c-3.61-0.81-5.89-4.39-5.08-8c0.81-3.61,4.39-5.89,8-5.08
		c0,0,0,0,0,0C769,169.64,771.27,173.22,770.46,176.83z"/>
	<path class="st0" d="M770.06,174.44c-0.59,0.28-3.83-6.01-6.09-14.43c-2.26-8.42-3.8-15.05-3.24-15.25
		c0.57-0.2,3.25,6.34,5.47,14.63C768.44,167.67,770.58,174.19,770.06,174.44z"/>
	<path class="st0" d="M762.09,149.12c0.45,0.41-3.3,4.25-9.53,5.51c-6.23,1.26-11.18-0.72-10.93-1.28s4.88,0.2,10.47-1.01
		C757.67,151.13,761.64,148.58,762.09,149.12z"/>
	<path class="st2" d="M263.81,167.74c-0.5,2.43-2.88,4-5.32,3.5c-2.43-0.5-4-2.88-3.5-5.32c0.5-2.43,2.88-4,5.31-3.5
		c2.43,0.49,4,2.86,3.51,5.29C263.81,167.72,263.81,167.73,263.81,167.74z"/>
	<path class="st2" d="M263.47,166.19c-0.4,0.19-2.62-4.03-4.23-9.62c-1.61-5.59-2.71-10.08-2.33-10.22
		c0.37-0.14,2.25,4.23,3.83,9.78C262.3,161.66,263.86,165.96,263.47,166.19z"/>
	<path class="st2" d="M271.43,144.97c0.24,0.28-2.51,2.84-7,3.61c-1.91,0.39-3.89,0.25-5.71-0.42c-1.42-0.55-1.98-1.4-1.85-1.53
		s0.88,0.25,2.18,0.47c1.69,0.31,3.43,0.31,5.12,0C268.2,146.36,271.18,144.53,271.43,144.97z"/>
	<path class="st2" d="M278.33,166.41c-0.5,2.43-2.88,4-5.32,3.49c-2.43-0.5-4-2.88-3.49-5.32c0.5-2.43,2.88-4,5.32-3.49c0,0,0,0,0,0
		C277.27,161.6,278.83,163.98,278.33,166.41z"/>
	<path class="st2" d="M278,164.81c-0.4,0.19-2.63-4.03-4.25-9.62c-1.61-5.59-2.69-10.07-2.32-10.22c0.37-0.16,2.25,4.23,3.83,9.78
		C276.84,160.29,278.39,164.63,278,164.81z"/>
	<path class="st2" d="M272.42,147.88c0.31,0.28-2.17,2.89-6.34,3.8s-7.52-0.37-7.36-0.75c0.16-0.37,3.28,0.08,7.02-0.78
		C269.49,149.29,272.14,147.52,272.42,147.88z"/>
	<path class="st2" d="M731.72,247.12c-2.26,1.04-4.93,0.06-5.97-2.2c-1.04-2.26-0.06-4.93,2.2-5.97c2.24-1.03,4.89-0.07,5.95,2.15
		c1.07,2.24,0.11,4.93-2.13,5.99C731.75,247.1,731.73,247.11,731.72,247.12z"/>
	<path class="st2" d="M732.77,245.89c-0.38-0.2,1.67-4.52,5.18-9.15c3.51-4.63,6.45-8.19,6.8-7.99c0.35,0.2-2.04,4.33-5.55,8.91
		S733.18,246.1,732.77,245.89z"/>
	<path class="st2" d="M754.54,239.56c-0.07,0.36-3.78-0.32-7.11-3.43c-1.45-1.29-2.52-2.96-3.09-4.81c-0.4-1.48-0.07-2.41,0.11-2.41
		s0.34,0.85,0.94,2.03c0.78,1.53,1.84,2.91,3.12,4.07C751.47,237.83,754.72,239.14,754.54,239.56z"/>
	<circle class="st2" cx="739.57" cy="253.88" r="4.5"/>
	<path class="st2" d="M742.55,256.73c-0.38-0.19,1.66-4.51,5.18-9.15c3.52-4.64,6.45-8.19,6.8-7.98c0.35,0.22-2.04,4.33-5.55,8.91
		S742.94,256.93,742.55,256.73z"/>
	<path class="st2" d="M752.79,242.14c0,0.41-3.61,0-6.84-2.81s-4.2-6.24-3.8-6.34c0.4-0.1,1.89,2.68,4.81,5.16
		C749.88,240.62,752.91,241.69,752.79,242.14z"/>
	<path class="st3" d="M664.21,503.59c3.34,1.59,5.89,4.48,7.05,7.99c1.13,3.49,1.46,7.19,0.94,10.83
		c-0.79,7.02-4.81,14.11-9.08,19.73c-5.92-5.16-7.28-14.17-7.69-18.78C654.79,516.06,658.07,502.5,664.21,503.59"/>
	<path class="st3" d="M669.96,553.73c-0.82-4.08,0.61-8.29,3.75-11.03c3.16-2.66,7.26-3.94,11.37-3.55
		c1.89,0.14,3.92,0.69,4.99,2.24c0.94,1.54,0.97,3.46,0.08,5.03c-0.9,1.53-2.18,2.8-3.73,3.68c-5.12,3.21-10.68,5.38-16.47,3.61"/>
	<path class="st4" d="M662.37,575.27c0.03-0.49,0.1-0.97,0.2-1.44c0.19-1.02,0.43-2.33,0.72-3.91c0.66-4.34,2.02-8.55,4.03-12.46
		c2.08-3.91,5.17-7.19,8.94-9.5c1.14-0.67,2.35-1.21,3.61-1.61c0.45-0.14,0.82-0.2,1.06-0.26c0.24-0.06,0.36-0.07,0.37,0
		c-1.7,0.57-3.34,1.32-4.88,2.24c-3.65,2.36-6.64,5.61-8.69,9.44c-1.98,3.87-3.37,8.01-4.13,12.28c-0.35,1.64-0.65,2.96-0.87,3.87
		C662.66,574.38,662.53,574.83,662.37,575.27z"/>
	<path class="st4" d="M662.58,514.13c0.05,0.21,0.08,0.42,0.07,0.64c0,0.47,0.04,1.07,0.11,1.8c0.08,1.58,0.18,3.85,0.28,6.66
		c0.18,5.63,0.32,13.41,0.29,22.01c-0.04,8.6-0.25,16.37-0.48,22c-0.12,2.81-0.23,5.09-0.32,6.65c-0.06,0.75-0.1,1.35-0.13,1.82
		c0,0.21-0.03,0.42-0.07,0.63c-0.02-0.21-0.02-0.42,0-0.63c0-0.47,0-1.07,0-1.82c0-1.64,0.1-3.9,0.17-6.66
		c0.13-5.63,0.29-13.4,0.32-22c0.04-8.6,0-16.36-0.14-21.99c0-2.77-0.07-5.03-0.1-6.66c0-0.75,0-1.35,0-1.82
		C662.56,514.55,662.56,514.34,662.58,514.13z"/>
	<path class="st3" d="M659.72,558c-1.45-8.64-6.98-16.05-14.84-19.9c-1.97-0.95-4.56-1.56-6.18-0.1s-1.26,4.11-0.46,6.16
		c3.54,8.68,11.96,14.38,21.34,14.43"/>
	<path class="st4" d="M645.84,544.77c0.42,0.14,0.82,0.32,1.2,0.54c0.49,0.22,0.96,0.47,1.42,0.76c0.54,0.34,1.2,0.66,1.8,1.13
		c0.72,0.48,1.41,1,2.07,1.56c0.79,0.62,1.54,1.29,2.25,2c1.59,1.62,2.99,3.42,4.17,5.36c1.16,1.96,2.08,4.05,2.75,6.22
		c0.28,0.95,0.52,1.91,0.7,2.89c0.17,0.85,0.29,1.7,0.35,2.56c0.11,0.79,0.07,1.5,0.11,2.14c0.03,0.53,0.03,1.07,0,1.6
		c-0.01,0.46-0.06,0.91-0.16,1.36c-0.12,0,0.08-1.95-0.26-5.05c-0.09-0.85-0.22-1.69-0.41-2.53c-0.19-0.95-0.43-1.9-0.72-2.83
		c-1.35-4.28-3.69-8.19-6.82-11.4c-0.68-0.7-1.39-1.37-2.14-2c-0.64-0.57-1.3-1.1-2-1.59C647.57,545.68,645.79,544.86,645.84,544.77
		z"/>
	<path class="st3" d="M648.46,223.07c-1.68-4.37-4.52-10.47-7.82-13.8c-2.8-2.72-6.91-3.59-10.57-2.24
		c-1.38,0.6-2.39,1.81-2.73,3.27c-0.95,3.5-5.38,7.22-8.42,8.76c-3.49,1.76-7.47,2.83-10.21,5.62c-7.94,8.08,0,23.6-7.29,32.3
		c-4.19,4.99-11.64,5.46-18.14,4.94c-8.07-0.65-16.9-2.07-23.05,4.81c-3.19,3.67-4.66,8.53-4.03,13.35
		c1.2,10.83,9.97,18.15,19.45,22.09c20.98,8.7,46.99,1.86,62.05-15.14C652.76,270.02,656.59,244.28,648.46,223.07z"/>
	<g class="st5">
		<path class="st6" d="M648.46,223.07c-1.68-4.37-4.52-10.47-7.82-13.8c-2.8-2.72-6.91-3.59-10.57-2.24
			c-1.38,0.6-2.39,1.81-2.73,3.27c-0.95,3.5-5.38,7.22-8.42,8.76c-3.49,1.76-7.47,2.83-10.21,5.62c-7.94,8.08,0,23.6-7.29,32.3
			c-4.19,4.99-11.64,5.46-18.14,4.94c-8.07-0.65-16.9-2.07-23.05,4.81c-3.19,3.67-4.66,8.53-4.03,13.35
			c1.2,10.83,9.97,18.15,19.45,22.09c20.98,8.7,46.99,1.86,62.05-15.14C652.76,270.02,656.59,244.28,648.46,223.07z"/>
	</g>
	<path class="st3" d="M632.49,96.87c-10.31-4.09-22.55-3.61-31.4-10.26c-5.06-3.84-8.28-9.55-11.82-14.83
		c-3.55-5.28-7.92-10.5-13.98-12.43c-2.81-0.84-5.81-0.75-8.56,0.25c-3.89,1.5-5.84,5.87-4.34,9.76c0.23,0.61,0.55,1.19,0.93,1.72
		c3.09,4.33,7.15,10.96,6.83,16.5c-0.49,8.42-2.59,17.74,2,24.88c6.01,9.39,20,9.54,28.41,16.84c15.26,13.38,5.63,43.3,22.25,54.89
		c9.92,6.95,24.77,2.41,32.05-7.33c7.28-9.73,8.4-22.71,6.95-34.74C659.52,123.4,650.03,103.85,632.49,96.87z"/>
	<g class="st5">
		<path class="st6" d="M632.49,96.87c-10.31-4.09-22.55-3.61-31.4-10.26c-5.06-3.84-8.28-9.55-11.82-14.83
			c-3.55-5.28-7.92-10.5-13.98-12.43c-2.81-0.84-5.81-0.75-8.56,0.25c-3.89,1.5-5.84,5.87-4.34,9.76c0.23,0.61,0.55,1.19,0.93,1.72
			c3.09,4.33,7.15,10.96,6.83,16.5c-0.49,8.42-2.59,17.74,2,24.88c6.01,9.39,20,9.54,28.41,16.84c15.26,13.38,5.63,43.3,22.25,54.89
			c9.92,6.95,24.77,2.41,32.05-7.33c7.28-9.73,8.4-22.71,6.95-34.74C659.52,123.4,650.03,103.85,632.49,96.87z"/>
	</g>
	<path class="st3" d="M376.05,187.77c-7.09-7.87-14.69-18.14-10.93-28.04c2.29-6.01,8.32-10.02,10.36-16.11
		c4.33-12.88-11.22-25.79-8.05-39.02c2.27-9.53,12.88-14.07,19.52-21.27c6.24-6.77,8.97-16.06,14.43-23.44
		c7.22-9.73,19.62-15.64,31.68-14.34s23.18,10.18,26.39,21.87s-2.15,25.39-12.98,31.11c-8.72,4.62-19.17,3.8-28.87,5.28
		c-9.7,1.48-20.57,7.13-21.65,16.94c-1.03,9.62,7.77,19.51,3.34,28.06c-2.41,4.73-8,6.75-12.9,8.87
		c-4.9,2.12-10.16,5.56-10.62,10.83c-0.29,3.32,1.44,6.45,2.41,9.62c0.96,3.18,0.73,7.35-2.17,9.01"/>
	<g class="st5">
		<path class="st6" d="M376.05,187.77c-7.09-7.87-14.69-18.14-10.93-28.04c2.29-6.01,8.32-10.02,10.36-16.11
			c4.33-12.88-11.22-25.79-8.05-39.02c2.27-9.53,12.88-14.07,19.52-21.27c6.24-6.77,8.97-16.06,14.43-23.44
			c7.22-9.73,19.62-15.64,31.68-14.34s23.18,10.18,26.39,21.87s-2.15,25.39-12.98,31.11c-8.72,4.62-19.17,3.8-28.87,5.28
			c-9.7,1.48-20.57,7.13-21.65,16.94c-1.03,9.62,7.77,19.51,3.34,28.06c-2.41,4.73-8,6.75-12.9,8.87
			c-4.9,2.12-10.16,5.56-10.62,10.83c-0.29,3.32,1.44,6.45,2.41,9.62c0.96,3.18,0.73,7.35-2.17,9.01"/>
	</g>
	<path class="st3" d="M518.34,33.3c-9.31-1.84-19.62,4.43-22.25,13.6c-2.63,9.18,2.57,19.91,11.37,23.64
		c9.21,3.58,19.66,0.26,25.13-7.96c3.03-4.81,2.88-12.32,0.46-17.44C530.63,40.01,525.38,32.96,518.34,33.3"/>
	<g class="st5">
		<path class="st6" d="M518.34,33.3c-9.31-1.84-19.62,4.43-22.25,13.6c-2.63,9.18,2.57,19.91,11.37,23.64
			c9.21,3.58,19.66,0.26,25.13-7.96c3.03-4.81,2.88-12.32,0.46-17.44C530.63,40.01,525.38,32.96,518.34,33.3"/>
	</g>
	<path class="st4" d="M469.22,45c0.82,2.53-0.56,5.24-3.08,6.07c-2.53,0.82-5.24-0.56-6.07-3.08c-0.82-2.52,0.55-5.24,3.07-6.06
		C465.67,41.1,468.39,42.47,469.22,45C469.22,45,469.22,45,469.22,45z"/>
	<path class="st4" d="M468.05,43.69c-0.16,0.25-4.39-2.56-8.85-6.88s-8-7.79-7.83-8c0.17-0.2,4.13,2.94,8.55,7.22
		C464.35,40.31,468.22,43.49,468.05,43.69z"/>
	<path class="st4" d="M458.15,20.98c0.28,0,0.08,2.71-1.95,5.21c-2.03,2.5-4.62,3.26-4.68,3c-0.06-0.26,2.04-1.4,3.85-3.67
		C457.18,23.24,457.84,20.91,458.15,20.98z"/>
	<path class="st4" d="M461.55,24.64c0.28,0,0.2,2.68-1.95,4.97s-4.81,2.59-4.81,2.3s2.17-0.97,4.03-3.02
		C460.69,26.84,461.24,24.58,461.55,24.64z"/>
	<path class="st4" d="M544.77,101.81c-1.67,2.07-4.7,2.39-6.77,0.73c-2.07-1.67-2.39-4.7-0.73-6.77c1.67-2.07,4.69-2.39,6.76-0.73
		C546.11,96.7,546.44,99.73,544.77,101.81C544.78,101.8,544.77,101.8,544.77,101.81z"/>
	<path class="st4" d="M545.24,100.11c-0.3,0-0.24-5.08,0.95-11.18s2.19-10.95,2.41-10.92c0.22,0.02-0.23,5.06-1.42,11.11
		S545.53,100.12,545.24,100.11z"/>
	<path class="st4" d="M558.89,79.43c0.14,0.24-2.23,1.55-5.43,1.2s-5.24-2.09-5.05-2.29c0.19-0.19,2.27,0.96,5.16,1.2
		C556.46,79.79,558.79,79.14,558.89,79.43z"/>
	<path class="st4" d="M557.68,84.28c0.18,0.23-2.13,1.64-5.22,1.08s-4.81-2.65-4.56-2.79c0.25-0.14,2.01,1.29,4.74,1.74
		S557.57,83.99,557.68,84.28z"/>
	<path class="st4" d="M361.69,311.8c0.72,1.98-0.3,4.18-2.28,4.9c-1.98,0.72-4.18-0.3-4.9-2.28c-0.72-1.98,0.3-4.18,2.28-4.9
		c0,0,0.01,0,0.01,0c1.98-0.72,4.17,0.29,4.89,2.27C361.69,311.79,361.69,311.79,361.69,311.8z"/>
	<path class="st4" d="M360.74,310.79c-0.13,0.2-3.61-1.92-7.22-5.24c-3.61-3.32-6.52-6.01-6.4-6.16c0.12-0.14,3.34,2.24,6.96,5.53
		C357.71,308.21,360.86,310.6,360.74,310.79z"/>
	<path class="st4" d="M352.32,293.02c0.22,0,0.13,2.14-1.41,4.16c-1.54,2.02-3.61,2.71-3.61,2.49s1.59-1.14,2.97-3
		C351.66,294.83,352.08,292.97,352.32,293.02z"/>
	<path class="st4" d="M355.06,295.84c0.23,0,0.23,2.12-1.42,3.98c-1.65,1.86-3.77,2.17-3.77,1.95c0-0.22,1.7-0.83,3.13-2.5
		C354.44,297.59,354.87,295.79,355.06,295.84z"/>
	<path class="st4" d="M629.89,70.43c1.64,2,4.6,2.29,6.6,0.65c2-1.64,2.29-4.6,0.65-6.6c-1.64-2-4.6-2.29-6.6-0.65
		C628.54,65.47,628.24,68.43,629.89,70.43C629.89,70.43,629.89,70.43,629.89,70.43z"/>
	<path class="st4" d="M629.43,68.75c0.45,0,0.47-4.99-0.75-10.93s-2.41-10.6-2.8-10.55c-0.4,0.05,0,4.99,1.2,10.83
		C628.29,63.93,628.98,68.81,629.43,68.75z"/>
	<path class="st4" d="M611.85,53.11c-0.1,0.37,3.69,1.4,8.22,0c1.95-0.57,3.7-1.66,5.08-3.15c1.03-1.2,1.2-2.25,0.97-2.31
		c-0.23-0.06-0.7,0.65-1.78,1.49c-1.45,1.08-3.08,1.9-4.81,2.41C615.51,52.82,611.88,52.6,611.85,53.11z"/>
	<path class="st4" d="M615.85,76.23c1.64,2,4.6,2.29,6.6,0.65c2-1.64,2.29-4.6,0.65-6.6c-1.64-2-4.6-2.29-6.6-0.65
		C614.5,71.28,614.21,74.23,615.85,76.23z"/>
	<path class="st4" d="M615.38,74.6c0.46,0,0.47-5-0.75-10.93s-2.41-10.61-2.79-10.56s0,4.99,1.2,10.83
		C614.25,69.76,614.89,74.61,615.38,74.6z"/>
	<path class="st4" d="M612.34,56.26c-0.14,0.41,3.4,1.62,7.69,0.45c4.28-1.18,6.76-3.98,6.44-4.25s-2.98,1.66-6.86,2.67
		S612.48,55.8,612.34,56.26z"/>
	<path class="st4" d="M423.88,131.1c-1.66,0.99-3.81,0.45-4.8-1.21c-0.99-1.66-0.45-3.81,1.21-4.8c1.66-0.99,3.8-0.45,4.79,1.2
		c1,1.66,0.46,3.81-1.19,4.8C423.89,131.09,423.88,131.09,423.88,131.1z"/>
	<path class="st4" d="M424.61,130.1c-0.31-0.12,0.91-3.61,3.25-7.48c2.33-3.87,4.32-6.84,4.61-6.71c0.29,0.13-1.2,3.51-3.61,7.33
		S424.91,130.2,424.61,130.1z"/>
	<path class="st4" d="M440.86,123.45c0,0.29-2.94,0-5.75-2.07c-1.24-0.87-2.2-2.08-2.78-3.48c-0.43-1.11-0.25-1.86-0.11-1.86
		c0.14,0,0.32,0.64,0.88,1.49c0.73,1.12,1.66,2.1,2.74,2.89C438.36,122.34,440.97,123.09,440.86,123.45z"/>
	<path class="st4" d="M432.28,138.68c-1.66,0.98-3.8,0.44-4.78-1.22c-0.98-1.66-0.44-3.8,1.22-4.78c1.64-0.97,3.77-0.44,4.76,1.19
		c1,1.65,0.48,3.79-1.17,4.79C432.3,138.66,432.29,138.67,432.28,138.68z"/>
	<path class="st4" d="M433.02,137.64c-0.31-0.12,0.91-3.61,3.25-7.48c2.33-3.87,4.32-6.84,4.61-6.71c0.29,0.13-1.2,3.51-3.61,7.33
		C434.86,134.59,433.32,137.77,433.02,137.64z"/>
	<path class="st4" d="M439.73,125.55c0,0.31-2.79,0.28-5.51-1.62c-2.72-1.9-3.74-4.47-3.45-4.58c0.29-0.11,1.68,1.91,4.15,3.61
		S439.79,125.19,439.73,125.55z"/>
	<path class="st4" d="M339.12,153.35c-0.29,1.3-1.58,2.11-2.88,1.82c-1.3-0.29-2.11-1.58-1.82-2.88c0.29-1.3,1.58-2.11,2.88-1.82
		c0,0,0.01,0,0.01,0C338.61,150.77,339.41,152.06,339.12,153.35z"/>
	<path class="st4" d="M338.97,152.5c-0.22,0.1-1.36-2.18-2.15-5.17c-0.79-3-1.32-5.38-1.13-5.45c0.19-0.07,1.2,2.27,1.94,5.23
		C338.35,150.07,339.17,152.4,338.97,152.5z"/>
	<path class="st4" d="M343.43,141.32c0.12,0.14-1.37,1.48-3.77,1.86c-1.02,0.19-2.07,0.09-3.03-0.29c-0.75-0.31-1.05-0.76-0.97-0.83
		c0.07-0.07,0.47,0.14,1.2,0.28c0.9,0.16,1.83,0.16,2.73,0C341.68,142.03,343.3,141.09,343.43,141.32z"/>
	<path class="st4" d="M346.86,152.81c-0.29,1.3-1.58,2.11-2.88,1.81c-1.3-0.29-2.11-1.58-1.81-2.88c0.29-1.3,1.58-2.11,2.88-1.81
		c0.01,0,0.01,0,0.02,0C346.35,150.24,347.15,151.52,346.86,152.81z"/>
	<path class="st4" d="M346.7,151.94c-0.2,0.11-1.35-2.17-2.15-5.16s-1.32-5.39-1.12-5.46s1.2,2.27,1.92,5.24
		S346.91,151.86,346.7,151.94z"/>
	<path class="st4" d="M343.92,142.89c0.16,0.14-1.2,1.5-3.42,1.95s-3.99-0.28-3.91-0.48c0.08-0.2,1.74,0.08,3.74-0.34
		C342.33,143.6,343.78,142.68,343.92,142.89z"/>
	<path class="st4" d="M651.24,306.93c-0.81,0.5-1.88,0.25-2.38-0.57c-0.5-0.81-0.25-1.88,0.57-2.38c0.81-0.5,1.86-0.25,2.37,0.54
		c0.51,0.81,0.28,1.88-0.53,2.39C651.26,306.92,651.25,306.92,651.24,306.93z"/>
	<path class="st4" d="M651.59,306.39c0.26-1.33,0.79-2.6,1.56-3.72c0.6-1.2,1.35-2.33,2.24-3.34c-0.37,1.29-0.95,2.51-1.72,3.61
		C653.09,304.15,652.39,305.3,651.59,306.39z"/>
	<path class="st4" d="M659.59,303.02c-1.05,0.05-2.07-0.3-2.86-0.99c-0.61-0.43-1.09-1.02-1.38-1.71c-0.23-0.54-0.14-0.93-0.07-0.91
		c0.07,0.01,0.17,0.31,0.45,0.72c0.37,0.55,0.83,1.03,1.37,1.42C658.35,302.48,659.64,302.84,659.59,303.02z"/>
	<path class="st4" d="M655.44,310.61c-0.83,0.47-1.89,0.18-2.36-0.65c-0.45-0.79-0.21-1.79,0.54-2.29c0.83-0.47,1.89-0.18,2.36,0.65
		C656.43,309.1,656.19,310.1,655.44,310.61z"/>
	<path class="st4" d="M655.79,310.09c0.26-1.34,0.79-2.61,1.56-3.73c0.6-1.2,1.35-2.32,2.23-3.34c-0.35,1.29-0.93,2.52-1.71,3.61
		C657.28,307.84,656.58,309,655.79,310.09z"/>
	<path class="st4" d="M659.05,304.06c-0.98,0.15-1.98-0.13-2.74-0.77c-1.36-0.91-1.88-2.19-1.73-2.25c0.14-0.06,0.84,0.94,2.07,1.76
		C657.87,303.62,659.07,303.88,659.05,304.06z"/>
	<path class="st7" d="M673.29,166.32l-2.18-33.97l6.01-8.79l11.97-14.11c0,0,2.49-0.58,1.35,4.28s-7.55,13.59-7.55,13.59l7.29-5.91
		l3.95-0.16l6.36,11.74c0,0-4.05,1.94-6.26,0.3l-2.79,4.34l4.17-0.41l5.14,2.17l-2.41,6.24l-2.65,7.05c0,0-0.24,14.33-3.07,16.14
		l-2.81,1.82L673.29,166.32z"/>
	<path class="st7" d="M532,225.55c0,0,31.47-5.67,33.85-5.36c2.38,0.3,31.82,12.15,34.63,13.23s47.89,7.93,47.89,7.93l25.37-76.36
		l20.59,0.52c0,0-12.25,76.47-16.16,87.3c-3.91,10.83-4.4,18.04-8.67,20.18s-16.44,5.04-27.97,4.33
		c-11.52-0.71-59.12-10.66-59.12-10.66L532,225.55z"/>
	<path class="st8" d="M698.4,128.9c0,0,0,0.29-0.2,0.7c-0.38,0.58-0.98,0.99-1.66,1.12c-1.03,0.16-2.08-0.13-2.88-0.81
		c-0.94-0.79-1.7-1.77-2.25-2.87l0.48,0.07c-0.24,0.22-0.48,0.45-0.72,0.69c-1.92,1.98-3.61,3.87-4.88,5.17
		c-0.64,0.76-1.39,1.42-2.23,1.95c0.59-0.79,1.22-1.54,1.9-2.25c1.2-1.37,2.81-3.3,4.81-5.32l0.75-0.71l0.29-0.25l0.19,0.34
		c0.5,1.04,1.2,1.97,2.04,2.75c0.68,0.6,1.57,0.89,2.47,0.82c0.6-0.08,1.15-0.37,1.55-0.83C698.29,129.16,698.35,128.9,698.4,128.9z
		"/>
	<path class="st8" d="M693.36,141.95c0-0.1,0.65-0.41,1.73-0.79l0.51-0.18l-0.2,0.53c-0.37,0.81-0.59,1.68-0.65,2.56
		c-0.06,1,0.48,1.94,1.37,2.41c0.7,0.35,1.2,0.13,1.2,0.23s-0.48,0.48-1.42,0.18c-0.52-0.18-0.97-0.52-1.29-0.96
		c-0.38-0.56-0.57-1.23-0.54-1.9c0.06-0.97,0.34-1.92,0.82-2.77l0.3,0.35C694.6,141.82,693.98,141.94,693.36,141.95z"/>
	<path class="st8" d="M686.02,162.96c-0.06,0,0.3-0.79,0.63-2.27c0.45-2.09,0.45-4.24,0-6.33c-0.3-1.43-0.81-2.81-1.52-4.09
		c-0.84-1.46-1.9-2.78-3.14-3.91c-1.46-1.25-2.69-2.76-3.61-4.45c-0.85-1.85-0.97-3.96-1.76-5.79c-0.69-1.59-2.09-3.01-3.7-2.92
		l0.29-0.34c0.52,6.96,0.97,13.1,1.31,17.6c0.13,2.13,0.24,3.89,0.32,5.2c0.05,0.62,0.05,1.25,0,1.88
		c-0.14-0.61-0.22-1.24-0.25-1.86c-0.13-1.31-0.3-3.04-0.52-5.17c-0.38-4.5-0.91-10.62-1.52-17.57v-0.31h0.31
		c0.98-0.03,1.92,0.32,2.65,0.97c0.72,0.63,1.28,1.42,1.66,2.3c0.85,2.01,0.95,4.08,1.76,5.8c0.89,1.62,2.06,3.08,3.45,4.29
		c1.27,1.18,2.34,2.55,3.19,4.07c0.7,1.33,1.21,2.76,1.49,4.23c0.42,2.15,0.35,4.36-0.2,6.47c-0.14,0.57-0.33,1.13-0.57,1.67
		C686.23,162.61,686.14,162.8,686.02,162.96z"/>
	<path class="st8" d="M694.28,132.65c-0.42,1.11-1.04,2.13-1.82,3.02c-1.14,1.55-2.18,2.74-2.32,2.63
		C691.18,136.19,692.58,134.27,694.28,132.65z"/>
	<polygon class="st7" points="570.92,438.09 561.85,576.1 504.23,576.1 495.5,483.72 	"/>
	<path class="st7" d="M420.43,415.81c-5.9,22.32-8.07,45.46-6.42,68.48c1.92,24.25,15.18,91.81,15.18,91.81h54.79l11.01-88.74
		l-69.91-34.45L420.43,415.81z"/>
	<path class="st4" d="M487.18,235.62c1.2-9.62-8.13-32.11-10.9-41.38c-3.93,2.98-8.89,4.28-13.77,3.61
		c-1.02,8.2-2.04,16.41-3.08,24.62c-0.29,2.41-3.02,17.3-4.7,19.01"/>
	<path class="st3" d="M461.07,167.2c-0.14-1.11-2.29-4.53-0.83-10.26c1.85-7.22,3.61-14.11,8.62-19.63
		c5.02-5.52,8.34-9.48,13.85-12.22c3.06-1.51,6.39-2.4,9.79-2.62c0.41-1.52,1.24-2.89,2.41-3.95c-8.05-1.21-16.25,0.88-22.75,5.8
		c-9.95,7.35-18.98,18.86-21.53,32.85c-1.08,6.54-0.24,13.25,2.41,19.33L461.07,167.2z"/>
	<path class="st9" d="M563.04,387.89l-113.96-21.84c0,0-22.05,14.83-33.53,62.46c-5.03,20.87-0.14,93.08-0.14,93.08l153.26,1.96
		C568.67,523.55,576.97,406.61,563.04,387.89z"/>
	<path class="st2" d="M516.25,417.03c-0.67-1.14-2.08-1.62-3.31-1.12c-1.97,0.31-3.69,1.52-4.66,3.27c-0.9,1.83-0.3,4.04,1.41,5.16
		c1.24,0.59,2.7,0.5,3.86-0.24c1.14-0.75,2.02-1.82,2.53-3.08C516.74,419.79,516.8,418.32,516.25,417.03z"/>
	<path class="st2" d="M515.14,444.19c-0.66-1.15-2.07-1.63-3.3-1.12c-1.98,0.31-3.69,1.52-4.66,3.27c-0.91,1.83-0.31,4.05,1.41,5.16
		c1.24,0.59,2.69,0.5,3.85-0.24c1.14-0.74,2.02-1.82,2.53-3.08C515.65,446.95,515.71,445.48,515.14,444.19z"/>
	<path class="st2" d="M512.56,472.82c-0.68-1.14-2.08-1.61-3.31-1.12c-1.97,0.32-3.68,1.53-4.64,3.27
		c-1.07,1.72-0.55,3.98,1.17,5.06c1.26,0.79,2.88,0.74,4.09-0.14c1.14-0.74,2.02-1.82,2.53-3.08
		C513.05,475.58,513.12,474.11,512.56,472.82z"/>
	<path class="st2" d="M509.72,500.49c-0.68-1.14-2.08-1.61-3.31-1.12c-1.95,0.34-3.64,1.54-4.6,3.27c-0.9,1.83-0.3,4.04,1.41,5.16
		c1.24,0.6,2.7,0.51,3.86-0.23c1.13-0.75,2.01-1.82,2.53-3.08C510.25,503.24,510.29,501.77,509.72,500.49z"/>
	<path class="st4" d="M501.11,415.02c-0.2-1-0.2-2.02,0-3.02c-0.02-1.02,0.17-2.03,0.57-2.97c0.2,1,0.2,2.02,0,3.02
		C501.7,413.07,501.51,414.08,501.11,415.02z"/>
	<path class="st4" d="M500.1,427.01c-0.2-1-0.2-2.03,0-3.03c-0.01-1.01,0.18-2.02,0.57-2.96c0.21,1,0.21,2.02,0,3.02
		C500.67,425.06,500.48,426.07,500.1,427.01z"/>
	<path class="st4" d="M499.09,438.99c-0.21-1-0.21-2.02,0-3.02c-0.01-1.02,0.18-2.03,0.57-2.97c0.25,2.02,0.08,4.07-0.51,6.01
		L499.09,438.99z"/>
	<path class="st4" d="M498.06,450.99c-0.2-1-0.2-2.03,0-3.03c-0.02-1.02,0.17-2.03,0.57-2.97c0.2,1,0.2,2.03,0,3.03
		C498.65,449.04,498.46,450.05,498.06,450.99z"/>
	<path class="st4" d="M497,462.97c-0.25-2.02-0.08-4.07,0.51-6.01c0.21,1,0.21,2.02,0,3.02C497.55,461,497.38,462.02,497,462.97z"/>
	<path class="st4" d="M496.04,474.96c-0.21-1-0.21-2.03,0-3.03c-0.01-1.02,0.18-2.03,0.57-2.97c0.21,1,0.21,2.03,0,3.03
		C496.62,473.01,496.42,474.02,496.04,474.96z"/>
	<path class="st4" d="M495.03,486.94c-0.25-2.02-0.08-4.07,0.51-6.01C495.79,482.95,495.62,484.99,495.03,486.94z"/>
	<path class="st4" d="M494.01,498.92c-0.25-2.02-0.08-4.07,0.51-6.01c0.21,1,0.21,2.03,0,3.03
		C494.56,496.96,494.39,497.98,494.01,498.92z"/>
	<path class="st4" d="M493,510.92c-0.21-1-0.21-2.02,0-3.02c-0.01-1.02,0.18-2.03,0.57-2.97c0.21,1,0.21,2.02,0,3.02
		C493.57,508.96,493.38,509.97,493,510.92z"/>
	<path class="st4" d="M513.95,512.17c-0.03-0.36-0.03-0.72,0-1.08l0.29-3.07c0.28-2.73,0.66-6.58,1.2-11.31
		c0.95-9.55,2.19-22.76,3.22-37.36s1.7-27.85,2.14-37.43c0.23-4.75,0.41-8.61,0.53-11.36c0.07-1.3,0.13-2.32,0.17-3.08
		c0.04-0.76,0.08-1.08,0.1-1.08c0.03,0.36,0.03,0.72,0,1.08c0,0.76,0,1.79,0,3.09c0,2.68-0.16,6.57-0.32,11.37
		c-0.34,9.62-0.93,22.86-1.96,37.46c-1.03,14.6-2.35,27.81-3.4,37.35c-0.54,4.81-1,8.64-1.35,11.3c-0.17,1.29-0.31,2.31-0.41,3.07
		C514.11,511.47,514.04,511.82,513.95,512.17z"/>
	<path class="st4" d="M496.01,511.99c-0.03-0.35-0.03-0.71,0-1.06c0.06-0.76,0.12-1.77,0.22-3.06c0.2-2.71,0.51-6.52,0.87-11.21
		c0.81-9.5,1.91-22.54,3.13-36.95c1.21-14.41,2.41-27.44,3.31-36.94c0.45-4.68,0.82-8.49,1.07-11.19c0.14-1.28,0.25-2.3,0.32-3.04
		c0.02-0.36,0.08-0.71,0.16-1.06c0.03,0.36,0.03,0.71,0,1.07c-0.06,0.75-0.12,1.77-0.2,3.04c-0.22,2.71-0.52,6.52-0.88,11.21
		c-0.81,9.52-1.91,22.55-3.13,36.97c-1.21,14.41-2.41,27.43-3.31,36.94c-0.45,4.68-0.82,8.48-1.07,11.19
		c-0.13,1.28-0.24,2.29-0.32,3.04C496.14,511.29,496.09,511.64,496.01,511.99z"/>
	<path class="st4" d="M463.64,406.25c-0.31,0.57-0.68,1.12-1.08,1.64c-0.43,0.64-0.91,1.25-1.43,1.82c-0.64,0.8-1.33,1.56-2.06,2.27
		l-1.26,1.26c-0.45,0.43-0.96,0.82-1.47,1.26c-1.08,0.92-2.21,1.79-3.38,2.6c-5.4,3.72-11.57,6.18-18.04,7.22
		c-1.49,0.19-2.9,0.4-4.25,0.43c-0.66,0-1.31,0.08-1.94,0.07h-1.78c-1.02-0.02-2.04-0.1-3.06-0.23c-0.77-0.07-1.53-0.19-2.29-0.36
		c-0.65-0.09-1.29-0.24-1.91-0.45c0-0.14,2.77,0.52,7.22,0.6h1.77c0.61,0,1.2-0.07,1.9-0.11c1.32,0,2.72-0.29,4.2-0.48
		c3.17-0.57,6.28-1.43,9.29-2.59c2.99-1.22,5.85-2.72,8.54-4.5c1.2-0.85,2.41-1.65,3.38-2.51c0.51-0.43,1.01-0.81,1.47-1.2l1.28-1.2
		C461.98,408.51,463.52,406.15,463.64,406.25z"/>
	<path class="st4" d="M418.5,511.77c0,0.17-0.67,0.3-1.5,0.29s-1.5-0.16-1.5-0.32s0.67-0.31,1.5-0.3
		C417.83,511.45,418.5,511.59,418.5,511.77z"/>
	<path class="st4" d="M430.24,511.88c-0.95,0.3-1.95,0.4-2.94,0.29c-0.99,0.09-1.99-0.02-2.94-0.34c0.95-0.3,1.95-0.4,2.94-0.29
		C428.3,511.45,429.3,511.56,430.24,511.88z"/>
	<path class="st4" d="M442,511.99c-0.95,0.31-1.96,0.41-2.95,0.29c-0.99,0.09-1.99-0.02-2.94-0.34c0.95-0.29,1.96-0.39,2.95-0.29
		C440.05,511.56,441.05,511.67,442,511.99z"/>
	<path class="st4" d="M453.7,512.09c-1.93,0.42-3.94,0.42-5.87,0c0.95-0.3,1.95-0.4,2.94-0.29
		C451.75,511.7,452.75,511.8,453.7,512.09z"/>
	<path class="st4" d="M465.48,512.2c-0.95,0.3-1.95,0.4-2.94,0.29c-0.99,0.09-1.99-0.03-2.94-0.35c1.94-0.41,3.93-0.41,5.87,0V512.2
		z"/>
	<path class="st4" d="M477.22,512.32c-0.95,0.3-1.95,0.39-2.94,0.28c-0.99,0.09-1.99-0.02-2.94-0.34
		C473.28,511.86,475.29,511.88,477.22,512.32z"/>
	<path class="st4" d="M488.97,512.46c-0.95,0.29-1.96,0.39-2.95,0.28c-0.99,0.1-1.99-0.02-2.92-0.35c0.95-0.3,1.95-0.39,2.94-0.28
		C487.03,512.02,488.02,512.14,488.97,512.46z"/>
	<path class="st4" d="M500.71,512.62c-0.95,0.29-1.95,0.38-2.94,0.26c-0.99,0.09-1.99-0.03-2.94-0.36c0.95-0.29,1.95-0.38,2.94-0.26
		C498.77,512.17,499.77,512.3,500.71,512.62z"/>
	<path class="st4" d="M512.45,512.82c-0.95,0.29-1.95,0.38-2.94,0.26c-0.99,0.08-1.99-0.04-2.94-0.37
		C508.52,512.33,510.52,512.37,512.45,512.82z"/>
	<path class="st4" d="M524.19,513.06c-0.95,0.28-1.95,0.37-2.94,0.25c-0.99,0.08-2-0.05-2.94-0.38c0.96-0.28,1.96-0.36,2.95-0.24
		C522.26,512.6,523.25,512.72,524.19,513.06z"/>
	<path class="st4" d="M535.93,513.35c-1.95,0.36-3.95,0.3-5.87-0.16c0.96-0.28,1.96-0.36,2.95-0.24
		C534,512.87,535,513.01,535.93,513.35z"/>
	<path class="st4" d="M547.67,513.68c-0.96,0.28-1.96,0.36-2.95,0.23c-0.99,0.07-1.99-0.07-2.92-0.41c0.96-0.28,1.96-0.35,2.95-0.22
		C545.74,513.22,546.73,513.35,547.67,513.68z"/>
	<path class="st4" d="M559.41,514.08c-0.96,0.28-1.96,0.36-2.95,0.22c-1,0.05-1.99-0.11-2.92-0.47c0.96-0.27,1.96-0.34,2.95-0.2
		C557.48,513.58,558.48,513.73,559.41,514.08z"/>
	<path class="st4" d="M568.29,514.43c0,0.18-0.69,0.29-1.5,0.25c-0.82-0.04-1.5-0.19-1.49-0.37c0.01-0.18,0.69-0.28,1.52-0.25
		C567.64,514.08,568.3,514.26,568.29,514.43z"/>
	<path class="st4" d="M569.18,428.64c-0.46-0.03-0.9-0.13-1.34-0.28c-1.18-0.32-2.34-0.7-3.48-1.14c-7.69-2.9-14.5-7.74-19.78-14.04
		c-0.8-0.94-1.55-1.93-2.24-2.96c-0.29-0.37-0.53-0.77-0.71-1.2c0.1-0.06,1.2,1.52,3.27,3.84c5.39,6.07,12.1,10.82,19.61,13.91
		C567.36,428,569.18,428.53,569.18,428.64z"/>
	<path class="st4" d="M429.18,548.99c-0.17-0.33-0.29-0.68-0.36-1.05c-0.19-0.67-0.43-1.66-0.72-2.89c-0.57-2.41-1.2-5.88-1.76-9.7
		c-0.55-3.81-0.82-7.29-0.94-9.8c0-1.26-0.08-2.29-0.08-2.98c-0.03-0.37-0.01-0.74,0.06-1.11c0.25,1.34,0.4,2.69,0.47,4.05
		c0.24,2.5,0.59,5.95,1.12,9.76c0.53,3.8,1.12,7.22,1.56,9.68C428.85,546.28,429.07,547.63,429.18,548.99z"/>
	<path class="st4" d="M431.29,521.21c0.19,0.06-1.02,4.29-1.2,9.68c-0.18,5.39,0.57,9.72,0.36,9.76c-0.34-0.91-0.56-1.85-0.65-2.81
		c-0.34-2.31-0.45-4.64-0.34-6.96c0.1-2.33,0.42-4.64,0.96-6.9C430.59,523.02,430.88,522.09,431.29,521.21z"/>
	<path class="st4" d="M437.87,549.14c-0.11,0,0.26-1.53,0.49-3.99c0.26-3.21,0.17-6.43-0.26-9.62c-0.48-3.75-1.2-7.11-1.76-9.55
		c-0.34-1.3-0.6-2.62-0.76-3.96c0.52,1.25,0.92,2.54,1.2,3.86c0.86,3.16,1.51,6.38,1.95,9.62c0.45,3.24,0.47,6.53,0.07,9.78
		c-0.12,0.98-0.31,1.95-0.57,2.91C438.17,548.53,438.04,548.85,437.87,549.14z"/>
	<path class="st4" d="M443.29,533.41c-1.16-1.7-1.98-3.61-2.41-5.62c-0.6-1.94-0.81-3.99-0.61-6.01c0.18,0,0.4,2.69,1.2,5.92
		S443.46,533.34,443.29,533.41z"/>
	<path class="st4" d="M450.09,522.04c0.47,2.32,0.71,4.69,0.71,7.06c0.09,1.7-0.12,3.41-0.63,5.04c-0.17,0.69-0.52,1.33-1.01,1.84
		c-0.08,0,0.29-0.75,0.59-1.97c0.35-1.61,0.49-3.25,0.42-4.9C449.96,526.76,449.94,524.4,450.09,522.04z"/>
	<path class="st4" d="M456.96,552.06c-0.2-0.35-0.36-0.72-0.46-1.11c-0.16-0.43-0.29-0.88-0.38-1.34c-0.17-0.6-0.29-1.21-0.38-1.83
		c-0.46-3.55-0.59-7.12-0.38-10.69c0-2.08,0-4.05,0-5.85c-0.06-1.58-0.26-3.16-0.58-4.72c-0.57-2.65-1.35-4.16-1.2-4.21
		c0.24,0.32,0.43,0.66,0.58,1.03c0.22,0.42,0.4,0.85,0.54,1.3c0.21,0.58,0.39,1.18,0.54,1.78c0.39,1.58,0.63,3.19,0.72,4.81
		c0.12,1.82,0.12,3.81,0.07,5.91c-0.2,3.54-0.13,7.08,0.2,10.61C456.51,550.42,457.08,552.02,456.96,552.06z"/>
	<path class="st4" d="M462.12,539.15c-0.11,0,0.18-0.95,0.26-2.47c0.04-1.99-0.11-3.98-0.45-5.94c-0.35-2.01-0.4-4.06-0.14-6.09
		c0.09-0.86,0.38-1.68,0.85-2.41c0.11,0-0.25,0.94-0.41,2.41c-0.12,1.99-0.02,3.98,0.32,5.94c0.33,1.99,0.42,4.01,0.26,6.01
		C462.79,537.5,462.55,538.37,462.12,539.15z"/>
	<path class="st4" d="M467.27,545.74c-0.11,0,0.34-1.3,0.6-3.42c0.26-2.77,0.3-5.56,0.11-8.34c-0.21-2.81-0.13-5.63,0.23-8.42
		c0.12-0.85,0.33-1.68,0.6-2.49c0.19-0.58,0.32-0.89,0.37-0.88c0.05,0.01-0.3,1.31-0.53,3.43c-0.22,2.78-0.22,5.58,0,8.36
		c0.2,2.81,0.1,5.63-0.3,8.42c-0.14,0.85-0.35,1.68-0.64,2.49C467.45,545.45,467.32,545.75,467.27,545.74z"/>
	<path class="st4" d="M476.95,543.82c-0.48-0.94-0.84-1.94-1.07-2.97c-1.36-4.92-1.88-10.03-1.55-15.12
		c0.02-1.06,0.16-2.11,0.43-3.13c0.08,1.05,0.08,2.1,0,3.15c-0.04,2.52,0.07,5.04,0.32,7.54c0.26,2.5,0.66,4.99,1.2,7.45
		C476.59,541.74,476.81,542.77,476.95,543.82z"/>
	<path class="st4" d="M481.51,520.71c0.18,0.07-0.63,2.41-0.87,5.38c-0.24,2.97,0.14,5.4,0,5.44c-0.63-1.76-0.83-3.65-0.58-5.5
		C480.11,524.16,480.6,522.34,481.51,520.71z"/>
	<path class="st4" d="M483.94,547.74c1.06-0.73,1.94-1.69,2.57-2.8c0.65-1.23,1.03-2.57,1.13-3.96c0.09-1.71-0.08-3.42-0.49-5.08
		c-0.4-1.79-0.91-3.48-1.28-5.04c-0.35-1.39-0.57-2.81-0.65-4.25c-0.05-0.97,0.03-1.95,0.23-2.9c0.05-0.35,0.17-0.69,0.35-1
		c-0.16,1.28-0.21,2.57-0.13,3.86c0.14,1.4,0.39,2.78,0.76,4.14c0.4,1.54,0.93,3.22,1.34,5.05c0.43,1.72,0.58,3.49,0.46,5.26
		c-0.13,1.46-0.58,2.86-1.32,4.13c-0.5,0.85-1.18,1.58-2,2.13C484.33,547.66,483.95,547.77,483.94,547.74z"/>
	<path class="st4" d="M495.87,544.72c-0.6-0.98-1.08-2.03-1.44-3.12c-1-2.58-1.84-5.21-2.51-7.89c-0.68-2.68-1.2-5.39-1.54-8.13
		c-0.19-1.13-0.27-2.28-0.22-3.43c0.31,1.1,0.53,2.22,0.66,3.36c0.36,2.08,0.91,4.93,1.7,8.06c0.78,3.13,1.66,5.88,2.33,7.89
		C495.27,542.52,495.61,543.61,495.87,544.72z"/>
	<path class="st4" d="M504.08,543.08c-0.1,0-0.32-1.14-0.97-2.92c-0.65-1.78-1.74-4.16-2.95-6.83c-1.09-2.28-1.83-4.72-2.2-7.22
		c-0.19-1.03-0.16-2.09,0.08-3.12c0.11,0,0,1.2,0.36,3.04c0.48,2.43,1.27,4.8,2.33,7.04c1.08,2.25,2.01,4.57,2.79,6.94
		C503.89,541,504.07,542.03,504.08,543.08z"/>
	<path class="st4" d="M510.24,547.94c0.47-1.24,0.88-2.51,1.2-3.8c0.6-3.14,0.18-6.4-1.2-9.29c-0.77-1.71-1.64-3.3-2.32-4.81
		c-0.62-1.34-1.08-2.74-1.36-4.19c-0.18-0.98-0.21-1.99-0.07-2.98c0.03-0.36,0.13-0.72,0.29-1.05c-0.1,1.32-0.03,2.65,0.23,3.95
		c0.33,1.39,0.81,2.75,1.44,4.03c0.7,1.48,1.58,3.06,2.41,4.81c0.78,1.64,1.26,3.41,1.43,5.22c0.13,1.47,0.02,2.96-0.31,4.4
		c-0.23,0.97-0.57,1.91-1.01,2.8C510.78,547.39,510.53,547.69,510.24,547.94z"/>
	<path class="st4" d="M517.79,534c-1.33-1.46-2.25-3.24-2.68-5.16c-0.63-1.87-0.77-3.86-0.4-5.8c0.19,0,0.13,2.6,1,5.63
		C516.58,531.7,517.95,533.89,517.79,534z"/>
	<path class="st4" d="M520.93,522.09c0.11,0,0.14,0.9,0.55,2.25c0.27,0.78,0.64,1.53,1.08,2.23c0.6,0.88,1.06,1.85,1.36,2.88
		c0.41,1.87,0.51,3.8,0.3,5.7c0.01,0.78-0.05,1.56-0.18,2.33c-0.23-0.78-0.31-1.6-0.25-2.41c0.07-1.85-0.09-3.71-0.47-5.52
		c-0.28-0.97-0.68-1.89-1.2-2.75c-0.45-0.75-0.79-1.56-1.01-2.41C520.87,523.65,520.81,522.86,520.93,522.09z"/>
	<path class="st4" d="M533.99,540.39c0.3-0.84,0.39-1.74,0.25-2.62c-0.18-0.95-0.55-1.85-1.08-2.66c-0.57-0.94-1.31-1.95-1.94-3.12
		c-1.1-1.98-1.72-4.19-1.82-6.46c-0.09-0.93,0.05-1.87,0.4-2.74c0.11,0-0.1,1.06,0,2.72c0.22,2.17,0.88,4.27,1.94,6.18
		c0.59,1.13,1.31,2.13,1.88,3.13c0.54,0.88,0.9,1.86,1.03,2.89C534.88,538.65,534.63,539.65,533.99,540.39z"/>
	<path class="st4" d="M544.95,537.74c-0.78-0.37-1.49-0.87-2.09-1.49c-3.1-2.82-5.2-6.55-6.01-10.66c-0.22-0.83-0.29-1.69-0.2-2.55
		c1.02,5.71,3.96,10.89,8.34,14.7L544.95,537.74z"/>
	<path class="st4" d="M553.37,541.19c0.13-1.1,0.02-2.22-0.31-3.28c-0.4-1.13-1.02-2.18-1.82-3.08c-1-1.1-2.12-2.09-3.33-2.95
		c-1.26-0.87-2.47-1.82-3.61-2.84c-0.93-0.85-1.72-1.85-2.33-2.95c-0.41-0.75-0.67-1.56-0.79-2.41c-0.07-0.3-0.07-0.62,0-0.93
		c0.24,1.09,0.65,2.14,1.2,3.12c0.64,1.03,1.43,1.96,2.33,2.75c1.01,0.93,2.26,1.8,3.55,2.77c1.25,0.88,2.4,1.91,3.4,3.07
		c0.82,0.97,1.43,2.1,1.79,3.32c0.24,0.82,0.31,1.69,0.18,2.54C553.62,540.63,553.53,540.93,553.37,541.19z"/>
	<path class="st4" d="M558.18,534.79c-1.94-1.34-3.43-3.23-4.28-5.43c-1.05-2.11-1.44-4.5-1.09-6.83c0.29,2.25,0.85,4.46,1.67,6.58
		C555.49,531.15,556.73,533.05,558.18,534.79z"/>
	<path class="st4" d="M563.43,542.58c0.45-0.88,0.85-1.78,1.2-2.71c0.75-2.25,0.63-4.7-0.31-6.87c-0.59-1.17-1.28-2.28-2.08-3.32
		c-0.67-0.88-1.24-1.84-1.68-2.85c-0.5-0.91-0.65-1.98-0.42-3c0.13,0.98,0.41,1.93,0.83,2.81c0.49,0.95,1.07,1.86,1.73,2.69
		c0.86,1.05,1.59,2.19,2.19,3.4c1,2.29,1.06,4.88,0.17,7.22c-0.27,0.7-0.63,1.36-1.07,1.96C563.67,542.4,563.45,542.6,563.43,542.58
		z"/>
	<path class="st4" d="M575.58,534.87c-4.48-2.15-7.58-6.41-8.24-11.34C568.77,528.11,571.66,532.09,575.58,534.87z"/>
	<path class="st4" d="M415.69,536.19c2.67-4.58,3.37-10.04,1.92-15.14c0.45,0.65,0.75,1.4,0.88,2.18c0.46,1.85,0.58,3.76,0.35,5.65
		c-0.23,1.89-0.82,3.72-1.72,5.4C416.78,535.01,416.3,535.66,415.69,536.19z"/>
	<path class="st7" d="M472.4,238.06l11.54-3.12l41.03-7.58l20.29,5.73c0,0-20.26,21.44-28.94,23.08
		C497.76,259.68,472.4,238.06,472.4,238.06z"/>
	<path class="st3" d="M566.15,218.67l-35.46,6.46c0,0-6.46,43.43-56.01,12.76c0,0-23.44-1.08-31.93,10.55
		c-6.17,8.42-22.45,51.22-22.45,51.22l32.78,27.32l4.1,21.11c0,0-18.04,16.42-17.17,28.17c0,0,44.89,35.45,75.89,31.12
		c31-4.33,47.11-19.44,47.11-19.44l13.83-120.16L602.4,275l3.7-41.7L566.15,218.67z"/>
	<path class="st4" d="M484.85,367.25c-0.43-0.09-0.86-0.23-1.26-0.41c-0.81-0.29-1.95-0.77-3.33-1.41
		c-7.24-3.36-13.86-7.93-19.57-13.51c-1.09-1.07-1.95-1.97-2.5-2.61c-0.32-0.32-0.6-0.67-0.83-1.05c0.07-0.07,1.38,1.29,3.61,3.33
		c2.92,2.67,6.01,5.14,9.26,7.4c3.26,2.24,6.67,4.25,10.2,6.01C483.17,366.41,484.9,367.16,484.85,367.25z"/>
	<path class="st4" d="M508.26,321.69c-0.24,0.48-0.54,0.93-0.89,1.34c-0.89,1.16-1.89,2.23-2.98,3.2
		c-7.38,6.68-17.91,8.6-27.17,4.97c-1.37-0.52-2.69-1.17-3.93-1.94c-0.47-0.25-0.91-0.56-1.3-0.93c1.75,0.9,3.55,1.71,5.39,2.41
		c9.13,3.3,19.34,1.44,26.72-4.88C505.56,324.54,506.96,323.15,508.26,321.69z"/>
	<g class="st10">
		<path d="M457.21,348.04c2.31,4.19,6.32,6.58,10.2,9.36c5.85,4.17,12.03,8.42,19.08,9.54c1.16,0.23,2.36,0.19,3.5-0.11
			c1.15-0.33,2.04-1.25,2.32-2.41c0.07-1.54-0.85-2.95-2.29-3.51c-1.42-0.5-2.93-0.73-4.44-0.67c-10.83-0.51-20.89-6.58-28.38-12.16
			"/>
	</g>
	<g class="st10">
		<path d="M474.05,329.85c3.72,3.28,7.67,6.46,12.32,8.23c4.64,1.77,10.12,1.96,14.43-0.58c4.32-2.54,6.8-8.18,4.81-12.75
			c-8.7,7.53-20.22,8.6-31.16,5"/>
	</g>
	<path class="st4" d="M446.76,292.91c0.17,0,1.8,8.35,3.61,18.71c1.8,10.36,3.22,18.78,3.06,18.81c-0.17,0.04-1.82-8.35-3.67-18.71
		C447.9,301.37,446.59,292.94,446.76,292.91z"/>
	<path class="st4" d="M518.66,314.89c-0.97,0.73-2.05,1.29-3.21,1.65c-1.08,0.55-2.25,0.91-3.45,1.06c0.97-0.72,2.06-1.27,3.21-1.64
		C516.29,315.41,517.45,315.05,518.66,314.89z"/>
	<g class="st10">
		<path d="M519.07,245.58c-1.2,8.05-2.5,16.17-2.09,24.3c0.41,8.13,2.61,16.38,7.63,22.86c3.92,5.02,9.32,8.64,14.22,12.73
			c4.9,4.09,9.53,9.03,10.97,15.24c0.91,3.95,0.47,8.07,0.46,12.13c0,1.61,0.6,3.78,2.21,3.69c0.55-0.08,1.07-0.32,1.5-0.67
			c16.34-11.63,20.39-34.19,9.12-50.79c-8.68-12.8-25.09-19.79-30.9-34.11"/>
	</g>
	<path class="st4" d="M579.17,243.57c0.17,0-0.32,6.22-1.11,13.86c-0.78,7.64-1.55,13.82-1.73,13.81
		c-0.18-0.01,0.32-6.23,1.11-13.87C578.22,249.73,579.01,243.55,579.17,243.57z"/>
	<path class="st11" d="M576.58,268.71c-0.09,0.31-0.2,0.61-0.34,0.9c-0.41,0.85-0.95,1.64-1.61,2.32c-2.67,2.53-6.18,3.99-9.86,4.09
		c-4.7,0.45-10.54-0.75-17.06,0.89c-17.03,3.88-28.34,20.02-26.18,37.35c0.26,2.49,0.89,4.92,1.89,7.22
		c0.98,2.38,2.62,4.43,4.74,5.89c2.24,1.39,4.92,1.92,7.52,1.48c2.68-0.42,5.23-1.47,7.42-3.07c4.53-3.45,7.62-8.45,8.67-14.05
		c1.26-5.8,0.27-11.87-2.78-16.96c-1.59-2.57-3.68-4.79-6.15-6.54c-2.51-1.77-5.32-3.08-8.3-3.86c-3.01-0.81-6.16-0.99-9.25-0.54
		c-1.55,0.24-3.08,0.64-4.55,1.2c-1.48,0.56-2.92,1.24-4.29,2.03c-5.53,3.2-10,7.82-14.52,12.11s-9.42,8.34-15.12,10.63
		c-2.82,1.18-5.86,1.76-8.91,1.68c-3.01-0.11-5.94-1.02-8.49-2.63c-4.9-3.25-8.37-8.24-9.7-13.97c-2.8-10.93,1.71-22.86,10.3-28.16
		c2.12-1.34,4.59-2,7.1-1.88c2.43,0.19,4.69,1.29,6.34,3.08c1.58,1.77,2.15,4.22,1.53,6.51c-0.56,2.15-1.83,4.04-3.61,5.36
		c-1.7,1.22-3.65,2.06-5.7,2.47c-0.97,0.21-1.96,0.36-2.95,0.46c-0.99,0.08-1.95,0.08-2.9,0.12c-3.6-0.01-7.18-0.62-10.59-1.79
		c-2.97-1.02-5.79-2.4-8.42-4.11c-2.17-1.48-4.19-3.17-6.01-5.05c-2.54-2.6-4.61-5.62-6.12-8.93c-0.41-0.85-0.76-1.73-1.06-2.62
		c-0.22-0.6-0.31-0.91-0.31-0.91s0.13,0.3,0.37,0.89c0.32,0.88,0.69,1.74,1.11,2.59c1.55,3.27,3.64,6.25,6.19,8.82
		c1.83,1.86,3.85,3.52,6.01,4.97c2.6,1.68,5.4,3.04,8.34,4.04c3.37,1.15,6.91,1.73,10.47,1.72c0.94,0,1.89,0,2.86-0.13
		c0.97-0.09,1.94-0.25,2.9-0.46c1.99-0.4,3.87-1.22,5.52-2.41c1.7-1.27,2.93-3.07,3.48-5.12c0.57-2.15,0.01-4.44-1.49-6.09
		c-1.57-1.69-3.72-2.72-6.01-2.89c-2.39-0.11-4.76,0.53-6.78,1.82c-8.34,5.22-12.77,16.84-10,27.57c1.34,5.53,4.73,10.35,9.49,13.47
		c2.46,1.56,5.28,2.43,8.19,2.54c2.97,0.06,5.92-0.5,8.66-1.65c5.58-2.26,10.45-6.18,14.92-10.53c4.46-4.34,9-8.94,14.64-12.2
		c1.4-0.81,2.87-1.51,4.39-2.08c1.51-0.56,3.08-0.97,4.68-1.2c3.17-0.45,6.4-0.26,9.49,0.57c3.05,0.8,5.93,2.14,8.5,3.96
		c2.53,1.8,4.67,4.09,6.32,6.72c3.11,5.25,4.11,11.49,2.79,17.45c-1.07,5.76-4.25,10.9-8.91,14.43c-2.28,1.64-4.91,2.72-7.69,3.16
		c-2.73,0.44-5.54-0.12-7.89-1.58c-2.19-1.52-3.9-3.64-4.92-6.1c-1.02-2.34-1.67-4.82-1.92-7.36c-2.16-17.55,9.35-33.88,26.61-37.75
		c6.6-1.62,12.47-0.38,17.13-0.81c3.63-0.06,7.12-1.46,9.79-3.92C575.42,270.98,576.12,269.9,576.58,268.71z"/>
	<path class="st11" d="M587.73,227.23c-0.39,0.42-0.83,0.79-1.3,1.11c-1.25,0.93-2.58,1.73-3.98,2.41
		c-9.49,4.63-20.81,3.21-28.87-3.61c-1.19-1-2.29-2.11-3.27-3.31c-0.38-0.43-0.7-0.9-0.97-1.4c1.41,1.55,2.92,3.01,4.52,4.37
		c8.03,6.51,19.06,7.91,28.46,3.61C584.19,229.47,586,228.41,587.73,227.23z"/>
	<path class="st11" d="M605.27,249.96c0,0.11-1.42,0.65-3.61,1.96c-1.24,0.76-2.42,1.63-3.51,2.6c-1.32,1.2-2.53,2.51-3.61,3.93
		c-1.06,1.43-1.97,2.96-2.74,4.57c-0.62,1.32-1.13,2.69-1.52,4.1c-0.65,2.41-0.76,3.98-0.88,3.97c-0.05-0.37-0.05-0.74,0-1.11
		c0.02-0.43,0.06-0.86,0.13-1.29c0.07-0.57,0.18-1.13,0.31-1.68c0.34-1.45,0.82-2.87,1.42-4.23c1.49-3.35,3.72-6.33,6.52-8.7
		c1.11-0.97,2.32-1.82,3.61-2.55c0.49-0.29,1-0.54,1.53-0.77c0.39-0.2,0.79-0.36,1.2-0.49C604.49,250.11,604.87,250,605.27,249.96z"
		/>
	<path class="st11" d="M434.86,312.86c-0.11,0-0.23-1.54-0.67-3.98c-1.14-6.38-3.6-12.46-7.22-17.84c-1.4-2.06-2.41-3.25-2.3-3.32
		c0.11-0.07,0.31,0.24,0.78,0.76c0.67,0.74,1.29,1.51,1.88,2.31c3.88,5.32,6.39,11.52,7.3,18.04c0.16,1.2,0.25,2.26,0.26,2.96
		C434.93,312.14,434.92,312.5,434.86,312.86z"/>
	<path class="st11" d="M564.58,360.59c0,0-0.43-0.46-1.37-1.13c-1.38-0.97-2.95-1.64-4.61-1.96c-2.62-0.49-5.32-0.35-7.88,0.42
		c-3.35,1.14-6.48,2.87-9.23,5.1c-3.14,2.41-6.29,5.36-10.15,8.01c-1.99,1.39-4.15,2.52-6.42,3.36c-2.44,0.86-5.04,1.2-7.63,0.99
		c-5.62-0.45-10.76-3.33-14.06-7.89c-3.42-5.01-4.31-11.32-2.41-17.08c0.91-2.92,2.76-5.46,5.27-7.22c1.28-0.84,2.79-1.26,4.32-1.2
		c1.52,0.11,2.95,0.8,3.98,1.92c1.09,1.07,1.64,2.57,1.5,4.09c-0.27,1.48-1.24,2.73-2.6,3.38c-2.57,1.31-5.37,1.2-7.94,1.54
		c-15.61,1.09-31.19-2.47-44.77-10.22c-1.9-1.14-3.36-2.04-4.31-2.72l-1.09-0.76c-0.24-0.17-0.36-0.26-0.35-0.28l0.38,0.23l1.13,0.7
		c0.96,0.65,2.41,1.52,4.35,2.61c5.45,3.01,11.23,5.39,17.23,7.07c8.94,2.49,18.24,3.41,27.49,2.69c2.55-0.31,5.34-0.26,7.7-1.49
		c1.19-0.56,2.03-1.66,2.27-2.95c0.13-1.35-0.37-2.67-1.35-3.61c-0.94-1.02-2.23-1.64-3.61-1.73c-1.41-0.02-2.79,0.4-3.95,1.2
		c-2.39,1.69-4.16,4.13-5.02,6.93c-1.86,5.57-1.02,11.68,2.27,16.54c3.19,4.43,8.16,7.23,13.6,7.66c2.5,0.22,5.03-0.1,7.4-0.93
		c2.24-0.82,4.36-1.92,6.32-3.27c3.83-2.59,7-5.56,10.18-7.93c2.8-2.24,5.97-3.96,9.38-5.08c2.62-0.76,5.38-0.88,8.05-0.34
		c1.68,0.35,3.26,1.07,4.63,2.11c0.35,0.27,0.68,0.57,0.99,0.89C564.4,360.36,564.5,360.47,564.58,360.59z"/>
	<path class="st11" d="M473.82,394.27c-0.22-0.56-0.38-1.14-0.48-1.73c-0.29-1.11-0.72-2.71-1.37-4.64
		c-1.75-5.05-4.26-9.8-7.45-14.09c-1.75-2.36-3.7-4.55-5.83-6.57c-1.71-1.68-3.6-3.16-5.63-4.41c-1.37-0.84-2.88-1.41-4.46-1.68
		c-1.13-0.17-1.77-0.11-1.77-0.17c0-0.06,0.16,0,0.46-0.08c0.44-0.04,0.89-0.04,1.34,0c1.64,0.19,3.23,0.71,4.66,1.54
		c2.11,1.22,4.06,2.69,5.81,4.38c2.18,2.02,4.17,4.23,5.94,6.62c3.22,4.33,5.7,9.17,7.34,14.31c0.49,1.56,0.89,3.14,1.2,4.74
		C473.7,393.07,473.79,393.67,473.82,394.27z"/>
	<path class="st11" d="M560.54,390.2c0,0.13-2.41-0.12-6.36,0.13c-2.3,0.15-4.58,0.46-6.83,0.94c-5.51,1.18-10.78,3.3-15.57,6.28
		c-1.95,1.22-3.82,2.58-5.58,4.05c-3,2.54-4.58,4.41-4.68,4.33c0.32-0.48,0.68-0.93,1.08-1.35c0.43-0.52,0.89-1.01,1.37-1.48
		c0.57-0.55,1.2-1.2,1.94-1.84c1.74-1.54,3.6-2.95,5.56-4.2c2.41-1.52,4.95-2.83,7.59-3.91c2.65-1.03,5.39-1.84,8.18-2.41
		c2.28-0.45,4.59-0.73,6.92-0.82c0.99-0.07,1.89,0,2.67,0c0.78,0,1.47,0.06,2.01,0.11C559.41,390.04,559.98,390.09,560.54,390.2z"/>
	<path class="st7" d="M391.63,228.45c0,0,9.47,8.07,10.83,14.43c0.6,2.81,5.34,24.25,5.34,24.25l-21.65,7.15
		c-0.71-3.19-2.59-5.99-5.27-7.86c-4.28-2.69-15.55-10.56-15.55-10.56l-3.49-27.47l9.55-8.42l0.2-14.09
		c2.29,0.18,4.12,1.97,4.34,4.26c0.69,4.14,4.9,11.26,4.9,11.26L391.63,228.45z"/>
	<path class="st7" d="M386.23,274.27c0,0,11.1,83,14.01,92.7c3.03,10.13,11.02,16.84,19.75,16.07c8.16-0.74,15.16-6.13,17.97-13.83
		c2.41-6.51,13.74-43.43,13.74-43.43l-26.87-22.7l-6.46,18.4l-10.51-54.36L386.23,274.27z"/>
	<path class="st8" d="M394.76,253.65c-1.83-1.55-3.19-3.58-3.93-5.86c-0.59-1.58-0.96-3.23-1.09-4.91c-0.13-0.69-0.13-1.39,0-2.08
		c0.22,0,0.3,3.16,1.64,6.76C392.29,249.7,393.42,251.74,394.76,253.65z"/>
	<polygon class="st4" points="374.01,203.91 371.08,244.82 387.3,255.63 388.83,254.49 391.44,215.95 376.87,203.79 	"/>
	<polygon class="st6" points="378.52,208.83 377.71,222.69 387.71,230.24 388.59,217.27 	"/>
	<path class="st9" d="M376,234.37c0.02-0.13,0.05-0.25,0.11-0.37c0.15-0.34,0.34-0.65,0.57-0.95c0.89-1.07,2.11-1.82,3.46-2.12
		c2.05-0.52,4.22,0.08,5.71,1.56c0.91,0.84,1.53,1.95,1.77,3.18c0.29,1.3,0.2,2.65-0.24,3.9c-0.49,1.26-1.43,2.29-2.63,2.9
		c-3.14,1.36-6.8,0.22-8.61-2.68c-0.58-1.25-0.8-2.65-0.64-4.02C375.53,235.26,375.7,234.77,376,234.37
		c-0.12,0.47-0.21,0.94-0.26,1.42c-0.06,1.31,0.21,2.62,0.79,3.79c1,1.66,2.76,2.72,4.69,2.84c1.11,0.15,2.24-0.03,3.26-0.51
		c1.06-0.54,1.89-1.46,2.31-2.57c0.4-1.13,0.48-2.36,0.23-3.54c-0.2-1.1-0.75-2.12-1.56-2.89c-1.35-1.4-3.33-1.98-5.22-1.55
		c-1.29,0.24-2.47,0.89-3.37,1.84C376.26,233.89,376.06,234.39,376,234.37z"/>
	<path class="st9" d="M388.83,254.5c-0.4-0.19-0.79-0.43-1.14-0.7l-3.08-2.08l-10.67-7.42l-0.13-0.1v-0.16
		c0.23-3.44,0.48-7.22,0.73-11.14c0.55-8.06,1.09-15.34,1.52-20.61c0.22-2.56,0.38-4.67,0.52-6.24l0.18-1.68
		c0-0.2,0.04-0.4,0.11-0.59c0.02,0.2,0.02,0.39,0,0.59c0,0.47,0,1.02,0,1.71c-0.08,1.58-0.19,3.68-0.34,6.24
		c-0.3,5.28-0.77,12.57-1.32,20.62c-0.28,3.95-0.54,7.7-0.78,11.14l-0.12-0.25l10.54,7.6l2.98,2.21
		C388.18,253.9,388.52,254.19,388.83,254.5z"/>
	<path class="st7" d="M371.47,219.91l12.28-0.52c0,0,0.51,4.74-2.26,5.52l-9.79,0.4l6.22,1.61l9.18,7.76c0,0-2.41,2.91-4.57,2.33
		s-6.44-3.87-6.44-3.87l-5.24,2.41l7.65,1.01l6.93,9.45c0,0-3.54,1.48-5.33,0.23c-1.4-1.19-2.62-2.58-3.61-4.13l-4.51,0.85
		l-0.3,12.03l-6.24,0.9l-3.61-17.69l1.28-3.13l-1.13-6.65L371.47,219.91z"/>
	<path class="st8" d="M377.92,226.92c-1.74-0.21-3.46-0.57-5.15-1.06l0.26-0.07c-1.13,1.2-2.41,2.63-3.73,4.13
		c-2.02,2.2-3.87,4.17-5.24,5.58c-0.69,0.81-1.47,1.54-2.31,2.19c0.58-0.89,1.24-1.73,1.98-2.49c1.28-1.48,3.08-3.5,5.1-5.7
		l3.8-4.07l0.11-0.12h0.16C374.61,225.71,376.29,226.25,377.92,226.92z"/>
	<path class="st8" d="M364.07,242.69c-0.08,0,0.1-0.64,0.55-1.53c0.61-1.14,1.31-2.23,2.09-3.26c0.42-0.59,0.87-1.15,1.36-1.68
		c0.42-0.47,0.98-0.79,1.6-0.93c0.41-0.09,0.83-0.03,1.2,0.16c0.26,0.16,0.35,0.3,0.32,0.32c-0.48-0.13-0.99-0.13-1.47,0
		c-0.89,0.22-1.66,1.34-2.55,2.56C365.39,240.65,364.2,242.74,364.07,242.69z"/>
	<path class="st8" d="M418.47,343.01c-0.22-1.04-0.32-2.09-0.3-3.15c-0.1-1.95-0.11-4.64-0.07-7.61c0.04-2.97,0.07-5.45,0.11-7.61
		c-0.04-1.05,0-2.11,0.13-3.15c0.23,1.04,0.33,2.09,0.31,3.15c0.08,1.95,0.11,4.64,0.07,7.61c-0.04,2.97-0.08,5.44-0.11,7.6
		C418.66,340.91,418.61,341.97,418.47,343.01z"/>
	<path class="st4" d="M493.61,119.87c-0.24,0.05-0.49,0.08-0.73,0.07l-2.09,0.11c-2.55,0.19-5.07,0.63-7.53,1.31
		c-3.63,1.06-7.05,2.75-10.09,4.99c-1.79,1.34-3.47,2.81-5.04,4.39c-1.72,1.67-3.3,3.48-4.73,5.41c-2.79,3.71-5.16,7.72-7.07,11.96
		c-0.82,1.84-1.47,3.76-1.96,5.71c-0.4,1.71-0.58,3.46-0.54,5.22c-0.04,2.55,0.27,5.1,0.91,7.57c0.18,0.67,0.43,1.31,0.73,1.94
		c0.2,0.42,0.36,0.63,0.35,0.64c-0.65-0.71-1.1-1.57-1.32-2.5c-0.74-2.48-1.12-5.05-1.12-7.64c-0.06-1.79,0.1-3.59,0.48-5.34
		c0.47-1.99,1.12-3.94,1.94-5.82c1.9-4.29,4.28-8.35,7.1-12.1c2.83-3.75,6.18-7.08,9.94-9.89c3.11-2.27,6.61-3.95,10.32-4.96
		c2.49-0.68,5.05-1.08,7.63-1.2c0.91,0,1.62,0,2.11,0C493.13,119.76,493.37,119.8,493.61,119.87z"/>
	<path class="st3" d="M548.45,159.61c1.3,9.32-3.55,17.71-10.83,18.72c-7.28,1.01-14.21-5.74-15.51-15.06
		c-1.3-9.32,3.55-17.72,10.83-18.73C540.22,143.52,547.15,150.27,548.45,159.61z"/>
	<path class="st6" d="M545.12,168.59c-0.11,0,0.58-1.46,0.99-3.89c0.53-3.16,0.23-6.41-0.88-9.42c-1.12-3-3.13-5.6-5.75-7.45
		c-1.13-0.7-2.31-1.31-3.54-1.84c0.37,0.01,0.73,0.08,1.07,0.22c0.95,0.28,1.86,0.69,2.71,1.2c2.8,1.8,4.94,4.46,6.1,7.58
		c1.15,3.11,1.4,6.48,0.72,9.73c-0.2,0.97-0.5,1.93-0.89,2.84C545.53,167.94,545.35,168.28,545.12,168.59z"/>
	<path class="st4" d="M550.53,224.61c0.37-0.64,0.77-1.26,1.2-1.86c1.13-1.66,2.15-3.4,3.04-5.21c1.35-2.65,2.19-5.52,2.49-8.48
		c0.26-3.63-0.57-7.25-2.41-10.39c-1.9-3.12-4.05-6.08-6.44-8.84c-1.95-2.3-3.71-4.75-5.26-7.34c-1.01-1.77-1.76-3.69-2.2-5.68
		c-0.11-0.72-0.16-1.28-0.19-1.65c-0.03-0.19-0.03-0.39,0-0.58c0.2,0.71,0.36,1.43,0.46,2.17c0.53,1.93,1.32,3.79,2.35,5.51
		c1.58,2.54,3.36,4.96,5.32,7.22c2.43,2.78,4.62,5.76,6.54,8.91c1.87,3.26,2.71,7,2.41,10.74c-0.33,3.02-1.24,5.95-2.67,8.64
		c-0.94,1.8-2.03,3.52-3.25,5.15c-0.42,0.58-0.77,1.01-1.02,1.3C550.65,224.5,550.56,224.62,550.53,224.61z"/>
	<path class="st4" d="M463.41,228.63c-0.75,9.19,6.71,16.84,9.62,25.6c3.43,11.15-0.57,23.25-9.97,30.16
		c9.02,1.56,18.26-4.17,22.59-12.23c4.33-8.06,3.27-17.96,0.94-26.8c-2.33-8.84-3.06-11.84-3.06-11.84"/>
	<path class="st4" d="M492.31,123.28c0,0,1.12-7.75,9.13-6.21c8.01,1.54,20.63,4.57,27.4,17.74c6.77,13.17,13.95,46.91,14.15,48.28
		c0.19,1.37,8.11,55.17,12.46,61.84c2.12,3.52,5.38,6.2,9.25,7.59c0,0-8.06,5.68-16.84-2.21c-8.78-7.89-25.26-40.57-25.26-40.57
		L492.31,123.28z"/>
	<path class="st7" d="M463.95,151.64l-1.5-6.15l35.45-15.4c11.15-3.78,26.07,4.9,29.36,16.19c3.67,12.55,7.65,28.02,8.28,37.86
		c1.26,19.79-12.84,25.51-12.84,25.51l4.17,19.08l-42.1,10.02L463.95,151.64z"/>
	<path class="st4" d="M526.38,159.79c-0.23,0.38-2.41-0.57-5.04,0c-2.63,0.57-4.26,2.35-4.62,2.09c-0.18-0.12,0-0.76,0.71-1.56
		c0.96-1.05,2.22-1.77,3.61-2.07c1.37-0.32,2.8-0.18,4.09,0.37C526.09,159.09,526.5,159.61,526.38,159.79z"/>
	<path class="st4" d="M500.19,167.39c-0.23,0.38-2.41-0.58-5.03,0c-2.62,0.58-4.27,2.41-4.63,2.09c-0.17-0.11,0-0.76,0.71-1.56
		c0.96-1.04,2.22-1.77,3.61-2.07c1.37-0.31,2.8-0.18,4.09,0.37C499.9,166.72,500.31,167.23,500.19,167.39z"/>
	<path class="st4" d="M513.21,179.07c1.29-0.76,2.66-1.34,4.1-1.74c0.66-0.22,1.26-0.49,1.28-0.97c-0.1-0.71-0.41-1.37-0.89-1.9
		l-3.15-4.66c-4.4-6.68-7.75-12.22-7.48-12.4s4.07,5.1,8.42,11.78l3.07,4.73c0.6,0.72,0.93,1.62,0.94,2.56
		c-0.09,0.51-0.42,0.96-0.88,1.2c-0.35,0.18-0.72,0.33-1.11,0.42C516.12,178.59,514.67,178.92,513.21,179.07z"/>
	<path class="st8" d="M522.7,209.74c-9.17,2.21-18.78,1.88-27.78-0.96c0,0,9.45,11.92,28.87,5.73L522.7,209.74z"/>
	<path class="st3" d="M513.52,185.67c-1.3-1.06-3.07-1.37-4.66-0.81c-1.15,0.37-2.1,1.19-2.63,2.27c-0.52,1.06-0.33,2.34,0.49,3.19
		c1.07,0.75,2.5,0.79,3.61,0.1c1.15-0.72,2.14-1.66,2.91-2.77c0.26-0.27,0.46-0.6,0.58-0.95c0.13-0.34,0.05-0.72-0.22-0.97"/>
	<path class="st4" d="M505.86,182.63c0.42-0.12,1.07,2.74,3.98,4.22c2.91,1.48,5.87,0.48,6.01,0.88c0.07,0.17-0.55,0.71-1.84,1.03
		c-1.67,0.4-3.43,0.2-4.97-0.58c-1.48-0.74-2.61-2.04-3.15-3.61C505.5,183.44,505.65,182.65,505.86,182.63z"/>
	<path class="st4" d="M497.7,153.63c-0.1,0.78-2.8,1.03-5.81,2.09s-5.33,2.48-5.88,1.92c-0.25-0.26,0-1.03,0.88-1.96
		c2.35-2.33,5.63-3.45,8.91-3.06C497,152.83,497.74,153.27,497.7,153.63z"/>
	<path class="st4" d="M522.36,147.94c-0.32,0.7-2.29,0.48-4.47,0.95c-2.19,0.47-3.95,1.31-4.51,0.78c-0.25-0.26-0.1-0.94,0.59-1.68
		c0.92-0.94,2.11-1.57,3.4-1.79c1.29-0.26,2.62-0.13,3.83,0.4C522.11,147.04,522.51,147.6,522.36,147.94z"/>
	<path class="st4" d="M475.35,173.8c10.32-8.48,15.41-25.86,20.83-38.06c1.2-2.71,2.41-5.71,1.55-8.54
		c-0.85-2.83-3.98-4.81-7.05-5.1c-3.09-0.12-6.16,0.58-8.89,2.03c-11.75,5.54-20.57,15.83-24.25,28.29
		c-1.12,3.89-0.45,12.43,2.83,14.8c3.61,2.6,7.93,0.4,11.43,3.12"/>
	<path class="st4" d="M531.28,202.14c6.92,7.81,12.35,19.72,12.23,30.14c-0.11,9.62-3.34,20.03,1.35,28.45
		c4.23,7.58,13.46,10.73,19.46,17c6.9,7.22,8.85,18.33,6.45,28.05s-8.67,18.13-16.19,24.74c3.5-9.86,0.7-20.86-7.1-27.84
		c-4.88-4.22-11.24-6.44-16.23-10.54c-7.22-6.01-10.83-15.4-11.88-24.72c-1.06-9.32,0.31-18.73,1.36-28.04
		c1.05-9.31,2.54-20.15,0.47-29.29C525.2,209.49,528.77,206.27,531.28,202.14z"/>
	<path class="st4" d="M498.21,124.59c0.14,0.69,0.23,1.4,0.26,2.11c0.09,0.83,0.13,1.66,0.13,2.49c0,0.97,0.06,2.09,0,3.31
		c0,0.61-0.07,1.26-0.12,1.92s-0.17,1.36-0.25,2.07c-0.14,1.44-0.48,2.95-0.81,4.55c-0.81,3.43-1.94,6.77-3.38,9.98
		c-1.53,3.22-3.36,6.28-5.46,9.15c-1,1.29-1.91,2.53-2.91,3.61c-0.48,0.54-0.93,1.08-1.4,1.55l-1.38,1.35
		c-0.85,0.88-1.73,1.56-2.41,2.2c-0.63,0.55-1.29,1.06-1.97,1.53c-0.56,0.45-1.15,0.85-1.77,1.2c0.5-0.5,1.04-0.95,1.61-1.37
		c0.54-0.42,1.2-0.94,1.9-1.6s1.56-1.36,2.41-2.25l1.34-1.37c0.47-0.47,0.89-1.01,1.37-1.55c0.96-1.06,1.85-2.3,2.83-3.61
		c4.09-5.67,7.02-12.09,8.64-18.89c0.32-1.58,0.69-3.06,0.85-4.49c0.08-0.7,0.22-1.38,0.28-2.04c0.06-0.66,0.11-1.29,0.16-1.9
		c0.14-1.2,0.11-2.31,0.14-3.28c0.04-0.83,0.04-1.65,0-2.48C498.19,126.05,498.17,125.32,498.21,124.59z"/>
	<path class="st4" d="M489.19,273.73c0.05-0.28,0.12-0.55,0.22-0.82c0.14-0.53,0.43-1.29,0.7-2.3c3.54-12.22,3.05-25.26-1.4-37.18
		c-2.04-4.95-4.38-9.77-6.99-14.43c-2.11-3.85-3.93-7.85-5.44-11.97c-1-2.8-1.63-5.71-1.86-8.67c-0.07-0.8-0.09-1.6-0.06-2.41
		c-0.03-0.28-0.03-0.56,0-0.84c0,0,0,1.2,0.25,3.22c0.33,2.92,1.02,5.79,2.04,8.54c1.56,4.08,3.41,8.04,5.53,11.85
		c2.65,4.66,5,9.48,7.05,14.43c3.48,9.2,4.54,19.14,3.08,28.87c-0.44,2.93-1.12,5.82-2.03,8.64c-0.3,1-0.63,1.74-0.81,2.26
		C489.4,273.2,489.31,273.47,489.19,273.73z"/>
	<path class="st9" d="M468.83,166.94c0.41-0.49,0.87-0.94,1.37-1.34c0.46-0.41,1.01-0.91,1.64-1.53s1.35-1.28,2.09-2.08
		c1.8-1.83,3.5-3.75,5.1-5.76c1.95-2.46,3.75-5.04,5.4-7.71c1.62-2.69,3.09-5.47,4.39-8.32c1.06-2.35,2-4.76,2.8-7.22
		c0.38-1.03,0.64-1.98,0.9-2.81c0.26-0.83,0.46-1.56,0.61-2.15c0.12-0.63,0.31-1.24,0.55-1.83c-0.06,0.64-0.16,1.27-0.32,1.89
		c-0.11,0.6-0.28,1.34-0.51,2.18c-0.23,0.84-0.46,1.82-0.81,2.86c-0.77,2.45-1.67,4.86-2.71,7.22c-2.54,5.83-5.86,11.29-9.88,16.23
		c-1.63,2.01-3.38,3.91-5.23,5.71c-0.77,0.79-1.53,1.44-2.18,2.02s-1.2,1.08-1.71,1.46C469.88,166.18,469.37,166.58,468.83,166.94z"
		/>
	<path class="st9" d="M460.63,165.33c-0.05-0.17-0.08-0.34-0.08-0.52c-0.02-0.5,0.02-1.01,0.13-1.5c0.43-1.83,1.41-3.48,2.8-4.74
		c2.09-1.75,4.33-3.3,6.7-4.64c2.77-1.8,5.37-3.84,7.79-6.09c4.4-4.09,8.16-8.82,11.15-14.04c1.2-2,1.97-3.68,2.53-4.81
		c0.25-0.62,0.54-1.23,0.89-1.8c-0.18,0.65-0.4,1.28-0.66,1.9c-0.71,1.7-1.51,3.36-2.41,4.97c-4.51,8.31-11.05,15.35-19.02,20.45
		c-2.36,1.3-4.6,2.8-6.71,4.47c-1.37,1.19-2.36,2.74-2.87,4.47C460.75,164.08,460.67,164.7,460.63,165.33z"/>
	<path class="st9" d="M470.43,284.07c0.21-0.22,0.43-0.42,0.66-0.6c0.23-0.19,0.52-0.41,0.83-0.7s0.65-0.65,1.05-1.03
		c2.13-2.29,3.79-4.98,4.9-7.9c1.61-4.35,2.32-8.98,2.08-13.62c-0.4-5.67-1.58-11.26-3.5-16.61c-1.9-5.76-4.05-11.14-5.61-16.19
		c-1.46-4.45-2.42-9.05-2.86-13.71c-0.29-3.15-0.16-6.32,0.4-9.43c0.15-0.85,0.35-1.68,0.6-2.5c0.06-0.29,0.15-0.57,0.28-0.84
		c0.07,0-0.3,1.2-0.64,3.38c-0.45,3.1-0.52,6.24-0.2,9.36c0.52,4.62,1.52,9.17,2.98,13.58c1.58,5,3.73,10.38,5.65,16.16
		c1.94,5.42,3.11,11.09,3.48,16.84c0.22,4.71-0.55,9.41-2.25,13.81c-1.16,2.96-2.9,5.65-5.14,7.9l-1.09,1
		c-0.28,0.24-0.57,0.46-0.87,0.66C470.95,283.79,470.7,283.95,470.43,284.07z"/>
	<path class="st9" d="M459.14,236.93c0.04-0.49,0.13-0.98,0.26-1.46c0.24-1.06,0.54-2.41,0.89-3.93c0.75-3.32,1.73-7.92,2.63-13.02
		c0.9-5.1,1.56-9.77,2-13.15c0.2-1.59,0.37-2.92,0.51-3.99c0.04-0.52,0.14-1.02,0.3-1.52c0.05,0.5,0.05,1,0,1.49
		c0,0.95-0.16,2.32-0.32,4.02c-0.31,3.4-0.9,8.07-1.82,13.23c-0.91,5.16-1.96,9.72-2.81,13.02c-0.43,1.65-0.81,2.97-1.08,3.89
		C459.56,236,459.38,236.48,459.14,236.93z"/>
	<path class="st3" d="M478.26,181.26c1.3,9.33-3.54,17.72-10.83,18.72c-5.47,0.77-10.56-3.21-13.39-9.05
		c-0.93-1.92-1.64-3.94-2.12-6.01c-2.08-9.18,3.61-17.71,10.83-18.72C469.97,165.19,476.98,171.94,478.26,181.26z"/>
	<path class="st3" d="M469.12,181.99c2.26,8.31,0.36,16.05-4.25,17.31s-10.16-4.46-12.43-12.77c-2.26-8.31-0.35-16.05,4.25-17.3
		C461.29,167.98,466.86,173.69,469.12,181.99z"/>
	<path class="st12" d="M469.12,181.99c2.26,8.31,0.36,16.05-4.25,17.31s-10.16-4.46-12.43-12.77c-2.26-8.31-0.35-16.05,4.25-17.3
		C461.29,167.98,466.86,173.69,469.12,181.99z"/>
	<path class="st4" d="M466.86,166.26c-1.12-0.1-2.24-0.12-3.36-0.06c-2.66,0.44-5.17,1.51-7.34,3.12c-2.03,1.77-3.43,4.15-3.99,6.78
		c-0.52,2.01-0.57,3.32-0.66,3.32c-0.08-0.3-0.11-0.62-0.07-0.93c0.09-2.08,0.59-4.13,1.48-6.01c0.67-1.4,1.65-2.64,2.86-3.61
		c2.24-1.69,4.9-2.74,7.69-3.06c0.84-0.06,1.69,0.01,2.51,0.19C466.29,166.03,466.59,166.11,466.86,166.26z"/>
	<path class="st4" d="M454.82,170.14c0,0,0.11-0.12,0.35-0.28c0.38-0.21,0.78-0.37,1.2-0.48c1.54-0.42,3.17-0.25,4.6,0.47
		c2.09,1.04,3.83,2.68,4.99,4.72c1.52,2.38,2.69,4.96,3.46,7.67c0.83,2.72,1.11,5.59,0.81,8.42c-0.26,2.32-1.09,4.54-2.41,6.47
		c-0.89,1.33-2.31,2.21-3.9,2.41c-0.43,0.06-0.86,0.03-1.28-0.07c-0.15-0.02-0.29-0.08-0.41-0.16c0.55,0.08,1.1,0.08,1.65,0
		c1.49-0.25,2.8-1.13,3.61-2.41c1.2-1.9,1.93-4.05,2.14-6.28c0.25-2.74-0.03-5.51-0.83-8.14c-0.76-2.65-1.89-5.19-3.36-7.53
		c-1.09-1.96-2.72-3.57-4.69-4.63c-1.33-0.71-2.87-0.93-4.34-0.63C455.87,169.81,455.34,169.96,454.82,170.14z"/>
	<path class="st6" d="M476.25,189.86c-0.11,0,0.38-1.47,0.61-3.89c0.63-6.35-1.79-12.63-6.52-16.91c-1.78-1.64-3.12-2.41-3.06-2.48
		c0.35,0.1,0.67,0.26,0.97,0.46c0.85,0.49,1.66,1.05,2.41,1.68c5.04,4.25,7.55,10.78,6.66,17.31c-0.13,0.96-0.35,1.91-0.64,2.84
		C476.61,189.22,476.46,189.56,476.25,189.86z"/>
	<path class="st4" d="M437.44,189.04c-3.14,0.24-6.3,0.27-9.44,0.08c-3.15,0.03-6.3-0.16-9.43-0.55c3.14-0.23,6.3-0.25,9.44-0.07
		C431.16,188.48,434.31,188.66,437.44,189.04z"/>
	<path class="st4" d="M435.91,196.39c-1.48,1.34-3.09,2.53-4.81,3.55c-1.63,1.18-3.38,2.19-5.21,3.02c1.48-1.34,3.09-2.53,4.81-3.55
		C432.33,198.24,434.08,197.22,435.91,196.39z"/>
	<path class="st4" d="M441.93,198.59c-0.83,2.58-1.86,5.09-3.08,7.51c-1.02,2.49-2.23,4.91-3.61,7.22c0.83-2.58,1.85-5.09,3.07-7.51
		C439.33,203.32,440.55,200.9,441.93,198.59z"/>
	<path class="st4" d="M587.22,139.57c-1.17,0.49-2.38,0.89-3.61,1.2c-2.27,0.66-5.41,1.59-8.87,2.67s-6.53,2.15-8.78,2.92
		c-1.17,0.49-2.38,0.89-3.61,1.2c1.12-0.63,2.29-1.16,3.5-1.58c2.21-0.88,5.29-2,8.76-3.1c3.46-1.11,6.62-1.94,8.94-2.49
		C584.75,140.01,585.98,139.73,587.22,139.57z"/>
	<path class="st4" d="M565.95,127.15c-1.14,2.54-2.46,4.99-3.96,7.34c-1.32,2.45-2.82,4.8-4.49,7.03c1.13-2.54,2.45-4.99,3.95-7.34
		C562.77,131.72,564.28,129.38,565.95,127.15z"/>
	<path class="st4" d="M578.32,157.44c-2.33-0.01-4.66-0.25-6.95-0.7c-2.32-0.23-4.62-0.67-6.87-1.31c2.33,0.01,4.66,0.25,6.95,0.7
		C573.78,156.36,576.07,156.8,578.32,157.44z"/>
	<path class="st4" d="M772.1,576.1c0,0.18-114.61,0.31-255.97,0.31s-255.98-0.13-255.98-0.31s114.59-0.31,255.98-0.31
		S772.1,575.93,772.1,576.1z"/>
</g>
</svg>
