<svg xmlns="http://www.w3.org/2000/svg" version="1.1" xmlns:xlink="http://www.w3.org/1999/xlink" xmlns:svgjs="http://svgjs.dev/svgjs" width="1440" height="560" preserveAspectRatio="none" viewBox="0 0 1440 560">
    <g mask="url(&quot;#SvgjsMask1066&quot;)" fill="none">
        <rect width="1440" height="560" x="0" y="0" fill="rgba(12, 12, 12, 1)"></rect>
        <path d="M0,546.482C101.147,541.848,186.278,476.774,267.89,416.844C345.179,360.089,423.047,298.503,458.836,209.543C493.888,122.415,465.421,27.391,462.33,-66.473C458.801,-173.62,512.014,-301.875,439.395,-380.738C366.375,-460.037,232.091,-409.009,126.581,-431.095C32.038,-450.886,-51.582,-511.046,-147.892,-503.675C-256.736,-495.345,-387.977,-479.126,-446.861,-387.207C-506.625,-293.914,-439.11,-172.436,-430.865,-61.949C-424.587,22.184,-427.769,103.583,-404.191,184.588C-377.173,277.411,-356.167,377.648,-284.143,442.135C-207.418,510.831,-102.877,551.195,0,546.482" fill="#080808"></path>
        <path d="M1440 1075.8029999999999C1533.856 1060.349 1605.309 993.1659999999999 1685.41 941.866 1765.655 890.4739999999999 1853.374 851.2429999999999 1910.142 774.707 1975.713 686.303 2060.331 581.212 2031.755 474.918 2002.713 366.889 1862.328 339.435 1774.499 270.155 1705.76 215.933 1655.808 135.765 1571.568 111.92000000000002 1487.658 88.16899999999998 1400.094 114.601 1316.858 140.618 1234.8600000000001 166.248 1149.7 194.80399999999997 1094.851 260.926 1040.4850000000001 326.46500000000003 1050.95 420.495 1019.165 499.493 974.2049999999999 611.235 843.821 702.8050000000001 869.729 820.434 894.657 933.614 1030.732 984.883 1136.504 1032.248 1231.708 1074.8809999999999 1337.0720000000001 1092.751 1440 1075.8029999999999" fill="#101010"></path>
    </g>
    <defs>
        <mask id="SvgjsMask1066">
            <rect width="1440" height="560" fill="#ffffff"></rect>
        </mask>
    </defs>
</svg>