<?xml version="1.0" encoding="utf-8"?>
<!-- Generator: Adobe Illustrator 26.5.0, SVG Export Plug-In . SVG Version: 6.00 Build 0)  -->
<svg version="1.1" id="Layer_1" xmlns="http://www.w3.org/2000/svg" xmlns:xlink="http://www.w3.org/1999/xlink" x="0px" y="0px"
	 viewBox="0 0 1027 600" style="enable-background:new 0 0 1027 600;" xml:space="preserve">
<style type="text/css">
	.st0{fill:#263238;}
	.st1{fill:#FFFFFF;}
	.st2{fill:#455A64;}
	.st3{fill:#00C5CD;}
	.st4{opacity:0.3;fill:#FFFFFF;enable-background:new    ;}
	.st5{opacity:0.3;enable-background:new    ;}
	.st6{fill:#E0E0E0;}
	.st7{fill:#FFBD9E;}
	.st8{fill:#995037;}
	.st9{fill:#FAFAFA;}
	.st10{fill:#DB8E6F;}
	.st11{opacity:0.2;}
</style>
<g>
	<path class="st0" d="M270.02,563.7V253.73c0-8.41,6.82-15.23,15.23-15.23h458.1c8.41,0,15.23,6.82,15.23,15.23V563.7
		c0,8.41-6.82,15.23-15.23,15.23h-458.1C276.84,578.94,270.02,572.12,270.02,563.7z"/>
	<rect x="303.44" y="249.23" class="st1" width="408.02" height="318.98"/>
	
		<ellipse transform="matrix(0.2289 -0.9735 0.9735 0.2289 168.164 1029.8118)" class="st2" cx="734.08" cy="408.76" rx="13.06" ry="13.06"/>
	<path class="st2" d="M284.08,458.38v-99.32c0-0.89,0.72-1.61,1.61-1.61h2.18c0.89,0,1.61,0.72,1.61,1.61v99.32
		c0,0.89-0.72,1.61-1.61,1.61h-2.18C284.8,459.99,284.08,459.27,284.08,458.38z"/>
	<circle class="st3" cx="391.65" cy="418.27" r="32.96"/>
	<circle class="st4" cx="391.65" cy="418.27" r="32.96"/>
	<path class="st0" d="M380.22,410c1.24-0.11,2.37,1.32,2.53,3.09s-0.75,3.34-2,3.44c-1.25,0.11-2.37-1.32-2.52-3.07
		S379.02,410.1,380.22,410z"/>
	<path class="st0" d="M401.22,409.56c-1.24,0-2.32,1.32-2.4,3.19s0.88,3.31,2.14,3.36c1.25,0.05,2.33-1.32,2.4-3.18
		C403.43,411.08,402.48,409.61,401.22,409.56z"/>
	<path class="st0" d="M404.82,424.85c0,0.38-6.15,0.7-13.72,0.7s-13.73-0.32-13.73-0.7c0-0.38,6.15-0.71,13.73-0.71
		C398.69,424.14,404.82,424.44,404.82,424.85z"/>
	<path class="st0" d="M382.86,406.21c-0.08,0.4-1.65,0.38-3.48,0.67c-1.83,0.29-3.32,0.77-3.52,0.42s1.19-1.48,3.31-1.81
		C381.29,405.17,382.86,405.84,382.86,406.21z"/>
	<path class="st0" d="M407.17,407.81c-0.24,0.32-1.66-0.42-3.5-0.98c-1.83-0.55-3.42-0.75-3.46-1.16c-0.04-0.41,1.75-0.84,3.86-0.18
		S407.42,407.53,407.17,407.81z"/>
	<circle class="st3" cx="630.3" cy="415.59" r="34.16"/>
	<circle class="st5" cx="630.3" cy="415.59" r="34.16"/>
	<path class="st0" d="M618.48,406.96c1.32-0.11,2.48,1.32,2.64,3.19c0.16,1.87-0.77,3.47-2.06,3.57s-2.48-1.32-2.64-3.19
		C616.27,408.66,617.19,407.07,618.48,406.96z"/>
	<path class="st0" d="M640.21,406.51c-1.32,0-2.41,1.42-2.49,3.3s0.92,3.43,2.22,3.48c1.29,0.05,2.41-1.42,2.49-3.3
		C642.5,408.12,641.51,406.57,640.21,406.51z"/>
	<path class="st0" d="M643.94,422.34c-0.15,0.18-1.57-0.83-3.96-2.08c-3.14-1.64-6.63-2.5-10.17-2.51
		c-3.55,0.16-7.02,1.06-10.2,2.64c-2.48,1.21-3.96,2.14-4.08,1.95c-0.12-0.18,1.17-1.32,3.61-2.82c3.22-1.94,6.88-3.04,10.63-3.18
		c3.78-0.01,7.48,1.05,10.68,3.05C642.83,420.89,644.03,422.21,643.94,422.34z"/>
	<path class="st0" d="M621.09,403.03c0.12,0.15-0.11,0.58-0.67,1.07c-0.74,0.67-1.66,1.13-2.64,1.32c-1,0.19-2.03,0.08-2.97-0.33
		c-0.7-0.32-1.02-0.69-0.94-0.86c0.08-0.17,1.78,0.17,3.65-0.2C619.41,403.67,620.84,402.72,621.09,403.03z"/>
	<path class="st0" d="M646.38,404.69c0,0.17-0.32,0.5-1.08,0.74c-1.01,0.28-2.08,0.25-3.06-0.11c-0.97-0.34-1.83-0.92-2.52-1.68
		c-0.5-0.58-0.69-1.04-0.55-1.17c0.13-0.13,1.68,0.87,3.52,1.52C644.53,404.64,646.25,404.3,646.38,404.69z"/>
	<polygon class="st6" points="564.8,510.4 572.71,506.48 580.44,510.78 579.15,502.04 585.62,496.02 576.91,494.55 573.19,486.53 
		569.1,494.36 560.33,495.42 566.5,501.74 	"/>
	<polygon class="st3" points="532.51,510.4 540.42,506.48 548.15,510.78 546.86,502.04 553.33,496.02 544.62,494.55 540.9,486.53 
		536.81,494.36 528.04,495.42 534.21,501.74 	"/>
	<polygon class="st3" points="500.22,510.4 508.13,506.48 515.85,510.78 514.57,502.04 521.04,496.02 512.33,494.55 508.61,486.53 
		504.52,494.36 495.75,495.42 501.92,501.74 	"/>
	<polygon class="st3" points="467.93,510.4 475.84,506.48 483.56,510.78 482.28,502.04 488.75,496.02 480.04,494.55 476.32,486.53 
		472.23,494.36 463.46,495.42 469.63,501.74 	"/>
	<polygon class="st3" points="435.64,510.4 443.55,506.48 451.27,510.78 449.99,502.04 456.46,496.02 447.75,494.55 444.03,486.53 
		439.94,494.36 431.17,495.42 437.34,501.74 	"/>
	<path class="st0" d="M585.99,316.04c0,0.2-35.43,0.36-79.14,0.36s-79.14-0.16-79.14-0.36s35.42-0.34,79.14-0.34
		S585.99,315.86,585.99,316.04z"/>
	<path class="st0" d="M547.08,306.54c0,0.2-17.49,0.36-39.07,0.36s-39.08-0.16-39.08-0.36s17.49-0.36,39.08-0.36
		C529.61,306.19,547.08,306.35,547.08,306.54z"/>
	<circle class="st3" cx="513.65" cy="407.74" r="45.01"/>
	<path class="st0" d="M498.09,396.36c1.7-0.13,3.24,1.74,3.46,4.21c0.21,2.47-1.02,4.56-2.72,4.71s-3.26-1.74-3.46-4.19
		S496.39,396.5,498.09,396.36z"/>
	<path class="st0" d="M526.7,395.83c-1.7-0.08-3.18,1.87-3.27,4.34c-0.09,2.47,1.2,4.52,2.9,4.59c1.7,0.07,3.18-1.87,3.28-4.34
		C529.72,397.95,528.42,395.83,526.7,395.83z"/>
	<path class="st0" d="M531.61,410.54c0.08,0.08-0.29,0.54-1.02,1.32c-1.03,1.11-2.16,2.13-3.38,3.05c-1.82,1.36-3.82,2.46-5.95,3.26
		c-2.64,0.99-5.44,1.44-8.26,1.32c-2.79-0.15-5.54-0.78-8.11-1.87c-2.09-0.85-4.09-1.89-5.98-3.13c-3.19-2.14-4.88-3.8-4.79-3.96
		c0.09-0.16,2.06,1.19,5.28,3.06c1.9,1.08,3.88,2.01,5.92,2.78c2.47,0.96,5.07,1.53,7.72,1.68c2.63,0.11,5.26-0.27,7.76-1.12
		c2.05-0.71,4-1.67,5.82-2.85c1.53-1.06,2.77-1.94,3.57-2.64C531,410.74,531.54,410.47,531.61,410.54z"/>
	<path class="st0" d="M500.12,386.24c-0.08,0.4-2.23,0.25-4.79,0.66c-2.56,0.41-4.56,1.19-4.76,0.83c-0.2-0.36,1.7-1.78,4.55-2.22
		C497.97,385.08,500.26,385.87,500.12,386.24z"/>
	<path class="st0" d="M536.36,388.34c-0.25,0.32-2.15-0.82-4.71-1.58c-2.56-0.77-4.76-0.92-4.77-1.32c-0.01-0.4,2.36-0.9,5.2,0
		S536.61,388.06,536.36,388.34z"/>
	<path class="st0" d="M494.88,407.31c0.17,0,0.46,0.44,0.5,1.32c0.02,1.12-0.32,2.21-0.98,3.11c-0.64,0.92-1.57,1.61-2.64,1.95
		c-0.82,0.24-1.32,0.12-1.38,0c0-0.4,1.66-0.98,2.85-2.72C494.41,409.23,494.48,407.37,494.88,407.31z"/>
	<path class="st0" d="M535.42,411.45c0,0.17-0.34,0.45-1.04,0.5c-0.92,0.04-1.82-0.24-2.56-0.79c-0.75-0.54-1.29-1.33-1.52-2.23
		c-0.15-0.69,0-1.12,0.18-1.13c0.4,0,0.84,1.32,2.16,2.23C533.97,410.93,535.33,411.05,535.42,411.45z"/>
	<path class="st3" d="M568.65,407.31c0,0,0-0.3-0.08-0.91l-0.17-2.64c0-0.58-0.07-1.24-0.11-1.95c-0.04-0.71-0.24-1.49-0.36-2.33
		c-0.12-0.84-0.28-1.75-0.44-2.72c-0.19-1.03-0.43-2.05-0.73-3.06c-1.31-5.23-3.4-10.23-6.2-14.83
		c-3.66-6.14-8.46-11.51-14.15-15.83l-2.41-1.78c-0.84-0.55-1.73-1.07-2.64-1.61c-0.91-0.54-1.75-1.13-2.72-1.57l-2.89-1.38
		l-1.46-0.7l-1.54-0.55l-3.14-1.15c-1.06-0.36-2.18-0.58-3.27-0.87c-1.1-0.33-2.23-0.58-3.36-0.77c-2.32-0.43-4.67-0.71-7.03-0.82
		c-1.2,0-2.41-0.16-3.63-0.13l-3.68,0.18c-0.62,0-1.24,0-1.86,0.12l-1.86,0.29c-1.23,0.2-2.49,0.34-3.73,0.61
		c-2.52,0.56-4.99,1.28-7.41,2.18c-2.49,0.89-4.91,1.96-7.25,3.18c-1.17,0.65-2.3,1.38-3.46,2.07c-0.57,0.37-1.17,0.67-1.71,1.08
		l-1.64,1.23c-2.22,1.65-4.32,3.44-6.3,5.36l-2.82,3.11l-0.71,0.79l-0.65,0.84l-1.32,1.7l-1.32,1.7l-1.12,1.83l-1.12,1.85
		l-0.55,0.92l-0.47,0.96l-1.89,3.96l-1.5,4.12c-3.83,11.38-3.83,23.7,0,35.07c0.51,1.32,1.02,2.74,1.52,4.12
		c0.5,1.37,1.25,2.64,1.89,3.96l0.47,0.98l0.55,0.92l1.12,1.83l1.12,1.83l1.32,1.71l1.32,1.7l0.63,0.84l0.71,0.78l2.82,3.11
		c1.98,1.92,4.09,3.72,6.3,5.37l1.65,1.21c0.54,0.42,1.15,0.73,1.71,1.09c1.16,0.69,2.28,1.42,3.46,2.07
		c4.64,2.4,9.57,4.2,14.67,5.36c1.24,0.26,2.51,0.41,3.75,0.61l1.85,0.29c0.62,0.08,1.24,0.08,1.86,0.12l3.68,0.18
		c1.21,0,2.43-0.09,3.63-0.13c2.36-0.11,4.71-0.38,7.03-0.82c1.14-0.19,2.26-0.44,3.36-0.77c1.11-0.29,2.22-0.53,3.28-0.87
		l3.13-1.15l1.54-0.55l1.46-0.7l2.89-1.38c0.93-0.48,1.84-1,2.72-1.57c0.88-0.54,1.78-1.06,2.64-1.61l2.4-1.79
		c5.7-4.32,10.5-9.69,14.17-15.83c2.8-4.62,4.89-9.64,6.19-14.89c0.29-1,0.54-2.02,0.73-3.05c0.16-0.96,0.3-1.87,0.44-2.72
		c0.13-0.84,0.28-1.62,0.36-2.33s0.08-1.32,0.11-1.95c0.08-1.15,0.13-2.03,0.17-2.64c0.04-0.61,0.08-0.91,0.08-0.91s0,0.3,0,0.91
		c0,0.61-0.07,1.5-0.11,2.64c0,0.59,0,1.32-0.08,1.97c-0.08,0.65-0.21,1.5-0.32,2.35c-0.11,0.84-0.26,1.77-0.41,2.74
		c-0.18,1.03-0.41,2.05-0.7,3.06c-1.25,5.28-3.31,10.34-6.11,15c-3.65,6.19-8.47,11.62-14.19,15.99l-2.43,1.82
		c-0.84,0.57-1.74,1.08-2.64,1.64c-0.9,0.55-1.77,1.15-2.74,1.58l-2.9,1.41l-1.48,0.75l-1.56,0.57l-3.15,1.16
		c-1.08,0.37-2.2,0.59-3.31,0.9c-1.12,0.33-2.25,0.6-3.4,0.79c-2.35,0.44-4.72,0.72-7.11,0.83c-1.2,0-2.43,0.17-3.65,0.16
		l-3.72-0.18c-0.63,0-1.32,0-1.89-0.12l-1.87-0.29c-1.25-0.2-2.53-0.34-3.79-0.61c-2.55-0.57-5.05-1.3-7.51-2.19
		c-2.51-0.9-4.96-1.97-7.33-3.21c-1.2-0.65-2.33-1.4-3.51-2.1c-0.6-0.33-1.18-0.7-1.74-1.09l-1.66-1.24
		c-2.25-1.66-4.38-3.47-6.38-5.41l-2.86-3.15l-0.73-0.79l-0.65-0.86l-1.32-1.71l-1.32-1.74l-1.13-1.85l-1.13-1.86l-0.57-0.94
		l-0.47-0.99l-1.91-3.96c-0.51-1.38-1.02-2.78-1.53-4.17c-3.87-11.52-3.87-23.99,0-35.51l1.53-4.17l1.91-3.96l0.49-0.99l0.57-0.94
		l1.13-1.86l1.13-1.85l1.32-1.73l1.32-1.73l0.65-0.86l0.71-0.79c0.96-1.04,1.91-2.1,2.86-3.14c2.01-1.94,4.14-3.75,6.38-5.42
		l1.66-1.24c0.55-0.41,1.16-0.73,1.74-1.09c1.17-0.69,2.32-1.44,3.51-2.08c2.37-1.23,4.82-2.3,7.33-3.21
		c2.45-0.89,4.96-1.62,7.51-2.19c1.25-0.26,2.53-0.41,3.79-0.61l1.87-0.29c0.62-0.08,1.25-0.08,1.87-0.12l3.72-0.18
		c1.24,0,2.45,0.11,3.67,0.16c2.39,0.11,4.76,0.39,7.11,0.83c1.15,0.2,2.28,0.46,3.4,0.78c1.11,0.32,2.23,0.54,3.3,0.9l3.17,1.16
		l1.56,0.58l1.48,0.71l2.92,1.4c0.98,0.45,1.83,1.08,2.73,1.6c0.9,0.51,1.79,1.07,2.64,1.64l2.43,1.82
		c5.72,4.36,10.54,9.77,14.19,15.96c2.79,4.64,4.86,9.69,6.12,14.96c0.24,1.09,0.59,2.1,0.7,3.07c0.11,0.98,0.28,1.89,0.41,2.74
		s0.25,1.62,0.32,2.35c0.07,0.73,0,1.32,0.08,1.95c0,1.16,0.08,2.04,0.11,2.64C568.69,406.99,568.65,407.31,568.65,407.31z"/>
	<rect x="303.44" y="249.23" class="st6" width="408.02" height="20.35"/>
	<path class="st1" d="M316.61,258.85c0,1.52-1.23,2.76-2.76,2.76c-1.52,0-2.76-1.23-2.76-2.76c0-1.52,1.23-2.76,2.76-2.76l0,0
		C315.37,256.09,316.61,257.33,316.61,258.85z"/>
	<path class="st1" d="M325.76,258.85c0,1.52-1.23,2.76-2.76,2.76c-1.52,0-2.76-1.23-2.76-2.76c0-1.52,1.23-2.76,2.76-2.76l0,0
		C324.53,256.09,325.76,257.33,325.76,258.85z"/>
	<path class="st1" d="M334.93,258.85c0,1.52-1.23,2.76-2.76,2.76c-1.52,0-2.76-1.23-2.76-2.76c0-1.52,1.23-2.76,2.76-2.76l0,0
		C333.69,256.1,334.92,257.33,334.93,258.85z"/>
	<path class="st6" d="M666.46,332.09c0,0.2-70.79,0.36-158.11,0.36s-158.13-0.16-158.13-0.36c0-0.2,70.79-0.34,158.13-0.34
		S666.46,331.91,666.46,332.09z"/>
	<path class="st6" d="M666.46,339.94c0,0.18-70.79,0.34-158.11,0.34s-158.13-0.16-158.13-0.34s70.79-0.36,158.13-0.36
		S666.46,339.74,666.46,339.94z"/>
	<path class="st2" d="M458.97,240.65c0,0-2.78-6.32-3.31-7.7c-1.41-3.79-10.55-29.15-8.35-32.98
		c10.12-17.77,17.97-30.34,37.92-30.34l35.26-0.24c0,0,33.4-6.81,56.94,69.17L458.97,240.65z"/>
	<path class="st2" d="M384.6,247l46.17-9.95l54.27-28.53l0.2-38.95c-8.14-2.24-23.74,3.4-51.77,17.69l-41.67,21.51
		c-12.11,6.24-16.87,21.12-10.62,33.23c0.93,1.81,2.09,3.5,3.44,5.03L384.6,247z"/>
	<path class="st7" d="M488.49,322.4c-0.67-2.19-0.21-3.6,2.98-2.52c7.04,2.36,13.34,1.58,14.87,0.22s0.13-3.96-2.16-3.76
		c-2.51-0.01-5-0.35-7.41-1.03c-1.96-0.47-3.83-1.25-5.53-2.33c-1.48-0.94-2.74-1.82-3.86-2.64c0,0-6.5-4.7-8.53-8.47l-22.28,9.54
		l3.59,11.16c0.87,3.98,3.71,7.23,7.53,8.63c6.37,2.07,16.5,1.32,16.5,1.32c1.86-1.21,9.02,9.15,11.2,12.81
		c2.18,3.65,4.75,4.12,5.59,1.89c0.57-1.53-5.8-12.89-8.02-16.46c-1.79-2.62-3.28-5.43-4.46-8.38"/>
	<path class="st8" d="M473.4,332.52c0,0.08-0.55,0-1.32-0.32c-0.99-0.5-1.8-1.29-2.33-2.27c-0.55-0.97-0.8-2.07-0.73-3.18
		c0.08-0.84,0.34-1.32,0.42-1.32c-0.2,2.93,1.35,5.69,3.96,7.04L473.4,332.52z"/>
	<path class="st8" d="M480.47,332.85c0,0.08-0.53,0-1.24-0.36c-0.92-0.52-1.68-1.29-2.18-2.23c-0.51-0.93-0.75-1.99-0.69-3.05
		c0.08-0.8,0.3-1.32,0.4-1.23c0.04,1.37,0.35,2.71,0.91,3.96C478.42,331.08,479.36,332.06,480.47,332.85z"/>
	<path class="st2" d="M383.28,245.46c0,0,70.73,81.28,70.63,79.93c-0.09-1.35,31.66-25.06,31.66-25.06l-69.29-82.57L383.28,245.46z"
		/>
	<path class="st0" d="M426.18,229.53c0,0,0.18,0.15,0.5,0.47l1.32,1.48l4.75,5.49c3.96,4.64,9.46,11.11,15.47,18.27
		c6.01,7.16,11.44,13.68,15.33,18.47l4.58,5.63l1.23,1.56c0.26,0.36,0.41,0.55,0.38,0.57c-0.18-0.14-0.35-0.3-0.49-0.47l-1.32-1.48
		c-1.2-1.32-2.8-3.23-4.75-5.49c-3.96-4.64-9.47-11.11-15.49-18.27s-11.42-13.68-15.33-18.47l-4.58-5.63
		c-0.49-0.62-0.9-1.13-1.21-1.56C426.42,229.92,426.29,229.73,426.18,229.53z"/>
	<path class="st0" d="M551.29,238.86c0.48-1.72,0.76-3.49,0.84-5.28c0.09-4.27-1.58-8.39-4.62-11.4c-1.71-1.81-3.56-3.36-5.05-5
		c-1.36-1.42-2.44-3.1-3.17-4.93c-0.5-1.26-0.7-2.61-0.58-3.96c0.03-0.49,0.15-0.97,0.37-1.41c-0.24,1.74,0,3.52,0.67,5.14
		c0.77,1.74,1.85,3.32,3.18,4.68c1.48,1.57,3.32,3.1,5.08,4.95c1.71,1.72,3.02,3.8,3.81,6.09c0.63,1.87,0.9,3.84,0.8,5.8
		c-0.06,1.32-0.31,2.63-0.75,3.88C551.77,237.94,551.57,238.43,551.29,238.86z"/>
	<path class="st0" d="M455.9,176.34c0,0,0.36-0.18,1.03-0.49c0.67-0.3,1.71-0.69,3.06-1.11c1.65-0.51,3.35-0.85,5.07-1.03
		c2.3-0.25,4.62-0.03,6.83,0.63c2.68,0.85,5.09,2.4,6.98,4.48c2.15,2.44,3.61,5.4,4.25,8.59c0.8,3.46,1.02,7.02,0.67,10.55
		c-0.42,3.79-1.78,7.42-3.96,10.55c-2.3,3.03-5.17,5.58-8.46,7.51c-3.1,1.95-6.21,3.54-9.17,5.09l-15.71,8.26l-10.55,5.5l-2.9,1.46
		c-0.33,0.19-0.68,0.34-1.04,0.46c0.31-0.22,0.64-0.42,0.98-0.59l2.84-1.58l10.55-5.7l15.62-8.38c2.94-1.57,6.07-3.18,9.11-5.12
		c3.2-1.88,6-4.37,8.26-7.32c2.1-3.05,3.41-6.59,3.8-10.28c0.34-3.44,0.13-6.91-0.62-10.29c-0.58-3.06-1.94-5.92-3.96-8.3
		c-1.8-2.04-4.12-3.56-6.7-4.41c-2.13-0.67-4.37-0.92-6.6-0.73c-1.7,0.15-3.38,0.45-5.03,0.91c-1.32,0.38-2.39,0.73-3.09,0.98
		C456.76,176.17,456.33,176.28,455.9,176.34z"/>
	<path class="st0" d="M433.96,236.98c-0.24,0.07-0.82-4.67-3.96-9.43c-3.14-4.76-7.15-7.27-6.99-7.45c0.96,0.38,1.86,0.93,2.64,1.61
		c3.91,3.1,6.7,7.4,7.91,12.24C433.87,234.93,434.01,235.95,433.96,236.98z"/>
	<path class="st9" d="M537.9,228.14c-0.49,0.18-0.99,0.32-1.5,0.41c-1.47,0.28-2.97,0.35-4.46,0.2c-2.37-0.24-4.65-1-6.7-2.2
		c-2.73-1.62-4.89-4.05-6.19-6.95c-1.6-3.52-1.91-7.5-0.86-11.22c0.59-2.11,1.91-3.95,3.73-5.17c0.99-0.66,2.2-0.91,3.38-0.7
		c1.18,0.27,2.22,0.97,2.93,1.95c2.64,4.21,3.22,9.39,1.58,14.07c-0.79,2.48-2.14,4.73-3.96,6.6c-1.9,1.9-4.27,3.27-6.87,3.96
		c-5.2,1.44-10.78,0.1-14.77-3.54c-3.55-3.49-5.2-8.48-4.42-13.4c0.34-2.26,1.24-4.39,2.64-6.2c0.7-0.88,1.6-1.58,2.64-2.02
		c1.04-0.43,2.21-0.43,3.24,0c1.91,0.89,3.21,2.71,3.44,4.8c0.15,1.86-0.22,3.72-1.07,5.38c-1.4,2.82-3.3,5.36-5.62,7.49
		c-1.73,1.61-3.67,2.98-5.76,4.08c-1.32,0.7-2.69,1.28-4.12,1.73c-0.47,0.16-0.86,0.24-1.11,0.3c-0.13,0.04-0.26,0.07-0.4,0.08
		c0.12-0.07,0.24-0.12,0.37-0.15c0.25-0.09,0.62-0.2,1.09-0.38c1.39-0.5,2.73-1.11,4.02-1.82c2.05-1.13,3.94-2.52,5.63-4.13
		c2.24-2.12,4.08-4.63,5.43-7.4c0.78-1.59,1.12-3.35,0.98-5.12c-0.23-1.88-1.41-3.52-3.13-4.33c-0.9-0.37-1.9-0.37-2.8,0
		c-0.93,0.41-1.75,1.04-2.37,1.85c-1.34,1.72-2.22,3.76-2.53,5.92c-0.73,4.7,0.85,9.46,4.25,12.79c3.82,3.43,9.14,4.67,14.09,3.28
		c2.49-0.62,4.76-1.9,6.6-3.69c1.75-1.76,3.06-3.91,3.84-6.27c0.75-2.28,1.02-4.69,0.78-7.08c-0.1-1.16-0.34-2.29-0.73-3.39
		c-0.32-1.08-0.82-2.09-1.48-2.99c-0.62-0.87-1.53-1.48-2.56-1.73c-1.01-0.18-2.06,0.03-2.92,0.61c-1.71,1.12-2.96,2.8-3.54,4.76
		c-1.04,3.59-0.77,7.44,0.74,10.86c1.23,2.83,3.31,5.21,5.95,6.82c1.99,1.21,4.22,1.99,6.53,2.27
		C533.93,228.69,535.95,228.58,537.9,228.14z"/>
	<path class="st8" d="M543.23,149c-1.5-1.83-2.58-3.97-3.15-6.27c-0.24-0.74-0.26-1.53-0.08-2.28c0.19-0.78,0.9-1.32,1.7-1.32
		c0.79,0,1.32,0.8,1.75,1.48c1.29,1.94,2.38,4.01,3.24,6.17c0.26,0.59,0.39,1.23,0.38,1.87c-0.01,0.65-0.35,1.26-0.91,1.6
		c-0.66,0.29-1.43,0.19-1.99-0.26c-0.53-0.45-0.98-0.99-1.32-1.6"/>
	<path class="st8" d="M546.62,147.53l-3.48-7.31c-0.39-0.7-0.64-1.47-0.73-2.27c-0.07-0.82,0.38-1.6,1.12-1.95
		c0.69-0.2,1.42-0.01,1.93,0.5c0.5,0.49,0.89,1.07,1.17,1.71l1.65,3.21c0.49,0.85,0.85,1.76,1.08,2.72
		c0.23,0.97,0.03,1.99-0.54,2.81c-0.62,0.8-1.72,1.06-2.64,0.62"/>
	<path class="st7" d="M531.12,170.13c0,0-4.85-6.29-5.28-9.6s3.63-9.23,12.35-10.55c3.18-0.33,6.25-1.38,8.97-3.06
		c1.1-0.75,1.53-2.17,1.02-3.4c-1.15-2.78-3.21-7.91-3.05-8.64c0.41-1.78,1.57-1.74,4.58,2.64s6.5,8.89,5.83,10.92
		c-0.67,2.03-11.3,8.32-11.3,8.32l2.9,4.68L531.12,170.13z"/>
	<path class="st2" d="M559.96,234.82l-33.46-65.57l21.55-12.07l45.27,71.76c0,0,2.39,4.59,5.72,9.96h-37.95"/>
	<path class="st0" d="M547.74,157.18c0,0-0.12,0.11-0.37,0.26l-1.13,0.69l-4.33,2.52l-15.56,8.86l0.12-0.4
		c3.26,6.6,7.49,14.31,11.75,22.66c6.34,12.33,11.87,23.64,15.7,31.87c1.93,4.12,3.46,7.47,4.5,9.77c0.49,1.12,0.88,2,1.17,2.64
		c0.16,0.3,0.28,0.62,0.37,0.95c-0.2-0.28-0.37-0.58-0.5-0.9c-0.32-0.66-0.75-1.53-1.32-2.64l-4.7-9.68
		c-3.96-8.16-9.52-19.43-15.83-31.76c-4.26-8.34-8.47-16.03-11.67-22.7l-0.12-0.26l0.25-0.15l15.68-8.64l4.42-2.39l1.17-0.61
		C547.47,157.23,547.61,157.19,547.74,157.18z"/>
	<path class="st0" d="M458.97,240.65c-2.89-4.7-4.79-9.94-5.58-15.41c0.21,0,1.12,3.51,2.64,7.74S459.16,240.55,458.97,240.65z"/>
	<path class="st0" d="M532.68,143.99c6.75,2.74,14.44-0.52,17.18-7.27c1.72-4.23,1.12-9.06-1.58-12.74
		c7.56-1.91,12.27-10.63,10.74-18.28c-1.53-7.65-8.35-13.61-15.97-15.26c-2.91-0.7-5.96-0.62-8.84,0.22
		c-2.89,0.89-5.28,2.94-6.6,5.66"/>
	<path class="st3" d="M531.61,126.89c0,0.08-0.98,0.26-2.57,1.09c-2.24,1.19-4.02,3.11-5.05,5.43c-1.53,3.46-1.22,7.46,0.84,10.63
		c0.58,0.9,1.29,1.71,2.11,2.4c0.84,0.73,1.79,1.32,2.82,1.75c4.44,1.92,9.61,0.74,12.78-2.92c0.74-0.84,1.34-1.79,1.78-2.81
		c0.43-0.98,0.72-2.01,0.86-3.07c0.76-6.19-3.64-11.82-9.83-12.59c-0.31-0.04-0.62-0.06-0.94-0.08c-1.81-0.07-2.8,0.22-2.81,0.13
		c0.23-0.1,0.47-0.16,0.71-0.2c0.69-0.15,1.39-0.22,2.1-0.21c4.57,0.01,8.7,2.71,10.55,6.89c0.85,1.92,1.17,4.04,0.91,6.12
		c-0.12,1.13-0.41,2.23-0.88,3.26c-0.46,1.09-1.09,2.11-1.87,2.99c-3.35,3.9-8.86,5.16-13.57,3.1c-1.09-0.47-2.09-1.1-2.98-1.89
		c-0.87-0.73-1.61-1.59-2.22-2.55c-1.12-1.77-1.76-3.81-1.83-5.91c-0.15-4.54,2.37-8.75,6.45-10.75c0.63-0.32,1.3-0.56,1.99-0.73
		C531.17,126.95,531.39,126.91,531.61,126.89z"/>
	<path class="st0" d="M537.33,106.1c7.15-0.41,12.62-6.53,12.21-13.68c-0.24-4.22-2.52-8.06-6.12-10.29
		c2.99-8.38-1.38-17.59-9.76-20.58c-4.77-1.7-10.06-1.06-14.29,1.73c-5.8-10.28-18.83-13.91-29.11-8.12
		c-5.43,3.06-9.25,8.34-10.46,14.45c-10.54-4.36-22.62,0.66-26.98,11.2c-2.24,5.42-2.07,11.54,0.47,16.83
		c-8.81,0.75-15.34,8.5-14.59,17.31c0.75,8.81,8.5,15.34,17.31,14.59c-2.28,7.45,1.91,15.35,9.36,17.63
		c4.08,1.25,8.5,0.59,12.03-1.8c4.5,7.26,14.03,9.49,21.29,4.99c3.05-1.89,5.34-4.78,6.49-8.18"/>
	<path class="st7" d="M521.45,167.99c0.28-6.42,0.62-12.24,0.62-12.24s14.36-1.81,14.98-16.46c0.62-14.65-0.84-48.4-0.84-48.4
		l-26.38-12.69l-28.44,22.9l4.46,67.27c0.65,9.69,8.93,17.09,18.64,16.65l0,0C513.7,184.58,521.05,177.2,521.45,167.99z"/>
	<path class="st0" d="M535.51,115.98c-0.24,0.25-1.61-0.9-3.57-0.98c-1.97-0.08-3.43,0.92-3.63,0.66c-0.2-0.26,0.13-0.57,0.77-1.04
		c0.85-0.6,1.88-0.89,2.92-0.83c1.04,0.04,2.04,0.43,2.84,1.09C535.42,115.42,535.62,115.88,535.51,115.98z"/>
	<path class="st0" d="M513.72,115.98c-0.24,0.25-1.6-0.9-3.57-0.98s-3.42,0.92-3.63,0.66c-0.21-0.26,0.13-0.57,0.77-1.04
		c0.85-0.6,1.88-0.89,2.92-0.83c1.04,0.04,2.04,0.43,2.84,1.09C513.63,115.42,513.83,115.88,513.72,115.98z"/>
	<path class="st0" d="M521.11,130.77c1.04-0.31,2.12-0.47,3.21-0.49c0.5,0,0.98-0.13,1.07-0.49c0.05-0.55-0.05-1.11-0.3-1.61
		c-0.46-1.32-0.93-2.7-1.42-4.15c-1.98-5.92-3.39-10.78-3.17-10.86s1.99,4.66,3.96,10.55l1.32,4.18c0.3,0.67,0.38,1.41,0.22,2.12
		c-0.15,0.36-0.46,0.64-0.84,0.75c-0.28,0.07-0.56,0.1-0.84,0.09C523.24,130.98,522.17,130.95,521.11,130.77z"/>
	<path class="st10" d="M522.07,155.77c-6.81-0.18-13.41-2.34-19.01-6.23c0,0,4.47,10.67,18.76,9.83L522.07,155.77z"/>
	<path class="st0" d="M501.68,79.02c-4.69,6.77-4.58,15.77,0.26,22.42c2.14,2.8,5.36,5.08,8.88,4.95c3.52-0.13,6.92-3.46,6.17-6.9
		c-1.22,3.83,0.91,7.93,4.74,9.14c3.83,1.22,7.93-0.91,9.14-4.74c0.43-1.35,0.45-2.79,0.07-4.15c0.27,1.58,0.83,3.1,1.65,4.48
		c0.85,1.41,2.41,2.23,4.05,2.14c2.2-0.29,3.48-2.64,3.96-4.84c1.39-6.66-0.73-13.57-5.61-18.31c-4.93-4.62-11.57-6.95-18.31-6.42
		c-6.7,0.59-13.02,3.37-17.98,7.91"/>
	<path class="st0" d="M503.54,84.19c1.86,4.15,2.86,8.64,2.95,13.19c0.08,4.58-1.62,9-4.75,12.35c-3.23,3.32-8.08,4.49-12.46,2.99
		c1.17,3.98,0.5,8.27-1.82,11.7c-2.45,3.26-7.28,4.81-10.86,2.85c-3.24-1.77-4.64-5.7-5.09-9.37c-1.99-16.45,9.73-31.39,26.17-33.38
		c2.14-0.26,4.3-0.29,6.45-0.08"/>
	<path class="st7" d="M485.42,119.11c-1.95-1.21-4.62-0.22-6.17,1.48c-3.13,3.44-2.89,8.77,0.56,11.91
		c2.12,1.93,5.07,2.65,7.83,1.92"/>
	<path class="st8" d="M484.97,130.02c0,0.08-0.65,0.17-1.66-0.11c-1.36-0.35-2.48-1.33-3.01-2.64c-0.27-0.77-0.24-1.6,0.08-2.35
		c0.27-0.58,0.69-1.08,1.21-1.44c0.91-0.59,1.6-0.58,1.61-0.5c0.01,0.08-0.59,0.28-1.32,0.9c-0.94,0.76-1.32,2.02-0.94,3.17
		c0.47,1.13,1.38,2.01,2.52,2.44C484.43,129.82,484.98,129.91,484.97,130.02z"/>
	<path class="st0" d="M514.94,109.88c-0.18,0.57-2.33,0.36-4.88,0.47c-2.55,0.12-4.67,0.44-4.89-0.12s1.85-1.89,4.81-1.99
		C512.95,108.14,515.14,109.34,514.94,109.88z"/>
	<path class="st0" d="M535.46,109.47c-0.22,0.2-0.66,0-1.17-0.07c-0.59-0.14-1.19-0.18-1.79-0.11c-0.77,0-1.61,0.21-2.26,0.2
		c-0.65-0.01-1.09-0.15-1.17-0.44s0.21-0.63,0.75-1c0.75-0.48,1.61-0.78,2.49-0.87c1.05-0.14,2.1,0.24,2.84,1
		C535.63,108.78,535.67,109.28,535.46,109.47z"/>
	<path class="st10" d="M517.69,134.52c1.1-0.71,2.45-0.9,3.71-0.53c1.26,0.44,2.03,1.71,1.83,3.03c-0.18,0.69-0.6,1.29-1.19,1.69
		c-0.86,0.67-1.97,0.94-3.05,0.74c-1.08-0.22-1.96-1.01-2.28-2.07c-0.27-1.08,0.22-2.21,1.2-2.74"/>
	<path class="st0" d="M524.9,136.09c0,0-0.47,0.41-1.41,0.61c-1.25,0.26-2.54,0.13-3.72-0.36c-1.17-0.5-2.17-1.33-2.88-2.39
		c-0.53-0.8-0.63-1.4-0.55-1.44c0.08-0.04,0.37,0.46,0.95,1.15c0.75,0.88,1.69,1.57,2.74,2.03c1.07,0.43,2.23,0.6,3.38,0.51
		C524.3,136.14,524.86,135.98,524.9,136.09z"/>
	<path class="st3" d="M495.15,143.08c-0.09,0,0-1.03-0.5-2.77c-0.66-2.45-2.13-4.61-4.17-6.12c-1.39-1.04-3-1.75-4.71-2.06
		c-1.96-0.35-3.97-0.18-5.84,0.5c-1.01,0.36-1.96,0.88-2.81,1.53c-0.9,0.65-1.69,1.45-2.33,2.36c-2.87,3.9-2.87,9.2,0,13.1
		c0.64,0.91,1.43,1.71,2.33,2.36c0.85,0.65,1.8,1.17,2.81,1.53c5.85,2.12,12.31-0.9,14.43-6.75c0.11-0.3,0.21-0.61,0.29-0.93
		C495.11,144.09,495.06,143.06,495.15,143.08c0.02,0.24,0.02,0.48,0,0.73c0,0.71-0.09,1.41-0.25,2.1c-0.59,2.57-2.06,4.85-4.14,6.45
		c-1.44,1.12-3.12,1.89-4.91,2.24c-2.06,0.4-4.19,0.23-6.17-0.47c-1.07-0.38-2.08-0.91-2.98-1.6c-0.96-0.69-1.8-1.53-2.49-2.49
		c-3.08-4.13-3.08-9.79,0-13.92c0.69-0.96,1.53-1.8,2.49-2.49c0.91-0.68,1.91-1.22,2.98-1.6c3.75-1.36,7.94-0.69,11.08,1.77
		c2.09,1.61,3.55,3.89,4.14,6.45c0.17,0.69,0.25,1.39,0.25,2.1C495.17,142.58,495.17,142.83,495.15,143.08z"/>
	<path class="st2" d="M535.45,77.49c0.13,0.01,0.25,0.04,0.37,0.09c0.34,0.14,0.66,0.34,0.92,0.59c1.01,1.01,1.45,2.45,1.17,3.85
		c-0.57,2.14-2.37,3.73-4.56,4.04c-2.71,0.33-5.46-0.33-7.73-1.85l-2.72-1.57l2.98,0.98c1.04,0.37,1.82,1.24,2.07,2.32
		c0.29,1.06,0.14,2.2-0.42,3.15c-0.6,0.95-1.55,1.63-2.64,1.9c-1.1,0.28-2.25,0.25-3.34-0.08c-2.43-0.95-4.46-2.7-5.75-4.96
		l-2.01-2.74l2.43,2.36c1.28,1.32,1.78,3.21,1.32,4.99c-0.36,1.62-1.44,2.99-2.93,3.71c-2.47,1.17-5.39,0.82-7.51-0.91
		c-1.37-1.11-2.38-2.6-2.9-4.29c-0.14-0.43-0.24-0.87-0.32-1.32c-0.01-0.16-0.01-0.32,0-0.47c0.07,0,0.15,0.63,0.57,1.73
		c0.58,1.56,1.58,2.93,2.89,3.96c2,1.54,4.7,1.82,6.98,0.73c1.32-0.66,2.27-1.88,2.57-3.32c0.39-1.55-0.04-3.2-1.15-4.35l0.51-0.44
		c1.21,2.12,3.1,3.76,5.37,4.67c1.9,0.7,4.03,0.09,5.28-1.5c0.95-1.56,0.38-3.96-1.23-4.5l0.26-0.59c2.13,1.46,4.71,2.13,7.28,1.89
		c2.03-0.24,3.73-1.67,4.3-3.64c0.28-1.29-0.07-2.63-0.94-3.63C536.25,77.96,535.87,77.7,535.45,77.49z"/>
	<path class="st2" d="M500.26,101.07c0,0,0,0.09-0.17,0.25c-0.19,0.23-0.4,0.46-0.62,0.66c-0.85,0.78-1.85,1.37-2.94,1.75
		c-1.7,0.59-3.55,0.62-5.28,0.08c-2.3-0.72-4.21-2.36-5.28-4.52l0.55-0.08c-0.75,4.65-5.12,7.82-9.78,7.08
		c-4.65-0.75-7.82-5.12-7.08-9.78c0.29-1.83,1.17-3.51,2.5-4.79l0.46,0.49c-1.56,1.29-3.52,2.01-5.54,2.02
		c-1.84,0.04-3.65-0.46-5.21-1.42c-1.4-0.87-2.49-2.15-3.13-3.67c-0.52-1.29-0.74-2.69-0.65-4.08c0.11-1.97,0.87-3.86,2.16-5.36
		c0.45-0.53,1-0.98,1.61-1.32c0,0-0.59,0.45-1.42,1.49c-1.18,1.51-1.85,3.36-1.93,5.28c-0.05,1.32,0.18,2.64,0.7,3.85
		c0.62,1.4,1.65,2.57,2.95,3.36c1.47,0.9,3.17,1.36,4.89,1.32c1.87-0.03,3.67-0.69,5.12-1.87l0.45,0.49
		c-2.29,2.35-2.95,5.85-1.68,8.88c1.58,3.32,5.2,5.16,8.81,4.47c3.14-0.74,5.56-3.25,6.17-6.42l0.15-0.92l0.41,0.84
		c0.97,2.04,2.72,3.6,4.85,4.33c1.65,0.55,3.43,0.55,5.08,0c1.07-0.33,2.06-0.86,2.93-1.56
		C500.01,101.36,500.26,101.04,500.26,101.07z"/>
	<path class="st2" d="M474.15,124.52c-0.33,0.3-0.72,0.54-1.15,0.69c-1.15,0.48-2.41,0.67-3.65,0.57c-1.93-0.14-3.73-1.02-5.03-2.45
		c-1.66-1.84-2.39-4.33-1.99-6.77l0.61,0.26c-1.3,1.72-3,3.11-4.95,4.05c-1.5,0.71-3.15,1.06-4.81,1.02
		c-1.55-0.04-3.06-0.46-4.42-1.21c-2.38-1.22-3.96-3.58-4.21-6.24c-0.16-1.75,0.31-3.5,1.32-4.95c0.28-0.38,0.62-0.71,0.99-1
		c0.12-0.11,0.27-0.2,0.42-0.26c0,0-0.51,0.45-1.19,1.42c-0.88,1.42-1.26,3.09-1.08,4.75c0.28,2.49,1.81,4.66,4.06,5.76
		c2.69,1.42,5.89,1.46,8.61,0.12c1.85-0.88,3.46-2.19,4.71-3.81l0.86-1.11l-0.25,1.32c-0.38,2.24,0.27,4.53,1.75,6.25
		c1.19,1.36,2.85,2.23,4.64,2.43c1.19,0.14,2.39,0.02,3.52-0.36C473.72,124.72,474.13,124.48,474.15,124.52z"/>
	<path class="st2" d="M548.85,95.95c0.32,0.77,0.42,1.62,0.29,2.44c-0.32,4.18-3.55,7.56-7.72,8.06c-0.81,0.17-1.66,0.11-2.44-0.18
		c0-0.12,0.94,0,2.36-0.3c3.82-0.72,6.75-3.79,7.29-7.64C548.88,96.88,548.73,95.96,548.85,95.95z"/>
	<path class="st2" d="M556.98,109.76c0.18,0.31,0.29,0.65,0.33,1c0.16,0.97,0.06,1.97-0.28,2.89c-0.49,1.46-1.7,2.57-3.19,2.94
		c-0.88,0.18-1.8,0.1-2.64-0.24c-0.95-0.36-1.71-1.09-2.1-2.03l0.66-0.22c0.12,0.43,0.18,0.87,0.17,1.32
		c-0.08,2.08-1.38,3.92-3.31,4.7c-0.85,0.31-1.77,0.35-2.64,0.12c-0.73-0.21-1.41-0.58-1.98-1.09c-0.84-0.71-1.4-1.69-1.6-2.77
		c-0.12-0.75,0-1.17,0-1.16c0,0.01,0,0.41,0.22,1.11c0.29,0.96,0.86,1.81,1.65,2.44c1.12,0.96,2.67,1.25,4.06,0.75
		c1.66-0.7,2.76-2.3,2.84-4.1c0.01-0.37-0.04-0.73-0.15-1.08l0.67-0.22c0.73,1.46,2.36,2.25,3.96,1.9c1.31-0.3,2.39-1.24,2.88-2.49
		c0.35-0.83,0.51-1.74,0.46-2.64C556.98,110.13,556.86,109.77,556.98,109.76z"/>
	<path class="st0" d="M516.69,129.38c0.09,0,0.15,0.3,0,0.75c-0.37,1.18-1.41,2.03-2.64,2.16c-0.46,0-0.74-0.08-0.73-0.17
		c0.01-0.09,1.02-0.29,1.91-1.07C516.14,130.28,516.49,129.38,516.69,129.38z"/>
	<path class="st0" d="M893.57,578.94c0,0.2-170.16,0.34-380.04,0.34s-380.09-0.11-380.09-0.34s170.16-0.34,380.09-0.34
		S893.57,578.75,893.57,578.94z"/>
	<path class="st3" d="M831.08,507.67c-3.3,4.7-9.69,3.14-12.66,0.28s-4.22-7.03-5.37-11c-2.64-9.06-5.28-18.57-3.3-27.81
		c0.47-2.8,1.7-5.41,3.56-7.56c1.9-2.16,4.82-3.13,7.64-2.55c3.23,0.84,5.28,3.96,6.69,7.02c4.28,8.87,6.53,18.59,6.6,28.44
		c0,4.59-0.53,9.39-3.11,13.19"/>
	<g class="st11">
		<path d="M831.08,507.67c-3.3,4.7-9.69,3.14-12.66,0.28s-4.22-7.03-5.37-11c-2.64-9.06-5.28-18.57-3.3-27.81
			c0.47-2.8,1.7-5.41,3.56-7.56c1.9-2.16,4.82-3.13,7.64-2.55c3.23,0.84,5.28,3.96,6.69,7.02c4.28,8.87,6.53,18.59,6.6,28.44
			c0,4.59-0.53,9.39-3.11,13.19"/>
	</g>
	<path class="st3" d="M818.75,531.49c-5.53-2.61-11.76-3.36-17.75-2.16c-3.21,0.54-6.6,1.5-8.75,3.96s-2.64,6.66-0.09,8.73
		c1.62,1.1,3.57,1.59,5.51,1.4c4.68,0,9.88-0.87,13.61,1.94c2.14,1.61,3.56,4.29,6.11,5.08c2.61,0.58,5.29-0.62,6.6-2.95
		c1.22-2.35,1.48-5.07,0.75-7.61C824.16,536.3,821.95,533.2,818.75,531.49z"/>
	<path class="st3" d="M840.13,514.41c-3.59-4.23-4.26-10.42-2.64-15.74c1.8-5.28,5.03-9.97,9.33-13.53
		c4.87-4.34,10.54-7.69,16.7-9.85c2.38-0.99,4.95-1.44,7.52-1.32c2.6,0.16,4.95,1.58,6.29,3.81c1.77,3.35,0.08,7.41-1.74,10.74
		c-3.22,5.88-6.9,11.49-11,16.79c-3.28,4.25-7.06,8.43-12.07,10.34c-5.01,1.91-10.21,1.69-12.87-1.78"/>
	<path class="st0" d="M831.34,578.61c-0.18-0.7-0.28-1.42-0.3-2.14c-0.15-1.54-0.34-3.51-0.57-5.83c-0.29-2.87-0.73-5.72-1.32-8.55
		c-0.77-3.45-1.81-6.82-3.11-10.1c-1.28-3.27-3.01-6.35-5.16-9.13c-1.74-2.27-3.97-4.12-6.52-5.42c-1.73-0.86-3.58-1.44-5.49-1.71
		c-0.72-0.03-1.43-0.13-2.12-0.3c0.72-0.09,1.44-0.09,2.16,0c1.98,0.15,3.92,0.66,5.72,1.49c2.68,1.27,5.03,3.15,6.87,5.47
		c2.23,2.82,4.03,5.96,5.34,9.31c1.32,3.33,2.36,6.76,3.09,10.26c0.56,2.86,0.94,5.76,1.13,8.67c0.18,2.48,0.26,4.48,0.29,5.87
		C831.43,577.2,831.42,577.91,831.34,578.61z"/>
	<path class="st0" d="M830.9,574.12c-0.03-0.33-0.03-0.66,0-0.99c0-0.74,0-1.69,0-2.84c0-2.45,0-6.01-0.13-10.42
		c-0.21-8.8-0.98-20.93-2.44-34.29c-1.46-13.36-3.43-25.35-5.2-33.97c-0.42-2.16-0.84-4.1-1.32-5.8c-0.47-1.7-0.7-3.18-1.02-4.37
		c-0.32-1.19-0.49-2.03-0.66-2.76c-0.11-0.32-0.16-0.65-0.17-0.99c0.15,0.3,0.26,0.61,0.34,0.94l0.82,2.72
		c0.37,1.17,0.74,2.64,1.17,4.34s0.91,3.63,1.32,5.79c2.43,11.23,4.26,22.58,5.47,34c1.46,13.38,2.12,25.55,2.18,34.36
		c0,4.41,0,7.98-0.15,10.45c-0.08,1.15-0.13,2.08-0.18,2.84C830.98,573.46,830.96,573.8,830.9,574.12z"/>
	<path class="st0" d="M830.85,550.65c-0.08-0.99-0.08-1.98,0-2.97c0.12-1.9,0.38-4.66,0.91-8.02c0.66-3.95,1.54-7.85,2.64-11.7
		c1.29-4.72,2.91-9.34,4.85-13.84c3.39-8.26,8.26-15.83,14.35-22.36c1.06-1.12,2.2-2.16,3.39-3.14c0.51-0.44,0.98-0.87,1.44-1.21
		l1.32-0.91c0.79-0.6,1.62-1.13,2.49-1.6c-2.86,2.27-5.59,4.7-8.16,7.29c-5.91,6.59-10.64,14.15-14,22.34
		c-1.94,4.46-3.58,9.03-4.92,13.7c-1.32,4.3-2.12,8.26-2.77,11.58c-0.65,3.32-0.96,6.05-1.19,7.91
		C831.16,548.72,831.04,549.69,830.85,550.65z"/>
	<path class="st0" d="M367.56,20.72c-0.31,0.06-0.61,0.1-0.92,0.12L364,21.07c-1.46,0.1-2.9,0.31-4.33,0.62
		c-0.86,0.18-1.79,0.26-2.74,0.55c-0.95,0.29-1.98,0.58-3.05,0.88c-5.2,1.67-10.1,4.17-14.51,7.4c-5.79,4.33-10.61,9.82-14.15,16.12
		c-5.43,9.78-7.77,20.97-6.71,32.11c0.08,1.21,0.34,2.41,0.51,3.64c0.16,1.23,0.41,2.45,0.74,3.65c1.16,5.03,3.08,9.86,5.67,14.32
		c5.53,9.66,14.06,17.24,24.31,21.59c5.4,2.25,11.17,3.48,17.02,3.63c6.02,0.24,12.03-0.71,17.69-2.8l1.73-0.66l0.22-0.08l0.21,0.09
		l25.06,12.37l-0.73,0.65l-7.99-23.86l-0.09-0.3l0.21-0.22c5.98-6.15,10.39-13.67,12.83-21.9c2.2-7.52,2.76-15.42,1.64-23.18
		c-1.79-12.92-8.26-24.74-18.18-33.21c-3.76-3.08-7.9-5.65-12.33-7.65c-3.35-1.4-6.82-2.45-10.38-3.14l-3.88-0.61l-2.86-0.17
		l-1.75-0.12c-0.2,0-0.4-0.02-0.59-0.07c0.2-0.02,0.4-0.02,0.59,0h1.75l2.89,0.08l3.96,0.54c3.61,0.63,7.15,1.65,10.55,3.02
		c4.51,1.96,8.73,4.53,12.54,7.62c4.63,3.89,8.57,8.54,11.65,13.74c3.59,6.08,5.96,12.8,6.98,19.79c1.17,7.88,0.63,15.92-1.58,23.57
		c-2.46,8.39-6.93,16.06-13.02,22.34l0.09-0.53c2.64,7.65,5.28,15.63,8.02,23.85l0.41,1.2l-1.13-0.55l-25.06-12.36h0.44l-1.77,0.67
		c-5.78,2.12-11.93,3.08-18.08,2.81c-5.97-0.14-11.87-1.4-17.38-3.71c-10.44-4.46-19.14-12.21-24.76-22.08
		c-2.63-4.52-4.58-9.41-5.76-14.51c-0.33-1.22-0.58-2.46-0.73-3.72c-0.17-1.24-0.45-2.45-0.51-3.69c-0.23-2.42-0.29-4.85-0.18-7.28
		c0.14-4.6,0.84-9.17,2.1-13.6c1.21-4.07,2.88-7.98,4.99-11.66c3.64-6.37,8.58-11.91,14.51-16.24c4.47-3.23,9.44-5.69,14.71-7.31
		l3.1-0.84c0.91-0.21,1.83-0.38,2.76-0.5c1.44-0.29,2.9-0.47,4.37-0.53l2.7-0.13L367.56,20.72z"/>
	<path class="st3" d="M379.35,66.73h-3.65l-8.1-11.01l-0.08-7.29c0,0-5.65-0.28-4.88,9.23s0,7.11,0,7.11s-11.98,0.18-12.97,1.24
		c-0.71,0.77-0.91,12.68-0.95,19.13c-0.15,3.26,1.97,6.19,5.12,7.06c0.43,0.11,0.87,0.16,1.32,0.16c2.99,0,18.23-2.64,18.23-2.64
		l6.32-0.08L379.35,66.73z"/>
	<polygon class="st3" points="389.79,64.61 387.82,89.6 381.57,89.68 381.29,65.21 	"/>
</g>
</svg>
