<svg xmlns="http://www.w3.org/2000/svg" viewBox="0 0 1027 600" xmlns:v="https://vecta.io/nano"><style><![CDATA[.S{fill:#263238}.T{fill:#fff}.U{opacity:.6}.V{fill:#c9f401}.W{fill:#e0e0e0}.X{fill:#455a64}.Y{fill:#fafafa}.Z{fill:#eb996e}.a{fill:#324a55}.b{fill:#b78876}]]></style><path d="M630.6 49.3h87.8v127.3h-87.8z" class="W"/><path d="M626.2 49.3H714v127.3h-87.8z" fill="#f5f5f5"/><path d="M637.1 63h66v99.8h-66z" class="T"/><g class="W"><path d="M703.1 162.8v-.5-1.4-5.5l-.1-20.6-.1-71.8.2.2H637l.2-.2v99.8l-.2-.2 48.1.1h13.3 3.5l1.2.1-1.1-.1h-3.5-13.2l-48.2.1h-.1v-.2-99.8-.2h.2 66 .2v.2l-.1 72-.1 20.5v5.4 1.4c.1.4-.1.7-.1.7z"/><path d="M714.3 49.3l-1.6 2.3-4.1 5.2-4.3 5c-.6.7-1.2 1.4-1.9 2 .5-.8 1.1-1.5 1.7-2.2l4.2-5.1 4.3-5.1c.5-.8 1-1.5 1.7-2.1z"/></g><path d="M703.5,162.5c3.3,5.2,7.2,10,11.5,14.4" class="T"/><path d="M715 176.9c-.7-.5-1.4-1.1-2-1.8l-4.3-4.9c-1.4-1.7-2.6-3.5-3.8-5.3-.5-.7-1-1.5-1.3-2.4.6.7 1.1 1.4 1.6 2.2l3.9 5.2 4.2 5a16.32 16.32 0 0 1 1.7 2z" class="W"/><path d="M626.2,176.5l11.5-14.2" class="T"/><path d="M637.7 162.3c-1.7 2.5-3.6 4.9-5.6 7.2l-5.9 6.9c1.7-2.5 3.6-4.9 5.6-7.2 1.8-2.4 3.8-4.7 5.9-6.9zm-11.5-113c2 2.1 3.9 4.3 5.6 6.7 1.9 2.2 3.6 4.6 5.2 7-2-2.1-3.8-4.3-5.6-6.7l-5.2-7zm34.3 34h22.1v62.8h-22.1zM493.2 35.5v82.7H374.4l-4.3-82.1z" class="W"/><path d="M370.1 36.1h118.8v82H370.1z" class="T"/><path d="M489.5 118.6H369.6V35.5h119.9v83.1zm-118.8-1.1h117.7V36.6H370.7v80.9z" class="W"/><path d="M383 46.3h93.1v61.6H383z" class="T"/><g class="W"><path d="M476.1 46.3h-.4-1.3-5.1H450l-67 .1.3-.3v61.6h0l-.3-.3h93l-.2.2.1-44.8V50.4v-3.3V46v1.1 3.2 12.3l.1 45v.5h-.2l-93.1.1h-.1v-.3h0V46.3 46h.3l67.2.1 19.1.1h5.1l1.8.1h0z"/><path d="M370.1 35.8c.7.4 1.4.8 2 1.3l4.7 3.5 4.5 3.7A13.65 13.65 0 0 1 383 46c-.1.1-3-2.2-6.5-5.1-2.3-1.4-4.4-3.2-6.4-5.1zm118.8.3c-2 1.9-4 3.7-6.2 5.3-2.1 1.8-4.3 3.4-6.6 4.9 2-1.9 4-3.7 6.2-5.3 2-1.8 4.3-3.5 6.6-4.9z"/></g><path d="M488.9,118.1l-13.2-10.7" class="T"/><path d="M475.6 107.3c2.4 1.6 4.7 3.3 6.8 5.1 2.3 1.7 4.4 3.6 6.4 5.6-2.4-1.6-4.7-3.3-6.8-5.1-2.2-1.7-4.4-3.6-6.4-5.6zM370.1 118a52.51 52.51 0 0 1 6.2-5.3c2.1-1.8 4.3-3.4 6.6-4.8-2 1.9-4 3.7-6.2 5.3-2.1 1.8-4.3 3.4-6.6 4.8zm31.8-52.5h58.6v20.6h-58.6z" class="W"/><g class="a"><path d="M272.1 518.6c1.2-4.6-1.9-9.3-5.3-12.6s-7.5-6.3-9.3-10.7c-2.9-7.2.9-16.5-4-22.5-2.9-3.5-8.1-4.7-10.6-8.4-1.2-2.1-2-4.4-2.3-6.7-2.8-11.9-8.7-22.9-17.2-31.7-.5 10.7 1.9 21.2 6.9 30.7 2 3.7 4.5 7.4 5.1 11.6 1.1 6.8-2.7 13.9-.9 20.6 2 7.7 10.6 12.8 11.1 20.7.4 6.7-5.4 12.6-4.9 19.2.4 2.8 1.4 5.6 3 7.9 5.2 8.5 12.8 14.4 24.3 14.2l14.1.4-10-32.7z"/><path d="M284.8 551.4c1.3.2 2.6.1 3.9-.1a18.35 18.35 0 0 0 4.6-1.2c2-.7 3.9-1.8 5.6-3.1 1-.8 1.8-1.9 2.3-3.1.4-1.4.6-2.8.6-4.2 0-1.5.1-3 .3-4.6.3-1.6.8-3.1 1.7-4.5 1.6-2.9 4.4-5.7 5.2-9.7.9-4 .2-8.1-.4-12.3s-1.3-8.8.2-13.2c1.6-4.4 4.6-8.4 6.1-13.4s.8-10.4 1-15.7c.1-2.7.7-5.4 1.8-7.8 1.1-2.5 2.7-4.9 3.9-7.5 2.5-5.3 2.9-11.3 3.5-17.2l1-9c.2-3 .7-6.1 1.5-9 .9-3 2-5.9 3.3-8.7.7-1.5 1.2-3 1.6-4.6.2-1.6.4-3.2.4-4.8.1-3.3 0-6.5-.4-9.7s-1-6.5-1.4-9.7v-.6l-.1-.6-.6.3c-3 1.5-5.5 3.7-7.5 6.4-1.9 2.6-3.5 5.5-4.6 8.6-2.3 6.1-3.1 12.4-4.3 18.5s-2.6 12-5.7 17.1c-1.5 2.5-3.4 4.8-5 7.3-1.7 2.4-2.9 5.1-3.4 8-.8 6 2.5 11.2 1.8 16.4-.3 2.6-1.1 5.1-2.5 7.3-1.2 2.3-2.7 4.4-4.2 6.5-1.4 2.1-2.7 4.2-3.7 6.5-1 2.2-1.5 4.6-1.7 7.1-.3 4.7.4 9.2 0 13.5-.4 4-1.5 8-3.4 11.6-1.8 3.5-3.7 6.6-5.2 9.7a45.38 45.38 0 0 0-2.1 4.5c-.6 1.4-1 2.9-1.2 4.5-.4 2.7-.4 5.4 0 8 .4 3.7 1.8 7.3 4.1 10.2.3.4.7.9 1.1 1.2.3.3.6.6.9.8.7.2 1 .4 1 .3-1-.7-1.9-1.6-2.7-2.6-2.2-3-3.5-6.5-3.9-10.2-.3-2.6-.3-5.3.1-7.9.3-1.5.7-2.9 1.2-4.3.6-1.5 1.3-3 2.1-4.4 1.6-3 3.5-6.2 5.2-9.7 1.9-3.7 3.1-7.7 3.5-11.8.3-4.3-.3-8.9 0-13.5a17.49 17.49 0 0 1 1.7-6.8c1.1-2.2 2.3-4.4 3.7-6.4 1.4-2.1 2.9-4.2 4.2-6.5 1.4-2.3 2.3-4.9 2.6-7.6.6-5.6-2.6-10.9-1.8-16.4.5-2.8 1.6-5.4 3.3-7.7 1.6-2.4 3.5-4.7 5-7.3 3.2-5.2 4.7-11.2 5.8-17.4 1.1-6.1 2-12.4 4.2-18.3 1.1-3 2.6-5.8 4.5-8.4s4.4-4.7 7.2-6.2l-.6-.4v.6c.4 3.3 1 6.5 1.4 9.7s.6 6.4.4 9.6c0 1.6-.2 3.1-.4 4.7-.4 1.5-.9 3-1.6 4.4-1.3 2.9-2.4 5.8-3.3 8.8a47.73 47.73 0 0 0-1.5 9.2l-.9 9c-.6 5.9-1 11.8-3.4 17-1.2 2.6-2.7 4.9-3.9 7.5a22.7 22.7 0 0 0-1.8 8.1c-.3 5.4.5 10.7-1 15.6-1.4 4.8-4.5 8.8-6 13.4s-.9 9.3-.2 13.6c.7 4.2 1.4 8.4.5 12.1s-3.4 6.5-5.1 9.5a11.6 11.6 0 0 0-1.7 4.7 35.53 35.53 0 0 0-.3 4.6c0 1.4-.2 2.8-.6 4.1-.5 1.2-1.2 2.2-2.2 3-1.6 1.3-3.5 2.4-5.5 3.1-1.5.6-3 1-4.5 1.2-.9.2-1.9.3-2.9.3h-.8z"/></g><path d="M328.3 385.3c-.1.1-.1.3-.1.4-.1.3-.2.7-.3 1.2l-1.1 4.9c-.5 2.1-1.8 4.4-2.9 7.4s-2.2 6.2-3.3 10c-1 3.7-2 7.9-2.9 12.4-1 4.5-2 9.2-4.4 13.7-1.1 2.3-2.4 4.6-3.4 7.2s-1.7 5.3-2 8.1c-.7 5.7-1.7 11.4-2.9 17l-7.8 32.6-6.5 26.6-4.3 17.9c-.5 2.1-.9 3.7-1.1 4.9l-.3 1.2v.4s.1-.1.2-.4.2-.7.3-1.2l1.2-4.8 4.6-17.9 6.7-26.5 7.9-32.6c1.3-5.7 2.3-11.4 2.9-17.1.3-2.7.9-5.4 1.9-7.9s2.2-4.8 3.4-7.1c2.5-4.6 3.5-9.5 4.4-14 1-4.4 1.8-8.6 2.8-12.4 1-3.7 2.1-7.1 3.1-10 1.1-2.9 2.2-5.3 2.7-7.5s.7-3.8.9-4.9c.1-.5.2-.9.2-1.2.1-.1.1-.3.1-.4z" class="W"/><path d="M287.3 551.5c9.2-5.5 11.7-22.1 7.8-32.1s-10.7-19.1-11.8-29.7c-.8-8.2 1.8-16.6-.2-24.6-2.6-10.8-13.2-19.1-13.2-30.2 0-6.2 3.5-12.1 3.2-18.3-.4-7.6-6.2-13.7-10-20.4-5.5-10.3-6-22.4-8-33.9s-6.4-23.9-16.7-29.5c-1.5 9.8-4 16.5-3.1 29.8.3 4.8 5.9 13.9 6.7 24.3.5 6.2.8 12.5 1.2 18.7s.8 12.3 3 17.9c1.7 4.3 4.4 8.3 5.7 12.8 2.4 8.4-.6 17.6 1.2 26.2 1.6 7.3 6.7 13.5 7.8 20.9 1.5 10.3-5.1 21.1-1.6 31 1.7 4.9 5.8 8.8 6.9 13.9.9 3.9 0 8.1.8 12 1.3 6.3 13.5 11.2 20 10.8" class="a"/><path d="M241.2 342.5v.5c0 .4.1.9.2 1.6l1 6.2c.5 2.7 1.9 5.7 3.1 9.4s2.4 7.9 3.4 12.6 2 9.9 2.9 15.6c.9 5.6 2 11.7 4.8 17.6 1.2 2.9 2.8 5.9 3.9 9 1.1 3.2 1.7 6.6 2 9.9.6 7.2 1.5 14.3 2.8 21.4l8.2 40.9 7 33.3 4.8 22.4 1.4 6.1c.1.7.3 1.2.4 1.6 0 .2.1.4.1.5v-.5c-.1-.4-.2-.9-.3-1.6-.3-1.4-.7-3.5-1.2-6.1l-4.5-22.5-6.8-33.3-8.1-40.9c-1.3-7.1-2.3-14.2-2.8-21.3-.3-3.4-.9-6.8-2.1-10.1-1.1-3.2-2.6-6.1-3.9-9-2.8-5.8-3.8-11.8-4.8-17.4s-1.9-10.8-3.1-15.6c-1-4.3-2.2-8.5-3.6-12.6-1.2-3.7-2.6-6.7-3.2-9.3s-.8-4.7-1.1-6.1l-.2-1.6c-.2-.3-.3-.5-.3-.7z" fill="#ebebeb"/><path d="M718.6 535.5c-22.9-13.6-29.8-41.4-30.9-66.8-.2-4.2-1-8.7.8-12.5 1.7-3.8 6.2-6.7 10.2-5.2 3.2 1.2 4.9 4.8 6.9 7.7 2.6 3.9 6.3 6.9 10.6 8.7 2.8 1.2 6.2 1.8 8.7.1 3.5-2.3 3.6-7.3 3.2-11.6l-1.9-23.5c-.3-4.2-.7-8.5.3-12.6s3.6-8 7.5-9.4 9 .5 10.2 4.6c.3 1.7.5 3.5.5 5.2.2 1.7 1.2 3.6 2.9 4s3.3-.9 4.5-2.3c4-4.6 6.6-10.2 8.9-15.9 2.4-5.6 4.6-11.4 8.2-16.3s8.7-9 14.8-9.8c6-.8 12.7 2.5 14.6 8.3 2 5.8-1 12.1-4.5 17.2-5 7.5-11.2 14.3-18.1 20.1-1.4.9-2.4 2.2-3 3.7-.7 2.9 2.1 5.4 5 6.2 3.2.8 6.6.2 9.9.4s7 1.3 8.4 4.3c2 4.2-1.2 8.9-4.5 12.1-6.6 6.4-14.4 11.7-22.8 15.5-3 1.4-6.2 2.6-8.5 5s-3.6 6.2-1.8 9.1c1.7 2.8 5.7 3.5 8.9 2.7s6-2.8 9-4.2c5.6-2.6 13.1-2.7 17.2 2 2.7 3.1 3.2 7.7 2.3 11.7-1.1 4-3 7.7-5.6 10.9-8.3 11.7-19.6 20.9-32.7 26.8-13.2 5.6-25.6 7.7-39.2 3.8" class="a"/><g class="W"><path d="M722.7 536.7c.2-10.1-1.6-4.5 1.2-17.5a381.1 381.1 0 0 1 12-41.7l3.7-10.8c1.2-3.6 2.4-7 3.8-10.4 2.7-6.4 5.7-12.7 9.1-18.7 3.2-5.8 6.4-11.2 9.5-16.2s6-9.7 8.9-13.8c4.5-6.5 9.5-12.7 15-18.4 1.9-2 3.5-3.5 4.5-4.6l1.2-1.1.4-.4a.78.78 0 0 1-.4.4l-1.2 1.2-4.4 4.7c-5.4 5.8-10.3 12-14.8 18.5-2.8 4.1-5.8 8.7-8.8 13.8L753 438c-3.4 6.1-6.4 12.3-9 18.7-1.4 3.3-2.6 6.8-3.7 10.3s-2.5 7.1-3.7 10.8c-4.8 13.6-8.8 27.5-12 41.6-2.8 13-1.1 7.3-1.4 17.4"/><path d="M743.6 456.3c-.2-.6-.4-1.2-.5-1.8l-1.1-4.9c-.9-4.1-1.9-9.9-3.1-16.2a391.09 391.09 0 0 0-3.2-16.2l-1.2-4.9c-.2-.6-.3-1.2-.4-1.8.3.5.5 1.1.7 1.7.4 1.1.9 2.8 1.4 4.8 1.1 4.1 2.3 9.8 3.5 16.2l2.9 16.2c.4 2 .7 3.6.9 4.9 0 .7.1 1.4.1 2z"/><path d="M796.9 442.2c-.7.2-1.4.3-2.1.4l-5.8 1c-4.9.9-11.6 2.4-19 4.3s-13.9 4-18.7 5.7a132.03 132.03 0 0 0-5.6 2c-.7.3-1.4.5-2.1.7.6-.4 1.3-.7 2-.9 1.2-.6 3.2-1.3 5.5-2.2 4.7-1.8 11.2-3.9 18.7-5.9 6.3-1.7 12.7-3.1 19.1-4.1 2.5-.4 4.5-.6 5.9-.8.7-.2 1.4-.2 2.1-.2zm-72.4 75.9c-.2-.2-.3-.4-.4-.6l-1.1-1.9-3.7-7.1c-3.1-6-7-14.4-11.2-23.7L697 460.9l-3.5-7.2-.9-2c-.1-.2-.2-.5-.3-.7.2.2.3.4.4.6.3.5.6 1.1 1.1 1.9.9 1.6 2.2 4.1 3.7 7.1 3.1 6 7 14.4 11.2 23.7l11.1 23.9 3.5 7.2c.4.8.7 1.4.9 2 .2.2.3.4.3.7zm70.1-28.5c-.2.2-.4.3-.7.3l-2 .8-7.5 3.1-24.7 10.3-24.8 10.1-7.6 2.8-2.1.7c-.2.1-.5.2-.7.2.2-.1.4-.3.7-.3l2-.8 7.5-3.1 24.7-10.3 24.8-10.1 7.6-2.8 2.1-.7c.2-.1.5-.1.7-.2z"/></g><g class="S"><path d="M678 102c-9-3.8-19.4 1.6-23.4 7.7s-5.8 13.4-6.9 20.6c-2.4 14.9-2.7 30-1.1 45 .5 4.4 1.3 9.2 4.7 12.1s7.9 3 12 2.2c3.7-.6 7.6-2.1 10-5 3.7-4.5 3.3-11 2.9-16.8-1.4-20.1.7-40.3 6.2-59.7"/><path d="M658.4 110.2c4.1-8.2 16.6-12.6 26.7-9.8 8.5 2.3 17.6 11 18.3 20 .9 13-6.2 26.4-2 38.7 4.9 14.4 22.8 21.4 27.3 35.9 1.9 6.1 1.2 12.6-2 18.2-1.6 2.8-4.1 5.4-7.3 5.9-4 .6-7.6-2-10.7-4.5-8.5-6.8-17.1-13.7-23-22.9-6.9-10.7-9.6-23.7-9.7-36.6-.1-12.8 2.2-25.5 4.4-38"/></g><path d="M694.1 126c1.3-10.5-6.1-20.2-16.7-21.5-.2 0-.4 0-.6-.1-10.3-1-19.4 6.7-20.9 16.9-1.3 8.9-2.5 18-2.5 21.2.1 9.9 5.9 13.7 8.2 14.9.8.3 1.7.5 2.6.6h0v.1l-2.2 11.3c-1 7.4 3.2 14.1 10.6 15.1 7.4 1.1 13.3-4.6 14.4-12.1l7.1-46.4z" fill="#936754"/><g class="S"><path d="M658.1 126.2c-.1.8.4 1.6 1.2 1.8s1.6-.3 1.8-1.2c.1-.8-.4-1.6-1.2-1.8s-1.6.3-1.8 1.2zm0-2.2c.2.2 1.5-.5 3.1-.2 1.7.2 2.8 1.2 3 1.1s0-.5-.5-.9c-.7-.6-1.5-1-2.4-1.1s-1.7 0-2.5.4c-.5.2-.8.6-.7.7z"/><use href="#B"/><path d="M674.5 126.7c.2.2 1.5-.5 3.1-.2s2.8 1.2 3 1.1c.2-.2 0-.5-.5-.9-.7-.6-1.5-1-2.3-1.1-.9-.1-1.7 0-2.5.4-.6.2-.8.6-.8.7zm-7.9 11.4c-.8-.4-1.7-.7-2.6-.9-.4-.1-.8-.2-.8-.5 0-.5.2-.9.5-1.2l1.7-3.1c1.6-2.6 2.9-5.3 4.1-8.1-1.8 2.5-3.3 5-4.7 7.7l-1.7 3.1c-.4.5-.6 1.1-.5 1.7.1.3.3.6.6.7.2.1.5.2.7.2.9.4 1.8.5 2.7.4z"/></g><path d="M664.3 158.1s6.4 1.5 15.2-2.2c0 0-3.7 8.2-15.8 5.3l.6-3.1zm2.5-15.8c.8-.7 1.8-1 2.9-.7.7.2 1.4.6 1.8 1.2s.3 1.4-.2 2c-.6.5-1.5.6-2.3.2-.7-.4-1.4-.9-1.9-1.6-.2-.2-.3-.4-.4-.6-.2-.1-.2-.3.1-.5" fill="#7c5142"/><g class="S"><path d="M671.4 140.1c-.3 0-.5 1.8-2.3 2.8-1.7 1.1-3.6.6-3.7.8s.4.4 1.2.6c1.1.2 2.1 0 3.1-.6.9-.5 1.5-1.4 1.8-2.4.2-.7 0-1.2-.1-1.2zm2.8-16.5c.1.5 1.8.5 3.7 1s3.4 1.2 3.7.9c.1-.2-.1-.6-.6-1.2-.8-.7-1.7-1.2-2.7-1.4-1-.3-2-.3-3-.1-.7.3-1.1.6-1.1.8zm-15-3c.2.4 1.4.2 2.8.4s2.5.6 2.8.3c.3-.4 0-.6-.4-1-.6-.5-1.4-.9-2.2-1a4.09 4.09 0 0 0-2.4.4c-.4.4-.7.7-.6.9z"/><path d="M663.5 105.7c1.2 7.7 6.7 13.9 14.1 16.2l-.6-2.8c3.3 6.4 8.8 11.4 15.6 13.9a19.87 19.87 0 0 0-7-27.1c-6.9-4.1-15.7-3.6-22.1 1.3m64 95.4c.8-.9 1.4-1.9 1.9-3 1.3-3 1.7-6.3 1-9.5-.4-2.2-1.3-4.3-2.4-6.2-1.3-2.2-2.9-4.2-4.7-6.1-3.7-4-8.7-7.5-13.2-12-2.3-2.1-4.1-4.7-5.4-7.5a27.03 27.03 0 0 1-2.3-8.3 71.24 71.24 0 0 1 0-14.6l.8-9.8c.1-1.1.2-2 .2-2.7 0-.3.1-.6.1-.9v.9c0 .7-.1 1.6-.1 2.7-.1 2.4-.4 5.7-.6 9.8-.4 4.8-.3 9.7.2 14.5.4 2.8 1.1 5.6 2.3 8.1a25.3 25.3 0 0 0 5.3 7.3c4.4 4.4 9.4 8 13.2 12 1.8 1.9 3.4 4 4.7 6.2 1.2 2 2 4.1 2.4 6.4.6 3.3.2 6.7-1.2 9.7-.4.8-.9 1.6-1.5 2.2a1.85 1.85 0 0 1-.7.8z"/></g><path d="M737.1 509.3l5.9 29 11.3 21.6c.8 1.5.2 3.3-1.3 4.1-.1 0-.1.1-.2.1h0c-.9.4-1.9.3-2.8-.2-5.4-3.2-25.1-15.2-25.4-17.3-.4-2.5-8.3-30.2-8.3-30.2l20.8-7.1z" class="V"/><g class="U T"><path d="M752.9 564.2l-28.6-19.5.3 1.2c.2 1.1.9 2 1.7 2.6 2.3 1.7 8.8 6.4 23.7 15.4.9.7 1.9.7 2.9.3h0z"/></g><g class="U T"><path d="M728.1 534.1c.9.4 1.3 1.3 1 2.2s-1.3 1.3-2.2 1c-.9-.4-1.4-1.4-1.1-2.4.4-.9 1.5-1.2 2.4-.8"/></g><path d="M743.4 553.1c.5-1.1 1.2-2 2-2.8 1-.7 2-1.1 3.2-1.4 0-.1-.4-.2-1.1-.1-1.9.2-3.4 1.5-4 3.3-.2.5-.2.9-.1 1zm2.9 3.4c.2.1.9-1.1 2.3-1.8.9-.4 1.8-.7 2.7-1-1-.4-2.2-.2-3.1.4-1.5.8-2 2.3-1.9 2.4zm-7.9-7.5c1-1.1 2.1-2.1 3.3-3.1 1.3-.8 2.7-1.4 4.1-2-3.2.1-6.1 2.1-7.4 5.1h0zm-2.5-8.7c.1.1 1.6-.9 3.6-1.4s3.8-.4 3.8-.6c-2.6-.8-5.5 0-7.4 2h0zm-2-8.5c1.2-.7 2.4-1.2 3.7-1.6 1.3-.2 2.7-.1 4 .1 0-.1-.4-.4-1.1-.6-2-.6-4.2-.2-5.8 1.1-.6.5-.8 1-.8 1zm3.3-3.2c0-.4-.1-.8-.2-1.1a7.2 7.2 0 0 0-1.5-2.7c-.4-.6-1.1-1-1.8-1.2-.5-.1-1 .1-1.2.6a2.2 2.2 0 0 0-.2 1.4c.6 2 2.5 3.2 4.5 3 2-.3 3.6-1.7 4.2-3.6a2.2 2.2 0 0 0-.2-1.4c-.3-.4-.9-.5-1.4-.3-.7.3-1.3.8-1.7 1.4a11.74 11.74 0 0 0-1.5 2.7c-.2.3-.2.7-.2 1.1.5-1.3 1.2-2.4 2-3.5.4-.5.9-1 1.5-1.2.3-.1.6 0 .7.2.2.3.2.6.1.9-.5 1.7-1.9 2.9-3.7 3.1-1.7.2-3.3-.9-3.9-2.5-.1-.3-.1-.7.1-1 .1-.2.4-.4.7-.3.6.2 1.2.6 1.6 1.1 1 .9 1.7 2.1 2.1 3.3z" class="S"/><path d="M658.7 512.4l1.4 23.6s-23.5 9.3-23.7 13.7l45.8-1-.6-36.8-22.9.5z" class="V"/><g class="U T"><path d="M674.2 533.7c.9.3 1.5 1.2 1.3 2.1s-1.1 1.5-2.1 1.3c-1-.3-1.6-1.2-1.4-2.2.3-.9 1.4-1.5 2.3-1.2"/></g><g class="U T"><path d="M682.2 548.6l-.2-3.7-43.9 2.4s-2 .9-1.8 2.4l45.9-1.1z"/></g><path d="M659.3 535.8c0 .2 1.1.3 2.2 1s1.7 1.6 1.9 1.5-.2-1.4-1.5-2.2-2.6-.6-2.6-.3zm-4.7 2c0 .2.9.6 1.7 1.5s1 1.9 1.2 1.9.3-1.2-.6-2.4c-1-1.1-2.3-1.2-2.3-1zm-2.6 5.9c.2 0 .5-1.1-.1-2.3s-1.6-1.7-1.7-1.5.6.8 1 1.8.5 1.9.8 2zm7.6-13.4c.1.2 1.1-.1 2.4-.1s2.3.4 2.4.2-.8-1-2.3-1c-1.6.1-2.6.8-2.5.9z" class="S"/><g opacity=".3"><path d="M659 517l.2 4.3 22.5-.8v-3.7z"/></g><g class="S"><path d="M659.4 525.6c.8.2 1.6.2 2.3-.1.8-.2 1.6-.4 2.4-.8a12.75 12.75 0 0 0 1.2-.7c.2-.2.5-.3.7-.5.3-.3.4-.9.1-1.2-.2-.3-.6-.5-1-.5-.3 0-.6.1-.9.1-.5.1-1 .3-1.4.5-.8.4-1.5.9-2.1 1.4-1 1-1.4 1.8-1.3 1.9.1 0 .6-.6 1.7-1.5.6-.5 1.3-.9 2-1.2.4-.2.8-.3 1.2-.4.5-.1.9-.1 1 .1s.1.1 0 .3-.3.3-.5.4c-.4.3-.8.5-1.2.7-.7.4-1.4.7-2.2.9a8.93 8.93 0 0 0-2 .6z"/><path d="M659.7 525.9c.4-.7.6-1.5.5-2.2 0-.8-.1-1.7-.4-2.5l-.6-1.4a1.92 1.92 0 0 0-1.5-1.1c-.4 0-.8.3-.9.7-.1.3-.2.6-.2.8-.2 1.4.2 2.8 1.1 3.9.9 1.2 1.9 1.4 1.9 1.3s-.7-.5-1.4-1.7a5.39 5.39 0 0 1-.8-2.1c-.1-.4-.1-.9 0-1.3.1-.5.2-.9.4-.8.2 0 .6.3.8.7l.6 1.2c.3.7.4 1.5.5 2.3.1 1.3-.1 2.2 0 2.2z"/><path d="M694.3 260.1s13.5 29.2 15.5 37.8c2 8.5 39.6 234 39.6 234l-34.6 2.1L668 313.4l18.9 219-34 2.8-24.6-237.9c1.6-9.9 10-38.2 10-38.2l56 1z"/></g><path d="M667.7 312s0 .2-.3.4c-.4.2-.9.2-1.3-.1-.5-.5-.8-1.2-.8-1.9l-.4-2.7c-.7-4-1.5-9.5-2.4-15.6l-2.2-15.6c-.2-1.9-.4-3.5-.6-4.7-.1-.6-.1-1.2-.1-1.7.2.6.3 1.1.4 1.7l.8 4.7 2.5 15.6c1 6.1 1.7 11.6 2.2 15.6l.3 2.7c0 .7.2 1.3.6 1.8.3.3.7.4 1.1.2.1-.3.2-.5.2-.4zm-3.5-37.7s0-.2.3-.4a2.2 2.2 0 0 1 1.4-.2c.7.1 1.3.7 1.4 1.5.2.9-.3 1.9-1.1 2.3s-1.8.2-2.5-.4c-.5-.5-.8-1.3-.6-2 .3-1.2 1.1-1.5 1.1-1.4-.3.4-.6.9-.7 1.5s.1 1.1.5 1.5c.5.4 1.2.6 1.8.3s.9-1 .8-1.6c-.1-.5-.5-1-1-1.1-.4-.3-.9-.2-1.4 0z" class="X"/><path d="M604.7 130.9l-21.2-32.7h0l-6.4-10.8s-1.9-10.8-2.8-13.8c-1.9-6.2-2.5-6.1-3.1-5.7-1.8.9 2.9 11.1.6 9.5s-4.4-13.1-6.2-12.1c-2.5 1.4 2.7 11.9 3.1 12.9s-1 1.5-1.2.6c-.4-1.2-5.1-14-7.6-12.7-1.3.7.2 3 .2 3s5.3 11.7 4.1 12.2-4.5-6.2-5.5-8.5-2.5-2.8-3.1-1.5c-.5.9 2.3 8.1 3.3 10.5 1 2.3 3.9 8.6 0 6.6-3.9-1.9-7.7-1.9-8.7-1.2-.6.5-.6 1.4-.1 1.9.3.3.7.5 1.1.5 1.5.2 2.9.6 4.3 1.2 1.1.4 2.1 1 3 1.8 1.1.9 1.9 1.7 2.6 2.4l5.3 10.9h0l23.2 45.6 48.6 40.3 12.3-22.1-45.8-38.8zm125.6 182.6l.9 3.4c.3 1.2.3 2.4.2 3.5a15.69 15.69 0 0 1-.9 4.3c-.6 1.2.6 2.5 1.7 1.9 1.1-.5 2.8-3.9 2.9-8.3s4.3 1 5.9 3 6.8 7.8 7.8 7.7c1.4 0 1.7-1.6.1-3.5s-6.1-8-5-8.7 9 9.3 9 9.3 1.3 2.4 2.6 1.6c2.3-1.6-6.9-11.6-7.8-12.6-.6-.6.5-1.5 1.1-.8s7.7 10.2 10 8.6c1.8-1.2-7.5-8.3-7.9-11.1s6.5 6.1 8.2 4.9c.6-.5 1-.9-3.7-5.4-2.3-2.2-11-8.9-11-8.9L726 241.8l-22.9.4 27.2 71.3z" fill="#936754"/><g class="V"><path d="M659.3 169.6h0c-3.7-1.4-7.4-3.1-10.9-4.9L612 137.1l-16.2 21.7 42.2 37.3c.7-.2 21.3-26.5 21.3-26.5z"/><path d="M662.1 169.5l-2.7.1c-8 .3-14.9 5.5-17.4 13-2.8 8.3-2.6 11.1-4.5 17.3-4.6 14.9 3.7 33 3.7 33l-2.8 26.2 56.1 1 2.8-31.6 10.5-47.3s-2.3-10.1-11.2-11c-4.8-.4-34.5-.7-34.5-.7z"/><path d="M698 171s13.3-.1 17.3 15.3 12.1 55.6 12.1 55.6l-25.2 7.6-13.5-55.3c-.9-3.1-1.3-6.4-1.1-9.7.5-5.5 2.6-12.7 10.4-13.5zm-39.9-.8l4.4-8.5 7.5 4.3v3.7l2.4-3.7 17.7-4.3v10.5l-20.6 2.3z"/></g><path d="M644.3 183.1l-.9 1.8-1.1 2.1c-.4.8-.9 1.7-1.3 2.8l-1.4 3.5-1.2 4.1c-1.7 6.4-2.1 13.1-1.2 19.8.2 1.5.4 3 .7 4.3.2 1.2.5 2.5.9 3.7.3 1.1.7 2.1.9 3 .2.8.5 1.5.8 2.2.3.6.5 1.3.7 1.9-.4-.6-.7-1.2-.9-1.8-.4-.7-.7-1.4-.9-2.2-.3-.9-.7-1.8-1-3-.4-1.2-.7-2.5-1-3.7-.3-1.3-.5-2.8-.8-4.3-.4-3.3-.5-6.7-.3-10 .2-3.4.8-6.7 1.6-9.9.4-1.5.8-2.9 1.3-4.2.4-1.2.9-2.4 1.5-3.5.4-1 .9-1.9 1.4-2.8l1.2-2.1c.2-.6.6-1.2 1-1.7zm24.4-17.8a8.39 8.39 0 0 1-.7 2.6l-2 6c-.1.4-.3.7-.4 1.1l-.1.4-.3-.2c-1.6-1-3.1-2.1-4.5-3.4-.6-.5-1.1-1.1-1.5-1.7 2 1.7 4.1 3.2 6.2 4.6l-.5.2.4-1.1 2.2-6c.4-.9.7-1.7 1.2-2.5zm14.5 7.8c-.8.5-1.7.9-2.7 1.1l-6.6 2.3-.4.1v-.4-.2l-.9-7.2c-.2-1-.2-2-.2-3 .3 1 .5 1.9.7 2.9l1.1 7.1v.3l-.4-.3 6.7-2.2c.9-.1 1.8-.3 2.7-.5zm9.3 75.8c2.5 2.7 3.1 6.6 1.6 9.9a21.75 21.75 0 0 0 0-5.1c-.3-1.7-.9-3.3-1.6-4.8z" class="S"/><path d="M725.4 233.1c-1.2.5-2.4.9-3.6 1.1l-8.9 2-9 1.4a23.08 23.08 0 0 1-3.7.3c1.2-.4 2.5-.6 3.7-.7l8.9-1.6 8.9-1.8c1.2-.4 2.4-.6 3.7-.7zm-2.9-15.3c-1.2.6-2.5 1-3.7 1.4l-9.2 2.5-9.2 2.3c-1.3.4-2.5.7-3.8.9 1.2-.6 2.5-1 3.7-1.4l9.2-2.5 9.2-2.3c1.2-.4 2.5-.7 3.8-.9z" class="Y"/><path d="M702.3 249.5c-.2-.5-.4-1-.5-1.5l-1-4-3.1-13.4-2.9-13.4-.8-4.1c-.1-.5-.2-1-.2-1.5.2.5.4.9.5 1.4l1 4 3.1 13.4 2.9 13.4.8 4.1c.1.6.2 1.1.2 1.6z" class="S"/><path d="M721.2 206c0 .2-18.8-.2-42-.8l-42-1.4c0-.2 18.8.2 42 .8l42 1.4zm-6.5-21.4c-.2.1-.5.1-.7.1l-2.1.2-7.7.5c-6.5.4-15.5.8-25.5 1.1s-19 .3-25.5.3c-3.3 0-5.9 0-7.7-.1l-2.1-.1c-.2 0-.5 0-.7-.1h.7l2.1-.1 7.7-.1 25.5-.5 25.4-.9 7.7-.3h2.1.8zm-90 .9c-.1-.1 4.2-5.3 9.6-11.6s10-11.2 10.1-11.1-4.2 5.3-9.6 11.6-9.9 11.2-10.1 11.1zm70.5 43.8c0 .2-12.8-.9-28.6-2.5-15.8-1.5-28.6-3-28.6-3.2s12.8 1 28.7 2.5 28.5 3.1 28.5 3.2zm.7 17.4c0 .2-12.5 0-27.8-.3l-27.8-.9c0-.2 12.5 0 27.8.3 15.3.2 27.8.7 27.8.9z" class="Y"/><path d="M658.1 258.9v-.9-2.6l.4-9.7.6-6.7.9-7.6c.7-5.4 1.2-11.3 1.9-17.5.9-10.7 2.4-21.3 4.6-31.7.9-4 1.8-7.2 2.5-9.4.3-1 .6-1.9.9-2.5l.3-.9c0 .3-.1.6-.2.9-.2.6-.4 1.5-.7 2.5-.6 2.2-1.5 5.4-2.3 9.4-2 10.5-3.5 21.1-4.4 31.7l-1.9 17.5c-.4 2.7-.7 5.2-1 7.6s-.5 4.6-.6 6.7l-.6 9.7-.1 2.6c-.2.2-.2.6-.3.9z" class="S"/><path d="M678.4 203.7H692v3.5h-13.6z" class="Y"/><g opacity=".3"><path d="M694.2 214.5c-6.1 9.6-5.7 21.9.9 31.1l2.5-17.5"/></g><path d="M686.3 127.2c1.6 3.3.8 7.2-.3 10.7-1.2 3.5-2.6 7-2.3 10.6.3 3.4 2.1 6.5 2.4 9.9.6 5.7-3.1 10.9-4.6 16.4-1.9 7.2-.1 15 4.9 20.6.4.6 1.1 1 1.9 1.1.9-.1 1.6-.8 1.7-1.7s.1-1.7-.1-2.6c-.7-8.2 7.2-14.7 8.3-22.8.7-5.3-1.4-10.5-1.8-15.8-.4-6.7 2.1-13.2 2.9-19.9.4-2.3.2-4.6-.4-6.8-.7-2.2-2.4-4-4.6-4.7a4.76 4.76 0 0 0-5.6 2.8" class="S"/><path d="M535 177.2L508.5 194l18.7-51.3 5.1-10.1 2.5-2.9c.9-.9 1.9-1.7 3.1-2.3 1.4-.8 2.9-1.4 4.4-1.8.8-.1 1.4-.8 1.4-1.6 0-.5-.3-.9-.7-1.1-1.2-.6-5.2-.1-9.2 2.5s-1.7-4.5-.9-7.1 2.9-10.8 2.2-11.7c-.9-1.2-2.4-.6-3.2 2.1-.7 2.6-3.5 10.3-4.8 9.9-1.3-.5 2.9-13.7 2.9-13.7s1.4-2.7-.2-3.3c-2.8-1.1-6.2 13.3-6.5 14.7-.2 1-1.7.5-1.4-.5s4.5-13.1 1.7-14.3c-2.2-.9-2.9 11.8-5.2 13.8s1.6-9.6-.6-10.3c-.8-.3-1.4-.4-2.6 6.6-.6 3.4-1.2 15.3-1.2 15.3l-6.2 12.1.1.1-25.2 53.2c-4.8 12.8 3.1 23.1 11 27.8h0c7.4 4.4 16.6 4.1 23.7-.7l30.5-20.4-12.9-21.8zm142.2 112.4l2.1 3.4c.7 1.2 1.1 2.4 1.3 3.7.4 1.6.5 3.3.4 5-.2.8.3 1.7 1.1 1.9.5.1 1 0 1.4-.3 1-1 1.8-5.1.5-9.9s5-.2 7.3 1.4 9.8 6.2 10.8 5.9c1.5-.5 1.3-2.2-1-3.7-2.4-1.5-9.1-6.7-8.2-7.9s12.6 7.2 12.6 7.2 2.2 2.2 3.3.8c2-2.4-11.2-10.4-12.4-11.1-.9-.5 0-1.8 1-1.2s11.5 8.6 13.5 6.2c1.6-1.9-10.7-6.6-12-9.5s9 4.6 10.4 2.7c.5-.7.8-1.2-5.7-4.7-3.1-1.7-14.7-6.1-14.7-6.1l-70.7-91.2-20.5 18.5 79.5 88.9z" class="Z"/><path d="M551.5 512.7l1.3 23.1s-23.1 9.1-23.2 13.4l45-.2-.6-36.9-22.5.6z" class="X"/><g class="U T"><path d="M566.7 533.6c.9.3 1.5 1.1 1.3 2.1-.2.9-1.1 1.5-2 1.3-1-.3-1.6-1.2-1.4-2.2.3-.9 1.3-1.4 2.3-1.1"/></g><g class="U T"><path d="M574.5 549.1v-3.7l-43.2 1.7s-2 .9-1.7 2.3l44.9-.3z"/></g><g class="S"><path d="M552.1 535.7c0 .2 1.1.3 2.2 1s1.7 1.6 1.9 1.5-.1-1.3-1.5-2.1c-1.4-.9-2.7-.6-2.6-.4zm-4.7 2c0 .2.9.6 1.7 1.5s1 1.9 1.2 1.9.3-1.2-.6-2.4-2.3-1.2-2.3-1zm-2.6 5.7c.2 0 .5-1.1-.1-2.2-.6-1.2-1.6-1.6-1.7-1.5-.1.2.6.8 1 1.8.5 1 .6 1.9.8 1.9zm7.5-13.1c.1.2 1.1-.1 2.3-.1 1.2.1 2.2.4 2.3.2s-.8-1-2.3-1-2.4.8-2.3.9zm-.1-4.6c.7.2 1.5.2 2.3-.1.8-.2 1.6-.4 2.3-.8.4-.2.8-.4 1.2-.7.3-.1.5-.3.7-.5.3-.3.3-.8.1-1.2-.2-.3-.6-.5-1-.5-.3 0-.6.1-.8.1-.5.1-.9.3-1.4.5-.8.4-1.4.8-2 1.4-1 1-1.3 1.8-1.2 1.9.1 0 .6-.6 1.6-1.4.6-.5 1.3-.9 2-1.2.4-.2.8-.3 1.2-.4.5-.1.9-.1 1 .1s0 .1 0 .2c-.1.2-.3.3-.5.4-.4.3-.8.5-1.2.7-.7.4-1.4.7-2.2.9a8.3 8.3 0 0 0-2.1.6z"/><path d="M552.5 526c.4-.7.6-1.4.5-2.2 0-.8-.1-1.7-.4-2.5-.2-.5-.4-.9-.6-1.3a1.92 1.92 0 0 0-1.5-1.1c-.4 0-.8.3-.9.6s-.2.6-.2.8c-.1.5-.1 1 0 1.5.1.8.5 1.6 1 2.3.9 1.1 1.8 1.4 1.8 1.2 0-.1-.7-.5-1.4-1.6a5.39 5.39 0 0 1-.8-2.1c-.1-.4-.1-.9 0-1.3.1-.5.2-.9.4-.8.2 0 .6.3.8.7l.6 1.2c.3.7.4 1.5.5 2.2.3 1.5 0 2.4.2 2.4z"/></g><path d="M629.3 512.4l1.8 23.1s-22.9 9.6-23 13.9l45-1.8-3.6-36-20.2.8z" class="X"/><g class="U T"><path d="M644.9 533c.9.2 1.5 1.1 1.3 2s-1.1 1.5-2 1.4c-1-.3-1.6-1.2-1.4-2.2.3-.9 1.3-1.5 2.2-1.2"/></g><g class="U T"><path d="M653 547.6l-.3-3.6-43 3.1s-2 .9-1.7 2.3l45-1.8z"/></g><g class="S"><path d="M630.3 535.3c0 .2 1.1.3 2.2.9 1.1.7 1.7 1.6 1.9 1.5s-.2-1.3-1.5-2.1-2.7-.5-2.6-.3zm-4.6 2.2c0 .2.9.5 1.7 1.4s1 1.9 1.2 1.9.3-1.2-.7-2.4-2.2-1.2-2.2-.9zm-2.5 5.7c.2 0 .5-1.1-.1-2.2-.6-1.2-1.7-1.6-1.7-1.4-.1.2.6.8 1.1 1.8s.5 1.8.7 1.8zm7.3-13.2c.1.2 1.1-.1 2.3-.1s2.2.4 2.3.2-.8-.9-2.3-1c-1.4 0-2.4.7-2.3.9zm-.3-4.7c.7.2 1.5.1 2.2-.1.8-.2 1.6-.4 2.3-.8a12.75 12.75 0 0 0 1.2-.7c.2-.2.5-.3.7-.6.3-.3.3-.8 0-1.2-.2-.3-.6-.5-1-.5-.3 0-.6.1-.8.1-.5.1-.9.3-1.4.5a14.29 14.29 0 0 0-2 1.4c-1 1-1.3 1.8-1.2 1.9s.6-.6 1.6-1.5c.9-.8 2.1-1.3 3.2-1.7.5-.1.9-.2 1 0s0 .1 0 .2c-.1.2-.3.3-.5.4-.4.3-.8.5-1.2.7-.7.4-1.4.7-2.1.9-.6.5-1.3.7-2 1z"/><path d="M630.5 525.6c.4-.7.6-1.4.5-2.2 0-.8-.1-1.7-.4-2.5-.2-.5-.4-.9-.6-1.3a1.92 1.92 0 0 0-1.5-1.1c-.4 0-.8.3-.9.7-.1.3-.2.5-.2.8-.1.5 0 1 .1 1.5.2.8.5 1.6 1 2.3.9 1.1 1.8 1.3 1.9 1.2 0-.1-.7-.5-1.4-1.6-.4-.6-.7-1.3-.8-2.1-.1-.4-.1-.9 0-1.3 0-.5.2-.9.4-.8.2 0 .6.3.8.7l.6 1.2c.3.7.5 1.5.5 2.2.1 1.5-.1 2.3 0 2.3z"/></g><path d="M592.3 120.8l-4.4 51.2-25.6-2c-.2-3 0-14.6 0-14.6s-10.7-1.6-10.8-12.3c-.1-5.2.7-15.9 1.4-25.5.9-10.7 10.1-18.8 20.9-18.1h0c10.9.6 19.2 10 18.5 20.8v.5z" class="Z"/><path d="M562.3 155.2c4.9.1 9.8-1.3 13.9-3.9 0 0-3.3 7.7-13.9 6.7v-2.8z" fill="#d1734a"/><path d="M555.5 126.3c.2.2 1.4-.6 3-.5s2.8 1 3 .8-.1-.4-.6-.8c-1.4-1.1-3.3-1.2-4.8-.2-.5.3-.7.6-.6.7zm15 .2c.2.2 1.3-.7 3-.7 1.6 0 2.9.7 3 .5.2-.2-.1-.4-.6-.8-.7-.5-1.6-.7-2.4-.7-.9 0-1.7.3-2.3.8-.7.5-.8.9-.7.9zm-5.1 10c-.9-.3-1.8-.4-2.7-.5-.4 0-.8-.1-.9-.4 0-.4.1-.9.3-1.2l1.2-3.2c1.1-2.7 2.1-5.5 2.8-8.3-1.4 2.6-2.5 5.3-3.4 8.1l-1.2 3.2c-.3.5-.3 1.1-.2 1.6.1.3.4.5.7.6.2.1.5.1.7.1h2.7zm4.8 1.1c-.3 0-.3 1.8-1.8 3s-3.4 1.1-3.4 1.3.4.3 1.2.4c1 0 2.1-.3 2.9-1 .8-.6 1.3-1.5 1.4-2.5 0-.8-.2-1.2-.3-1.2zm.7-18.6c.2.4 1.8.2 3.7.5 1.9.2 3.5.7 3.7.3.1-.2-.2-.6-.8-1-.8-.5-1.8-.9-2.8-1s-2 0-2.9.3c-.6.3-1 .7-.9.9zm-15.1.7c.3.4 1.6 0 3.2 0s2.9.3 3.2-.1c.1-.2-.1-.6-.6-1-1.6-1-3.6-.9-5.1.1-.6.4-.8.8-.7 1zm24.9-10.6h0c1.7 1.3 2.8 3.3 3.1 5.4v.2l.8 9.2c.3 3.1 1.6 6 3.7 8.2.9.9 2.5 1.5 3.3.4.3-.4.4-.9.4-1.4.6-7.3 2.6-13.8 2.5-21.5 0-2.1-1-4-2.7-5.3-1.6-1.2-3.6-2.3-5.3-1.5-1.8.8-4.1 4.2-5.5 5.6" class="S"/><path d="M588.7 125.6c.2-.1 7.3-2.2 7.1 5.1s-7.5 5.6-7.5 5.3.4-10.4.4-10.4z" class="Z"/><path d="M590.6 133.4s.1.1.3.2c.3.1.6.1.9 0 1-.6 1.6-1.6 1.5-2.8 0-.6-.1-1.2-.3-1.8-.1-.5-.5-.8-.9-1-.3-.1-.6 0-.8.3-.1.2-.1.3-.1.3s-.1-.1-.1-.4c0-.2.2-.3.3-.4.2-.1.5-.2.7-.2.6.2 1.1.6 1.2 1.2.3.6.4 1.3.4 2 0 1.3-.7 2.5-1.9 3.1-.4.1-.8 0-1.2-.2 0-.1-.1-.3 0-.3z" fill="#d1734a"/><path d="M586.9 104.1c1.8-2.9-3.1-7.1-6.7-8.2s-8.3.6-11.9 1.8c-2.2.7-4.5 1.8-6.9 1.7a18.35 18.35 0 0 1-4.6-1.2c-1.5-.6-3.1-.9-4.7-.9s-3.1 1-3.8 2.4c-.6 1.4 0 3 1.4 3.6.1.1.3.1.4.1-1.7-.9-3.9-.3-4.8 1.4s-.3 3.9 1.4 4.8c.7.4 1.6.5 2.5.4-1-.8-2.6.5-2.5 1.8.3 1.3 1.2 2.3 2.5 2.8 3 1.3 6.6.9 9.7-.1s6.1-2.7 9.2-3.8 8.3-3.2 11.5-2.1c2.3.8 3.9 3.6 5.2 3 1.2-.7 2.1-1.9 2.3-3.3.1-1.4.1-2.8-.2-4.2" class="S"/><path d="M549.2 103.2l1.2 1.4c1.1 1.2 2.5 2.1 4 2.6 2.3.8 4.7.7 6.9-.2 2.5-1.1 4.6-3.3 7-5.4 2.3-2.1 5.1-3.5 8.2-3.9 2.6-.3 5.1.6 7 2.4 1.2 1.3 1.8 3 1.6 4.7 0 .5-.1.9-.3 1.3-.1.3-.2.4-.2.4l.3-1.8c0-1.6-.6-3.2-1.7-4.3-1.7-1.7-4.1-2.4-6.5-2.1-2.9.5-5.7 1.8-7.8 3.9-2.4 2-4.6 4.3-7.2 5.5-2.3 1-5 1.1-7.4.1-1.6-.6-3-1.6-4.1-2.9l-.8-1.1c-.1-.3-.2-.5-.2-.6zm41.3 22.1s-.3-.2-.6-.8c-.4-.8-.5-1.7-.4-2.6.1-2.3 2.2-4.9 2.5-8.1.2-1.5-.1-3-.7-4.4-.6-1.1-1.6-1.9-2.7-2.3-.8-.3-1.6-.4-2.4-.3-.6.1-.9.2-.9.2 0-.1.2-.3.9-.4.9-.2 1.8-.2 2.7.1 1.3.5 2.4 1.3 3.1 2.5.8 1.4 1.1 3.1.9 4.7s-.7 3.2-1.4 4.6c-.6 1.1-1 2.3-1.3 3.5-.3 1.1-.1 2.3.3 3.3z" class="X"/><path d="M612.5 286l41.9 243.7-33 4-46.9-217.4 3.9 214.2h-31.6l-12.5-246.6z" class="S"/><path d="M537.4 208.4l-11.8 7.3-13.4-25.7c5.9-4.2 24.8-16.4 29.5-19.5 1.2-.8 2.4-1.5 3.7-2 3.2-1.2 6.5-2.1 9.9-2.4 3-.4 5.3-.6 6.8-.8 8.6 2.7 17.8 2.7 26.5 0h0c1 0 2 .1 3 .2h0c8.7 1.2 17.2 7.4 22.5 13.1l20.8 18.7-20.4 24.4-6.3-7.5 1.5 34.5 6 42.9h-81.6s-.2-10.1.6-24.2l2.1-50.6" class="V"/><path d="M536.6 230.1c.3-1.9.5-3.8.5-5.7.2-3.5.5-8.3 1-13.7l1.2-13.7c.3-1.9.4-3.8.4-5.7-.5 1.8-.9 3.7-1 5.6-.5 3.5-1.1 8.3-1.5 13.7-.4 5.3-.6 10.2-.7 13.7-.2 2-.2 3.9.1 5.8zm70.1-34c-.2 1.3-.3 2.6-.2 3.9l.4 9.4 1 9.4c.1 1.3.4 2.6.8 3.8.1-1.3 0-2.6-.1-3.9l-.7-9.4-.7-9.4c0-1.2-.2-2.5-.5-3.8z" class="S"/><path d="M586.4 200.2H600v3.5h-13.6zm26.4-22.6c-1.1-.3-2.1-.5-3.2-.5-3 .2-5.9 1.2-8.3 3-1.6 1-3.2 2.4-5 3.7-2 1.4-4 2.6-6.2 3.6-2.5 1-5 1.8-7.7 2.3-2.8.5-5.7.6-8.6.4s-5.7-.7-8.4-1.6c-1.3-.4-2.6-.9-3.8-1.4s-2.3-1.2-3.4-1.8c-4.4-2.6-7.4-6.2-10.5-8.4-2.4-1.9-5.3-2.8-8.3-2.7-1.1.1-2.2.4-3.2.9l.2-.1.6-.3c.7-.4 1.6-.6 2.4-.7a12.73 12.73 0 0 1 8.6 2.6c3.2 2.2 6.2 5.8 10.5 8.3a22.11 22.11 0 0 0 3.4 1.8c1.2.5 2.5 1 3.7 1.4 2.7.9 5.5 1.4 8.3 1.5 2.8.2 5.6 0 8.4-.4 2.6-.5 5.1-1.2 7.5-2.2 2.2-1 4.2-2.1 6.2-3.5 1.8-1.2 3.5-2.6 5.1-3.6 2.5-1.8 5.5-2.8 8.6-2.9.8 0 1.7.1 2.5.4.2.1.4.1.6.2-.1 0 0 0 0 0zm-75.3 26.3c-.1 0-.9-1.1-2.5-2.5-1-.9-2-1.6-3.1-2.3-1.4-.8-2.8-1.4-4.3-1.9s-3.1-.8-4.6-.9c-1.3-.1-2.6-.1-3.9.1l-3.5.6c0-.1.3-.2.9-.4.8-.3 1.7-.5 2.6-.7 1.3-.2 2.6-.3 4-.2 1.6.1 3.2.4 4.8.9 1.5.5 3 1.2 4.4 2a18.85 18.85 0 0 1 3.1 2.5l1 1.1c.3.3.5.6.7.9.2.5.4.7.4.8zm68.9 12c-.2.1-.4.3-.6.4l-1.9 1-1.4.7-1.7.7-4.1 1.6-2.5.8c-.8.3-1.8.5-2.7.7-1.8.5-3.9.9-6 1.2-4.6.7-9.4 1-14.1.9-4.7-.2-9.4-.9-14-1.9-2.1-.6-4.1-1.1-5.9-1.8l-2.6-.9-2.4-1c-1.5-.6-2.8-1.3-4-1.9-.6-.3-1.1-.6-1.6-.8l-1.2-.8-1.8-1.1c-.2-.1-.4-.3-.6-.4.2.1.5.2.7.3l1.8 1 1.3.7c.5.3 1 .5 1.6.8 1.2.5 2.5 1.2 4 1.8l2.4 1c.8.3 1.7.6 2.6.9 1.8.6 3.7 1.1 5.9 1.7 9.1 2.2 18.5 2.6 27.8 1.1 2.1-.4 4.1-.7 6-1.2.9-.2 1.8-.4 2.7-.7l2.4-.8c1.6-.4 2.9-1 4.1-1.5.6-.2 1.2-.4 1.7-.7l1.4-.6 1.9-.9c.4-.2.6-.2.8-.3zm22.4-21a24.33 24.33 0 0 0-3.8-.3c-3.1.1-6 1-8.7 2.6-2.6 1.6-5.1 3.5-7.3 5.6-.9.9-1.9 1.8-2.9 2.6.8-1 1.6-2 2.6-2.9 2.1-2.3 4.6-4.3 7.3-5.9s5.8-2.5 9-2.5c1 0 1.9.1 2.8.4.4.1.7.2 1 .4zm-20.7 47.3c-.2.1-.4.2-.7.3l-2 .9c-.8.4-1.9.8-3.2 1.2l-4.3 1.5-2.5.8c-.9.3-1.8.4-2.8.7-1.9.5-4 .9-6.2 1.2-9.5 1.6-19.2 1.7-28.7.2-2.2-.4-4.3-.7-6.2-1.2-1-.2-1.9-.4-2.8-.7l-2.5-.7c-1.6-.4-3-1-4.3-1.4a27.56 27.56 0 0 1-3.2-1.2l-2-.8c-.2-.1-.5-.2-.7-.3.3 0 .5.1.7.2l2 .7c.9.3 1.9.7 3.2 1.1s2.7.9 4.3 1.2l2.5.7 2.8.6c1.9.5 4 .8 6.2 1.1 9.5 1.4 19.1 1.3 28.6-.2 2.2-.4 4.2-.7 6.1-1.2.9-.2 1.9-.4 2.8-.7l2.5-.7c1.6-.4 3-1 4.3-1.4a27.56 27.56 0 0 0 3.2-1.2l2-.8c.4.1.7.1.9.1zm4.7 32.8h-.8l-2.2-.3-8.3-1c-3.5-.4-7.7-.7-12.3-.9a247.75 247.75 0 0 0-15.2-.2c-5.4.1-10.5.4-15.1.9-4.6.4-8.8.9-12.3 1.5-3.5.5-6.3 1-8.2 1.3l-2.2.4c-.3.1-.5.1-.8.1.2-.1.5-.2.8-.2l2.2-.5c1.9-.4 4.7-1 8.2-1.5l12.3-1.6c4.6-.5 9.8-.8 15.2-.9s10.5 0 15.2.2 8.9.6 12.4 1.1c3.5.4 6.3.8 8.3 1.2l2.2.4c.1-.1.3 0 .6 0z" class="Y"/><g class="S"><path d="M325.7 104.2a23.55 23.55 0 0 0-23.1 19c-1 5.5.1 11.6-2.5 16.6-3.4 6.6-12.3 9.7-14.3 16.9-1.7 6 2.3 12.5.6 18.5-1.2 4.3-5.1 7.4-7 11.5-1.9 4-1.5 8.7.9 12.5 2.5 3.7 6.8 5.7 11.2 5.2 2.7-.4 5.2-1.8 7.8-2.6 5.7-1.9 11.9-1.2 17.8-.4 5.9.9 12 1.8 17.8.4s11.4-5.7 12.3-11.6c.6-3.8-.9-7.6-2.1-11.3-7.8-24.4-4.2-51.1-9.7-76.1"/><path d="M304 126.7c-1.5-1.9-3.2-3.7-5.2-5.1s-4.5-2.1-6.9-1.8c-2.5.4-4.5 2.2-5.1 4.6-.5 2.5 1.2 4.8 3.6 5.3h.1c-1.8-.7-3.9.2-4.5 2.1-.1.2-.1.4-.2.6-.2 2.1 1 4.2 3 5s4.2.7 6.1-.2 3.7-2 5.3-3.3l5.7-4.3"/></g><g class="X"><path d="M284.4 197.7c-.3-.1-.7-.2-1-.4-.9-.6-1.5-1.5-1.9-2.4-.6-1.6-.6-3.3-.1-4.9.8-2 2-3.9 3.5-5.4 1.9-1.8 3.5-3.8 5-5.9 1.4-2.6 1.7-5.6.9-8.5-.6-3.1-1.8-6.2-1.8-9.8 0-1.8.5-3.6 1.5-5.1 1.1-1.5 2.4-2.8 4-3.7 3.1-2 6.6-3.1 9.3-5a11.03 11.03 0 0 0 3.4-3.4c.8-1.4 1.3-2.9 1.6-4.5.4-2.9.5-5.9.6-8.9.1-2.6.6-5.2 1.3-7.7 1.1-3.7 3.3-6.9 6.5-9.1.9-.6 1.8-1 2.8-1.4.2-.1.5-.2.8-.2h.3c-1.3.4-2.5 1-3.7 1.8-3 2.2-5.2 5.4-6.2 9-.7 2.5-1.1 5-1.2 7.6 0 3-.2 6-.5 8.9-.2 1.6-.8 3.2-1.6 4.6-.9 1.5-2.1 2.8-3.6 3.7-2.9 2-6.3 3.1-9.3 5-1.5.9-2.7 2.1-3.7 3.5a8.97 8.97 0 0 0-1.4 4.8c0 3.4 1.2 6.5 1.7 9.6.3 1.5.4 3.1.3 4.7-.1 1.5-.6 2.9-1.4 4.2-1.5 2.2-3.2 4.1-5.1 5.9a16.44 16.44 0 0 0-3.5 5.2 7.55 7.55 0 0 0 0 4.7c.3 1 .9 1.8 1.7 2.4.5.5.9.6.8.7zm17.6-63.3c.6-1.6.9-3.2 1.1-4.8 0-1.7-.3-3.3-.7-4.9 1.9 3 1.7 6.9-.4 9.7z"/><path d="M308.5 175s-.2-.1-.4-.5c-.4-.5-.7-1.1-.9-1.7-.7-2.3-.7-4.7.1-6.9.8-2.9 3.1-5.7 5.3-8.9 1.2-1.6 2.1-3.4 2.8-5.3.7-2 1-4.2 1-6.3.1-4.4-.8-8.7-1-12.6-.4-3.5 0-7 1.2-10.3.8-2.2 2.2-4.2 4.1-5.6.5-.4 1.1-.7 1.6-1 .2-.1.4-.2.6-.2-.7.4-1.4.9-2.1 1.4-1.8 1.5-3.1 3.4-3.8 5.6-1.1 3.2-1.4 6.7-1 10.1.3 3.8 1.2 8.1 1.1 12.6 0 2.2-.4 4.4-1.1 6.5-.7 1.9-1.7 3.7-3 5.4-2.3 3.2-4.5 5.9-5.3 8.7-.8 2.1-.9 4.5-.3 6.7.2.8.6 1.6 1.1 2.3z"/></g><path d="M275.5 177.6s.1.2.4.6c.4.5.9 1 1.4 1.2.9.5 1.9.7 2.9.6 1.3-.1 2.6-.7 3.5-1.7 1.1-1.2 1.7-2.8 1.9-4.4.2-1.9.1-3.8-.4-5.6l-1.8-6.1c-.7-2.2-.9-4.6-.5-6.9a12.86 12.86 0 0 1 3.2-6.1c1.5-1.6 3.1-3 4.8-4.2l4.7-3.3c1.3-1 2.6-2 3.7-3.2 1.8-1.6 3.1-3.7 3.8-5.9l.5-2.6c.1.9 0 1.8-.2 2.7-.7 2.4-2 4.5-3.7 6.2-1.2 1.2-2.4 2.3-3.7 3.3-1.4 1.1-3.1 2.1-4.7 3.3-1.7 1.2-3.3 2.6-4.8 4.1-1.5 1.6-2.6 3.6-3 5.8-.3 2.2-.2 4.5.5 6.6l1.8 6.1c.5 1.9.7 3.9.4 5.8-.2 1.7-1 3.3-2.1 4.6-1 1.1-2.3 1.7-3.7 1.8-1.1.1-2.1-.2-3.1-.7a3.16 3.16 0 0 1-1.4-1.4c-.1-.1-.2-.3-.2-.5l-.2-.1zm79.1-61.5c.9 6.4 2.7 12.8 5.5 16.8 2.2 3.2 6.6 5 7.3 8.9.6 3.2-1.4 6.5-1.1 9.8.5 5.2 6.2 8.3 7.8 13.3 1.3 4.1-.5 8.7-3.6 11.7s-7.3 4.6-11.5 5.7c-6 1.6-13.2 2.1-17.5-2.3-2.9-3.1-3.6-7.6-4-11.8-1-11.2-1-22.6-.9-33.9" class="S"/><path d="M315.6 127c-1.3-10.6 6.2-20.3 16.8-21.7.2 0 .4-.1.7-.1 10.3-1 19.5 6.7 21.1 17 1.4 9 2.5 18.1 2.5 21.4-.1 10-6 13.8-8.3 15-.8.3-1.7.5-2.6.6h0s-.1 0-.1.1l2.2 11.4c1 7.5-3.2 14.2-10.7 15.3s-13.4-4.7-14.5-12.2l-7.1-46.8z" fill="#ffbe9d"/><path d="M352.2 126.6c-.2.2-1.5-.5-3.2-.2s-2.8 1.2-3 1.1 0-.5.5-.9c.7-.6 1.5-1 2.4-1.1s1.7 0 2.5.4c.6.2.9.6.8.7zm-15.2 2.9c-.2.2-1.5-.5-3.2-.2s-2.8 1.2-3 1.1 0-.5.5-.9c.7-.6 1.5-1 2.4-1.1s1.7 0 2.5.4c.6.3.9.6.8.7zm6.3 9.8c.8-.4 1.7-.7 2.7-.9.4-.1.8-.2.8-.5 0-.5-.2-.9-.5-1.2l-1.7-3.1c-1.6-2.6-3-5.3-4.1-8.2.2-.1 2.3 3.4 4.8 7.8l1.7 3.1c.4.5.5 1.1.5 1.7-.1.3-.3.6-.6.7-.2.1-.5.2-.7.2-1 .2-2 .3-2.9.4z" class="S"/><path d="M345.7 159.3s-6.4 1.5-15.3-2.2c0 0 3.7 8.2 15.9 5.3l-.6-3.1zm-2.5-15.9c-.8-.7-1.9-1-2.9-.7-.7.2-1.4.6-1.8 1.2a1.66 1.66 0 0 0 .2 2c.6.5 1.5.6 2.3.2s1.4-.9 2-1.6c.2-.2.3-.4.4-.6 0-.1 0-.3-.2-.5" class="Z"/><g class="S"><path d="M338.5 141.2c.3 0 .5 1.8 2.3 2.8 1.7 1.1 3.7.6 3.7.8.1.2-.4.4-1.2.6-1.1.2-2.2 0-3.1-.6-.9-.5-1.5-1.4-1.8-2.4-.2-.8 0-1.2.1-1.2zm-2.4-16.5c-.1.5-1.8.5-3.7 1s-3.5 1.2-3.7.9c-.3-.3 0-.6.6-1.2 1.6-1.4 3.7-1.9 5.7-1.5.7.3 1.2.6 1.1.8zm14.7-2.8c-.2.4-1.5.2-2.9.4s-2.5.6-2.9.3c-.1-.2 0-.6.4-1 .6-.5 1.4-.8 2.2-.9s1.7.1 2.4.4c.6.2.9.6.8.8zm-1.6 6.1c-.1.8.4 1.6 1.2 1.8s1.6-.3 1.8-1.1c.1-.8-.4-1.6-1.2-1.8-.8-.3-1.6.2-1.8 1.1z"/><use href="#B" x="-340.2" y="2.1"/></g><path d="M316.7 174.3l37.9-7.4-1.1 21.1-17.5 5.5c-.6.3-11.6 0-11.6 0l-7.7-19.2zm-41.9 143.4l-.9 3.4c-.3 1.2-.3 2.4-.1 3.5.1 1.5.5 2.9 1 4.3.6 1.2-.6 2.5-1.7 2s-2.9-3.9-3-8.3-4.3 1.1-5.9 3.1-6.6 7.9-7.6 7.9c-1.4 0-1.7-1.5-.1-3.5s6-8.1 4.9-8.9-8.8 9.4-8.8 9.4-1.2 2.5-2.6 1.6c-2.3-1.5 6.7-11.7 7.6-12.7.6-.7-.5-1.5-1.2-.8-.6.7-7.5 10.3-9.9 8.7-1.8-1.2 7.4-8.5 7.7-11.2.3-2.8-6.4 6.2-8.1 5-.6-.4-1-.9 3.6-5.5 2.2-2.2 10.8-9 10.8-9l17.5-61h22.9l-26.1 72zM386.2 158s32.7-13 37.9-17 37.8-33.3 37.8-33.3l4.3-3.6a54.17 54.17 0 0 0 1.8-3.1c.6-1 .9-2.2 1.1-3.4.3-1.5.4-2.9.2-4.4-.2-.7.3-1.5 1-1.7.4-.1.8 0 1.2.2.9.8 1.7 4.5.6 8.7s4.5.1 6.5-1.4 8.5-5.7 9.5-5.5c1.4.4 1.2 1.9-.8 3.4-2.1 1.4-8 6.1-7.1 7.2.8 1 11.1-6.6 11.1-6.6s1.9-2 2.9-.8c1.8 2.1-9.7 9.4-10.8 10.1-.8.5.1 1.6.9 1.1s10.1-7.9 11.9-5.7c1.4 1.6-9.4 6.1-10.5 8.7s7.9-4.2 9.2-2.6c.5.6.8 1.1-4.9 4.3-2.8 1.5-12.9 5.7-12.9 5.7l-1.1 1.1-43.4 45-39.9 16-6.5-22.4z" fill="#ffbe9d"/><path d="M264 500.7l-6.4 28.9-11.6 21.5c-.8 1.5-.3 3.3 1.2 4.1.1 0 .1.1.2.1h0c.9.4 1.9.4 2.8-.1 5.4-3.1 25.3-14.8 25.7-16.9.4-2.5 8.7-30.1 8.7-30.1l-20.6-7.5z" class="V"/><g class="U T"><path d="M247.4 555.3l28.9-19-.3 1.2c-.3 1.1-.9 2-1.8 2.6-2.3 1.7-9 6.2-24 15-.9.6-1.9.6-2.8.2h0z"/></g><g class="U T"><path d="M272.6 525.6c-.9.4-1.3 1.3-1.1 2.2.3.9 1.3 1.4 2.2 1.1.9-.4 1.4-1.4 1.1-2.3-.4-.9-1.5-1.3-2.4-.9"/></g><path d="M257 544.3a9.42 9.42 0 0 0-2-2.9c-1-.7-2-1.2-3.2-1.4 0-.1.4-.2 1.1-.1.9.1 1.8.5 2.5 1.1s1.2 1.4 1.5 2.2c.2.7.2 1.1.1 1.1zm-3 3.4c-.2.1-.9-1.1-2.2-1.9-1.4-.8-2.7-.9-2.7-1.1 1-.3 2.2-.1 3 .5 1.6 1 2.1 2.4 1.9 2.5zm8-7.4c-1-1.1-2.1-2.2-3.3-3.1-1.3-.8-2.6-1.5-4-2 1.6 0 3.2.5 4.4 1.5 1.4.8 2.4 2.1 2.9 3.6zm2.7-8.6c-.1.2-1.5-.9-3.6-1.5s-3.8-.5-3.8-.7c1.3-.4 2.7-.4 4 .1 1.3.3 2.6 1 3.4 2.1zm2.1-8.5c-1.2-.7-2.4-1.3-3.7-1.6a13.41 13.41 0 0 0-4 0c0-.1.4-.4 1.1-.6 1-.3 2-.3 3.1-.1 1 .2 2 .6 2.8 1.2.5.7.8 1.1.7 1.1zm-3.2-3.2c0-.4.1-.8.2-1.1.3-1 .9-1.9 1.6-2.6.5-.6 1.1-1 1.8-1.2.5-.1 1 .2 1.2.6s.3.9.1 1.4c-.6 2-2.5 3.2-4.6 2.9-2-.3-3.6-1.7-4.1-3.7-.1-.5 0-1 .3-1.4s.9-.5 1.4-.3c.7.3 1.2.8 1.7 1.4.6.8 1.1 1.7 1.4 2.7.1.3.2.7.2 1.1-.5-1.3-1.2-2.5-2-3.5-.4-.5-.9-1-1.5-1.2-.3-.1-.6 0-.7.2-.2.3-.2.6-.1.9.5 1.7 1.9 2.9 3.6 3.2 1.7.2 3.4-.8 3.9-2.5.1-.3.1-.7 0-1-.1-.2-.4-.4-.7-.3-.6.2-1.2.5-1.6 1-.9.9-1.6 2.1-2.1 3.4z" class="S"/><path d="M354.2 511.4l-.9 23.2s23.3 8.7 23.5 13l-45-.1-.1-36.2 22.5.1z" class="V"/><g class="U T"><path d="M339.4 532.6a1.79 1.79 0 0 0-1.2 2.1 1.79 1.79 0 0 0 2.1 1.2c.9-.3 1.5-1.2 1.3-2.2-.3-.9-1.4-1.4-2.3-1.1"/></g><g class="U T"><path d="M331.8 547.4l.1-3.6 43.1 1.4s2 .9 1.8 2.3l-45-.1z"/></g><path d="M354 534.3c0 .2-1.1.3-2.2 1s-1.7 1.6-1.9 1.5.1-1.4 1.4-2.2c1.5-.7 2.8-.5 2.7-.3zm4.7 2c0 .2-.9.6-1.6 1.5s-1 1.9-1.2 1.9-.4-1.2.6-2.4 2.2-1.2 2.2-1zm2.7 5.6c-.2 0-.5-1 0-2.2s1.6-1.7 1.7-1.5-.5.8-1 1.8c-.4 1-.5 1.9-.7 1.9zm-7.7-12.9c-.1.2-1.1-.1-2.3 0s-2.2.5-2.3.3.8-1 2.3-1 2.4.6 2.3.7z" class="S"/><g opacity=".3"><path d="M354 516l-.1 4.1-22.1-.2-.1-3.8z"/></g><g class="S"><path d="M353.8 524.3c-.7.2-1.5.2-2.3 0-1.3-.2-2.5-.7-3.6-1.4-.3-.1-.5-.3-.7-.5-.3-.3-.3-.8-.1-1.2.2-.3.6-.5 1-.5.3 0 .6 0 .8.1 1.3.3 2.5.9 3.5 1.8 1 1 1.4 1.8 1.3 1.8s-.6-.6-1.7-1.4c-.6-.5-1.3-.8-2-1.1-.4-.2-.8-.3-1.2-.4-.5-.1-.9-.1-1 .1s0 .1 0 .2c.1.2.3.3.5.4.4.3.8.5 1.2.7.7.3 1.4.6 2.2.8l2.1.6z"/><path d="M353.5 524.7c-.1 0-.5-.7-.6-2.2a10.68 10.68 0 0 1 .3-2.5l.6-1.4c.3-.6.8-1 1.4-1.1.4 0 .8.3.9.6s.2.5.2.8c.1.5.1 1 0 1.5-.1.8-.5 1.6-1 2.3-.9 1.2-1.8 1.4-1.8 1.3s.7-.5 1.4-1.7c.4-.6.6-1.4.7-2.1.1-.4.1-.8 0-1.2 0-.5-.2-.9-.4-.8-.2 0-.6.3-.8.7l-.6 1.2c-.3.7-.4 1.5-.4 2.2l.1 2.4zm-43.2-267.6s-14.2 22.5-16.2 31.1c-1.8 7.7-32.9 175.2-39.4 209.9-.7 3.6 1.5 7 4.9 8.1l28.1 8.5c3.8 1.1 7.7-1 8.8-4.8.1-.2.1-.4.1-.6L331.5 347l-10.2 160.8c-.3 4.5 3.1 8.4 7.7 8.7h.8l27.6-.8a8.31 8.31 0 0 0 7.9-7.7l11-220.4c-2.4-6.2-8.8-27.8-8.8-27.8l-57.2-2.7z"/></g><g class="X"><path d="M299.1 501.3c-.6 0-1.2-.1-1.7-.2l-4.6-.9c-3.9-.8-9.3-2.1-15.1-3.7-5.9-1.7-11.1-3.5-14.8-5-1.9-.7-3.4-1.3-4.4-1.8-.5-.2-1.1-.4-1.6-.7.6.1 1.1.3 1.7.5l4.5 1.5c3.7 1.3 9 3 14.8 4.7s11.2 3 15 3.9l4.6 1.1c.4.3 1 .4 1.6.6zm-34.9-10.2c-1-.8-1.6-1.9-1.8-3.1-.4-1.2-.3-2.4.2-3.5.2 0 0 1.6.4 3.4.4 1.7 1.3 3 1.2 3.2zm3.4-6c.2 1.1.1 2.3-.3 3.3-.2 1.1-.8 2.1-1.5 2.9a15.83 15.83 0 0 1 .9-3.1 15.83 15.83 0 0 1 .9-3.1zm88.3 8.5c.5.9.7 1.9.8 2.9.3 1 .3 2 .2 3-.8-1.9-1.1-3.9-1-5.9zm3.4-1.6c.4 2.1.4 4.2-.1 6.2-.3-1-.4-2.1-.3-3.1-.1-1.1 0-2.1.4-3.1zm-15.5-227.1v.9l-.1 2.5-.6 9.3c-.6 7.8-1.6 18.7-3.4 30.5s-3.7 22.6-5.4 30.3l-2 9.1c-.2 1-.4 1.8-.6 2.5-.1.3-.1.6-.2.8 0-.3 0-.6.1-.9.1-.6.3-1.5.5-2.5.4-2.2 1-5.3 1.8-9.1 1.5-7.7 3.5-18.4 5.2-30.3s2.9-22.7 3.6-30.5l.8-9.3c.1-1 .1-1.9.2-2.5 0-.2 0-.5.1-.8z"/><path d="M368.9 264.9c-.2.1-.4.1-.6.1l-1.8.1-6.6.2c-5.6.1-13.4.1-21.9-.1-8.6-.2-16.3-.7-21.9-1.1l-6.6-.5-1.8-.2c-.2 0-.4 0-.6-.1h.6l1.8.1 6.6.3 21.9.9c8.6.3 16.3.3 21.9.3h6.6 1.8c.2-.1.4-.1.6 0z"/><path d="M348.6 264.6c.1.7.1 1.4 0 2.1l-.2 5.8-.9 19.1c-.2 3.7-.3 7.3-.6 10.5-.1 2.9-.9 5.7-2.2 8.3-.9 1.7-2.3 3.2-4 4.2-.5.3-.9.5-1.4.6-.2.1-.4.1-.5.1 0-.1.7-.2 1.9-1 1.6-1.1 2.9-2.5 3.7-4.2 1.2-2.6 1.9-5.3 2-8.2l.5-10.5 1.1-19.1c.2-2.3.3-4.3.4-5.8-.1-.5 0-1.2.2-1.9zm-32.1 13.9c.1.5.1 1 0 1.4-.1 1.3-.3 2.6-.7 3.9-2.3 8.7-9.4 15.2-18.2 17-1.3.3-2.6.4-3.9.4-.5 0-1 0-1.4-.1 1.8-.2 3.5-.4 5.3-.8 8.5-1.9 15.3-8.3 17.9-16.7.3-1.7.7-3.4 1-5.1zm59.6 23.5s-.4 0-1-.2c-.9-.3-1.7-.7-2.5-1.1-1.2-.6-2.4-1.4-3.4-2.3-1.3-1.1-2.5-2.3-3.5-3.6s-1.9-2.8-2.6-4.3c-.6-1.2-1-2.5-1.3-3.9-.2-.9-.4-1.8-.4-2.7-.1-.3-.1-.7 0-1 .1 0 .2 1.4.8 3.6.4 1.3.8 2.5 1.4 3.7.7 1.5 1.6 2.9 2.6 4.2s2.1 2.5 3.4 3.6c1 .9 2.1 1.6 3.2 2.3l3.3 1.7zM326 282.5v.6c0 .4-.1.9-.2 1.6l-.9 6.2c-.7 5.5-1.9 13.4-3.5 23.1-3.1 19.5-7.7 46.3-13.7 75.8s-12.5 56-17.4 75.2l-5.9 22.6c-.7 2.6-1.2 4.7-1.7 6.1l-.5 1.6c0 .2-.1.4-.2.5 0 0 0-.2.1-.5.1-.4.2-.9.4-1.6.4-1.4.9-3.5 1.6-6.1l5.7-22.6c4.8-19.1 11-45.7 17.1-75.1 6.1-29.5 10.8-56.3 14-75.8l3.7-23.1 1-6.2.3-1.6c.1-.5.1-.7.1-.7zm22.9 218.7v-.5c0-.4.1-.9.1-1.5l.5-6 2-21.9 6.2-72.3a865.91 865.91 0 0 0 1.9-39.9c.3-12.3.2-23.3 0-32.6s-.7-16.8-1.1-22l-.4-6c0-.7-.1-1.2-.1-1.5v-.5c0 .2.1.3.1.5 0 .4.1.9.2 1.5l.5 6c.4 5.2.9 12.7 1.2 22s.4 20.4.2 32.6c-.3 12.3-.9 25.8-1.8 40-1.9 28.3-4.6 53.8-6.4 72.3l-2.2 21.9c-.3 2.6-.5 4.6-.6 6-.1.6-.1 1.2-.2 1.5 0 .1 0 .2-.1.4z"/><path d="M365.9 498.3c0 .2-9.9 1.4-22.1 2.8l-22.2 2.1c0-.2 9.9-1.4 22.1-2.8 12.3-1.4 22.2-2.3 22.2-2.1z"/></g><g class="S"><path d="M328.8 110c-3.7 4.5-4.8 10.7-2.7 16.1 1.4 3.6 4.2 6.9 3.9 10.8-.3 4.8-5.2 8.5-4.9 13.3.3 5.4 7.2 8.7 7.2 14.2 0 5.4-3.3 7.6-9.7 8.7-4.1.7-6.4-4.3-8.4-8-2-3.6-2.7-7.9-3.1-12-.7-6.9-.8-13.8-.3-20.8.4-5.6 1.2-11.3 4.1-16.1 3-5 8-8.4 13.7-9.6"/><path d="M356.1 120c-2.1 3.1-8.6 1.2-12.5-1-4.3 2.7-10 1.6-12.8-2.6-2.3 2.9-6.8 1.9-8.5-1.2-1.7-3.2-.7-7.7 1.6-10.6 2.3-2.6 5.5-4.4 9-4.9 8.2-1.6 16.5 1.9 21.2 8.7 2.1 3.3 3.4 7.7 2 11.6"/></g><g class="X"><path d="M356.2 119.4c-.1.1-1.2-2-3.7-4.7-3.2-3.6-7.3-6.3-11.9-7.8-4.6-1.3-9.6-1-14 1.1-1.8.9-3.4 2.1-4.7 3.6 0 0 0-.1.2-.4s.5-.6.8-.9c1-1.1 2.2-2 3.5-2.7 4.5-2.2 9.6-2.7 14.4-1.2 2.6.8 5 2 7.2 3.6a25.63 25.63 0 0 1 4.8 4.5c1 1.1 1.8 2.3 2.6 3.6.3.3.6.8.8 1.3z"/><path d="M336.8 120.6c-.1 0-.3-1.1-1.1-2.8-1-2.2-2.5-4.1-4.5-5.4s-4.4-1.9-6.7-1.6c-1 .2-1.9.4-2.9.8 0 0 .2-.2.7-.5.7-.4 1.4-.6 2.1-.8 2.5-.4 5.1.1 7.2 1.5s3.6 3.4 4.5 5.8c.4 1 .7 2 .7 3z"/></g><path d="M316.7 174.3s-16.9 4.8-23.2 15.2-25.8 83.6-25.8 83.6l22.3 2.5 18.6-48.7 4.6 15.2-2.9 15 57.1 2.7 4-65.7 61-29.7 6.9-7.1-17.7-18.7-6.8 6.3-61.2 22.4s2.3 18.1-14.2 20.7c-16.6 2.6-22.7-13.7-22.7-13.7z" class="V"/><path d="M349.4 198.8H363v3.5h-13.6z" class="Y"/><path d="M302.3 205.2c.2 0 2.7 8 5.7 17.9 3 10 5.2 18.1 5.1 18.1-.2.1-2.7-8-5.7-17.9s-5.3-18-5.1-18.1zm80.1-25.5c-2.5 2-4.8 4.2-6.9 6.7-1.8 2.6-3.4 5.5-4.6 8.5.1-1 .3-1.9.7-2.8 1.6-4.4 4.5-8.2 8.2-10.9.8-.6 1.7-1.1 2.6-1.5z" class="S"/><g opacity=".2"><path d="M303.4 208.7c-1.3 6.2-2 12.4-1.9 18.7-.1 1.6.1 3.1.5 4.6s1.4 2.8 2.8 3.6c1.7-2.4 3.4-5 3.7-7.9.1-2.1-.3-4.1-1-6.1l-3.9-13.6"/></g><path d="M318.3 170.7c3 2.1 4 6.2 3.9 9.8-.1 3.7-1.2 7.3-1.4 11-.1 3.7.8 7.7 3.7 9.9l14.5-4.9c-2.9-1.6-3.5-5.6-2.8-8.7.6-3.2 2.1-6.2 2.3-9.6.5-8.6-5.7-16-8.6-19.5" class="S"/><path d="M377.9 515.9l-5.6 32.1h27.8l3.1-30.4z" class="V"/><path d="M400.7 545.4c-1.3.2-2.7.3-4 .2-2.5 0-6 0-9.8-.2l-9.8-.4c-1.4 0-2.7-.1-4-.3 1.3-.2 2.7-.3 4.1-.2l9.8.2 9.8.4a26.62 26.62 0 0 1 3.9.3z" class="S"/><g class="U T"><path d="M372.3 548h27.8l.3-2.6-27.6-.7-.5 3"/></g><g class="S"><path d="M385.9 545.4a128.97 128.97 0 0 1 1.5-12.3c.5-4.1 1.2-8.1 2.2-12.2a128.97 128.97 0 0 1-1.5 12.3c-.6 4.1-1.3 8.2-2.2 12.2z"/><path d="M399.2 545.3c.3-2 .1-3.9-.5-5.8a12.31 12.31 0 0 0-3.5-5.2c-2-1.6-4.6-2.5-7.2-2.5a12.34 12.34 0 0 0-7.2 2.3c-1.7 1.3-3 3-3.9 5-.8 1.8-1.2 3.8-1.2 5.8 0 0 0-.1-.1-.4v-1.2c0-1.5.4-2.9.9-4.3a11.96 11.96 0 0 1 3.9-5.2c2.2-1.7 4.9-2.5 7.6-2.5 5.1-.1 9.7 3.3 11.1 8.2.4 1.4.6 2.9.4 4.4 0 .4-.1.8-.2 1.2-.1.1-.1.2-.1.2z"/></g><path d="M497.5 506.9l6.8 22.2s24.8.6 26.5 4.5l-42.5 14.7-12-34.1 21.2-7.3z" class="V"/><g class="U T"><path d="M490.5 531.7c-.8.6-1 1.6-.5 2.4s1.6 1 2.4.5c.8-.6 1-1.7.5-2.5-.6-.7-1.7-.9-2.5-.3"/></g><g class="U T"><path d="M488.3 548.2l-1.1-3.5 41.2-12.7s2.2.2 2.4 1.6l-42.5 14.6z"/></g><path d="M504.9 528.6c.1.2-.9.7-1.7 1.7s-1 2.1-1.2 2.1-.3-1.3.6-2.5c1-1.2 2.3-1.5 2.3-1.3zm5.1.3c.1.2-.6.8-1.1 2-.4 1.1-.3 2.1-.5 2.2s-.7-1.1-.2-2.5c.6-1.5 1.8-1.9 1.8-1.7zm4.4 4.5c-.2.1-.8-.8-.7-2.1s1-2.1 1.1-2-.2 1-.3 2c-.1 1.1.1 2-.1 2.1zm-11.6-9.7c0 .2-1.1.3-2.2.7-1.1.5-1.9 1.2-2.1 1-.2-.1.5-1.2 1.8-1.7s2.6-.2 2.5 0z" class="S"/><g opacity=".3"><path d="M498.9 511.3l1.2 3.9-21 7-1.2-3.5z"/></g><g class="S"><path d="M501.4 519.2c-.6.4-1.4.7-2.1.7-.8.1-1.7.2-2.5.1-.5 0-1-.1-1.4-.2l-.8-.3c-.4-.2-.6-.7-.5-1.1s.4-.7.7-.8.6-.1.8-.2h1.5c.8.1 1.6.3 2.4.6 1.2.6 1.9 1.2 1.8 1.2s-.8-.4-2-.8c-.7-.2-1.5-.4-2.3-.4h-1.4c-.5 0-.9.2-.9.4s0 .1.1.2c.2.1.4.2.6.2l1.3.3c.8.1 1.5.1 2.3.1h2.4z"/><path d="M501.2 519.6c-.1 0-.7-.5-1.2-1.9-.3-.8-.5-1.6-.5-2.4 0-.5 0-1 .1-1.5 0-.7.4-1.2 1-1.5.4-.1.8 0 1.1.3.2.2.4.4.5.7.6 1.2.7 2.6.3 3.9-.4 1.4-1.2 1.9-1.2 1.9.3-.7.5-1.3.7-2a4.11 4.11 0 0 0 0-2.2c-.1-.4-.2-.9-.5-1.2-.2-.4-.5-.7-.7-.6s-.4.5-.5 1c-.1.4-.1.9-.1 1.3 0 .8.1 1.5.3 2.3.3 1.2.9 1.9.7 1.9z"/></g><path d="M372.9 226.6l-8 16.5c-3.6 7.5-2.3 16.4 3.3 22.5h0c4.4 4.7 10.7 7.1 17.1 6.4l31.1-3.5V250l-30.6.9 7.7-13.5-20.6-10.8z" class="b"/><path d="M412.3 168c-5.1-8.7-6.6-20.2-7.9-30.2-.6-4.7-1.7-11.4 1.6-14.4 3.5-3.1 3.9-8 8-10.4s9.6-2.6 13.4.1" class="S"/><path d="M426.5 198.7h0c7.7.6 14.4-5.1 15-12.8v-.5l.6-15.2s11.5-1 12.4-12.4.6-37.6.6-37.6h0c-12.8-6.5-28.1-5.5-40 2.5l.6 40-.1 21.5c0 7.2 3.7 13.9 10.9 14.5z" class="b"/><path d="M443.2 143.9c-2-2.4-5.1-3.4-7.8-1.7-2.7 1.8-3.6 5.3-2.2 8.3 1.2 2.1 3.2 3.6 5.6 4.2 2.2.5 3.6 2.5 3.4 4.7-.3 2.9-5.1 3.9-7.2 6.2-3.3 3.7-10.7 5.2-15.6 5.8s-4.3.6-7.1-3.4c-1.9-2.7-2.8-5.9-2.7-9.2l-.4-25.1c-.2-3 0-6.1.6-9 .6-3 2.3-5.7 4.8-7.5 2.8-1.8 6.2-1.9 9.4-3 3.9-1.2 7.3-3.9 11-5.7s8.2-3 11.9-1.1c2.6 1.3 4.4 4 7 5.5 3.7 2.1 8.7 1.6 10.4 7 .6 1.9.6 3.9-.1 5.8-2.5 7.3-11.6 10.3-18.2 7.1-.1 1.2 1.1 4-.2 7.9-.5 1.1-.6 3.1-2.6 3.2" class="S"/><path d="M441.1 151s0 .2-.1.5c-.3.4-.8.6-1.2.6-1.7-.1-2.9-1.5-2.9-3.1-.1-.9.3-1.7.8-2.4.5-.5 1.1-.9 1.8-1 1.2-.2 1.8.2 1.8.3s-.7 0-1.6.3c-1.2.4-2 1.6-2 2.8 0 1.3.9 2.4 2.1 2.6.9 0 1.3-.7 1.3-.6z" fill="#7c5142"/><path d="M413.2 124.9c6.7-2.9 9.8-10.8 6.9-17.5s-10.8-9.8-17.5-6.9c-6 2.6-9.2 9.1-7.6 15.4.3.8.3 1.6 0 2.3-.5.8-1.6.9-2.5 1.2-3.2 1.2-3.6 6.1-1.2 8.6s6.2 2.9 9.6 2c-.8 2.9 1.8 6 4.8 6.4 3.1.2 6-1.4 7.6-4 1.5-2.6 2.4-5.6 2.6-8.6" class="S"/><path d="M420.9 111.1c.1.4.1.8 0 1.1l-.4 3.1c-1.6 7-7.1 12.4-14 14.2-1 .2-2.1.4-3.1.4-.4.1-.8.1-1.2 0 0-.1 1.6-.1 4.2-.8 6.7-1.9 11.9-7.1 13.7-13.8.6-2.5.7-4.2.8-4.2z" fill="#f5f5f5"/><g class="X"><path d="M408.3 100.6s.1-.1.3-.1c.3-.1.7-.1 1-.1 1.3.1 2.6.5 3.6 1.4.7.6 1.3 1.2 1.8 2 .5.9.9 1.9 1.1 2.9.4 2.3.3 4.7-.3 6.9a27.59 27.59 0 0 1-5.3 11.2 33.29 33.29 0 0 1-2.5 2.8c-.3.3-.7.6-1.1.9-.1-.1 1.4-1.4 3.3-3.9 2.4-3.3 4.2-7.1 5.1-11.2.6-2.2.7-4.4.3-6.7-.2-1-.5-1.9-1-2.7a7.35 7.35 0 0 0-1.6-1.9c-1-.8-2.1-1.2-3.4-1.3-.8-.3-1.3-.1-1.3-.2z"/><path d="M394.4 118.7s.1-.3.4-.8c.5-.7 1-1.4 1.6-2 4.1-4.2 10.5-5.2 15.7-2.5.8.4 1.5.9 2.1 1.4.5.4.7.6.6.7 0 0-1.1-.8-3-1.7-5.1-2.3-11.1-1.4-15.2 2.5-1.4 1.3-2.1 2.5-2.2 2.4zm22.4 4.4c.1-.1 1.5 1.1 4 2.7 3.2 2.2 6.6 4 10.2 5.6 2 .9 4 1.6 6 2.2 1.6.6 3.3.9 5 1.1 1.2.1 2.3-.2 3.3-.8.7-.4 1-.8 1-.8s-.2.5-.9 1c-1 .7-2.2 1.1-3.4 1.1-1.8-.1-3.5-.4-5.2-1-5.8-1.7-11.3-4.4-16.2-8-1.2-.9-2.1-1.7-2.8-2.2-.4-.2-.7-.5-1-.9z"/></g><path d="M413.4 108.8c-.1-.5-.2-1.1-.1-1.6 0-1.5.3-2.9.8-4.3.8-2.1 2.3-3.8 4.3-4.8 1.2-.6 2.5-.8 3.8-.7 1.4.2 2.7.8 3.7 1.8s1.7 2.2 2.1 3.6c.3 1.3.4 2.6.3 3.8-.3 2.2-1 4.2-2.2 6.1l-2.5 3.5c-.3.5-.7.9-1 1.2.2-.5.5-.9.8-1.3.6-.8 1.4-2 2.3-3.6a17.18 17.18 0 0 0 2-5.9c.1-1.2 0-2.4-.3-3.6-.4-1.2-1-2.4-2-3.3-.9-.9-2.1-1.5-3.4-1.7-1.2-.1-2.4.1-3.5.6-1.9.9-3.3 2.5-4.1 4.4-.5 1.3-.9 2.7-1 4.1.1.7.1 1.2 0 1.7z" class="S"/><path d="M543.1 82.5c-1.8-.9-7.2 9-7.3 6.2-.1-2.7 7.9-11.4 5.9-12.3-2.6-1.2-8 9.3-8.5 10.2-.5.8-1.8.1-1.2-.6.7-1.1 8.2-12.5 5.7-13.7-1.4-.6-2.3 2-2.3 2s-6.2 11.2-7.4 10.6 2.2-7.3 3.5-9.5.8-3.6-.6-3.4c-1 .1-5.1 6.7-6.4 8.9-1.2 2.2-4.5 8.2-5.3 3.9s-3-7.3-4.2-7.7c-.8-.2-1.5.3-1.6 1.1-.1.4 0 .8.3 1.1.7 1.3 1.3 2.7 1.6 4.1.3 1.1.5 2.3.4 3.5-.1 1.4-.2 2.5-.4 3.5l-2.4 5.1-20.7 46c-3.1 5.8-27.5 31.1-27.5 31.1l5.2 29.6 39.7-42.9 21-59 .5-1.5s7.5-8 9.4-10.5c3.7-5.1 3.2-5.5 2.6-5.8z" class="b"/><path d="M396.6 281.3s-12.5 28.2-15.2 56.2L368.2 517l44.1 4.6 12.9-186.1 42 187.7c1.6 0 35.5-12.6 35.5-12.6l-39.9-228.5-66.2-.8z" class="X"/><path d="M443.9 340.2c0 .2-9-1.8-20-4.5s-19.8-5-19.8-5.2c.1-.2 9 1.8 20 4.4 11.1 2.7 19.8 5.1 19.8 5.3z" class="S"/><path d="M414.8 482.9s-.1 0-.5.1-.9.1-1.3.1c-1.6.1-3.3 0-4.9-.3-2.4-.4-4.8-1-7.1-1.7l-8.4-2.8c-2.8-.9-5.7-1.6-8.6-2.1a28.91 28.91 0 0 0-7.2 0c-2.2.4-4.3 1-6.3 2 .1-.1.2-.2.4-.3.4-.2.8-.5 1.2-.7 1.5-.7 3.1-1.2 4.7-1.5 2.4-.4 4.9-.4 7.3-.1 3 .4 5.9 1.1 8.7 2l8.4 2.9c2.3.8 4.6 1.4 7 1.8 2.2.4 4.4.6 6.6.6zm.2-15.2h-1.8c-1.6-.1-3.3 0-4.9.1-4.1.3-9.7 1.6-15.9 2.9-2.9.6-5.9 1-8.9 1.1-2.4.1-4.9 0-7.3-.5-1.6-.3-3.2-.8-4.7-1.5l-1.2-.6c-.1-.1-.3-.2-.4-.3 2.1.9 4.2 1.5 6.4 1.9 4 .8 9.8.4 16-.8 6.2-1.3 11.8-2.6 16-2.7 1.6-.1 3.3-.1 4.9.1l1.8.3zm78.6-17.5c-.1.1-.1.3-.2.4-.3.4-.6.7-.9 1-1.2 1.1-2.7 2-4.2 2.5-2.3.7-4.8 1-7.3.8-2.7-.2-5.7-.9-8.7-1.4-2.9-.5-5.8-.6-8.7-.2-2.4.3-4.7.9-6.9 1.8-2 .9-4 1.9-5.9 3.1l.3-.3c.2-.2.6-.5 1.1-.8 1.3-.9 2.8-1.7 4.3-2.4 2.2-1 4.6-1.7 7-2 3-.4 6-.3 8.9.2l8.7 1.4a17.03 17.03 0 0 0 7.1-.6c1.5-.4 3-1.2 4.2-2.2.7-.8 1.1-1.4 1.2-1.3zm6.6 33.1c-.3.5-.7 1-1.2 1.4-1.1 1.2-2.3 2.3-3.7 3.3-4.4 3.3-9.4 5.5-14.8 6.5-5.4.9-10.9.6-16.1-.9-1.6-.5-3.1-1-4.6-1.7-.6-.2-1.1-.5-1.6-.9.6.2 1.1.4 1.7.6 1.5.6 3.1 1.1 4.6 1.5 5.2 1.4 10.6 1.6 15.9.7 5.3-1 10.3-3.1 14.6-6.2 3.5-2.5 5.1-4.4 5.2-4.3zm-10.9-46.9h-1.7c-1.6.1-3.1.4-4.6 1.1-2.1.9-4.1 2.2-5.9 3.7l-6.8 5.5c-2.4 1.8-5.2 2.9-8.1 3.3-2.4.3-4.8.3-7.1 0-2-.2-3.6-.6-4.7-.8-.6-.1-1.2-.2-1.7-.4.6 0 1.2.1 1.7.2l4.7.6c2.3.3 4.7.2 7-.1 2.8-.4 5.5-1.6 7.8-3.3l6.8-5.4c1.9-1.5 3.9-2.7 6.1-3.6 1.5-.6 3.1-.9 4.7-.9.4 0 .8.1 1.2.1.3-.1.4-.1.6 0zm-70.6-7.1s-.1.1-.4.3l-1.2.6c-1.6.7-3.2 1.1-4.9 1.2-2.5.2-5 .1-7.5-.3-3-.6-6-1.3-8.9-2.3l-8.8-2.3c-2.4-.5-4.9-.7-7.4-.5-2.3.2-4.5.8-6.6 1.7.1-.1.3-.2.4-.3l1.2-.6c1.6-.7 3.2-1.1 4.9-1.2 2.5-.2 5-.1 7.5.4 3 .6 6 1.3 8.9 2.3l8.7 2.3c2.4.5 4.9.6 7.4.5 2.4-.4 4.6-.9 6.7-1.8zm64.7-30.8s0 .2-.1.5c-.1.4-.3.8-.5 1.2-.8 1.5-1.9 2.9-3.1 4-1.9 1.7-4.1 3-6.5 3.9-2.9 1.1-5.9 1.8-9 2.1l-9.1 1.1c-2.5.3-4.9.7-7.3 1.3-1.6.5-3.1 1.2-4.4 2.3-.4.4-.9.9-1.4 1.2.1-.1.2-.3.3-.4a4.74 4.74 0 0 1 1-1c1.3-1.1 2.8-2 4.4-2.5 2.4-.7 4.9-1.2 7.4-1.5l9.1-1.2c3-.3 6-1 8.9-2 2.3-.9 4.5-2.1 6.4-3.7 1.5-1.4 2.9-3.2 3.9-5.3zm-107.7-3.6c1.9 1.3 4 2.2 6.2 2.9 2.4.7 4.9.9 7.4.6 3-.4 6-1.4 8.6-3l8.2-4.4c2.3-1.1 4.8-1.7 7.4-1.9 1.7-.1 3.5.2 5.1.9.4.2.9.4 1.2.7.1.1.3.2.4.3 0 .1-.6-.3-1.7-.8-1.6-.6-3.3-.8-5-.7-2.5.2-4.9.9-7.2 1.9-2.6 1.2-5.2 2.9-8.1 4.5-2.7 1.6-5.7 2.6-8.9 3-2.6.2-5.1 0-7.6-.8-1.7-.5-3.2-1.2-4.7-2.2-.4-.3-.8-.5-1.1-.8l-.2-.2zm100.6-32.8c-.3.6-.6 1.1-1 1.6-1 1.3-2.1 2.6-3.4 3.7-4.2 3.8-9.3 6.3-14.9 7.2-3 .4-6.1.4-9.2 0-2.5-.3-4.9-.3-7.4.1-1.6.2-3.2.8-4.6 1.6-1 .6-1.5 1.1-1.5 1.1s.1-.1.3-.4c.3-.3.7-.6 1.1-.9 1.4-.9 3-1.6 4.7-1.9 2.5-.4 5-.5 7.5-.2 3 .3 6 .3 9-.1 5.4-.9 10.5-3.3 14.7-6.9 1.7-1.5 3.3-3.2 4.7-4.9zm-55.7-3.2c-2-.7-4.2-1.1-6.3-1.2a17.36 17.36 0 0 0-6.8 1.1c-1.2.4-2.5 1.1-3.8 1.7-.7.3-1.5.5-2.2.6-.8.1-1.6 0-2.4-.3-1.4-.6-2.7-1.4-3.9-2.3-1.2-.7-2.4-1.3-3.7-1.7-2.2-.7-4.5-1-6.9-.9-2.1.2-4.2.7-6.2 1.4 0 0 .1-.1.4-.2.4-.2.8-.4 1.2-.5 1.5-.6 3.1-.9 4.7-1.1 2.4-.2 4.8.1 7.1.8a13.84 13.84 0 0 1 3.9 1.8c1.2.9 2.5 1.6 3.8 2.2 1.4.5 2.8.4 4.1-.2 1.3-.5 2.5-1.2 3.8-1.7 2.3-.8 4.7-1.1 7.1-1a18.62 18.62 0 0 1 4.7.9c.4.1.8.3 1.2.5l.2.1zm55.7-4.5c-.4.5-.9 1-1.3 1.4-1.3 1.2-2.6 2.3-4 3.3l-3 2c-.6.3-1.1.7-1.7 1l-1.9 1a48.57 48.57 0 0 1-9 3.3c-3.1.7-6.3 1.1-9.5 1.1l-2.1-.1c-.7 0-1.4-.1-2-.2-1.3-.1-2.5-.3-3.6-.5-1.7-.3-3.4-.7-5.1-1.2l-1.8-.7c0-.1 2.6.8 6.9 1.5 1.1.1 2.3.4 3.6.4.6 0 1.2.1 2 .1h2.1c3.1 0 6.3-.4 9.3-1.1 3-.8 6-1.8 8.8-3.2l1.9-.9c.6-.3 1.2-.7 1.7-1 1.1-.6 2.1-1.3 3-1.9 1.8-1.2 3.2-2.3 4.1-3.2.6-.3 1.1-.7 1.6-1.1zm-7.6-35.7c-.3.2-.5.4-.8.5l-2.4 1.2-9 4.3c-4.6 2-9.4 3.3-14.3 4-2.9.3-5.9.3-8.8-.1-3.1-.5-6.2-1.4-9.1-2.5-6.1-2.2-11.7-4.8-17.1-6.2-4.8-1.3-9.7-1.7-14.6-1.1-3.3.3-6.6 1.1-9.7 2.1-1.1.4-2 .7-2.5 1l-.9.3c.2-.1.5-.2.8-.3.5-.3 1.4-.6 2.5-1.1 3.1-1.2 6.4-2 9.7-2.4 5-.6 10-.2 14.8 1 5.5 1.4 11.1 4 17.1 6.2a45.93 45.93 0 0 0 9 2.4c2.9.4 5.8.5 8.7.2 4.9-.6 9.7-1.9 14.2-3.8 3.9-1.6 7-3.1 9.1-4.1l2.5-1.2c.2-.1.5-.3.8-.4zm-2.6-18.6c-.7-.8-1.5-1.6-2.3-2.2-2.5-1.5-5.4-2.3-8.4-2.2-2 0-4 .4-5.9 1-2.1.7-4.2 1.7-6.5 2.7-4.8 2.4-9.9 4.4-15.1 5.7-12.5 3.1-25.7 1.9-37.5-3.4a14.72 14.72 0 0 1-2.2-1.1c-.3-.1-.5-.3-.7-.4.3.1.5.2.8.3l2.2 1c2.7 1.1 5.5 2.1 8.4 2.8 4.2 1.1 8.6 1.7 13 1.8 5.4.2 10.7-.4 15.9-1.6 5.2-1.4 10.2-3.2 15-5.6 2.3-1 4.4-1.9 6.5-2.7 2-.7 4-1 6.1-1 3 0 6 .8 8.5 2.5.7.5 1.2 1 1.7 1.7.2.2.4.4.5.7z" class="Y"/><path d="M491.3 184.1L473.7 161l-.8.6-28 17.6-29.9 1s-21 0-28.8 16.5l-18.1 36.2 26.6 9.8 4.3-12.3 5.5 27.9-7.9 23 66.7 3.6-5.6-33.4 5-40 28.6-27.4z" class="V"/><path d="M444.9 237.9c.1.6.1 1.3 0 1.9-.2 1.8-.6 3.5-1.2 5.1a24.97 24.97 0 0 1-11.7 12.5c-5.2 2.5-11 3.7-16.8 3.4-1.7-.1-3.5-.2-5.2-.5-.6-.1-1.3-.2-1.9-.4 0-.1 2.7.4 7.1.4 5.7.1 11.3-1.1 16.5-3.5 5.1-2.6 9.1-6.8 11.5-12 .8-2.3 1.4-4.6 1.7-6.9zm-40.2 21.7c-.2 0-3.4-14.4-7.1-32.3l-6.3-32.5c.3 0 3.4 14.4 7.1 32.3l6.3 32.5z" class="S"/><g opacity=".2"><path d="M413 260.8c-.7-2.6 1.3-5.3 3.7-6.5s5.3-1.3 7.9-1.9c5.2-1.2 9.7-4.3 12.9-8.6.4-.6.9-1.2 1.6-1.2s1.3.5 1.5 1.2c.2.8.3 1.7.1 2.5-1.2 6.4-6.4 9.1-11.7 11.9s-9.5 3.1-16 2.6"/></g><defs ><path id="B" d="M674 128.8c-.1.8.4 1.6 1.2 1.8s1.6-.3 1.8-1.1c.1-.8-.4-1.6-1.2-1.8-.8-.3-1.6.2-1.8 1.1 0-.1 0-.1 0 0z"/></defs></svg>