<svg xmlns="http://www.w3.org/2000/svg" viewBox="0 0 1027 600" xmlns:v="https://vecta.io/nano"><style><![CDATA[.P{fill:#263238}.Q{fill:#455a64}.R{fill:#c9f401}.S{opacity:.6}.T{fill:#fff}.U{opacity:.3}.V{fill:#ffd6bd}.W{fill:#c78976}.X{fill:#ffb394}.Y{enable-background:new}.Z{fill:#8b5d54}.a{fill:#ffbe9d}.b{fill:#eb996e}]]></style><path d="M286 433.4s-7.2 2.9 1.2 18.2c8.3 15.3 14 22.8 14 22.8s1.5 3.6-1.5 4.2-9.7-.3-10.9 3.5c-1.2 3.7 1.6 7.4 7.3 10.4s18 10.1 19.2 10.8c1.1.6 2.2 2.3.2 3s-16.9 2.7-15.6 9.7 18.7 12.8 20.6 13.5 2.3 1.5 2.2 2.5-5.2 1.2-9.4 1.9c-4.2.8-9 2.3-7.9 6.3s11.5 12.2 36.3 13.9l11.5.1 6-9.9c11.5-22 10.2-35.1 7.4-38.2s-6.7.1-9.5 3.3c-2.9 3.2-5.7 7.4-6.6 6.9s-1.3-1.2-.9-3.2c.4-1.9 4.6-19.8-.6-24.6-5.2-4.9-14.8 6.8-16.5 8.1s-2.5-.5-2.5-1.8.5-15.5 1-21.9-1-10.8-5-11.7-6.6 5.2-8.7 7.4-4.4-.9-4.4-.9-3.4-8.8-11.9-23.9c-8.6-15.1-15-10.4-15-10.4" fill="#324a55"/><g fill="#e0e0e0"><path d="M353.8 556.9l-26.4-48.1-24-43.7-7.3-13.2-2-3.6-.5-.9c-.1-.1-.1-.2-.2-.3l.2.3.5.9 2.1 3.6 7.4 13.1 24.1 43.6 26.3 48.2"/><path d="M297.9 483.6c.3 0 .5.1.8.2.5.1 1.3.4 2.2.7l7 2.6 6.9 2.7 2.1.8.8.3c-.3 0-.6-.1-.8-.2-.5-.1-1.2-.4-2.2-.7l-7-2.6-7-2.7-2.1-.8c-.2 0-.4-.1-.7-.3zm20.7 6.6c-.1 0 1.6-5.2 3.7-11.6s3.9-11.5 4-11.5-1.6 5.2-3.7 11.6-3.9 11.5-4 11.5zm13.1 26.9c.1-.3.3-.5.4-.7l1.3-1.9c1.2-1.6 2.6-3.8 4.2-6.4l3.9-6.6 1.2-2c.1-.3.3-.5.4-.7l-.3.8c-.2.5-.6 1.2-1.1 2.1l-3.9 6.6c-1.5 2.5-3.2 4.7-4.3 6.3l-1.4 1.8c0 .3-.2.5-.4.7z"/><path d="M311.8 515.2h.8l2.1.1 7 .5 7 .6 2.1.2c.3 0 .5.1.8.1h-.8l-2.1-.1-7-.5-7-.6-2.1-.2c-.3.1-.6 0-.8-.1zm8.5 25.3h1l2.7.1 9 .6 9 .7 2.7.3c.3 0 .7.1 1 .1h-1l-2.7-.1-9-.6-9-.7-2.7-.3c-.3 0-.6-.1-1-.1zm25 1.5c.2-.3.3-.6.5-.9l1.6-2.5 5.1-8.2 4.8-8.4 1.4-2.6.6-.9c-.1.3-.3.7-.4 1l-1.3 2.6-4.7 8.5-5.2 8.2-1.7 2.4c-.2.3-.5.5-.7.8z"/></g><path d="M771.6 554.8c0 .2-112.7.3-251.6.3s-251.7-.1-251.7-.3 112.6-.3 251.7-.3l251.6.3z" class="P"/><path d="M647.6 504.9c2.4.9 4.3 2.8 5.4 5.1 1 2.3 1.4 4.9 1.3 7.4-.1 4.9-2.5 10.1-5.1 14.2-4.4-3.2-5.9-9.4-6.4-12.6-1-4.9.5-14.5 4.8-14.1m7 34.4c-.8-2.8-.1-5.8 1.9-7.9 2-2 4.8-3.2 7.7-3.1 1.3-.1 2.6.3 3.6 1.3.7 1 .9 2.3.3 3.5-.5 1.1-1.3 2.1-2.4 2.8-3.3 2.4-7 4.3-11.1 3.4" class="Q"/><g class="P"><path d="M650.6 554.6v-1l.3-2.7c.2-3 .9-6 2.1-8.9a17.75 17.75 0 0 1 5.6-7.1c.8-.5 1.6-1 2.4-1.3l.7-.2.3-.1a26.85 26.85 0 0 0-3.3 1.8c-2.4 1.9-4.3 4.3-5.5 7-1.1 2.8-1.9 5.7-2.1 8.8-.1 1.2-.3 2.1-.4 2.7 0 .4 0 .7-.1 1z"/><path d="M647.2 512.3c0 .1.1.3.1.4 0 .3.1.7.2 1.2l.6 4.6 1.5 15.2c.5 6 .8 11.4 1 15.3.1 1.9.1 3.5.2 4.6v1.3.4-.4c0-.3 0-.7-.1-1.3a153.49 153.49 0 0 1-.3-4.6c-.2-3.9-.6-9.3-1.1-15.2l-1.4-15.2c-.2-1.9-.3-3.5-.5-4.6l-.1-1.3c-.1-.1-.1-.2-.1-.4z"/></g><path d="M647.7 542.8c-1.5-5.9-5.8-10.7-11.4-12.9-1.4-.5-3.3-.8-4.3.3s-.6 2.9 0 4.3c3 5.8 9.1 9.2 15.6 8.7" class="Q"/><path d="M637.4 534.5l.9.3c.4.1.7.3 1 .4.4.2.9.4 1.3.7l1.5 1c.6.4 1.1.8 1.6 1.3 2.4 2.1 4.3 4.7 5.5 7.6.3.6.5 1.3.6 2 .2.6.3 1.2.4 1.8.1.5.2 1 .2 1.5.1.4.1.8.1 1.2v1c-.1 0-.1-1.4-.5-3.5-.1-.5-.2-1.2-.4-1.7-.2-.6-.4-1.3-.7-1.9-1.2-2.9-3-5.4-5.4-7.5l-1.6-1.3c-.5-.4-1-.7-1.5-1-1.8-1.4-3.1-1.8-3-1.9z" class="P"/><path d="M395.2 251.2l-17.3 6.3-9.1 19.2c-.4 4-10.4 44-10.4 44l-10 35.6c19.1 8.7 44.4 21.2 69.8 20.2l3.2-30.6 17.4-66.5-13.3-26.4-4.5-.6-25.8-1.2z" class="R"/><path d="M314.7 511.8l-13 17s12.9 19 10.8 22.3L278.6 527l19.2-27.3 16.9 12.1z" class="Q"/><g class="S T"><path d="M292.2 519.9c-.8-.3-1.7.1-2.1.9-.3.8.1 1.7.9 2.1.9.3 1.8-.1 2.2-1a1.79 1.79 0 0 0-1.2-2.1"/></g><g class="S T"><path d="M278.6 527l2-2.7 31.7 24.1s1 1.7.1 2.7L278.6 527z"/></g><path d="M302.3 529c-.1.2-1-.3-2.2-.4-1.2 0-2.1.3-2.2.2s.8-1 2.3-.9 2.3 1 2.1 1.1zm2.5 4c-.1.2-1 0-2.1.3s-1.7.9-1.9.8.4-1.2 1.7-1.5c1.4-.4 2.4.2 2.3.4zm-1 5.7c-.2-.1.2-1.1 1.3-1.7s2.1-.4 2.1-.2-.9.3-1.7.8c-.9.5-1.5 1.2-1.7 1.1zm1.1-13.9c-.2.1-.8-.7-1.8-1.3s-1.9-.8-1.9-1 1.2-.3 2.3.4c1.2.7 1.6 1.8 1.4 1.9z" class="P"/><g class="U"><path d="M308.8 520l-2.3 3-16.6-12 2-2.8z"/></g><g class="P"><path d="M307.5 521.3c0 .1-.8-.3-1.7-1.2-.5-.5-1-1.2-1.4-1.8l-.6-1.2c-.1-.2-.2-.5-.2-.8 0-.4.2-.8.6-.9.3-.1.7-.1 1 .1.2.1.4.3.6.5.8.9 1.3 2 1.6 3.1a3.75 3.75 0 0 1 0 2.1c-.1 0-.1-.8-.5-1.9a6.57 6.57 0 0 0-1.7-2.9c-.3-.3-.6-.6-.8-.5s-.1.1-.1.2c0 .2.1.4.2.6.2.4.3.8.5 1.2.3.6.7 1.2 1.2 1.8.7 1 1.3 1.5 1.3 1.6z"/><path d="M307.1 521.4c0-.7.3-1.4.7-1.9.4-.6.9-1.2 1.6-1.7.4-.3.7-.5 1.2-.7.5-.3 1.2-.4 1.7-.1.3.2.4.6.4 1-.1.3-.1.5-.3.7-.6 1.1-1.6 2-2.7 2.4a2.56 2.56 0 0 1-2.1 0c.6-.1 1.3-.3 1.9-.5a6.57 6.57 0 0 0 1.7-1.2c.3-.3.5-.6.7-1s.3-.8.1-.8c-.3-.1-.7-.1-1 .1l-1.1.6c-.6.4-1.1.9-1.6 1.5-.9.9-1.1 1.6-1.2 1.6z"/></g><path d="M417.7 523.2l-7.5 18.9s21.6 7.8 21.8 11.8l-41.5.3 6.5-30.9 20.7-.1z" class="Q"/><g class="S T"><path d="M397.4 540.4c-.8.3-1.3 1.1-1.2 1.9.2.8 1.1 1.3 1.9 1.2a1.79 1.79 0 0 0 1.2-2.1c-.3-.9-1.3-1.3-2.2-1"/></g><g class="S T"><path d="M390.5 554.2l.7-3.4 39.2.9s1.9.8 1.7 2.1l-41.6.4z"/></g><g class="P"><path d="M410.9 541.9c0 .2-1 .3-2 1s-1.5 1.5-1.7 1.4.1-1.3 1.3-2c1.2-.8 2.4-.6 2.4-.4zm4.4 1.7c0 .2-.8.6-1.5 1.4-.7.9-.9 1.8-1.1 1.8s-.3-1.2.5-2.2c.9-1.1 2.1-1.2 2.1-1zm2.5 5.2c-.2 0-.5-1 0-2.1s1.5-1.6 1.5-1.4-.5.8-.9 1.7c-.4 1-.4 1.8-.6 1.8zm-5.3-10.8c-.1.2-1-.1-2.2 0s-2 .5-2.1.3.7-.9 2.1-1c1.3-.1 2.3.5 2.2.7zm.4-2.5a3.75 3.75 0 0 1-2.1 0c-.7-.1-1.5-.3-2.2-.6l-1.2-.6c-.2-.1-.4-.3-.6-.5-.3-.3-.3-.7-.1-1.1.2-.3.5-.5.9-.5.3 0 .5 0 .8.1.4.1.9.2 1.3.4.7.3 1.4.7 1.9 1.2 1 .9 1.3 1.6 1.2 1.7-.1 0-.6-.6-1.6-1.3-.6-.4-1.2-.8-1.9-1-.4-.2-.8-.3-1.2-.4s-.8-.1-.9.1 0 .1 0 .2c.1.1.3.3.5.4l1.2.6c.6.3 1.3.6 2 .8l2 .5z"/><path d="M412.9 535.5c-.4-.6-.6-1.3-.6-2 0-.8 0-1.6.3-2.3.1-.4.3-.9.5-1.3a1.63 1.63 0 0 1 1.3-1.1c.4 0 .7.2.9.6.1.2.2.5.2.8.1.5.1.9 0 1.4-.1.8-.4 1.5-.9 2.2-.8 1.1-1.6 1.3-1.7 1.3 0-.1.6-.5 1.3-1.5.4-.6.6-1.3.6-2 .1-.4.1-.8 0-1.2s-.2-.8-.4-.7c-.2 0-.6.3-.7.7-.2.4-.4.8-.5 1.2-.2.7-.4 1.4-.4 2.1-.1 1 .2 1.8.1 1.8z"/></g><path d="M466.4 182.6L460 226l-29.3 28.1 10.9 18.7 33.2-31c2.5-1.9 4.3-4.6 5-7.7v-44.9l-.2-14.6-13.2 8z" class="V"/><g class="P"><path d="M349.2 353c-.9 1.8-16.6 83.4-16.6 83.4l-43.9 71.5 22.8 16.6 54.3-70.8 29.7-89.9-46.3-10.8z"/><path d="M408.8 361.5c1.3.9 34.9 71 34.5 76.1s-25.8 98.8-25.8 98.8l-25.8-4.8 16-91.4-30.3-42.6 9.9-38.8 21.5 2.7z"/></g><g class="R"><path d="M444.1 238.6l-16.7 13.8-3.1.5 12.5 27.7L460 262z"/><path d="M395.2 251.2l-17.3 6.3-9.1 19.2c-.4 4-10.4 44-10.4 44l-10 35.6c19.1 8.7 44.4 21.2 69.8 20.2l3.2-30.6 17.6-67.1-13.4-25.8-4.5-.6-25.9-1.2z"/></g><path d="M420.6 256.4l.8-6.2s11 .4 13.1-10.2c1.1-5.1 2.4-15.9 3.5-25.6 1.1-10.4-5.9-20-16.2-22l-1-.2c-11.2-1.5-18.7 7.2-19.9 18.4l-5.4 41s10.4 9.2 16.4 12.2c7.8 3.9 8.7-7.4 8.7-7.4z" class="V"/><path d="M421.4 250.1c-4.9-.9-9.5-3.2-13.1-6.6 0 0 1.8 8.3 12.6 9.4l.5-2.8z" class="X"/><path d="M435.4 219.4c-.2.2-1.7-.4-3.7-.3s-3.5.9-3.7.8.1-.4.7-.8c.9-.5 1.9-.8 2.9-.8 1-.1 2 .1 2.9.4.7.4 1 .6.9.7zm-16.8-1.4c-.3.1-1.3-1.2-3.1-1.9s-3.5-.7-3.6-.9.3-.3 1-.3c1 0 2 .2 3 .6.9.4 1.7.9 2.4 1.7.4.4.5.8.3.8zm-1 2.8c-.1.6-.7 1.1-1.3 1s-1.1-.7-1-1.3.7-1.1 1.3-1c.7.1 1.1.6 1 1.3zm16.2 2.9c-.1.6-.7 1.1-1.3 1h-.1c-.6-.1-1.1-.7-1-1.3s.7-1.1 1.3-1h.1c.6 0 1 .6 1 1.3zm-11.6 6c.9-.1 1.8-.1 2.7 0 .4 0 .8 0 1-.2.1-.4.1-.9 0-1.3l-.6-3.5-1.2-8.8c.2 0 1 3.9 1.9 8.7l.6 3.5c.2.6.1 1.2-.1 1.7-.2.3-.5.4-.8.5h-.7c-1-.2-2-.3-2.8-.6zm-3-19.9c-.2.4-1.6-.1-3.3-.2s-3.2.1-3.4-.3c0-.2.3-.5.9-.8.8-.3 1.7-.5 2.6-.4s1.7.3 2.5.8c.5.4.8.7.7.9zm16.6 5.4c-.2.3-1.6-.2-3.3-.5s-3.1-.2-3.3-.6c-.1-.2.3-.4.9-.6.8-.2 1.7-.3 2.6-.1.9.1 1.7.4 2.4.9.6.4.8.7.7.9z" class="P"/><path d="M400.2 218.7c-.2-.1-6.9-3.6-8.1 3.7s6.4 7 6.5 6.8c0-.2 1.6-10.5 1.6-10.5z" class="V"/><path d="M396.8 226s-.1.1-.4.1c-.3.1-.7 0-1-.1-.9-.8-1.2-1.9-1-3.1a4.49 4.49 0 0 1 .7-1.8 1.3 1.3 0 0 1 1.2-.8c.3 0 .6.2.7.5.1.2 0 .4 0 .4s.2-.1.2-.4c0-.2-.1-.4-.2-.5-.2-.2-.4-.3-.7-.3-.6 0-1.2.4-1.5.9-.4.6-.7 1.3-.8 2-.3 1.3.2 2.7 1.3 3.5.4.2.8.2 1.2 0 .3-.2.3-.3.3-.4z" class="X"/><path d="M419.8 234.6c.1-.2-1.3-.8-2.1-2.3-.4-.6-.6-1.3-.8-2-.1-.6-.3-.9-.4-.9s-.1.4 0 1c.1.8.3 1.6.7 2.3a4.62 4.62 0 0 0 1.7 1.7c.5.2.9.2.9.2zm33.5-28.1c-.1-.5-.3-.9-.7-1.2-.8-.5-1.7-.7-2.7-.8-2.9-.4-5.5-1.6-7.8-3.4-.9-1.7-2-3.4-3.2-5-2.8-3.7-5.2-6.3-7.9-7.8a26.08 26.08 0 0 0-13.2-2.6c-3.8.5-7.5 3.2-8.5 6.9-1.9-2-5-2.4-7.7-1.6h-.1c-3 .7-4.9 3.5-6.1 6.3s-1.9 5.8-3.7 8.2c-.4.5-.8 1.2-.6 1.7s.7.7 1.2.7 1-.2 1.4-.4c-.4.7-.8 1.4-1.2 2.2 1 .3 2.1.4 3.1.2a53.89 53.89 0 0 0 1.2 7.9c1.1 0 2.1.4 2.9 1.2.9 1 1.2 2.7 2.9 2.3.9-.2 1.9-1.9 2.2-2.7 2.6-5.5 3.9-11.5 3.9-17.6 1.3-1.1 2.9-2 4.5-2.5l-.1.1c3.1-.7 6.6-1.3 9.3.4 2.1 1.3 3.1 3.8 4.5 5.8a17.36 17.36 0 0 0 11.3 6.9c-.2 3-1 7.3-1.2 10.3l3.1-4.5h0c.2-.3.5-.7.7-1l.1-.1h0c.3-.5.7-1.2 1.1-1.6h0c.7.7 1.9.8 2.7 0 .6-.6.7-1.5.4-2.2-.2-.4-.5-.7-.8-1 .7.8 1.7 1.2 2.8 1.1 1.1-.2 1.9-1.1 1.9-2.1 0-.7-.4-1.4-1-1.7 1.3.3 2.7.1 3.9-.4.8-.4 1.6-1 1.4-2z" class="P"/><path d="M412.7 194.4c-.4.3-.8.5-1.2.9-1 .9-1.7 2.1-2.1 3.4-.3.9-.5 1.8-.6 2.7l-.2 3.2c0 1.2-.2 2.4-.3 3.5-.1.6-.3 1.2-.5 1.8s-.5 1.2-1 1.7c-.4.4-1 .5-1.6.3-.5-.2-1-.5-1.3-.9-.5-.9-.7-1.9-.7-2.8l.2.1c-.4.8-.9 1.5-1.6 2.1-.6.6-1.4.9-2.2.9-.4 0-.8-.1-1.1-.3s-.5-.5-.7-.8c-.1-.3-.2-.6-.1-1 .1-.3.2-.6.4-.8l.1.1c-.7.7-1.6 1.2-2.5 1.5-.2.1-.5.1-.7.2h-.3l.3-.1c.2 0 .4-.1.7-.2a6.08 6.08 0 0 0 2.4-1.5l.1.1c-.4.4-.5 1.1-.3 1.6.1.3.3.6.6.7a1.69 1.69 0 0 0 1 .3c.8 0 1.5-.3 2.1-.8.6-.6 1.1-1.3 1.5-2.1l.2-.3v.4c0 .9.2 1.9.7 2.7.3.4.7.7 1.2.8s1 0 1.3-.3c.4-.5.7-1 .9-1.6s.3-1.2.4-1.8c.2-1.1.3-2.3.3-3.5l.3-3.2c.1-.9.3-1.8.6-2.7.4-1.3 1.2-2.5 2.2-3.4a4.94 4.94 0 0 1 1.5-.9zm31.9 14.4h0l-.4.2c-.2.1-.3.2-.5.2-.2.1-.5.2-.7.3-1.5.5-3.1.6-4.7.3a12.19 12.19 0 0 1-6.2-3.1c-2.1-2-3.7-4.4-4.8-7.1l-1.7-4.1c-.5-1.3-1.2-2.5-2-3.6-.8-1-1.7-1.7-2.9-2.2-.5-.2-1.1-.3-1.6-.4-.5 0-1 0-1.5.1-.9.2-1.7.6-2.4 1.1-.5.4-1 .9-1.4 1.4-.3.5-.6 1-.7 1.5v-.1l.1-.3c.1-.4.3-.8.6-1.2a6.73 6.73 0 0 1 1.4-1.5c1.1-.9 2.6-1.3 4-1.3.6 0 1.1.2 1.7.4 1.2.5 2.2 1.3 3 2.3.9 1.1 1.6 2.3 2.1 3.6l1.7 4.1a22.11 22.11 0 0 0 4.7 7c1.7 1.6 3.8 2.7 6.1 3.1 1.5.3 3.1.2 4.6-.2.9-.2 1.5-.6 1.5-.5zm1.5-4.6s-.1.1-.4.2c-.4.2-.8.3-1.2.4-.6.2-1.2.3-1.9.4-.8.1-1.5.1-2.3 0l-2.3-.4-1.8-.7-1.2-.6c-.1-.1-.3-.2-.4-.3l1.6.8c.6.3 1.2.5 1.8.6.8.2 1.5.3 2.3.4s1.5.1 2.3 0l1.9-.3c1-.3 1.6-.6 1.6-.5z" class="Q"/><path d="M373.3 286.2s14.5 21 24.9 20.8h3.6l1.7-3.1s23.1 4.6 28.2 2.8L403.2 296l-5.5 3.2-24.4-13z" class="U Y"/><path d="M391.1 295.8s51.9 15.1 58 13.7 44-31.8 44-31.8l-8.6-10.3-39.2 21.6-47-14.9-7.2 21.7z" class="V"/><path d="M378.1 257.4s-8.7 1.9-10 16.1c-1.5 17 32.1 30.3 32.1 30.3l16.6-27.7-38.7-18.7z" class="R"/><path d="M396 268.5c.1 0 .3.1.4.1l1 .5 4 1.9 14.1 6.8.3.1-.1.2-11.3 19.6-3.7 6.3-.1.2-.2-.1c-4.6-1.5-9.1-3.6-13.3-6-3.4-2-6.5-4.4-9.3-7.1-2.6-2.4-4.9-5.1-6.9-8 .2.2.4.3.5.5l1.3 1.6c1.7 2 3.5 3.8 5.4 5.6 2.8 2.6 6 5 9.3 6.9 4.2 2.4 8.6 4.4 13.2 5.9l-.3.1 3.7-6.3 11.4-19.5.1.4-14-6.9-3.9-2-1-.5-.6-.3zm40.4 4.3c-.2.1-1.6-3.5-3.7-7.6l-3.9-7.5a9.51 9.51 0 0 1 1.5 2c2.1 3.4 4 6.9 5.4 10.7.3.8.6 1.6.7 2.4z" class="P"/><path d="M311.5 524.5c.1-.1.1-.2.2-.4l.7-1 2.8-3.8 10.6-13.9 35-45.8 4.6-6.1v.1l16.6-49.9 5-14.9 1.4-4 .4-1c0-.1.1-.2.1-.3 0 .1 0 .2-.1.4-.1.3-.2.6-.3 1.1l-1.3 4c-1.2 3.5-2.8 8.6-4.8 14.9l-16.4 50v.1h0l-4.6 6.1-35.2 45.7-10.7 13.8-3 3.7-.8 1s-.1.2-.2.2zm106-89c-1.6.9-3.3 1.6-5.1 2.1-1.7.7-3.5 1.2-5.3 1.5 1.6-.9 3.3-1.6 5.1-2.2 1.7-.6 3.5-1.1 5.3-1.4zm-.4 7.3c-1.5-.1-3-.4-4.5-1-1.5-.3-3-.8-4.3-1.5 1.5.1 3 .4 4.5 1 1.5.3 3 .8 4.3 1.5z" class="Q"/><path d="M417.9 340.9c-.4.3-.9.7-1.3.9-.9.6-2.2 1.3-3.8 2.2-4.2 2.3-8.7 4.1-13.3 5.4s-9.4 2.2-14.2 2.5c-1.8.1-3.3.2-4.4.1-.5 0-1.1 0-1.6-.1.5-.1 1.1-.2 1.6-.1 1 0 2.5-.1 4.3-.3 4.8-.5 9.5-1.4 14.1-2.7s9.1-3.1 13.4-5.2a63.91 63.91 0 0 0 3.9-2c.4-.2.9-.4 1.3-.7z" class="P"/><path d="M589 523.9l7.7 18.8s-21.5 8.1-21.7 12l41.5-.1-6.8-30.8-20.7.1z" class="Q"/><g class="S T"><path d="M609.5 540.8c.8.3 1.3 1.1 1.2 1.9-.2.8-1.1 1.3-1.9 1.2a1.79 1.79 0 0 1-1.2-2.1c.3-.8 1.3-1.3 2.1-1"/></g><g class="S T"><path d="M616.5 554.6l-.7-3.4-39.2 1.3s-1.8.8-1.6 2.1h41.5z"/></g><g class="P"><path d="M596 542.5c0 .2 1 .3 2 .9 1 .7 1.5 1.5 1.7 1.4s-.1-1.3-1.3-2-2.4-.5-2.4-.3zm-4.3 1.8c0 .2.8.5 1.5 1.4s.9 1.8 1.2 1.8.3-1.2-.6-2.2c-.9-1.1-2.1-1.2-2.1-1zm-2.5 5.2c.2 0 .5-1-.1-2.1-.5-1.1-1.5-1.6-1.6-1.4s.5.8.9 1.7c.5 1 .6 1.8.8 1.8zm5.2-10.9c.1.2 1-.1 2.2 0 1.1.1 2 .4 2.2.3.1-.2-.8-.9-2.1-1-1.5 0-2.4.6-2.3.7zm-.5-2.4a3.75 3.75 0 0 0 2.1 0c.8-.1 1.5-.4 2.2-.7l1.2-.6c.2-.1.4-.3.6-.5.3-.3.3-.7.1-1.1-.2-.3-.5-.5-.9-.5-.3 0-.5 0-.8.1-1.2.3-2.3.9-3.2 1.7-1 .9-1.3 1.7-1.2 1.7s.6-.6 1.5-1.3c.6-.4 1.2-.8 1.9-1.1.4-.1.8-.3 1.2-.4s.8-.1.9.1 0 .1 0 .2c-.1.1-.3.3-.5.4l-1.1.6c-.6.3-1.3.6-2 .8s-1.3.3-2 .6z"/><path d="M594 536.2c.4-.6.6-1.3.5-2 0-.8-.1-1.6-.3-2.3-.1-.4-.3-.9-.5-1.3-.2-.6-.7-1-1.3-1-.4 0-.7.2-.9.6-.1.2-.2.5-.2.8-.2 1.3.2 2.5.9 3.6.8 1.1 1.7 1.3 1.7 1.2s-.6-.5-1.3-1.5c-.4-.6-.6-1.3-.7-2-.1-.4-.1-.8 0-1.2s.2-.8.4-.7.6.3.7.7c.2.4.4.8.5 1.2.2.7.4 1.4.4 2.1.2 1 0 1.7.1 1.8z"/><path d="M616.2 367.8c-1.2.6-43.8 60.3-56.1 76.7-2.3 3-3.2 6.8-2.4 10.5 5.5 21.2 27.8 86.4 27.8 86.4l30-6.2-18.8-77.9 46.5-49.9-5.3-39.7-21.7.1z"/></g><path d="M596.2 458.6c-1.4-.5-2.7-1.1-3.9-1.9-1.3-.6-2.5-1.4-3.6-2.4 1.4.5 2.7 1.1 3.9 1.9 1.3.6 2.6 1.4 3.6 2.4z" class="Q"/><path d="M492.5 228.7l3.6 1.8c1.9.9 3.5 2.4 4.5 4.3l2.9 4.8 6.2 4.8-8.4 11.5-2.3-1.9s-8.4-.4-11.5-2c-3.2-1.5-6.1-4-5.7-5.1l.5-1.4c-.7-1.1-1-2.4-.8-3.8 0 0-1.9-2.2-1.6-3.8.3-1.5 1.5-2.6 3-2.9 0 0-.9-2.6 0-4 .7-.9 1.7-1.5 2.8-1.8l7.9 3.4-1.1-3.9z" class="W"/><path d="M706 526.9l13.7 16.5s-12.1 19.5-9.9 22.8l32.9-25.4-20.3-26.5-16.4 12.6z" class="Q"/><g class="S T"><path d="M728.8 534.1c.8-.3 1.7 0 2.1.8.3.8 0 1.7-.8 2.1-.9.3-1.8-.1-2.2-.9-.3-.9.2-1.8 1.1-2.1"/></g><g class="S T"><path d="M742.7 540.7l-2.2-2.5-30.7 25.4s-1 1.8 0 2.7l32.9-25.6z"/></g><path d="M719 543.6c.1.2 1-.4 2.2-.5s2.1.3 2.2.1-.9-.9-2.3-.8c-1.4.2-2.2 1.1-2.1 1.2zm-2.3 4.1c.1.2 1-.1 2.1.2s1.8.9 1.9.7c.1-.1-.4-1.2-1.8-1.4s-2.3.4-2.2.5zm1.2 5.7c.2-.1-.2-1-1.3-1.6s-2.1-.3-2.1-.1.9.3 1.8.8c.9.3 1.5 1 1.6.9zm-1.6-13.9c.2.1.7-.7 1.7-1.3s1.9-.9 1.9-1.2-1.2-.3-2.3.5-1.5 2-1.3 2z" class="P"/><g class="U"><path d="M712.2 534.9l2.5 2.9 16-12.6-2.1-2.8z"/></g><g class="P"><path d="M713.6 536.2c0 .1.8-.3 1.6-1.3.5-.6 1-1.2 1.3-1.9l.6-1.2c.1-.2.2-.5.2-.8 0-.4-.2-.8-.6-.9-.3-.1-.7 0-1 .2l-.6.6c-.3.4-.5.7-.7 1.2-.4.7-.6 1.4-.7 2.2-.2.7-.2 1.4.1 2.1.1 0 .1-.8.4-2 .2-.7.5-1.3.8-2 .2-.4.5-.7.7-1 .3-.4.6-.6.8-.5s.1 0 .1.2-.1.4-.1.6c-.1.4-.3.8-.5 1.2-.3.6-.7 1.3-1.2 1.8-.7.9-1.3 1.4-1.2 1.5z"/><path d="M714 536.2c-.1-.7-.3-1.4-.8-1.9a6.09 6.09 0 0 0-1.6-1.6c-.4-.3-.7-.5-1.2-.7a1.72 1.72 0 0 0-1.7 0c-.3.2-.4.6-.3 1 .1.3.2.5.3.7.2.4.5.8.9 1.2.6.5 1.3.9 2 1.2a2.56 2.56 0 0 0 2.1 0c-.7-.1-1.3-.3-1.9-.4-.7-.3-1.2-.6-1.7-1.2-.3-.3-.5-.6-.7-1s-.3-.8-.1-.8c.2-.1.6-.1 1 .1l1.1.6c.6.4 1.1.9 1.6 1.4.6.7.9 1.5 1 1.4z"/><path d="M676.4 366.5c.6 1.8 8.3 94 8.3 94l51.4 68.1-21.8 15.2-58.1-59.6c-2.8-2.8-4.7-6.4-5.5-10.3l-21.5-102.1 47.2-5.3z"/></g><g class="R"><path d="M554.9 269.9l45.3 1 3.1.5-12.6 27.7-46.2-6.7-45.3-33.5 12.1-17z"/><path d="M627.2 268.7l17.4 4.5c4.4 1.3 8 4.6 9.5 9l4.9 17.6 10.2 39.3 10 35.6c-17.8 8.1-31.8 19.2-54.1 19.9-3.1.1-6.2-.5-9.1-1.7l-14.6-6.2 4.8-22.4-17.4-66.3 13.3-26.4 4.5-.6 20.6-2.3z"/></g><path d="M562.2 247.1c-.1-.7 0-1.4.4-2 .9-1.3 2.3-2.2 3.8-2.7.2-2.1.1-4.2-.4-6.3-.7.3-1.5.4-2.2.2h-.4c-1.7-.1-2.6-2.2-2.2-3.8.6-1.6 1.6-3 2.9-4-1 .5-1.7 1.5-2.6 2.3s-2.5.9-3-.1c-.1-.3-.2-.7-.2-1l-.1-2.1c-.1-.6 0-1.2.3-1.6.3-.3.6-.5 1-.7 1.1-.8 1.2-2.5 2.2-3.3.9-.4 1.8-.7 2.8-.6 1-.1 2.1-.8 2-1.7-1.4-.1-2.8-.6-4-1.4s-1.7-2.4-1.2-3.8c.7-.9 1.7-1.5 2.8-1.8 1.2-.4 2.7-.7 3.5.3 1.5-1 3.5-.7 4.5.8 0 0 .1.1.1.2l2.9-1.5c-1.2-.6-2.6-.7-3.7-1.4s-1.7-2.6-.6-3.3c.4-.3.9-.3 1.3-.6s.4-.6.7-.7c.2-.1.5-.1.7 0l7.9 1.7-3.3-3.3c-1-1-2.1-2.5-1.3-3.7s2.7-.7 3.5.5c1-.7 2.4-.4 3.1.6.1.1.1.2.2.3.9-.9 2.3-.8 3.2.1.6.6.8 1.5.5 2.2 1.1-.4 2.2-.5 3.4-.3a1.96 1.96 0 0 1 1.3-2.4c.4-.1.7-.1 1.1 0-.3-.6-.4-1.3-.2-2 .2-.6 1-1.2 1.6-.8-.7-1.1-.4-2.5.7-3.2.6-.4 1.3-.5 2-.3l.6-1.7c1.1-.5 2.3-.4 3.2.4a1.75 1.75 0 0 1 0 2.5c-.1.1-.3.3-.5.4.7-.3 1 1 .8 1.7l-.9 3.3c.5-1.1 1.7-1.6 2.8-1.4.4-1 1.6-1.4 2.6-1h.1a1.58 1.58 0 0 1 1.9-1.2c.4.1.7.3.9.6 0-.6.7-.9 1.2-1 .8-.3 1.6-.3 2.4-.1.7.3 1.2 1.4.6 2 .5-.6 1.6-.2 1.9.5.2.8.1 1.6-.3 2.3s-.7 1.4-.9 2.2c.5-.6 1.2-1.1 1.9-1.3 1.3-.6 2.7-.8 4.1-.7 0-.6.7-.9 1.3-1 1.9-.3 3.8-.1 5.5.7.8.4 1.7 1.1 1.6 1.9-.1.4-.3.8-.6 1.1l-3.1 4.1c2.5-.2 5 .5 7.1 1.8l3 .1c1 .3 1.5 1.9.6 2.2.8.3 1.3 1 1.3 1.8 0 .3-.2.7-.4.9a1.08 1.08 0 0 1-.3.7c-.2.4-.5.7-.9 1-.2.7-.8 1.3-1.5 1.5 1 .4 2 .9 2.8 1.5 1.1.9 1.7 2.3 1.4 3.7 0 .1-.1.1-.1.2.1.5 0 1-.3 1.4.3.3.5.6.5.9 2.4 0 4.3 1.9 4.3 4.2 0 .8-.2 1.7-.7 2.4-.7 1-2.5 1.6-3 .5-.1 1.1-.7 2.1-1.7 2.6 1.3 1.2 1.4 3.2.2 4.5l-.2.2a3.48 3.48 0 0 1 1.7 4.6c-.2.4-.4.7-.7 1 .9 1.1.8 2.8-.3 3.7s-2.8.8-3.7-.3c0 1.1-.4 2.1-.9 3-.6.9-1.8 1-2.7.4 0 0-.1 0-.1-.1 0 2-1.7 3.6-3.7 3.5-.2 0-.4 0-.6-.1.6 1.1.1 2.5-1.1 3.1s-2.5.1-3.1-1.1l-5.6 2.1c-1.2.5-2.5.9-3.8 1.2-1.7.3-3.4.2-5-.3-.5-.2-1-.3-1.6-.3-.6.2-1.2.5-1.6.9-2.7 2-6.3 2.5-9.4 1.3-.5-.2-1-.4-1.5-.5-.6 0-1.2.2-1.7.4-1.4.5-2.8.8-4.3 1-1.3.2-2.6 0-3.6-.8-.9-.8-.9-2.7.2-3.1-.2-.8-.7-1.5-1.4-1.9-.8-.3-1.7 0-2.1.7-.3.7.4 1.8 1.2 1.6-.9 1.4-3.4.9-4-.6-.5-1.6.3-3.4 1.9-4-.7-1-1.2-2.1-1.4-3.4-.5 1.3-1.9 2.1-3.2 1.7-.2 1.3-.9 2.4-2 3.1s-2.6.5-3.5-.4c-.7-.9-.5-2.1.4-2.8.1-.1.3-.2.5-.3-1-.9-1-2.4-.2-3.4.2-.3.6-.5.9-.6-.8-1.5-.5-3.3.7-4.5-.7.8-1.9.9-2.7.2l-.2-.2c-.3 1.4-2.1 1.8-3.5 1.6-1.3.4-2.3-.5-2.5-1.6z" class="P"/><path d="M562.2 247.1c0 .2.1.3.1.5a2.73 2.73 0 0 0 .9 1.2c.7.4 1.5.6 2.4.6.5 0 1.1-.1 1.5-.3.6-.2 1-.7 1.2-1.3h-.1c.7.9 2 1 2.9.2.1-.1.2-.1.2-.2l-.1-.1c-1.3 1.2-1.6 3.1-.7 4.6l.1-.1c-.8.3-1.4 1-1.5 1.8-.2.9.1 1.8.7 2.4v-.2c-.9.3-1.4 1.2-1.3 2.1.1 1 .9 1.8 1.8 2 1 .2 2-.1 2.8-.8s1.3-1.7 1.5-2.7l-.2.1c1.4.4 3-.4 3.5-1.8h-.3c.2 1.3.7 2.4 1.4 3.5l.1-.2c-.8.3-1.4.9-1.8 1.6s-.6 1.6-.3 2.4 1 1.5 1.9 1.7c.9.3 1.9-.1 2.5-.8l.3-.4-.4.1c-.4.1-.9-.3-1-.8s.3-1 .8-1.2 1.1-.1 1.6.3a2.37 2.37 0 0 1 .9 1.5l.1-.2c-.4.2-.8.5-.9.9-.2.4-.2.9-.1 1.3s.3.8.6 1.2c.3.3.7.5 1.2.7.8.2 1.7.3 2.6.2l2.5-.4c1.7-.3 3.3-1.6 4.9-.6a9.98 9.98 0 0 0 5.4.6c.9-.2 1.8-.5 2.7-.9.8-.4 1.6-1 2.4-1.6.3-.2.7-.3 1.2-.3.5.1.9.2 1.3.4.9.3 1.9.4 2.9.4 2-.1 3.9-.5 5.8-1.3l5.7-2.1-.3-.1c.6 1.3 2.2 1.8 3.5 1.2s1.8-2.2 1.2-3.5l-.3.3c2.1.4 4.1-.9 4.5-3 .1-.3.1-.5.1-.8l-.4.2c.4.4 1 .6 1.6.5s1.1-.4 1.5-.8c.7-.9 1-2 1.1-3.2l-.4.1c1 1.2 2.8 1.4 4 .3 1.2-1 1.4-2.8.3-4h0v.3c.9-.8 1.3-2 1.1-3.2-.1-1.3-1-2.4-2.2-2.8l.1.4c1.4-1.3 1.5-3.5.2-4.9-.1-.1-.1-.2-.2-.2v.4c1-.6 1.7-1.6 1.8-2.8l-.5.1c.1.3.4.5.7.6s.6.1.9.1c.6-.1 1.1-.3 1.5-.7.8-.8 1.2-2 1.2-3.1a4.1 4.1 0 0 0-1.4-3.1c-.8-.8-2-1.3-3.2-1.3l.3.2c-.1-.4-.3-.8-.6-1.1v.3c.3-.5.5-1 .4-1.6v.1c.4-1.3 0-2.7-.9-3.7s-2.1-1.7-3.4-2.1v.5c.8-.3 1.4-.9 1.7-1.7l-.1.1c.6-.5 1-1.1 1.2-1.8v.1c.4-.5.5-1.2.3-1.8a2.1 2.1 0 0 0-1.3-1.3v.5c.3-.1.5-.4.6-.7s0-.6-.1-.9c-.2-.5-.6-1-1.2-1.2-1-.1-2-.2-3-.1h.1c-2.2-1.3-4.7-2-7.2-1.8l.2.4 1.4-1.9 1.1-1.4c.4-.5.7-1 1-1.5.2-.3.2-.7.1-1s-.3-.6-.6-.9c-.5-.4-1-.8-1.6-1-1.1-.5-2.3-.7-3.5-.7-.6 0-1.2 0-1.8.1l-.9.3c-.3.2-.6.5-.6.9l.3-.2c-1.1-.1-2.3 0-3.4.4-.5.2-1 .3-1.6.6-.6.2-1.1.6-1.4 1.2l.5.1c.1-1.1 1-2 1.3-3.2.2-.7 0-1.4-.5-1.9-.3-.2-.6-.4-.9-.4-.4 0-.8.1-1 .4l.4.3c.3-.2.4-.6.4-.9s-.1-.6-.3-.9-.4-.5-.7-.6-.6-.2-.9-.2c-.6 0-1.1.1-1.7.3-.3.1-.6.2-.8.4-.3.2-.5.5-.5.9l.5-.1c-.6-.8-1.7-1-2.5-.5-.4.3-.7.7-.8 1.1l.4-.2c-1.1-.5-2.4-.1-2.9 1 0 0 0 .1-.1.1l.3-.2c-1.3-.3-2.5.3-3.1 1.5l.5.2.7-2.8c.2-.5.2-1 .2-1.5 0-.3-.1-.5-.3-.8a1.38 1.38 0 0 0-.4-.3.45.45 0 0 0-.5 0l.2.5c.7-.2 1.1-.8 1.2-1.5s-.1-1.3-.6-1.8c-1-.8-2.3-.9-3.5-.4h-.1v.1l-.6 1.7.3-.2c-1.3-.5-2.7.2-3.2 1.5-.3.7-.2 1.6.3 2.2l.3-.3c-.4-.2-.9-.2-1.2.1-.3.2-.6.5-.7.9-.1.7 0 1.4.2 2.1l.3-.3c-1.1-.4-2.4.2-2.8 1.4-.1.4-.1.9 0 1.3l.3-.3c-1.2-.2-2.4-.1-3.5.3l.3.3c.4-1.3-.4-2.7-1.7-3-.8-.2-1.7 0-2.4.6l.4.1c-.5-1.2-2-1.8-3.2-1.2-.1.1-.3.1-.4.2h.3c-.3-.5-.8-.9-1.4-1.2-.6-.2-1.2-.2-1.8 0-.6.3-.9.9-1 1.5s.1 1.3.4 1.8c.6.9 1.3 1.7 2.1 2.5l2.2 2.3.2-.4-4.9-1-2.4-.5c-.4-.1-.8-.2-1.3-.2-.3 0-.5.2-.6.4s-.2.3-.4.5c-.3.2-.6.4-1 .5-.4.2-.8.5-.9 1-.2.9.1 1.7.7 2.4a4.45 4.45 0 0 0 2.1 1.2l2.1.7v-.4l-2.9 1.5.3.1c-1-1.6-3.1-2.1-4.8-1.1-.1 0-.1.1-.2.1h.3c-.5-.6-1.3-.9-2-.7-.7.1-1.4.2-2 .5-.7.2-1.3.5-1.8.9-.6.4-.9 1.1-.9 1.8 0 1.4.8 2.6 2 3.3 1.1.6 2.3.9 3.6 1.1l-.1-.2c0 .5-.3.9-.7 1.2s-.9.4-1.5.4c-.5 0-1.1.1-1.6.2s-1 .4-1.4.9c-.7.9-.8 1.9-1.5 2.6-.3.4-.8.5-1.2.8-.3.4-.5.9-.5 1.4 0 .9.1 1.9.2 2.8 0 .5.2 1 .6 1.3s.9.4 1.3.3.9-.2 1.2-.5.7-.5 1-.9a6.55 6.55 0 0 1 1.8-1.5l-.1-.2c-.7.6-1.4 1.4-2 2.1s-.9 1.6-1 2.5.2 1.7.7 2.4 1.3 1 2.1.9h0a3.6 3.6 0 0 0 2.3-.2l-.1-.1c.5 2 .6 4.1.5 6.2v-.1c-1 .4-1.9.8-2.7 1.4-.6.4-1 1-1.3 1.6-.2.4-.2.8-.2 1.2 0 .1 0 .3.1.4-.1-.5 0-1.1.2-1.6.3-.6.7-1.2 1.3-1.6.8-.6 1.7-1 2.7-1.4h0 0c.2-2.1.1-4.2-.4-6.3v-.1h-.7c-.7.3-1.4.3-2.2.2h0c-.7.1-1.5-.2-1.9-.8-.5-.6-.7-1.4-.7-2.2.1-.9.4-1.7 1-2.4.6-.8 1.3-1.5 2-2.1l.6-.5-.7.3c-.7.4-1.4.9-1.9 1.6-.3.3-.6.6-.9.8s-.7.4-1.2.4c-.4.1-.8 0-1.2-.2-.3-.3-.5-.7-.5-1.1 0-.9-.1-1.8-.2-2.8 0-.4.1-.9.4-1.2s.8-.4 1.2-.8c.7-.8.9-1.8 1.5-2.6s1.7-.9 2.8-.9c.6 0 1.1-.2 1.6-.5.6-.3.9-.8.9-1.5v-.1h-.1c-1.2-.1-2.4-.5-3.5-1-1.1-.6-1.8-1.7-1.8-3 0-.6.3-1.2.8-1.6s1.1-.7 1.7-.9 1.3-.4 1.9-.5 1.3.1 1.7.6l.1.2.1-.1c1.4-1 3.3-.6 4.3.8l.1.1.1.2.2-.1 2.9-1.5.4-.2-.4-.2c-.7-.3-1.4-.5-2.2-.7-.7-.2-1.4-.5-1.9-1s-.7-1.3-.6-2a1.21 1.21 0 0 1 .7-.7c.4-.1.8-.3 1.2-.6.3-.3.5-.7.8-.7.4 0 .8.1 1.2.2l2.4.5 4.9 1 .7.1-.5-.5-2.2-2.3c-.8-.7-1.5-1.5-2.1-2.4-.3-.4-.4-.9-.4-1.4s.3-.9.7-1.2c1-.4 2.1 0 2.6.9l.1.2.2-.1c.9-.6 2.1-.4 2.7.6.1.1.1.2.2.3l.1.3.3-.2c.8-.8 2.1-.7 2.8.1.5.5.6 1.2.5 1.9l-.1.4.4-.2c1-.4 2.2-.5 3.2-.3l.4.1-.2-.4c-.2-.9.3-1.9 1.2-2.1.3-.1.6-.1.9 0l.5.2-.2-.5c-.2-.6-.3-1.2-.2-1.8.1-.5.8-1 1.2-.7l1 .6-.6-.9c-.6-.9-.3-2.2.6-2.8.5-.3 1.1-.4 1.7-.2l.2.1.1-.2.6-1.7-.1.1a2.58 2.58 0 0 1 2.9.3c.7.6.6 2.2-.3 2.4l.2.5c.1-.1.3 0 .3.1.1.2.2.3.2.5.1.4 0 .9-.2 1.3l-.7 2.8.5.2c.5-.9 1.5-1.4 2.5-1.2l.2.1.1-.2c.4-.9 1.4-1.3 2.2-.9h.1l.4.2v-.4c.2-.7 1-1.1 1.7-.9.2.1.5.2.6.4l.6 1.2-.1-1.3c0-.3.5-.6.9-.7.5-.2 1-.2 1.5-.3.5 0 .9.2 1.2.5s.3.8 0 1.2l.4.4c.2-.3.9-.2 1.2.1.4.4.5.9.3 1.4-.2 1.1-1.2 2-1.3 3.3l-.2 1.3.6-1.2c.5-.8 1.7-1.1 2.7-1.4 1-.4 2.1-.5 3.1-.4h.3v-.3c0-.4.6-.7 1.1-.8 1.7-.3 3.4-.1 5 .5.5.2 1 .5 1.4.9.4.3.5.9.3 1.3-.3.5-.6 1-1 1.4l-1.1 1.4-1.4 1.9-.3.4h.6c2.4-.1 4.9.5 6.9 1.8h0 0l3 .1c.4.2.7.5.8.9s.1.8-.3.9l-.8.3.8.2c.5.2.9.5 1 1 .2.5.1 1-.2 1.3h0v.1c-.1.6-.5 1.2-1 1.5h-.1v.1c-.2.6-.7 1.2-1.3 1.4l-.7.2.7.3c1.2.4 2.3 1.1 3.2 2 .8.8 1.1 2.1.8 3.2v.1.1c.1.4 0 .9-.3 1.2l-.1.2.2.2c.2.2.4.5.4.8v.2h.2c1 0 2.1.4 2.8 1.2.8.7 1.2 1.7 1.2 2.7.1 1-.3 2-.9 2.7-.3.3-.8.5-1.2.6s-.8-.1-1-.4l-.4-.9-.1 1c-.1 1-.7 1.9-1.6 2.4l-.3.2.3.2c1.2 1.1 1.3 3 .2 4.2l-.2.2-.3.3.4.1c1 .4 1.7 1.3 1.9 2.4.2 1-.1 2.1-.9 2.8l-.2.2.2.2c.9 1 .7 2.5-.3 3.4s-2.5.7-3.4-.3h0l-.4-.4-.1.6c0 1-.3 2.1-.9 2.9-.6.7-1.6.9-2.3.3l-.5-.6v.7a3.32 3.32 0 0 1-1.3 2.6c-.8.6-1.8.9-2.7.6l-.4-.1.2.4c.4 1.1-.1 2.3-1.1 2.7s-2.1 0-2.6-.9l-.1-.2-.2.1-5.7 2.1c-1.8.8-3.7 1.2-5.6 1.3-.9 0-1.9-.1-2.8-.4-.5-.2-.9-.3-1.4-.4s-1.1.1-1.5.4c-.7.6-1.5 1.1-2.3 1.5s-1.7.7-2.6.8c-1.7.3-3.5.1-5.2-.5-.4-.2-.9-.3-1.3-.4-.5 0-.9 0-1.4.2l-2.5.8c-.8.2-1.7.3-2.5.4s-1.6 0-2.4-.2c-.7-.2-1.3-.8-1.5-1.5s.1-1.5.7-1.8h.1v-.2c-.2-.7-.5-1.3-1-1.7s-1.3-.6-1.9-.3c-.7.2-1.1.9-1 1.6s.8 1.2 1.5 1.1l-.2-.3c-.5.6-1.3.9-2.1.7-.8-.1-1.4-.7-1.7-1.4-.4-1.5.5-3.1 1.9-3.6l.2-.1-.1-.2c-.7-1-1.2-2.1-1.4-3.3l-.1-.7-.2.6c-.4 1.3-1.8 2-3.1 1.6h-.1v.2a5.1 5.1 0 0 1-1.4 2.6c-.7.6-1.6.9-2.6.7-.9-.1-1.6-.8-1.6-1.7-.1-.8.4-1.6 1.2-1.9l.2-.1-.2-.1c-.9-.9-.9-2.3 0-3.3a3.04 3.04 0 0 1 .7-.5h.1l-.1-.1c-.8-1.4-.5-3.2.7-4.3l-.1-.1c-.7.8-1.9.9-2.6.2l-.2-.2-.1-.1v.2c-.1.6-.5 1-1.1 1.3-.5.2-1 .3-1.5.3-.8 0-1.6-.1-2.3-.5-.4-.2-.7-.6-.9-1.1-.1-.7-.2-.9-.2-.9z" class="Q"/><path d="M627.6 269.9l-13.7-39.6c-3.3-10.8-12.3-17.9-22.9-14.3l-1 .4c-9.7 3.9-14.9 14.6-11.8 24.6 2.9 9.3 6.2 19.6 8.2 24.4 4.1 10 14.8 7.5 14.8 7.5s.9 2.3 1.9 5.4h0s1.7 10 9.6 7.6c7.8-2.3 14.9-16 14.9-16z" class="W"/><path d="M601.1 273c4.6-1.9 8.6-5 11.5-9.1 0 0 0 8.9-10.4 12l-1.1-2.9z" class="Z"/><path d="M583.8 248c.3.8 1.2 1.2 2 .9.8-.2 1.2-1.1 1-1.9-.3-.8-1.2-1.2-2-.9-.9.3-1.3 1.1-1 1.9-.1 0-.1 0 0 0zm-1.8-3.6c.3.1 1-1.2 2.6-1.7s3-.3 3.1-.5-.3-.4-.9-.6c-.9-.2-1.7-.1-2.6.2-.8.3-1.5.9-1.9 1.6-.4.5-.5.9-.3 1zm16.1-1c.3.8 1.2 1.2 2 .9.8-.2 1.2-1.1 1-1.9-.3-.8-1.2-1.2-2-.9s-1.2 1.1-1 1.9zm-.8-4.4c.3.1 1-1.2 2.6-1.7 1.5-.6 3-.3 3.1-.5s-.3-.4-.9-.5c-.9-.2-1.7-.1-2.5.2s-1.5.9-1.9 1.6c-.5.4-.5.8-.4.9zm-.8 14c-.9.1-1.8.3-2.7.5-.4.1-.8.2-1-.1-.2-.4-.3-.8-.2-1.3v-3.5l-.5-8.9c-.2 0-.3 4-.2 8.9l.1 3.5c-.1.6.1 1.1.4 1.6.2.2.6.3.9.3.2 0 .5-.1.7-.2.9 0 1.7-.4 2.5-.8zm-1.6-19.1c.3.4 1.8-.4 3.7-.9s3.6-.6 3.6-1.1c0-.2-.4-.5-1.2-.7-2-.4-4.1.2-5.6 1.5-.5.5-.7 1-.5 1.2zm-14.4 5c.4.3 1.3-.5 2.6-1s2.5-.6 2.6-1.2c0-.2-.3-.5-.9-.7a3.6 3.6 0 0 0-2.3.2c-.7.3-1.4.8-1.8 1.5s-.4 1.1-.2 1.2z" class="P"/><path d="M596.6 257.6c.4.5.9 1 1.4 1.4s1.2.5 1.9.4c.7-.2 1.2-.8 1.4-1.5s.1-1.4-.2-2.1c-.2-.6-.7-1.2-1.4-1.1-.3.1-.5.2-.7.4l-2.8 2.3" class="Z"/><path d="M598.7 259.8c.6-.2 1.1-.4 1.6-.8s.8-1 .9-1.6c.1-.8-.1-1.5-.6-2.1l-.4-.4c-.2-.1-.1-.1-.3 0l-.4.4-.5.4-1.6 1.3c-.5.4-1 .8-1.6 1.1-.1 0 .4-.6 1.3-1.4l1.5-1.4.4-.4c.2-.1.3-.3.5-.4.1-.1.3-.2.5-.1.2 0 .3.1.4.2.2.1.4.3.6.5.6.7.9 1.7.7 2.6-.1.7-.5 1.4-1.2 1.8-.4.3-.9.5-1.4.5l-.4-.2zm-26.4-26.1c-.2-.5-.3-1.1-.4-1.6 0-.8.2-1.7.6-2.4 1.2-2.6 2.5-5.4 4.6-6.9 1.3-.9 2.9-1.4 4.3-2.3.8-.6 1.6-1.3 2.3-2 3.2-2.6 7.1-4.4 11.2-5 2.3-.5 4.6-.7 6.9-.4 2.6.5 5.1 1.5 7.4 2.9 3.7 1.9 7.1 4.4 9.9 7.5 2.3 2.5 3.9 5.6 4.5 9 .5 3.4-.7 7-3.2 8.5l-1.4-.9-2.2-1.3c.5.7.3.7-.2 1.3s-1.4.6-1.9.1l-.1-.1c-.3.8-1.6.5-1.8-.5-.5.5-1.6-.1-1.6-.9-.6.5-1.4-.5-2-1.2-.3-.4-.7-.7-1.1-1-1.2-1.1-2-2.4-2.4-4-1.2-1-2.1-2.3-2.6-3.8l-1.2-2.8-.7-.5c.2.7 0 1.4-.6 1.8-.5.3-1.1.5-1.7.5l-1.8.2-1 .6c.5.9.7 1.9.5 2.9 0 .7-.1 1.3-.5 1.8-.4.3-.9.3-1.2-.1a.76.76 0 0 1-.2-.4c-.3.4-.9.6-1.3.3-.1 0-.1-.1-.1-.1-.5-.4-.8-1-.9-1.6-.4-1.5-.3-3.1.1-4.5l-2.1 3.6c-.1.3-.3.5-.6.7.2.4 0 .9-.4 1.1-.1 0-.1.1-.2.1-.5 0-.9-.1-1.3-.4-.9-.5-2.1-1.6-1.7-2.7-.4 0-.7-.5-.6-.9l-2.6 3.6c.3-.3.8.1.9.6 0 .4-.1.9-.4 1.2.4.4.7.9.9 1.5.4-.7 1.6 0 1.7.9 0 .9-.5 1.6-1.4 1.9-.7.3-1.5 0-1.8-.6-.7.4-1.7-.4-1.7-1.3-.4.5-1.2-.3-1.4-1a13.2 13.2 0 0 1-.6-3.9c0 .1-.1.2-.3.2l-.1-.1c-.2 1.6-.3 3.2-.5 4.8-.2 1.4-.2 2.8.1 4.2.1.6.3 1.3-.1 1.5h-.4c-1.6-.4-3.1-1.3-4.1-2.6-.4-.4-.7-.9-.9-1.5-.3-1.6-.5-2.8-.6-4z" class="P"/><g class="Q"><path d="M586.2 226.8c-.3-.2-.5-.4-.7-.7a.91.91 0 0 1 0-1c.2-.4.7-.7 1.2-.7h.3l-.2-.2c-.3-.4-.4-1-.1-1.5.4-.5 1-.7 1.6-.4l.1-.3c-.1 0-.1-.1-.1-.1-.1-.2-.2-.4-.1-.6s.2-.4.4-.5.4-.2.7-.2h.8c.3-.1.4-.4.5-.6s.3-.3.4-.4c.3-.2.6-.4 1-.5.5-.2 1.1-.2 1.6-.1.4.1.6.2.6.2-.2-.1-.3-.2-.6-.3a2.48 2.48 0 0 0-1.7 0c-.4.1-.7.3-1 .5-.2.1-.3.3-.5.5-.1.2-.2.4-.4.5h-.7c-.3 0-.5.1-.8.2s-.5.4-.6.6c-.1.3-.1.6.1.9.1.1.1.2.2.2l.1-.3c-.8-.3-1.7 0-2 .8-.2.5-.2 1.1.2 1.5l.1-.2c-.6 0-1.1.3-1.3.8-.3.6 0 1.4.6 1.8.2.1.3.1.3.1zm-6.7 3.9c-.3-.1-.6-.4-.8-.6a1.64 1.64 0 0 1-.2-1.2c.1-.5.4-.9.9-1.2l.2-.1-.2-.1c-.5-.3-.9-.8-.9-1.4 0-.3.1-.6.4-.8.2-.2.6-.3.9-.1l1.1.6-.9-.9c-.3-.3-.5-.8-.4-1.2 0-.5.3-.9.7-1.2.3-.2.6-.2 1-.2l.4.1-.2-.3c-.3-.5-.1-1.1.4-1.3h.1a2.21 2.21 0 0 1 1.6 0l.3.1-.2-.3c-.2-.4-.2-.8 0-1.2.2-.3.5-.6.9-.7.6-.3 1.2-.4 1.9-.5.6 0 1.1 0 1.7.1-.1-.1-.3-.1-.4-.1-1.1-.2-2.2-.1-3.2.3-.4.2-.7.4-1 .8s-.3 1-.1 1.4l.1-.2c-.6-.2-1.2-.2-1.8.1-.3.2-.6.4-.7.7-.2.3-.1.8.1 1.1l.1-.2c-.4-.1-.8 0-1.2.2-.5.3-.9.8-.9 1.4 0 .5.2 1.1.5 1.5l.2-.2c-.4-.2-.9-.1-1.2.2s-.5.6-.5 1c.1.7.5 1.3 1.1 1.6v-.2c-.5.3-.9.8-1 1.3-.1.7.3 1.4.9 1.7h.3zm-15 5.8c-.1-.3 0-.6.1-.9.2-.3.5-.5.9-.6.5-.1 1-.1 1.5-.1h.2l-.1-.2c-.2-.6.1-1.2.7-1.5a3.86 3.86 0 0 1 2.1-.3l1 .1-.9-.3c-.5-.3-.7-1-.4-1.5.4-.5 1-.9 1.7-.9h.1l.6-.1-.6-.2c-.6-.3-.8-1-.5-1.5 0-.1.1-.2.1-.2.5-.5 1.2-.6 1.9-.4l.7.3-.6-.5a2.35 2.35 0 0 1-.7-2.5c.2-.7.7-1.3 1.4-1.6a2.2 2.2 0 0 1 1.4-.2c.3 0 .5.1.5.1l-.1-.1c-.1-.1-.3-.1-.4-.1-.5-.1-1 0-1.5.1-.7.3-1.3.9-1.5 1.7-.3 1 0 2.1.8 2.8l.1-.2c-.8-.3-1.6-.2-2.2.4-.3.3-.4.8-.3 1.2.1.5.4.9.8 1v-.3h-.1c-.8.1-1.4.5-1.9 1.2-.2.3-.2.7-.2 1.1.1.4.3.7.7.8l.1-.3c-.8-.1-1.6 0-2.3.3s-1 1.1-.7 1.8l.1-.1c-.5 0-1 0-1.5.1-.4.1-.7.4-.9.7-.1.2-.2.5-.1.7-.1.1 0 .2 0 .2z"/><path d="M568.3 219.4h.4c.4 0 .8-.1 1.2-.3a3.21 3.21 0 0 1 1.7-.2c.3.1.6.2.8.5s.2.7-.1.9l.2.1c0-.4.3-.7.7-1.2.3-.4.7-.7 1.2-1 .4-.3.9-.3 1.4-.2.4.1.8.5.9.9l.1.4.2-.3c.4-.6 1-1.1 1.7-1.3.5-.2 1.1-.3 1.7-.2.5.1 1 .2 1.5.4l-.3-.3c-.4-.2-.7-.3-1.2-.4-.6-.1-1.2 0-1.8.2-.7.2-1.4.7-1.8 1.4l.3.1c-.1-.6-.5-1-1.1-1.2s-1.2-.1-1.7.2a6.42 6.42 0 0 0-1.3 1c-.2.2-.4.4-.5.6-.2.2-.3.5-.2.8v.3l.2-.2c.3-.3.3-.9.1-1.3-.2-.3-.5-.6-.9-.6-.6-.1-1.2 0-1.8.3-.4.1-.7.3-1.1.3-.3.3-.5.3-.5.3zm12.7-9.7c.3-.1.5-.1.8-.1s.6.1.9.3.6.5.7.8l.1.1.1-.1c.4-.2.9-.1 1.2.3.3.5.5 1 .5 1.6l.1.6.2-.6v-.1a1.27 1.27 0 0 1 .9-.7c.4-.1.7 0 1.1.1.6.3.9.9 1.1 1.5.1.4.1.9 0 1.3v.5s.1-.2.2-.5c.1-.5.1-.9.1-1.4-.1-.7-.5-1.4-1.2-1.7-.8-.5-1.8-.2-2.3.6v.1.1h.3c0-.6-.2-1.2-.6-1.7a1.25 1.25 0 0 0-1.6-.3h.2a1.96 1.96 0 0 0-.9-.9c-.3-.2-.6-.2-.9-.2-.2 0-.4.1-.6.1-.3.3-.4.3-.4.3zm15.2 5.1c.1 0 .2-.1.3-.2.3-.2.5-.5.7-.9.3-.5.3-1.1.2-1.6-.1-.3-.1-.6 0-.8.1-.3.4-.5.5-.9.2-.8-.2-1.6-.9-1.8l.1.2c.4-.6.7-1.3.7-2.1.1-.3.1-.6 0-.8 0 0 0 .3-.1.8-.1.7-.4 1.4-.8 1.9l-.1.1.2.1c.6.2.9.9.7 1.5-.1.3-.4.5-.5.9-.1.3-.1.7 0 1 .1.5 0 1-.2 1.5-.1.4-.4.8-.8 1.1zm4.5 1.5h.3c.2-.1.5-.2.7-.3.8-.4 1.4-1 1.8-1.8l-.2.1c.6.4 1.3.5 2 .4.4-.1.7-.2 1-.4.4-.2.6-.6.7-1v-.4c0-.1 0-.2.1-.3.2-.2.4-.4.6-.5a3.04 3.04 0 0 0 .7-.5c.2-.2.3-.5.2-.8l-.1.2c.6.1 1.3-.1 1.8-.5.4-.3.7-.6.9-1.1l.3-.9v-.3c-.1.4-.2.8-.4 1.2s-.6.7-.9 1c-.5.3-1 .4-1.6.4h-.2l.1.2c0 .2 0 .4-.2.6s-.4.3-.6.4c-.3.1-.5.3-.7.6-.1.1-.2.3-.2.5v.4c-.1.3-.3.6-.6.8s-.6.3-.9.4c-.6.1-1.2 0-1.8-.3l-.1-.1-.1.1c-.3.8-.9 1.4-1.6 1.8-.7 0-1.1.1-1 .1zm25.4 2.3v-.1-.3c-.1-.4-.2-.8-.5-1.2l-1.2-1.4c-.3-.3-.6-.5-.9-.7-.2-.1-.4-.2-.6-.2-.3-.1-.5 0-.7.2l.2.1c-.2-1.1-1.3-1.8-2.3-1.6-.5.1-1 .4-1.3.8l.3.1c-.1-.4-.4-.8-.9-.9-.4-.2-.9-.1-1.3.2-.2.2-.4.4-.4.6h.3c-.1-.3-.3-.5-.5-.6s-.5-.1-.7-.1c-.4.1-.8.4-1.2.7h.2c-.4-.4-1-.5-1.5-.5s-1 .2-1.4.4c-.7.5-1.3 1-1.9 1.7l.2.1c0-.2 0-.4-.2-.5a.76.76 0 0 0-.4-.2c-.3 0-.6 0-.8.1-.4.2-.7.4-1 .7-.2.2-.4.4-.5.6-.1.1-.1.2-.1.2.2-.3.5-.5.8-.7.3-.3.7-.5 1-.6.2-.1.5-.1.7-.1.3 0 .5.2.4.4l-.1.4.3-.3c.5-.6 1.1-1.2 1.8-1.6.4-.2.8-.3 1.3-.4.5 0 .9.1 1.3.4l.1.1.1-.1c.3-.3.6-.5 1-.6s.7.1.9.4l.1.5.2-.5c.2-.5.8-.8 1.3-.6a1.21 1.21 0 0 1 .7.7l.1.3.2-.3c.5-.8 1.6-1 2.4-.5.4.3.6.7.7 1.1v.2l.2-.2c.3-.3.7-.1 1 0 .3.2.6.4.9.7.5.4.9.8 1.3 1.3.1.7.3 1.2.4 1.8zm.8 8.9s0-.1.1-.2c.1-.2.1-.5.2-.7.1-.4 0-.8-.1-1.2-.1-.2-.2-.4-.4-.6s-.5-.3-.8-.3l.1.1c.2-.5 0-1.1-.4-1.5-.5-.4-1.1-.5-1.7-.2l.2.2c.2-.5 0-1-.4-1.3s-.9-.4-1.4-.2c-.2.1-.4.1-.6.2-.2 0-.4-.1-.5-.2-.2-.2-.4-.4-.6-.5s-.5-.2-.8-.2c-.5.1-1.1.2-1.6.4-.4.2-.9.2-1.3 0-.2-.1-.4-.3-.6-.4a1.08 1.08 0 0 0-.7-.3 1.3 1.3 0 0 0-1.3.5l.2.1a1.3 1.3 0 0 0-.5-1.3c-.4-.2-.8-.3-1.2-.2-.6.2-1.3.4-1.8.8-.4.2-.7.5-1 .8l-.3.3s.5-.4 1.4-1c.5-.3 1.1-.6 1.8-.7.4-.1.8 0 1.1.2s.5.6.4 1l-.2.5.4-.4c.3-.3.7-.4 1.2-.4.2 0 .4.1.6.2.2.2.4.3.6.5.2.1.5.2.8.2s.5-.1.8-.1c.5-.2 1-.3 1.5-.4.2 0 .4 0 .6.1s.4.3.5.5a1.08 1.08 0 0 0 .7.3c.2 0 .5-.1.7-.2.4-.1.8-.1 1.2.2.3.2.4.6.3.9l-.1.4.3-.2c.4-.3 1-.2 1.4.1.3.3.4.7.3 1.2v.1h.1c.5 0 .9.3 1 .7.1.3.2.7.1 1l-.3 1.2zm6.8 14.9c.1 0 .2-.1.3-.2.2-.2.4-.4.5-.7.2-.4.2-.9.1-1.4-.1-.6-.5-1.1-1.1-1.4v.1c.2-.5.3-1.1.3-1.7 0-.3-.1-.6-.3-.9s-.5-.5-.9-.5l.1.2c.4-.5.5-1.1.3-1.7-.1-.3-.3-.6-.6-.9-.3-.2-.6-.4-.9-.4s-.5-.1-.6-.4-.2-.6-.4-.8c-.4-.4-.9-.7-1.4-.8l-1.3-.5c-.6-.2-1.3-.3-2-.3-.2 0-.4 0-.5.1-.1 0-.2.1-.2.1.2 0 .5-.1.7-.1.7 0 1.3.1 1.9.4l1.3.5c.5.1.9.4 1.3.8.2.2.3.5.4.7s.2.3.3.4.3.2.5.2c.9.1 1.4.9 1.3 1.8 0 .3-.1.5-.3.7l-.2.2h.3c.6.1 1 .6 1 1.2a4.53 4.53 0 0 1-.3 1.6v.1h.1c.5.3.8.7 1 1.3.1.4.1.9-.1 1.3s-.4.7-.6 1zm-33.1-15.6c.3-.1.6-.4.8-.6.3-.3.5-.6.6-.9.2-.4.1-.9-.1-1.3-.1-.1-.1-.2-.2-.3v.2c.3-.3.5-.7.4-1.2 0-.3-.2-.7-.5-.9-.4-.4-.8-.3-.8-.3.3.1.5.2.7.4.5.4.5 1.2.1 1.6l-.1.1-.1.1.1.1c.1.1.1.1.1.2.2.4.2.8.1 1.2-.1.3-.3.6-.5.8-.4.4-.6.7-.6.8zm-7.6-1.2c-.3-.3-.4-.6-.5-1s.1-.9.4-1.2c.4-.4 1-.4 1.5-.1l.2.1v-.3c0-.3 0-.6.1-.9s.3-.6.6-.7c.4-.2 1.1.1 1.1.5h.3c-.1-.6 0-1.2.4-1.7.3-.4.7-.7 1.2-.8.4-.1.8-.2 1.3-.1-.1-.1-.2-.1-.3-.1-.3 0-.7 0-1 .1-.5.1-.9.4-1.2.9-.4.5-.6 1.2-.5 1.9h.3c0-.3-.2-.6-.5-.7s-.6-.1-.9 0a1.27 1.27 0 0 0-.7.9c-.1.3-.1.7-.1 1.1l.2-.1c-.6-.3-1.3-.2-1.7.3-.4.3-.5.8-.4 1.3.1.3.2.6.4.8l-.2-.2z"/></g><path d="M616 238.1c.1-.1 6.1-4.8 8.6 2.2s-5 8.1-5.1 7.8c0-.2-3.5-10-3.5-10z" class="W"/><path d="M620.7 244.7s.1 0 .4.1c.3 0 .7-.1.9-.3.7-.9.9-2.1.4-3.2-.2-.6-.5-1.2-1-1.6-.3-.4-.8-.6-1.3-.6a.65.65 0 0 0-.6.6c0 .2.1.3 0 .4-.1 0-.2 0-.2-.4 0-.2 0-.4.1-.5.1-.2.4-.4.6-.4.6-.1 1.2.1 1.7.6s.9 1.1 1.2 1.8c.5 1.2.3 2.7-.7 3.6-.3.2-.8.3-1.2.2-.2-.1-.3-.3-.3-.3z" class="Z"/><path d="M600.9 344.4s13.8 1.6 23.1-4.4c9.2-6.1 20.8-29.8 20.8-29.8s-23.1 26.7-45 30.1l1.1 4.1z" class="U Y"/><path d="M627.2 287.5l-22.7 29.6-54.9 8.1 2.9 18.2 54.6-3.1c8-.7 15.5-4.5 20.9-10.5 6.7-7.5 15.8-17.8 21.4-25 4.8-6.1 3.8-14.9-2.3-19.7-.3-.3-.7-.5-1.1-.8h0c-6.2-4-14.4-2.6-18.8 3.2z" class="R"/><path d="M650.7 473.8c-.2 0-3.7-16.1-7.9-36.1l-7.3-36.2c.2 0 3.7 16.1 7.9 36.1l7.3 36.2zm32.5-13.1c.1.1-.7 1.2-1.8 2.3-1.1 1.2-2.1 2-2.3 1.9.5-.9 1.1-1.7 1.8-2.3 1.2-1.2 2.3-2 2.3-1.9z" class="Q"/><path d="M636 277.1l-.5.7-1.6 2.1-6.3 8.1-22.9 29.2v.1h-.1l-54.9 8.1.3-.3 1.7 10.5 1.3 8-.3-.3 58.2-3.6h0c3.6-.8 6.9-2.2 10-4.2 2.8-1.7 5.3-3.9 7.4-6.4l10.5-12.1 6.7-7.7 1.8-2c.4-.4.6-.7.6-.7s-.2.3-.6.7l-1.7 2.1-6.6 7.8-10.4 12.2c-4.6 5.4-10.8 9.2-17.7 10.8h0l-58.1 3.7h-.3v-.3l-1.3-8-1.7-10.5v-.3h.3l54.9-8-.2.1 23.1-29 6.4-8.1 1.7-2.1c.1-.4.3-.6.3-.6zm6.8 62c-.2.4-.4.8-.7 1.2-.5.8-1.2 1.8-2.2 3.1-5.1 6.6-11.7 11.9-19.2 15.5-1.1.5-2.3 1-3.5 1.5-.4.2-.9.3-1.3.4 0-.1 1.8-.8 4.6-2.3 7.4-3.7 13.9-9 19.1-15.4 2.1-2.4 3.1-4.1 3.2-4zm5 8.2c.1.1-4.8 3.1-10.9 6.5-6.1 3.5-11.1 6.2-11.2 6-.1-.1 4.8-3.1 10.9-6.6 6.1-3.4 11.1-6.1 11.2-5.9zM593 314.9c-.2-.4-.3-.8-.4-1.2l-.9-3.2-3-10.6-2.8-10.6-.8-3.2c-.1-.4-.2-.8-.2-1.2.2.4.3.7.4 1.2.3.7.6 1.8 1 3.2l3 10.6 2.8 10.6c.4 1.4.7 2.9.9 4.4z" class="P"/><g class="U"><path d="M621.3 364.3c5.4-.6 10.9-.7 16-2.7 5-2 9.7-5.6 11.8-10.6-8.8 5.2-18.1 9.7-27.8 13.3z"/></g><path d="M525.7 348.9l-2.1 2c-1.1 1-1.9 2.4-2.3 3.8l-.8 3-2.2 7.1 8.3 6.1 1.3-6c1.9-.8 3.7-1.8 5.3-3.1 1.8-1.8 2.7-2.6 3.1-4.1.2-.6.1-1.2-.2-1.7 0 0-.1-3.3-1.3-3.4.3-.8.4-1.7.2-2.6-.8-1.6-3.1-1.5-3.1-1.5.3-.3.4-.7.2-1.1-.1-.1-.1-.2-.2-.2-.5-.3-1.1-.2-1.5.3l-4.6 4.1-.1-2.7z" class="a"/><path d="M459.2 369.6c-3.4 5.4-2.4 12.4 2.4 16.6 10.9 9.5 40.6 26.2 45 25.4 6.4-1.1 23.2-38.5 23.2-38.5l-12.5-10.3-15.6 25.4S488.8 376 478.6 368c-6.1-4.9-15.3-5-19.4 1.6h0z" class="R"/><path d="M478.1 367.5a1.38 1.38 0 0 1 .4.3l1.2 1 4.8 4.1 17.3 15-.3.1 15.6-25.4.2-.3.3.2 12.5 10.3.2.1-.1.2c-1.3 2.9-2.8 6-4.3 9.1-2.6 5.4-5.3 10.7-8.2 15.6-1.4 2.5-2.9 4.9-4.4 7.2a47.16 47.16 0 0 1-2.4 3.3c-.8 1.1-1.8 2-2.9 2.8-.6.4-1.3.6-2 .6-.7-.1-1.3-.2-1.9-.4-1.2-.4-2.4-.9-3.6-1.3-2.3-1-4.5-2-6.5-3.1-4.2-2.1-7.9-4.3-11.3-6.3-6.8-4-12.1-7.6-15.7-10.2-1.8-1.3-3.1-2.4-4-3.1-.4-.4-.8-.7-1-.9l-.3-.3c.1.1.3.2.4.3l1 .8c.9.7 2.3 1.8 4.1 3 3.6 2.6 8.9 6.1 15.8 10.1 3.5 2 7.2 4.1 11.3 6.2 2.1 1 4.2 2.1 6.5 3.1 1.2.5 2.3.9 3.5 1.3.6.2 1.2.3 1.8.4.6 0 1.2-.2 1.6-.5 1-.8 2-1.7 2.7-2.7a47.16 47.16 0 0 0 2.4-3.3c1.5-2.3 3-4.6 4.4-7.1 2.8-4.9 5.5-10.2 8.1-15.6l4.3-9.1.1.3-12.6-10.3.4-.1-15.7 25.4-.1.2-.2-.2-17.2-15.2-4.7-4.2c-.5-.5-.9-.8-1.2-1.2-.1 0-.2-.1-.3-.2z" class="P"/><path d="M463.6 164.4c-.1.4-.3.8-.5 1.2-1.4 2.4-1.3 5.3.2 7.7l2.6 4 .3 6.2 13.4 3.2-.6-10.9s2.2-4.6 2.2-7.7-.8-6.4-1.8-6.5l-1.3-.2c-.6-1-1.5-1.8-2.7-2.1 0 0-.8-4-2.2-4.4-1.4-.3-2.6 1.1-2.6 1.1s-1.7-3.3-3.2-3.1c-1.7.2-3 1.7-3 3.5l-.9 8.5.1-.5z" class="V"/><path d="M432.3 37.4c-.6-1.8-2.5-2.7-4.3-2.1a3.46 3.46 0 0 0-2.2 4.2l161.6 514.8 7.1.3L432.3 37.4z" fill="#e0e0e0"/><path d="M436.5 44.3s-42.9 29.3-76.1 31.9-70.9 5.2-90.6 27.4c0 0 73 11.5 77.1 21.2 0 0-43.6 34.7-50.2 54.6l37.9-13.8c21.5-9.1 63.4-5.1 79.3-10.8 17.6-6.4 34.4-24.3 48.9-27.1l-26.3-83.4z" class="R"/><path d="M447.6 118.8l-.3-.6-.6-1.8-2.2-6.8-6.9-22.4c-2.7-8.7-4.9-16.7-6.6-22.5l-1.8-6.9c-.2-.8-.3-1.5-.4-1.9 0-.2-.1-.3-.1-.5 0 0 0-.1.1-.1h0c-.1-.1 0 .1.1.5l.5 1.9 2 6.8 6.7 22.5 6.7 22.5 2 6.8c.2.7.4 1.4.5 1.9.3.1.3.3.3.6z" class="P"/><g class="U"><path d="M432.6 66.7c.5 10.6 1 21.2 3.3 31.5 2.4 10.3 6.7 20.3 14 28-6.6-19.6-12.3-39.4-17.3-59.5"/></g><path d="M521 319.9h8.6c1.5 0 2.9.5 3.9 1.5l6.5 5.9 9.5-1.1 2.7 15.7-13.1-.5c-3 .9-6.1 1.4-9.2 1.6-3.5 0-7.2-1.1-7.3-2.2l-.2-1.5c-1.1-.7-2-1.8-2.3-3.1 0 0-4.5-1-4.9-2.6s1.3-2.9 1.3-2.9-3.6-2-3.4-3.7c.2-1.1.9-2 1.9-2.5l7.1-1-1.1-3.6z" class="W"/><g class="P"><path d="M499.9 313.5c3.1 4.3 4 9.9 2.2 14.9-.9 2.4-2.3 5-1.2 7.3 1.2 2.3 4.2 3.1 5.2 5.4 1.2 2.7-1.2 5.6-1.3 8.6 0 2.9 2 5.3 4.9 5.8-3.8 1.7-8.1 2.3-12.2 1.8l-2-4.8c.6 1.8 0 3.8-1.6 4.9-1.6 1-3.4 1.5-5.3 1.5-9.1.3-17.7-3.6-23.5-10.7"/><path d="M448.1 322.7c1.3-1.6 2.5-3.3 3.6-5 2-3.9 1.3-9.1 4.3-12.3 2.1-2.3 5.5-2.7 8.7-2.8 3.1-.1 6.4 0 9.1-1.6 2-1.2 3.5-3 5.5-4.1 2.8-1.6 6.3-1.5 9.5-.8 3.3.6 6.4 2 9.1 4.1 2.6 2.2 4.1 5.5 3.9 8.9-.4 1.6-.6 3.2-.7 4.8.1 1.8 1 3.5 1.4 5.2.7 3.9-1.2 7.7-4.8 9.4l-30 22.6c-5.1.5-15.8-4.7-18.5-9.1-2.8-4.5-4-15-1.1-19.3z"/></g><path d="M498 324.7c.9-6.7-2-15.8-8.8-16.3l-21.8 1.3c-2.1-.2-3.9 1.3-4.3 3.3l-7.3 50.5h-.1s2 15 16.5 13.4c2.9-.3 3.8.9 5-2.1h0l.1-.4c.9-3.7 2.5-11.5 2.5-11.5h0l1.2-5.7s8.8.2 12.7-10.6c1.9-5.3 3.3-14.4 4.3-21.9z" class="a"/><path d="M479.5 331.4c-.2.8-.9 1.3-1.6 1.2-.8-.1-1.3-.8-1.2-1.5.2-.8.9-1.3 1.6-1.2.7 0 1.2.6 1.2 1.5 0-.1 0-.1 0 0zm14.6 2.1c-.2.8-.9 1.3-1.6 1.2-.8-.1-1.3-.8-1.2-1.5.2-.8.9-1.3 1.6-1.2.7 0 1.2.7 1.2 1.5zm1.6-4.2c-.2.2-1.3-1-3-1.2s-3 .6-3.2.4c-.2-.3.2-.5.8-.9 1.6-1 3.7-.8 5 .7.3.4.5.9.4 1zm-15.6-2.4c-.3.2-1.3-1.1-3.1-1.5s-3.3.3-3.5 0 .2-.5.9-.8c.9-.4 1.9-.5 2.8-.3s1.8.7 2.4 1.5c.5.6.6 1.1.5 1.1zm3.3 11.9c.9-.1 1.7-.1 2.6 0 .4 0 .8 0 .9-.2.1-.4.1-.8 0-1.2l-.6-3.2c-.6-2.7-1-5.5-1.2-8.3a57.08 57.08 0 0 1 1.8 8.2l.5 3.2c.2.5.1 1.1-.1 1.6-.2.3-.4.4-.7.4h-.7c-.9 0-1.7-.2-2.5-.5z" class="P"/><path d="M481 357.2c-5.3-.9-10.1-3.3-14.1-6.8 0 0 2.2 8.3 13.5 9.4l.6-2.6z" class="b"/><path d="M482 342.4c-.5-.9-1.3-1.4-2.3-1.5-.7-.1-1.4.2-1.9.6s-.7 1.2-.5 1.8c.4.7 1.2 1 1.9.9.8-.1 1.5-.4 2.2-.8.2-.1.4-.2.5-.4.2-.1.2-.3.1-.6" class="R"/><g class="P"><path d="M478.6 339.1c.3 0 0 1.7 1.2 3.1 1.2 1.5 3 1.6 3 1.8s-.4.3-1.2.1c-1-.2-1.9-.7-2.5-1.4s-.9-1.7-.8-2.6c0-.7.2-1.1.3-1zm2.8-17.3c-.2.4-1.7-.1-3.6-.2-1.8-.1-3.4.1-3.6-.3-.1-.2.3-.5.9-.8 1.8-.7 3.8-.5 5.4.4.7.3.9.7.9.9zm14 2.6c-.4.3-1.5-.3-3-.6s-2.7-.3-2.9-.7c-.1-.2.2-.5.8-.7a5.17 5.17 0 0 1 4.8 1c.4.5.5.9.3 1z"/><path d="M462.6 310c1.6-1.1 3.4-1.8 5.4-1.8 8.2-.9 16.5-.7 24.7.4.5 1.9-1 3.9-2.8 4.6-1.9.6-3.8.9-5.8.9-1.9.2-4 .7-5.3 2.3s-1.2 4-2.4 5.8c-2.1 2.9-6.9 2.8-8.9 5.8-1.5 2.2-.8 5.2-1.2 7.9-.7 5.3-5.5 9.1-10.9 8.4-.4-.1-.8-.1-1.2-.2l6-28.5c.4-2.2.9-4.3 2.4-5.6z"/><path d="M437.3 328.5c1.8-.9 4-1.6 5.1-3.3 1.6-2.5.3-6.4 2.4-8.5 1.9-1.9 5.8-.8 7.6-2.8 1.4-1.6.8-3.5 1.6-5 1.1-1.6 3.2-2.2 5-1.7l7.8 22c-.5 6.5-.2 10.2-2.5 13.4-1.4 1.7-2.6 3.6-3.6 5.5-1 2-.8 4.4.4 6.3-7.8-1.5-13.8-7.4-19.5-13.1l-5.9-6c-.7-.6-1.2-1.3-1.5-2.1-.6-1.9 1.3-3.8 3.1-4.7z"/></g><path d="M441.9 339.5c.2.2.5.3.8.4.8.3 1.6.5 2.4.5 4.2.1 7.7-3.3 7.7-7.5v-.3c-.1-1.1-.3-2.2-.6-3.2-.4-1.1-.6-2.2-.7-3.3-.1-1.2.4-2.3 1.3-3.1.9-.7 2.3-.6 3.6-.8 1.5-.1 2.8-1.2 3-2.6s.3-2.8.2-4.2c0-.7.2-1.3.5-1.9s.9-1 1.5-1.3c1.4-.4 2.8-.4 4.1 0 1.4.3 2.9.3 4.3-.1 1.3-.4 2.5-1.2 3.5-2.2.8-1 1.5-2.2 2-3.4.4-1.1 1-2.2 1.7-3.2.7-.9 1.5-1.7 2.5-2.2 3.4-1.9 7.6-1.3 10.4 1.3.9.9 1.7 1.9 2.3 3 .5 1 .9 2 1.2 3.1v-.2c0-.1 0-.4-.1-.6-.2-.8-.5-1.6-.8-2.3-.6-1.2-1.4-2.2-2.3-3.1-1.3-1.2-2.9-2.1-4.6-2.4-2.1-.4-4.3-.1-6.2.9-1 .6-2 1.4-2.7 2.3-.7 1-1.3 2.1-1.7 3.3-.5 1.2-1.1 2.3-1.9 3.3a7.21 7.21 0 0 1-3.3 2.1c-1.3.4-2.7.4-4 .1-1.4-.4-2.9-.4-4.4 0-.7.3-1.4.8-1.8 1.5s-.6 1.4-.6 2.2c.1 1.4 0 2.8-.2 4.1s-1.3 2.3-2.6 2.3c-.6.1-1.3.1-2 .2s-1.3.3-1.9.7c-1 .9-1.5 2.1-1.4 3.5.1 1.2.3 2.3.7 3.5.4 1 .6 2.1.7 3.1 0 1-.1 2-.5 2.9-.6 1.6-1.7 2.9-3.2 3.8-1.1.6-2.4.9-3.7.9-1.1-.5-2.2-.7-3.2-1.1z" class="Q"/><path d="M435.2 323.5c-.2.2-.3.3-.4.6-.3.6-.4 1.3-.2 2a3.06 3.06 0 0 0 2.2 2.2c1.4.4 2.9-.1 3.9-1.2.6-.6.9-1.4 1.2-2.2.2-.9.3-1.8.1-2.7-.1-1.8-.8-3.7-.3-5.7.2-1 .8-1.8 1.6-2.4 1-.4 2-.5 3-.1 1.1.4 2.2.6 3.4.6.6-.1 1.2-.3 1.7-.8.4-.4.8-1 1-1.5a10.3 10.3 0 0 0 .6-3.5c.1-1.1.5-2.2 1-3.1 1.1-1.8 2.8-3.1 4.8-3.7 1.9-.4 3.8-.3 5.6.2 1.6.4 3.3.6 5.1.6 1.4-.1 2.8-.6 4-1.2.9-.5 1.8-1.1 2.5-1.9a8.88 8.88 0 0 0 1.6-2.2c-.5.7-1.1 1.4-1.7 2.1-.7.7-1.6 1.3-2.5 1.8-1.2.6-2.5 1-3.9 1.2a13.48 13.48 0 0 1-4.9-.6c-1.9-.6-3.9-.7-5.8-.3-2.1.6-4 2-5.1 3.9-.6 1-1 2.1-1.2 3.3a20.21 20.21 0 0 1-.6 3.4c-.3 1.1-1.2 1.8-2.3 2-1.1 0-2.2-.2-3.2-.5-1.1-.4-2.3-.3-3.3.2-.9.6-1.6 1.6-1.8 2.7-.2 1-.3 2-.1 3l.4 2.8c.1.8.1 1.7-.1 2.5s-.6 1.5-1.1 2.1c-.9 1-2.3 1.5-3.6 1.2-.5-.1-1-.4-1.4-.8-.8-.8-1-2-.6-3.1l.4-.9zm79.4 26.5c0 .7-.2 1.4-.6 2-.5.7-1.2 1.1-2 1.2-1.1 0-2.1-.6-2.6-1.5a2.25 2.25 0 0 1-.2-1.8c.2-.7.4-1.3.8-1.9.8-1.2 2-2.4 2.3-4.1.3-1.8-.1-3.6-1.2-5.1-.6-.8-1.2-1.4-2-1.9s-1.7-.9-2.6-1.2l-2.6-1c-.8-.4-1.4-1-1.7-1.8s-.3-1.6-.1-2.5c.2-.8.5-1.6.8-2.3.8-1.3 1.4-2.8 1.9-4.3.3-1.4.2-2.8-.4-4.1-.5-1-1.1-2-1.9-2.8-.6-.6-1.1-1.2-1.6-1.9-.4-.6-.7-1.3-.8-1.9v.1.4c.1.5.3 1 .6 1.5.5.7 1 1.4 1.6 2 .8.8 1.4 1.7 1.8 2.7.5 1.2.6 2.6.3 3.9-.5 1.5-1.1 2.9-1.9 4.2-.4.8-.7 1.6-.9 2.4-.2.9-.2 1.8.1 2.7a4.3 4.3 0 0 0 1.9 2.1c.8.4 1.7.8 2.6 1s1.7.6 2.5 1.1 1.4 1.1 1.9 1.8c1 1.3 1.4 3 1.1 4.7-.3 1.6-1.4 2.7-2.2 4-.4.6-.7 1.3-.8 2s0 1.4.3 2c.6 1.1 1.7 1.7 2.9 1.6.9-.1 1.7-.6 2.2-1.3.3-.5.5-1 .5-1.5.1-.2.1-.4 0-.5z" class="P"/><path d="M364.7 520.2l22.4-4.8 3.7 18.5-16.5.4.2 14.9c7.4 2.1 8.4 5.8 8.4 5.8l-15.5-.4-13.4-27.4 10.7-7z" class="R"/><g class="S T"><path d="M354 527.1l13.5 27.4 15.5.4-1.7-2.4-12.6-1-12.4-25.8z"/></g><g class="P"><path d="M374.6 542.2c-.1.2-1-.4-2.2-.4s-2.1.5-2.2.3.7-1 2.2-1c1.4.1 2.3 1 2.2 1.1zm-.2-3.7c-.1.1-.8-.8-2.1-1.2-1.2-.3-2.2.3-2.3.1s.1-.3.6-.6c.6-.3 1.3-.4 1.9-.2.6.1 1.2.5 1.6 1 .3.5.4.9.3.9zm.2-4.7c-.2.1-.7-.8-1.7-1.2s-2.1-.1-2.1-.2.2-.3.6-.4c1.2-.4 2.5.1 3.1 1.2.2.3.2.6.1.6zm1.1 0c-.2 0-.1-1-.5-2.1-.5-1-1.2-1.6-1.2-1.8.1-.2 1.2.3 1.8 1.6s.1 2.4-.1 2.3zm1.9-1.7c-.2-.7-.4-1.4-.4-2.1-.1-.7-.1-1.5-.2-2.3-.1-.5-.1-1 0-1.5.1-.3.3-.6.6-.8a.91.91 0 0 1 1 0c.4.4.7.8.9 1.4.2.5.2.9.3 1.4 0 .8-.1 1.6-.4 2.3-.6 1.3-1.3 1.7-1.4 1.7l.9-1.8c.2-.7.3-1.4.2-2.1 0-.4-.1-.8-.3-1.2-.1-.4-.3-.8-.6-1-.1-.1-.2-.1-.3 0a1.38 1.38 0 0 0-.3.4c-.1.4-.1.8 0 1.2v2.3c.2.6.1 1.3 0 2.1z"/><path d="M377.8 532.7c-.1 0 .4-.7 1.6-1.2 1.7-.5 3.4.1 4.4 1.6.1.2 0 .4-.1.6s-.2.3-.4.3c-.2.1-.5.1-.7.1-1.1.1-2.3-.1-3.3-.5-1.2-.5-1.6-1-1.6-1.2.6.2 1.2.4 1.7.7a6.28 6.28 0 0 0 1.9.3h1.2c.2 0 .4 0 .5-.1l.1-.1s-.2-.2-.3-.4l-.4-.4c-.3-.2-.6-.4-1-.5-.6-.2-1.2-.2-1.9-.1-.5.4-1.1.7-1.7.9z"/></g><g class="S T"><path d="M366.4 526.9c0 1-.8 1.8-1.9 1.8s-1.8-.8-1.8-1.9c0-1 .8-1.8 1.9-1.8 1 .1 1.8.9 1.8 1.9z"/></g><path d="M535 522.2l-.2 20.3s21.6 8.1 21.9 11.8h-40.4l-1-31.6 19.7-.5z" class="R"/><g class="S T"><path d="M522.6 541.1c-.8.3-1.2 1.1-1.1 1.9.2.8 1 1.3 1.8 1.1.8-.3 1.3-1.1 1.2-2-.3-.8-1.2-1.2-2-.9"/></g><g class="S T"><path d="M516.3 554.3v-3.2l37.7.2s2.8 1.7 2.7 3h-40.4z"/></g><path d="M535.4 542.2c0 .2-1 .3-1.9.9s-1.4 1.5-1.6 1.4.1-1.2 1.2-1.9 2.3-.5 2.3-.4zm4.2 1.6c0 .2-.8.5-1.4 1.4-.6.8-.8 1.7-1 1.7s-.3-1.1.5-2.1c.7-1 1.9-1.1 1.9-1zm2.4 4.9c-.2 0-.5-.9 0-2s1.3-1.5 1.4-1.3-.4.7-.8 1.6c-.3.9-.4 1.7-.6 1.7zm-7.1-11.1c-.1.2-1-.1-2.1 0s-1.9.5-2 .3.7-.9 2-1 2.2.6 2.1.7z" class="P"/><g class="U"><path d="M534.9 526.2v3.6l-19.3.3-.1-3.2z"/></g><g class="P"><path d="M534.9 533.5c-.6.2-1.3.2-2 0a8.3 8.3 0 0 1-2.1-.6l-1.2-.6c-.2-.1-.4-.3-.6-.4-.3-.3-.3-.7-.1-1s.5-.4.8-.5c.3 0 .5 0 .7.1.4.1.8.2 1.2.4.7.3 1.3.7 1.8 1.2.9.8 1.3 1.5 1.2 1.6-.1 0-.5-.5-1.5-1.2-.5-.4-1.1-.7-1.8-.9l-1.2-.3c-.4-.1-.8-.1-.9.1s0 .1 0 .2c.1.1.3.2.4.3l1.1.6c.6.3 1.3.5 1.9.7 1 0 1.6.1 2.3.3z"/><path d="M534.7 533.8c-.4-.6-.6-1.2-.6-1.9-.1-1.2.1-2.3.7-3.4.2-.5.7-.9 1.2-1 .4 0 .7.2.8.5.1.2.2.5.2.7.1.4.1.9 0 1.3-.1.7-.4 1.4-.8 2.1-.7 1-1.5 1.3-1.6 1.2 0-.1.6-.5 1.2-1.5.3-.6.5-1.2.6-1.9 0-.4 0-.8-.1-1.2s-.2-.7-.4-.7c-.1.1-.5.3-.7.7l-.5 1.1c-.2.6-.3 1.3-.3 2 .1 1.3.4 2 .3 2zm-106.8-54.5c1.4 0 8 27 8 27l-61.2 9.1 3.9 24.4 77.3-6c8.8-2 15.5-10.5 15.2-21.7-.3-12.9-7.9-43.2-7.9-43.2l-35.3 10.4z"/></g><path d="M466.4 483.7l-35.5 2.6s3 6.1 13 6.9c10 .7 24.6 0 24.6 0l-2.1-9.5z" class="U Y"/><path d="M542.2 458.7c-1-11.1-10.3-19.6-21.4-19.5h-10.9l-58.8 3-32-9.7s-11.1 19.8-4.7 36.4c3.8 10.1 12.8 17.5 23.5 19.2 13.3 2.3 74.2-10.6 74.2-10.6v54.2l27.7-.7 2.5-71.4c-.1-.2-.1-.6-.1-.9z" class="P"/><g class="Q"><path d="M512.1 477.6l-.4.1-1.1.2-4.1.8-15.2 2.7-22.5 4-13.3 2.3c-4.8.9-9.7 1.2-14.5.8-2.5-.2-4.9-.6-7.3-1.2-2.3-.6-4.6-1.4-6.8-2.5-4-2.2-7.4-5.4-9.8-9.4-2.2-3.5-3.7-7.4-4.5-11.4-.7-3.5-.8-7.1-.4-10.7.7-5.1 2.1-10.1 4-14.9.7-1.7 1.3-3 1.7-3.8.2-.4.4-.7.5-1 .1-.2.2-.3.2-.3 0 .1-.1.2-.1.3-.1.3-.3.6-.5 1-.4.9-1 2.2-1.6 3.9-1.8 4.8-3.1 9.8-3.8 14.9-.4 3.5-.2 7.1.4 10.5.8 4 2.3 7.8 4.5 11.2 2.3 3.8 5.6 7 9.6 9.2a26.12 26.12 0 0 0 6.6 2.4c2.4.6 4.8 1 7.2 1.2 4.8.3 9.6.1 14.4-.8l13.3-2.3 22.6-3.9 15.2-2.5 4.1-.7 1.1-.1h.5zm-72.6 58h-.3l-.9.1-3.5.3-12.7 1-43.6 3.1h-.3v-.3l-3.2-19.9-.7-4.5v-.3h.3l61.2-9h0 0c3.3 1.6 6.3 3.6 9.1 6 1 .8 1.6 1.5 2.1 2l.5.6c.1.1.2.2.1.2 0 0-.1 0-.2-.2l-.5-.5c-.5-.4-1.2-1.2-2.1-1.9-2.8-2.3-5.9-4.2-9.1-5.8h.1l-61.2 9.2.3-.3.7 4.5 3.2 19.9-.3-.3 43.6-2.9 12.7-.8 3.5-.2h.9.3z"/><path d="M518.2 471c-1.4.7-2.6 1.7-3.7 2.7-1 1.2-1.8 2.5-2.5 3.9-.1 0 0-.6.2-1.4.8-2.2 2.5-4 4.6-4.9.8-.3 1.4-.4 1.4-.3zm-49.4-29.5c-.5.1-1.1.2-1.6.2l-4.5.3c-3.8.2-9.1.3-14.9.4s-11.1.1-14.9.4l-4.5.3c-.5.1-1.1.1-1.6.1a4.53 4.53 0 0 1 1.6-.3c1.1-.2 2.6-.3 4.5-.5 3.8-.3 9.1-.5 14.9-.5l14.9-.2 4.5-.1c.4-.2 1-.2 1.6-.1z"/></g><path d="M457 355.7l-.6.7c-8.2 1.7-14.7 7.9-17 15.9-2.2 7.9-2.9 22.5-7.5 42.4 0 0-11.2 10.2-13.3 17.8l32.5 9.8 17.7-1 6.9-21.3c6.6 0 9.5-3.3 11.8-8.8 3.2-7.2-7.3-40.5-7.3-40.5l.7 5.7-23.9-20.7z" class="R"/><path d="M484.8 383.7l7.9 16.1-4.9.7c.1 0-2.9-15.6-3-16.8z" class="U Y"/><path d="M478.8 420c0-.1.6-.2 1.5-.6 1.3-.6 2.6-1.5 3.6-2.6 1.5-1.6 2.6-3.5 3.3-5.6.8-2.6 1-5.3.7-8-.2-2.7-.7-5.4-1.3-8.1l-1.3-6.6c-.3-1.5-.4-3-.5-4.5 0-.5 0-1.1.1-1.6.1.5.1 1.1.2 1.6.1 1.5.4 3 .7 4.4l1.5 6.5c.7 2.7 1.1 5.3 1.4 8.1s0 5.6-.8 8.2c-.7 2.2-1.9 4.1-3.5 5.8-1.1 1.1-2.4 1.9-3.8 2.5-.4.1-.8.3-1.2.3-.5.2-.6.3-.6.2z" class="P"/><path d="M441.1 386.3s11 37.8 18.2 43.6c3.8 3.4 9.6 3.4 13.3-.1l1.3-6.5-32.8-37z" class="U Y"/><path d="M544.8 383.3c-1.3-1.2-2-.7-2-.7s.7-3.1-.9-4.1l-.9-.6c-.2-.4-1.2-2.6-2.8-3 0 0-.2-2.9-1.4-3.1-2.3-.5-3.3 1.9-3.3 1.9l-4.1 7.9-2 8.1-33.9 15.7 3.6 15.5 38.1-19.6 6.8-6.5c-.1 0 4-10.4 2.8-11.5z" class="a"/><path d="M443.6 374.9c0 1.2 19.1 51.1 28.2 54.6 3.4 1.3 55.7-18.3 55.7-18.3l-6.4-19.2-37.7 12.2c-1.2 0-12.6-31.6-12.6-31.6s-7.2-15-17.9-10.3c-6.9 3-9.3 12.6-9.3 12.6z" class="R"/><path d="M483.4 404.3l.7-.3 2-.7 7.6-2.5 27.4-9 .2-.1.1.2 6.4 19.2.1.3-.3.1-26.5 9.9-16.9 5.7-8.2 2.3c-.7.2-1.4.3-2 .4l-1 .1c-.4 0-.8 0-1.2-.1-1.3-.5-2.4-1.4-3.3-2.4a45.31 45.31 0 0 1-4.5-6.3l-3.5-6.4c-2.2-4.2-4-8.2-5.6-11.8-3.3-7.3-5.6-13.3-7.3-17.5l-1.8-4.8c-.2-.5-.3-.9-.4-1.3-.1-.1-.1-.3-.1-.4.1.1.1.3.2.4l.5 1.2 1.9 4.8c1.7 4.1 4.1 10.1 7.4 17.4 1.6 3.6 3.5 7.6 5.7 11.7a101.09 101.09 0 0 0 3.6 6.3c1.3 2.2 2.8 4.3 4.5 6.2.8 1 1.9 1.8 3.1 2.3.6.1 1.3.1 1.9-.1.7-.1 1.3-.2 2-.4 2.7-.6 5.4-1.4 8.1-2.3 5.5-1.7 11.1-3.7 16.8-5.7 9.4-3.3 18.4-6.7 26.5-9.8l-.2.3L521 392l.3.2-27.5 8.8-7.6 2.4-2 .6c-.5.2-.8.3-.8.3zm-27.5-42.4c.2-.1.4-.1.5-.1h1.5c1.9.1 3.8.6 5.4 1.6 1.1.7 2.1 1.6 3 2.6a24.16 24.16 0 0 1 2.7 3.6c1.8 2.9 3.3 6 4.6 9.1 2.9 6.6 5 12.9 6.5 17.3l1.7 5.4c.2.6.4 1.3.5 2-.3-.6-.5-1.3-.7-1.9l-1.9-5.3c-1.6-4.5-3.7-10.6-6.6-17.3-1.3-3.1-2.8-6.2-4.6-9-.8-1.2-1.7-2.4-2.6-3.5-.8-1-1.8-1.8-2.8-2.5-1.6-1-3.4-1.5-5.2-1.7-1.3-.3-2-.2-2-.3z" class="P"/><path d="M538.2 375c.1.1-.3 1.2-.9 2.3-.7 1.2-1.3 2.1-1.5 2s.3-1.2.9-2.3c.7-1.2 1.3-2.1 1.5-2zm2.3 2.8c.1.1-.4 1-1 2.1s-1.2 2-1.3 1.9c-.2-.1.2-1.1.8-2.2.7-1.2 1.4-1.9 1.5-1.8zm2.3 4.8c.1.1 0 .8-.4 1.6s-.8 1.4-1 1.3c-.1-.1.1-.8.4-1.6.4-.8.9-1.4 1-1.3z" class="b"/><path d="M483.5 403.8c.1.1-1 1.8-1.8 4.2l-1.3 4.4c-.2-1.6.1-3.2.7-4.6.4-1.5 1.3-2.9 2.4-4z" class="P"/><path d="M494.1 229.8l-9.1-3.7c-.9 1.5-.5 3.4.9 4.5 1.6 1.4 3.4 2.6 5.4 3.5 0 0 1 4.6 3.4 6.9 2.3 2.3 7.6-1.4 7.6-1.4s-.1-6.7-8.2-9.8z" class="W"/><path d="M507.7 259.4c-1.1-1.5-2.2-.6-2.2-.6s1.3-3.2-.3-4.7c-.5-.4-.7-.7-.9-.8-.1-.5-.8-3.1-2.5-3.8 0 0 0-3-1.3-3.5-2-.8-4.3 1.6-4.3 1.6l-5.3 7.7-7.8 13 4.4 13.8 12.4-7.7 2.5-2.4c-.1-.1 6.5-10.9 5.3-12.6z" class="V"/><path d="M501.9 249.3c.1.1-.2 1-.9 2-.6 1-1.2 1.7-1.4 1.6s.2-1 .9-1.9c.7-1 1.3-1.7 1.4-1.7zm2.4 3.6c0 1.1-.4 2.2-1.2 3-1 1.5-2.3 2.2-2.4 2.1s1-1 1.9-2.5l1.7-2.6zm1.1 5.3c.1.1-.1 1-.8 1.9s-1.5 1.4-1.6 1.2c-.1-.1.5-.8 1.2-1.6l1.2-1.5z" class="X"/><path d="M481.7 241.9c1.5 1.8 3.4 3.2 5.5 4.1.8.4 1.8.6 2.7.5 1-.2 1.6-1 1.6-2-.2-.7-.5-1.3-1.1-1.7l-4.1-4c.4.7 1 1.4 1.6 2 .7.6 1.5.9 2.4.7s1.5-1 1.5-1.8c-.1-.5-.4-1-.7-1.4l-5.4-6.8" class="W"/><g class="Z"><path d="M491.5 244.9s.1.2-.1.5a2.41 2.41 0 0 1-1 1c-.6.4-1.3.6-2.1.6-.9 0-1.7-.3-2.5-.7-1.9-1-3.4-2.6-4.4-4.6 1.4 1.6 3 2.9 4.7 4.1.7.4 1.4.7 2.2.7.6 0 1.3-.1 1.8-.4.7-.3 1.2-.7 1.4-1.2zm.2-4.6s0 .2-.2.5c-.3.4-.7.7-1.2.8-1.6.2-3.2-.2-4.4-1.2a9.51 9.51 0 0 1-2.7-3.6c-.3-.5-.6-1.1-.7-1.7.1 0 .4.6 1 1.5.7 1.3 1.6 2.4 2.7 3.4 1.1.9 2.5 1.3 4 1.3 1.2-.3 1.5-1.1 1.5-1z"/><path d="M490.2 246.4s.2 0 .5.3c.4.4.7.9.7 1.5 0 .9-.4 1.7-1.1 2.1-.9.5-2 .5-2.9.1-1.6-.6-3.1-1.6-4.2-2.9-.5-.5-.9-1.1-1.1-1.8.1 0 .5.6 1.4 1.5 1.1 1.2 2.5 2.1 4.1 2.7.8.4 1.6.4 2.4 0 .6-.3.9-1 1-1.6 0-.5-.2-.9-.4-1.3-.2-.5-.4-.6-.4-.6zm6.2-4.6c-1.1-.1-2.1-.6-2.8-1.5-.8-.8-1.4-1.9-1.7-3-.2-.6-.4-1.3-.4-2 0-.3-.1-.6-.3-.9-.2-.2-.4-.4-.7-.5-1.3-.5-2.5-1.2-3.7-2-.9-.7-1.6-1.7-2-2.8-.3-.7-.4-1.5-.3-2.3 0-.3.2-.6.4-.8 0 0-.1.3-.1.8-.1.7.1 1.5.4 2.1.4 1 1.1 1.9 2 2.5 1.1.8 2.3 1.4 3.6 1.9.4.1.7.4 1 .7.2.4.3.7.3 1.2.1.6.2 1.3.4 1.9.5 2.3 1.9 4 3.9 4.7h0z"/></g><g class="a"><path d="M525.1 349.1l7.1-5.5c1.2 1.1 1.3 2.9.3 4.2-1.1 1.7-2.4 3.2-3.9 4.5 0 0 .2 4.3-1.2 6.9-1.5 2.6-7 .7-7 .7s-1.8-6.1 4.7-10.8z"/><path d="M536 356.2c-.9 1.4-2 2.6-3.5 3.5-.7.3-1.5.3-2.2.2s-1.2-.6-1.3-1.3c.1-.5.3-.9.7-1.3l2.7-3.1c-.3.6-.6 1.1-1.1 1.5-.4.5-1.1.7-1.7.7a1.49 1.49 0 0 1-1.2-1.2c.1-.4.2-.7.4-1l3.5-5.2"/><path d="M536 358.7c-.7 1.5-1.9 2.7-3.4 3.5-.6.3-1.2.5-1.9.3-.5-.2-1-.6-1.1-1.2s.1-1.1.6-1.5"/></g><g class="b"><path d="M530.2 359.7c.1.1-.5.5-.4 1.3.1.5.3.9.8 1.1s1.2.1 1.7-.2c1.1-.5 2-1.2 2.8-2.1.6-.7.9-1.2 1-1.2s-.1.6-.6 1.4c-.7 1-1.7 1.9-2.8 2.4-.7.4-1.5.4-2.2.1-.6-.3-.9-.9-.9-1.5 0-.4.2-.8.4-1.2 0-.1.2-.1.2-.1z"/><path d="M529.2 358.7c.3.3.6.6 1 .7.4.2.9.2 1.3.1.5-.1 1.1-.3 1.5-.6 1.2-1 2.2-2 3.2-3.1-.5 1.5-1.5 2.8-2.8 3.6-.5.4-1.1.6-1.8.7-.5 0-1.1-.1-1.5-.3-.3-.1-.6-.4-.8-.7-.2-.2-.2-.4-.1-.4zm-.5-2.9c.1-.1.4.4 1.2.5 1-.1 2-.5 2.7-1.2s1.3-1.6 1.8-2.5c.4-.7.6-1.2.7-1.2s0 .5-.3 1.3c-.4 1.1-1 2-1.8 2.8s-2 1.2-3.1 1.2c-.4 0-.7-.2-.9-.5-.3-.3-.3-.4-.3-.4z"/><path d="M526 360.3c.7-.6 1.3-1.3 1.7-2.1.4-.9.6-1.9.6-2.9 0-.6 0-1.2-.1-1.8-.1-.4-.1-.7 0-1.1s.4-.7.7-.9c1-.8 1.9-1.6 2.6-2.6.6-.8 1-1.7 1.2-2.7.1-.7.1-1.3-.2-2-.2-.4-.3-.6-.3-.7s.3.1.5.6c.3.6.5 1.4.4 2.1-.1 1.1-.5 2.1-1.1 3-.8 1-1.7 1.9-2.7 2.7-.2.1-.4.4-.5.6a1.1 1.1 0 0 0 0 .8c.1.6.1 1.2.1 1.9 0 1.1-.3 2.1-.8 3.1-.4.9-1.2 1.6-2.1 2z"/></g><g class="X"><path d="M474.8 160.1c.3 1 .4 2 .4 3.1.1 1.1-.1 2.3-.4 3.4-.2.7-.5 1.3-1 1.8-.3.3-.6.5-1 .6s-.9 0-1.3-.2c-.6-.5-1-1.2-1.2-2-.2-.7-.3-1.3-.4-2-.2-1.1-.3-2.2-.2-3.4-.1-1 .1-2.1.4-3.1.1 0 0 1.2.1 3.1l.4 3.3c.1.6.2 1.3.4 1.9.1.6.4 1.2.9 1.6.5.3 1.2.1 1.5-.3.4-.5.7-1 .9-1.6.3-1 .5-2.1.5-3.2-.1-1-.1-2 0-3z"/><path d="M478.9 163c.2.5.2 1.1.1 1.7 0 1.4-.3 2.8-1 4-.2.4-.5.7-.7 1-.3.3-.7.5-1.2.5-.7-.1-1.3-.5-1.6-1.2-.2-.5-.3-1.2-.1-1.7.1 0 .1.7.5 1.5.2.5.6.8 1.2.8.5 0 1-.6 1.4-1.2.6-1.2.9-2.4 1-3.7.2-.6.3-1.2.4-1.7z"/></g><path d="M466.4 181.6c3.7-2.3.6-14.8-1.7-17.7 2.5-2.5 3.6-5.4 1.9-8.5-2.3 2.3-6.2 5.2-6.9 11.5l.7 4.9 6 9.8z" class="V"/><path d="M467.3 176.4c.2-1.1.3-2.2.4-3.3 0-2.7-.9-5.3-2.5-7.4-.4-.5-.8-.9-1.2-1.3l-.3-.3.3-.2c1.8-1.3 2.9-3.4 3-5.6 0-.9-.1-1.8-.3-2.7.2.2.3.4.3.7.2.7.4 1.3.4 2a8.15 8.15 0 0 1-.6 3.1c-.5 1.2-1.4 2.3-2.5 3v-.5c.5.4.9.9 1.3 1.4 1.7 2.2 2.6 5 2.5 7.7 0 .8-.2 1.7-.4 2.5-.1.3-.2.6-.4.9z" class="X"/><path d="M426.4 104.2l-10.2 3.1.4-.8 7.1-13.3c.2-.5.3-.9.1-1.4l-2-6.5-1-3.2c-.2-.5-.5-.7-.9-.8-.2 0-.4.1-.6.1l-9.7 2.9c-.6.2-1 .5-1.3 1.1l-6.7 12.4c-.1.2-.2.6-.5.6l-1.9-6.4-1-3.2c-.2-.5-.5-.7-.9-.8-.2 0-.4.1-.6.1L387 91c-.6.2-1 .5-1.3 1.1l-6.7 12.4c-.1.2-.2.6-.6.6s-.4-.4-.5-.7l-2.7-8.8c-.2-.5-.7-.8-1.3-.7l-3.8 1.1-1.5.6c-2.8 1.6-4.1 4.8-3.2 7.8l1.2 4c.2.8.5 1 1.4.7l8.8-2.6c.2 0 .3-.1.5-.1.4-.1.5.2.4.5-.1.2-.2.3-.2.5l-6.8 12.6c-.3.5-.3.9-.2 1.4l3 10c.2.8.6 1.1 1.4.8l9.7-2.9c.6-.2.7-.1.5-.9l-6.3-21.1c-.2-.8-.1-1.1.7-1.4l9.4-2.8c.1 0 .2-.1.2-.1.5-.1.8 0 1 .5a.9.9 0 0 1 .1.5l3 10.2c0 .1.1.2.1.4l2.2 7.4v.2c0 .1 0 .1.1.2l.6 1.9.4 1.2h0l.1.3 10.3-3.1c.7-.2 1-.9.8-1.6l-2.7-9.1c-.2-.7-.9-1-1.6-.8l-10.2 3c.2-.3.3-.6.4-.8l5.1-9.6 1.7-3.2c.3-.6.5-1 1.1-1.3.9-.4 2-.6 2.9-.9l6.6-2h.1c.1 0 .2-.1.2-.1.5-.1.8 0 1 .5.1.2.1.3.1.5l3.1 10.2.1.4 3.3 10.9.1.3 10.3-3.1c.7-.2 1-.9.8-1.6l-2.7-9.1c.2-.9-.5-1.3-1.1-1.1z" class="P"/><path d="M372.9 99.5c-.7-.4-1.6-.5-2.3-.3-.8.2-1.4.8-1.8 1.5s-.5 1.5-.3 2.3.8 1.5 1.5 1.9 1.5.5 2.4.2c.8-.2 1.5-.8 1.8-1.5.4-.7.5-1.5.2-2.3a2.92 2.92 0 0 0-1.5-1.8zm-.8 4.8c-1.1.3-2.3-.3-2.7-1.4-.2-.5-.1-1.1.1-1.6.3-.5.7-.9 1.2-1h0c1.1-.3 2.3.3 2.6 1.4.5 1.1-.1 2.2-1.2 2.6zm45-18.7l-1.7.5c-.1 0-.1 0-.1.1l-.3.6-.1.1-3.1.9c-.1 0-.1 0-.1-.1l-.5-1.7c0-.1 0-.1.1-.1l6.8-2h.1l1.6.9.1.1 2 6.8v.1l-1.7.5h-.1l-.9-3.1v-.1l.3-.6v-.1l-.5-1.7c-.1.1-.1.2-.2.3l-3.7 6.9c0 .1-.1.1-.1 0a11.94 11.94 0 0 0-1.6-.8c-.1 0-.1-.1 0-.1l3.1-5.8c.2-.7.4-1.1.6-1.6h0z" class="R"/></svg>