<?xml version="1.0" encoding="utf-8"?><svg version="1.1" id="Layer_1" xmlns="http://www.w3.org/2000/svg" xmlns:xlink="http://www.w3.org/1999/xlink" x="0px" y="0px" viewBox="0 0 1027 600" style="enable-background:new 0 0 1027 600;" xml:space="preserve"><style type="text/css">.st0{fill:#6666BF}.st1{fill:#263238}.st2{fill:#455A64}.st3{fill:#FFFFFF}.st4{fill:#FFD3C1}.st5{fill:#F4AF9B}.st6{opacity:0.3}.st7{opacity:0.6}.st8{fill:#C9F401}.st9{fill:#FF725E}.st10{fill:#110307}.st11{fill:#E0E0E0}</style><g id="freepik--Plant--inject-18"><path class="st0" d="M293.8,353.4c-15-22.9-12.8-55.6,5-76.3c5.5-6.4,13.3-12,21.8-11.3s15.6,8.2,18.3,16.5c2.6,8.3,1.7,17.3,0.2,25.8c-2.2,12-5.8,24.2-14.1,33.1C316.7,350.1,304.5,359.2,293.8,353.4"/><path class="st0" d="M298.4,463.6c-5.5-13.7-1.7-29.3,9.5-38.9c3.4-2.8,7.9-5,12.2-3.9c4.3,1.1,7.3,5.6,7.9,10.1s-0.7,9.1-2.2,13.3c-2.2,6-5.2,12-10.2,15.8S303.4,467.6,298.4,463.6"/><path class="st0" d="M266,455.8c4.1-20.4-6.6-42.7-25-52.2c-5.7-2.9-12.7-4.7-18.5-1.8c-5.8,2.9-8.8,10.1-8.3,16.7s3.6,12.7,7.1,18.2c4.9,7.8,10.9,15.4,19.2,19.3C249,459.8,260.2,462.9,266,455.8"/><path class="st0" d="M268.6,400.9c7.2-23.1-5-51.1-25.2-64.4c-6.3-4.1-14.2-7-21.3-4.4c-7,2.6-11.3,10.8-11.6,18.5c-0.2,7.7,2.7,15.1,6.1,22c4.8,9.7,10.8,19.2,20.1,24.8S260.9,408.4,268.6,400.9"/><path class="st1" d="M279.2,513.9c-0.1-0.4-0.2-0.7-0.2-1.1c-0.1-0.8-0.3-1.9-0.5-3.2c-0.1-0.7-0.2-1.5-0.3-2.3c-0.1-0.9-0.4-1.8-0.5-2.7c-0.4-2-0.8-4.2-1.5-6.7c-0.3-1.2-0.6-2.5-0.9-3.9c-0.3-1.3-0.8-2.7-1.2-4.1c-0.8-2.9-1.9-5.8-2.9-9c-2.6-6.8-5.5-13.4-8.9-19.8c-3.5-6.3-7.3-12.5-11.6-18.3c-2-2.6-3.9-5.2-5.8-7.5l-2.8-3.3l-2.7-2.9c-1.7-1.9-3.3-3.5-4.8-4.9l-2-2l-1.8-1.5l-2.4-2.2c-0.6-0.5-0.8-0.8-0.8-0.8c0.3,0.2,0.6,0.4,0.9,0.7l2.6,2l1.8,1.5l2.1,1.9c1.5,1.4,3.2,2.9,4.9,4.8l2.8,2.9l2.8,3.3c2,2.2,3.9,4.8,6,7.4c4.3,5.9,8.2,12.1,11.7,18.5c3.4,6.4,6.4,13.1,8.9,19.9c1.1,3.2,2.2,6.2,2.9,9.1c0.4,1.5,0.8,2.8,1.2,4.2c0.4,1.3,0.6,2.6,0.9,3.9c0.6,2.5,0.9,4.7,1.3,6.7c0.2,1,0.3,1.9,0.5,2.8c0.1,0.9,0.2,1.6,0.2,2.4c0.1,1.3,0.2,2.4,0.3,3.3C279.3,513.2,279.3,513.5,279.2,513.9z"/><path class="st1" d="M278.7,518.1c0-0.2,0-0.3,0-0.5c0-0.4,0-0.8,0.1-1.3c0.1-1.3,0.3-2.9,0.5-5.1c0.1-1.1,0.2-2.4,0.4-3.7s0.1-2.8,0.2-4.4c0.1-3.2,0.4-6.8,0.3-10.8c0-2,0-4.1,0-6.3s-0.2-4.5-0.3-6.8c-0.2-4.7-0.8-9.7-1.4-15c-1.5-11.4-3.9-22.6-7.1-33.6c-3.3-11-7.5-21.7-12.4-32.1c-2.4-4.7-4.6-9.3-7-13.3c-1.2-2-2.3-4-3.4-5.8s-2.3-3.7-3.4-5.3c-2.1-3.4-4.4-6.3-6.1-8.9c-0.9-1.3-1.8-2.5-2.6-3.6s-1.6-2-2.3-2.9l-3.2-4c-0.3-0.4-0.6-0.8-0.8-1.1c-0.2-0.3-0.3-0.4-0.2-0.4c0,0,0.1,0.1,0.3,0.3l0.9,1l3.3,3.9l2.4,2.9c0.8,1.1,1.7,2.3,2.7,3.5c1.9,2.6,4.1,5.4,6.3,8.8l3.5,5.2c1.2,1.8,2.3,3.9,3.5,5.8c2.5,4,4.7,8.6,7.1,13.3c5,10.4,9.2,21.1,12.5,32.1c3.2,11.1,5.6,22.4,7.1,33.8c0.5,5.3,1.2,10.3,1.3,15c0.1,2.4,0.3,4.6,0.3,6.8c0,2.2,0,4.3,0,6.3c0,4-0.3,7.6-0.5,10.8c-0.1,1.6-0.2,3.1-0.3,4.4s-0.3,2.6-0.5,3.7l-0.7,5.1c0,0.5-0.1,1-0.2,1.3C278.8,517.7,278.8,517.9,278.7,518.1z"/><path class="st1" d="M317.7,293.5c-0.1,0.1-0.1,0.3-0.2,0.4l-0.7,1.2l-2.6,4.5c-0.5,1-1.2,2.1-1.8,3.3l-2,4c-0.7,1.5-1.5,2.9-2.3,4.6s-1.5,3.4-2.4,5.3s-1.7,3.8-2.5,5.8s-1.6,4.2-2.5,6.4c-0.4,1.1-0.9,2.2-1.3,3.4l-1.2,3.6c-0.8,2.4-1.7,4.9-2.5,7.4c-3.2,10.2-6.2,21.7-8.8,33.8s-4.2,23.9-5.4,34.6s-1.9,20.3-2.1,28.5c-0.2,4.1-0.2,7.7-0.3,11c0,3.2-0.1,6,0,8.3s0,4,0,5.2c0,0.5,0,1,0,1.4c0,0.2,0,0.3,0,0.5c0-0.2,0-0.3,0-0.5c0-0.4,0-0.8-0.1-1.4c0-1.3-0.1-3-0.2-5.2s-0.2-5.1-0.2-8.3s0-6.9,0.1-11c0.1-8.1,0.9-17.8,1.9-28.5s2.9-22.4,5.4-34.6s5.6-23.6,8.8-33.9c0.9-2.5,1.7-5,2.5-7.4c0.4-1.2,0.8-2.4,1.2-3.6l1.3-3.4l2.6-6.4c0.8-2.1,1.8-4,2.6-5.8s1.6-3.6,2.4-5.3l2.4-4.6l2.1-4c0.7-1.2,1.3-2.3,1.9-3.3l2.7-4.5c0.3-0.5,0.5-0.8,0.7-1.2S317.7,293.5,317.7,293.5z"/><path class="st1" d="M312.6,433.9c-0.5,1-1,1.9-1.6,2.8c-1.1,1.7-2.6,4.4-4.4,7.6s-3.7,7.2-5.7,11.7s-3.8,9.5-5.5,14.9s-2.9,10.6-3.8,15.4s-1.5,9.1-1.9,12.8c-0.4,3.7-0.6,6.7-0.7,8.8c0,1.1-0.1,2.1-0.3,3.2c-0.1-1.1-0.2-2.1-0.1-3.2c0-2.1,0-5.1,0.4-8.8c0.3-4.3,0.9-8.6,1.7-12.9c1.9-10.5,5.1-20.7,9.4-30.4c2-4.5,4-8.4,5.8-11.6s3.4-5.8,4.6-7.4C311.2,435.7,311.9,434.8,312.6,433.9z"/><polygon class="st2" points="249.8,503.6 315.6,503.6 307.6,570.8 258,570.8 "/><polygon class="st1" points="252.2,563.5 257.8,570.8 307.6,570.8 313.4,563.8 "/><path class="st3" d="M313,523.4c0,0.3-13.6,0.5-30.5,0.5s-30.4-0.2-30.4-0.5s13.6-0.5,30.5-0.5C299.4,522.9,313,523.1,313,523.4z"/><path class="st3" d="M313,527.8c0,0.3-13.6,0.5-30.5,0.5s-30.4-0.2-30.4-0.5s13.6-0.5,30.5-0.5C299.4,527.3,313,527.6,313,527.8z"/><path class="st3" d="M312.2,532.2c0,0.3-13.1,0.5-29.4,0.5s-29.4-0.2-29.4-0.5s13.1-0.5,29.4-0.5S312.2,531.9,312.2,532.2z"/></g><g id="freepik--Floor--inject-18"><path class="st1" d="M831.6,570.8c0,0.2-142.4,0.4-318,0.4s-318.1-0.2-318.1-0.4s142.4-0.4,318.1-0.4S831.6,570.6,831.6,570.8z"/></g><g id="freepik--Character--inject-18"><path class="st1" d="M805.5,106.6c-4.9-6.2-5-17.5-4.8-20.5c0.4-6.9-15-47-52.9-30.4l0,0c-13.6,0-13.8,13.4-16.4,16.1c-2.6,2.7-5.5,5.5-6.1,9.2c-1.2,6.5,5,12.9,3.4,19.3c-0.6,2.4-2.2,4.5-3.3,6.7l0,0c-1.2,2-2.2,5.2-1.7,7c0.7,1.7,1.5,3.4,2.6,4.9s1.6,3.4,1.4,5.3c-0.6,3.3-4.4,5.1-5.5,8.3s1,6.4,2.8,9.1s3.5,6.2,2.1,9.2c-1,1.5-2.1,2.8-3.5,3.9c-3.8,3.9-4.8,9.7-2.7,14.8l21.9-4.4c1-10.4,1.9-20.8,2.9-31.2c6.4,1.6,13.4-2.5,16.4-3.3l3.7-2c8.1,1.5,16.9,0.9,24.1-3.2c7.1-4.2,17.7,1.2,16.3-7C805.2,114.4,808,109.8,805.5,106.6z"/><path class="st4" d="M780.5,68.7l-29.7-8.8c-9.6-1.5-16.4,10.2-17.4,19.8c-1.1,10.7-2,23.8-1.1,31.9c1.9,16.2,14.1,18.7,14.1,18.7s-2.1,22.9-2.3,28.7l36.6-18.8l4.6-65.6C785.5,71.7,783.4,69.1,780.5,68.7z"/><path class="st1" d="M735.2,92.8c-0.1,1.1,0.8,2.1,1.9,2.2c1.1,0.1,2.1-0.6,2.2-1.7c0,0,0,0,0-0.1c0.1-1.1-0.8-2.1-1.9-2.2C736.3,90.9,735.4,91.7,735.2,92.8L735.2,92.8z"/><path class="st1" d="M734.1,88.1c1.4,0.1,2.8,0.3,4.1,0.5c1.3,0.5,2.6,1.1,3.9,1.8c0.1,0,0-0.5-0.6-1.1c-0.9-0.8-1.9-1.4-3-1.7c-1.1-0.3-2.2-0.4-3.4-0.2C734.3,87.7,734,88,734.1,88.1z"/><path class="st1" d="M755.8,94.5c-0.1,1.1,0.8,2.1,1.9,2.2c1.1,0.1,2.1-0.7,2.2-1.7l0,0c0-1.1-0.8-2.1-1.9-2.2C756.9,92.6,755.9,93.4,755.8,94.5L755.8,94.5z"/><path class="st1" d="M756.2,91.1c0.3,0.1,1.9-0.9,4.4-1.3s4.5,0.2,4.7,0s-0.2-0.4-1.1-0.7c-1.2-0.3-2.5-0.4-3.8-0.2c-1.2,0.2-2.4,0.6-3.5,1.3C756.2,90.6,756,91,756.2,91.1z"/><path class="st1" d="M748.5,105.6c-1.2-0.4-2.4-0.7-3.6-0.8c-0.6-0.1-1.1-0.2-1.2-0.6c0-0.6,0.1-1.2,0.5-1.7c0.6-1.4,1.2-2.8,1.9-4.3c2.6-6,4.5-11,4.2-11.1c-0.2-0.1-2.5,4.7-5.1,10.8c-0.6,1.5-1.2,2.9-1.8,4.3c-0.4,0.7-0.5,1.5-0.4,2.2c0.2,0.4,0.5,0.7,0.9,0.9c0.3,0.1,0.6,0.2,1,0.2C746.1,105.6,747.3,105.6,748.5,105.6z"/><path class="st5" d="M746.4,130.2c7.5,0.6,15-1.1,21.6-4.7c-0.2,0-6.6,11.2-21.9,8.9L746.4,130.2z"/><path class="st5" d="M749.2,110.9c0.9-1,2.3-1.6,3.7-1.3c1,0.1,1.9,0.7,2.5,1.5s0.6,1.8,0.1,2.6c-0.8,0.8-1.9,1-2.9,0.6s-2-1-2.8-1.8c-0.2-0.2-0.4-0.4-0.6-0.7C749,111.6,749,111.2,749.2,110.9"/><path class="st1" d="M755,107.3c-0.4,0-0.5,2.4-2.6,4s-4.7,1.3-4.7,1.6c0,0.3,0.6,0.5,1.6,0.6c1.4,0.1,2.8-0.4,3.9-1.2c1.1-0.8,1.8-2,2-3.4C755.4,107.9,755.1,107.3,755,107.3z"/><path class="st1" d="M756.4,83.2c0.2,0.6,2.4,0.4,5,0.8s4.7,1.2,5,0.7c0.2-0.3-0.2-0.8-1-1.5c-2.2-1.5-5.1-2-7.7-1.2C756.9,82.4,756.4,82.9,756.4,83.2z"/><path class="st1" d="M736.5,81.7c0.4,0.5,1.9,0,3.8,0.1c1.8,0.1,3.4,0.5,3.8,0c0.2-0.2,0-0.8-0.7-1.3c-1.8-1.2-4.2-1.2-6.1,0C736.6,80.9,736.3,81.5,736.5,81.7z"/><path class="st1" d="M747.3,57.7c12,1.9,23.7,5.2,34.9,9.9c2.6,1.1,5.3,2.4,6.8,4.8s1.3,5.7,1.1,8.8l-3.7,43.2l-1.5-0.1c-4.4,0.7-4.8-1.5-8-4.7c-3.2-3.3-4.7-7.9-4-12.4c0.6-3.9,2.9-7.9,1.7-11.7c-1.6-5-8.5-6.8-10.1-11.8c-0.9-2.9,0.1-6.2-1-9.1s-3.8-4.4-6.4-5.4c-2.7-1-5.5-1.9-7.8-3.7C747,63.6,745.7,60.1,747.3,57.7z"/><path class="st0" d="M531.8,28.8h117.9c4.8,0,8.7,3.9,8.7,8.7v94.7c0,4.8-3.9,8.7-8.7,8.7H531.8c-4.8,0-8.7-3.9-8.7-8.7V37.5C523.1,32.7,527,28.8,531.8,28.8z"/><path class="st2" d="M713.1,518l3.4,32.5c0,0-31.9,14.3-31.9,20.4l63.2-4.3l-3.2-50.9L713.1,518z"/><g class="st6"><path d="M713.1,518l3.4,32.5c0,0-31.9,14.3-31.9,20.4l63.2-4.3l-3.2-50.9L713.1,518z"/></g><g class="st7"><path class="st3" d="M735.8,546.4c1.3,0.3,2.1,1.5,2,2.8c-0.3,1.3-1.5,2.2-2.8,2c-1.4-0.3-2.3-1.6-2.1-3c0.4-1.3,1.8-2.1,3.1-1.8"/></g><g class="st7"><path class="st3" d="M747.8,566.6l-0.5-5.1l-60.4,6c0,0-2.7,1.5-2.3,3.4L747.8,566.6z"/></g><path class="st1" d="M715.4,550.2c0,0.3,1.6,0.3,3.2,1.2c1.6,0.9,2.5,2.1,2.8,2s-0.3-1.9-2.2-2.9C717.1,549.5,715.3,549.9,715.4,550.2z"/><path class="st1" d="M709,553.4c0,0.3,1.3,0.7,2.5,2c1.1,1.2,1.5,2.6,1.8,2.6c0.4,0,0.4-1.8-1.1-3.3C710.7,553.1,708.9,553.1,709,553.4z"/><path class="st1" d="M705.7,561.6c0.3,0,0.6-1.5-0.3-3.2c-0.9-1.7-2.4-2.2-2.5-2c-0.1,0.3,0.8,1.1,1.6,2.5C705.2,560.3,705.4,561.6,705.7,561.6z"/><path class="st1" d="M715.5,542.7c0.1,0.3,1.5-0.2,3.3-0.2s3.2,0.5,3.3,0.2s-1.2-1.3-3.3-1.3S715.3,542.5,715.5,542.7z"/><path class="st1" d="M714.9,536.2c1.1,0.2,2.2,0.1,3.2-0.2c1.1-0.3,2.2-0.7,3.2-1.2c0.6-0.3,1.2-0.7,1.8-1.1c0.3-0.2,0.6-0.5,0.9-0.8c0.4-0.5,0.4-1.2,0-1.7c-0.3-0.4-0.9-0.6-1.4-0.6c-0.4,0-0.8,0.1-1.2,0.2c-0.7,0.2-1.3,0.5-1.9,0.8c-1,0.6-2,1.3-2.8,2.1c-1.4,1.5-1.8,2.6-1.7,2.7c0.1,0.1,0.8-0.9,2.2-2.1c0.8-0.7,1.7-1.3,2.7-1.8c0.6-0.3,1.2-0.5,1.8-0.7c0.7-0.2,1.2-0.3,1.5,0s0.1,0.2,0,0.4c-0.2,0.2-0.4,0.4-0.7,0.6c-0.5,0.4-1.1,0.7-1.6,1.1c-0.9,0.5-1.9,1-2.9,1.4C716.9,535.4,715.9,535.8,714.9,536.2z"/><path class="st1" d="M715.3,536.6c0.5-0.9,0.8-2,0.6-3.1c0-1.2-0.3-2.3-0.7-3.4c-0.2-0.7-0.6-1.3-0.9-1.9c-0.4-0.8-1.2-1.4-2.1-1.5c-0.6,0-1.1,0.4-1.3,1c-0.1,0.4-0.2,0.8-0.2,1.2c-0.2,1.9,0.5,3.8,1.7,5.3c1.3,1.6,2.7,1.8,2.7,1.7s-1-0.7-2.1-2.2c-0.6-0.9-1-1.9-1.2-2.9c-0.1-0.6-0.1-1.2,0-1.8c0-0.7,0.3-1.2,0.5-1.2c0.3,0,0.9,0.5,1.2,1s0.6,1.1,0.9,1.7c0.4,1,0.7,2,0.8,3.1C715.4,535.3,715.2,536.5,715.3,536.6z"/><path class="st1" d="M707.6,280.2c0,0-28,127.2-28.9,138.5c-0.9,11.4,34.7,109.4,34.7,109.4l30.7-5.8c0,0-1.9-144.8-2.9-147.6c-1-2.8,7.8-74,7.8-74L707.6,280.2z"/><path class="st2" d="M727.2,519.5l0.3,32.7c0,0-33.1,11.3-33.6,17.4l63.3,0.7l1.6-50L727.2,519.5z"/><g class="st7"><path class="st3" d="M747.1,549.9c1.2,0.4,2,1.7,1.7,2.9c-0.4,1.2-1.6,2-2.9,1.7c-1.3-0.4-2.1-1.8-1.8-3.2c0.5-1.3,2-1.9,3.3-1.5"/></g><g class="st7"><path class="st3" d="M757.2,570.1V566l-60.7,0.4c0,0-2.8,1.2-2.6,3.2L757.2,570.1z"/></g><path class="st1" d="M726.5,551.8c0,0.3,1.5,0.5,3.1,1.5c1.5,1,2.3,2.4,2.6,2.2c0.3-0.1-0.1-1.9-2-3.1C728.3,551.1,726.4,551.5,726.5,551.8z"/><path class="st1" d="M719.8,554.4c-0.1,0.3,1.3,0.9,2.3,2.2s1.3,2.7,1.6,2.7s0.5-1.8-0.7-3.4C721.6,554.3,719.8,554.1,719.8,554.4z"/><path class="st1" d="M715.8,562.2c0.3,0,0.7-1.5,0-3.2s-2.2-2.4-2.3-2.2s0.7,1.2,1.3,2.6C715.4,560.9,715.5,562.2,715.8,562.2z"/><path class="st1" d="M727.2,544.3c0.1,0.3,1.5-0.1,3.3,0s3.1,0.8,3.3,0.5s-1.1-1.5-3.2-1.6S727.1,544.1,727.2,544.3z"/><g class="st6"><polygon points="727.2,525.9 727.3,531.8 758.4,532.3 758.6,527 "/></g><path class="st1" d="M727.3,537.7c1,0.3,2.1,0.3,3.2,0c1.2-0.2,2.3-0.5,3.4-0.9c0.6-0.3,1.2-0.6,1.8-0.9c0.4-0.2,0.7-0.4,1-0.7c0.4-0.4,0.5-1.1,0.2-1.7c-0.3-0.4-0.8-0.7-1.3-0.7c-0.4,0-0.8,0-1.2,0.1c-0.7,0.1-1.3,0.4-2,0.6c-1.1,0.5-2,1.1-2.9,1.8c-1.5,1.3-2,2.5-1.9,2.5s0.9-0.8,2.4-1.9c0.9-0.6,1.9-1.1,2.9-1.5c0.6-0.2,1.2-0.4,1.8-0.5c0.7-0.1,1.2-0.1,1.5,0.2s0.1,0.2-0.1,0.4c-0.2,0.2-0.5,0.4-0.7,0.5c-0.6,0.3-1.1,0.6-1.7,0.9c-1,0.5-2,0.8-3.1,1.1C729.4,537.2,728.3,537.4,727.3,537.7z"/><path class="st1" d="M727.7,538.2c0.6-0.9,0.9-2,0.9-3c0.1-1.2,0-2.4-0.4-3.5c-0.2-0.7-0.4-1.3-0.8-1.9c-0.3-0.9-1.1-1.5-2-1.7c-0.6,0-1.1,0.3-1.3,0.9c-0.2,0.4-0.3,0.8-0.4,1.2c-0.1,0.7-0.1,1.4,0,2.1c0.1,1.2,0.6,2.3,1.3,3.3c1.2,1.7,2.5,2.1,2.5,2s-0.9-0.8-1.9-2.4c-0.5-0.9-0.8-1.9-0.9-3c0-0.6,0-1.2,0.1-1.8c0.1-0.7,0.4-1.2,0.6-1.1s0.8,0.5,1.1,1.1s0.5,1.1,0.7,1.7c0.3,1,0.5,2.1,0.5,3.2C727.9,537,727.5,538.1,727.7,538.2z"/><path class="st1" d="M778.8,278.2l-71.2,2l10.2,126.7l6.3,122.1l36.9,1.3c1.9-23.6,2-106.8,2-106.8l7.4-50.3c1.7-13.6,7.2-27.8,9.8-40c1.5-7.1,3.8-16.4,4.3-19.5C786,304.7,778.8,278.2,778.8,278.2z"/><path class="st2" d="M711.7,309.3c0,0.2,0,0.4,0,0.6c0,0.4,0,1,0,1.7c0,1.5-0.1,3.7-0.2,6.4c-0.1,2.7-0.3,6.2-0.4,10.1c-0.1,3.9-0.3,8.4-0.4,13.4c-0.3,9.9-0.4,21.8-0.4,34.9c0.1,13.1,0.4,27.6,1.2,42.7c0.7,15.1,1.9,29.6,3.2,42.6c0.7,6.5,1.3,12.7,2.1,18.5c0.4,2.9,0.7,5.7,1.1,8.4c0.4,2.7,0.8,5.3,1.1,7.7c0.7,4.9,1.5,9.3,2.1,13.2c0.6,3.9,1.2,7.3,1.8,10l1.1,6.3c0.1,0.7,0.2,1.2,0.3,1.6c0,0.2,0,0.4,0,0.6c-0.1-0.2-0.1-0.4-0.1-0.6c-0.1-0.4-0.2-0.9-0.3-1.6c-0.3-1.5-0.7-3.6-1.3-6.3c-0.5-2.7-1.2-6.1-1.9-10c-0.7-3.9-1.5-8.3-2.2-13.2c-0.4-2.5-0.8-5-1.2-7.7s-0.7-5.5-1.1-8.4c-0.8-5.8-1.5-12-2.2-18.5c-1.3-13.1-2.5-27.5-3.3-42.6c-0.8-15.2-1-29.6-1.1-42.8c-0.1-13.1,0.2-25,0.5-34.9c0.1-5,0.4-9.5,0.5-13.4s0.3-7.3,0.5-10.1c0.2-2.8,0.3-4.9,0.4-6.4c0-0.7,0.1-1.2,0.1-1.7C711.7,309.7,711.7,309.5,711.7,309.3z"/><polygon class="st4" points="671.2,139.9 653,120.5 638.6,130.5 653,151.8 "/><path class="st8" d="M786.5,147.1l-0.9-12.3l-41.2-0.6l-0.4,15.5c0,0-20.2,21.9-27.6,46.4c-12.3,41.2-16.8,93.7-16.8,93.7H784c-0.9-14.5-6.9-47-6.9-47l18.7-55.9C800.5,166.8,786.5,147.1,786.5,147.1z"/><path class="st1" d="M684.5,202.9c0,0,0.2,0.2,0.7,0.6c0.7,0.6,1.4,1.2,2.1,1.7c2.8,1.9,5.9,3.1,9.2,3.5c2.3,0.3,4.6,0.3,6.9-0.1c2.4-0.3,5.1-0.6,7.8-1c5.5-0.7,11.5-1.7,17.8-2.7l32.3-5.7l9.8-1.6l2.7-0.4l0.9-0.2l-0.9,0.1l-2.7,0.4c-2.3,0.3-5.7,0.8-9.8,1.5c-8.3,1.3-19.7,3.4-32.3,5.6c-6.3,1.1-12.3,2-17.8,2.8c-2.7,0.4-5.4,0.7-7.8,1c-5.6,0.9-11.3-0.2-16-3.3c-0.7-0.5-1.5-1-2.2-1.6C684.8,203.1,684.5,202.9,684.5,202.9z"/><path class="st1" d="M789.1,183c0-0.1,0.1-0.2,0.1-0.3c0-0.3,0.1-0.6,0.2-0.9c0.2-0.8,0.4-2,0.6-3.5c0.6-3.9,0.5-7.9-0.3-11.8c-0.9-3.9-3.3-7.3-6.6-9.6c-1-0.7-2.1-1.2-3.3-1.5c-0.4-0.1-0.9-0.2-1.3-0.2c1.6,0.4,3,1,4.4,1.9c3.2,2.3,5.4,5.7,6.4,9.5c0.8,3.8,1,7.8,0.4,11.7c-0.2,1.5-0.4,2.7-0.5,3.5c0,0.4,0,0.7-0.1,1C789,182.8,789.1,182.9,789.1,183z"/><path class="st1" d="M701.4,193c0-0.3,0-0.6,0-0.9l-0.2-2.5c-0.2-2.8-0.3-5.5-0.2-8.3s0.3-5.5,0.7-8.3c0.1-0.9,0.2-1.7,0.4-2.5c0.1-0.3,0.1-0.6,0.1-0.9c-0.1,0.3-0.2,0.6-0.2,0.9c-0.1,0.6-0.3,1.5-0.5,2.5c-0.9,5.5-1,11.1-0.4,16.6c0.1,1.1,0.2,1.9,0.3,2.5C701.3,192.4,701.4,192.7,701.4,193z"/><path class="st1" d="M744.6,149.5c1-2.9,2.6-5.5,4.5-7.9c2.9-4,6.1-8.2,10.7-10c3.1-1.3,11.2-0.6,13.4-3.2c6.7-8.1-3.1-13.1,0.4-24.4c3.9-12.3,1.9-10.4,2.2-20l14.9-6.4c2.4,1.8,8.9,8.1,8.1,10.9c-0.7,3.1-0.5,6.4,0.6,9.4c2.3,7.2,10.2,11.4,14,18c3.7,6.6-0.5,15.6-0.6,23.4c-0.1,7.8,2.8,17,10.4,18.7c-2.9,5.7-7.5,10.3-13.2,13.1l-4.7-6.4c0.8,6.1-2.9,11.8-8.8,13.7c-1.6-6.8-3.3-13.8-7.4-19.4c-4.1-5.6-11.3-9.6-18-7.8c-4.5,1.2-8,4.7-12,7c-4,2.4-9.7,3.4-12.9,0C744.1,155.6,743.5,152.4,744.6,149.5z"/><g class="st6"><path d="M716.5,206.7c19.4-3.5,45.3-7.8,64.7-11.3c0.7-0.2,1.5-0.2,2.2,0c1.3,0.7,1.7,2.3,1.1,3.5c-0.7,1.2-1.8,2.2-3,2.7c-6.4,3.3-13.8,3.6-21,3.8L716.5,206.7L716.5,206.7z"/></g><path class="st9" d="M702.3,208.6c6,0.1,75.6-12.6,75.6-12.6"/><path class="st8" d="M776.7,152.7c5.1,0.6,8.4,1.5,14.4,7.9c0.7,0.8,1.3,1.6,1.8,2.5c6.6,11.7,1.8,27.7-10.9,32.2l-12.3,2.5l-67.3,10.9c0,0-14.3,3.2-26.7-15.9c-4.5-7-35.6-53.4-35.6-53.4l20.4-13.7l41.2,44.1L776.7,152.7z"/><path class="st1" d="M684.5,202.9c0,0,0.2,0.2,0.7,0.6c0.7,0.6,1.4,1.2,2.1,1.7c2.8,1.9,5.9,3.1,9.2,3.5c2.3,0.3,4.6,0.3,6.9-0.1c2.4-0.3,5.1-0.6,7.8-1c5.5-0.7,11.5-1.7,17.8-2.7l32.3-5.7l9.8-1.6l2.7-0.4l0.9-0.2l-0.9,0.1l-2.7,0.4c-2.3,0.3-5.7,0.8-9.8,1.5c-8.3,1.3-19.7,3.4-32.3,5.6c-6.3,1.1-12.3,2-17.8,2.8c-2.7,0.4-5.4,0.7-7.8,1c-5.6,0.9-11.3-0.2-16-3.3c-0.7-0.5-1.5-1-2.2-1.6C684.8,203.1,684.5,202.9,684.5,202.9z"/><path class="st1" d="M789.1,183c0-0.1,0.1-0.2,0.1-0.3c0-0.3,0.1-0.6,0.2-0.9c0.2-0.8,0.4-2,0.6-3.5c0.6-3.9,0.5-7.9-0.3-11.8c-0.9-3.9-3.3-7.3-6.6-9.6c-1-0.7-2.1-1.2-3.3-1.5c-0.4-0.1-0.9-0.2-1.3-0.2c1.6,0.4,3,1,4.4,1.9c3.2,2.3,5.4,5.7,6.4,9.5c0.8,3.8,1,7.8,0.4,11.7c-0.2,1.5-0.4,2.7-0.5,3.5c0,0.4,0,0.7-0.1,1C789,182.8,789.1,182.9,789.1,183z"/><path class="st1" d="M701.4,193c0-0.3,0-0.6,0-0.9l-0.2-2.5c-0.2-2.8-0.3-5.5-0.2-8.3s0.3-5.5,0.7-8.3c0.1-0.9,0.2-1.7,0.4-2.5c0.1-0.3,0.1-0.6,0.1-0.9c-0.1,0.3-0.2,0.6-0.2,0.9c-0.1,0.6-0.3,1.5-0.5,2.5c-0.9,5.5-1,11.1-0.4,16.6c0.1,1.1,0.2,1.9,0.3,2.5C701.3,192.4,701.4,192.7,701.4,193z"/><path class="st4" d="M652.9,105.4c-0.4-2.8-0.5-5.6-0.4-8.4c0.1-0.5-0.3-1-0.8-1c-0.1,0-0.1,0-0.2,0c-1.8,0.2-3.3,1.5-3.8,3.3c-0.5,1.5-0.6,3.1-0.4,4.7c0,2.6,0,4.7,0,4.7s-13-15.5-15.6-16.2c-0.9-0.4-2-0.1-2.4,0.8l0,0c-0.5,0.8,0.5,2.6,0.5,2.6l7.3,10.5c0,0-11.1-13-13.1-13s-2.9,1.5-1.6,3.9c0.9,1.8,10.6,13.1,10.6,13.1s-10.3-10-12.4-9.9c-2.1,0.1-1.7,2.3-0.6,3.2c1.1,0.9,8.8,9.8,8.8,9.8s-7.5-6.3-9-5.8s-0.9,2.2-0.1,3.5c0.8,1.4,19.5,20.1,19.5,20.1l16.2-8.1l0,0c0.4-2.3,0.3-4.6-0.2-6.9C654.2,112.6,653.4,109,652.9,105.4z"/></g><g id="freepik--Folder--inject-18"><g class="st6"><path class="st10" d="M414.5,289.8c-8.2,0-14.9-6.7-14.9-14.9V145c0.2-6.8,6-12.2,12.8-12h12.2c4.9,0.1,9.4-2.6,11.7-7l2.6-5.3c2.2-4.3,6.7-7,11.6-7h58c4.4-0.1,8.6,2.1,11,5.8l2.8,4.5c2.4,3.7,6.6,5.9,11,5.8h73.9c6.8-0.2,12.6,5.1,12.8,12v132.9c0,8.2-6.7,14.9-14.9,14.9l0,0L414.5,289.8z"/></g><path class="st8" d="M525.9,130.1l-47-0.1l-4.2-7.9c-2.9-5.2-8.4-8.4-14.4-8.3h-46c-8.2,0-14.8,6.2-14.8,13.9v146.4c0,8.8,7.5,15.8,16.8,15.8H603c9.3,0,16.8-7.1,16.8-15.8V140.9c0-5.9-4.8-10.8-10.8-10.8L525.9,130.1L525.9,130.1z"/><path class="st1" d="M549.6,241h-20.8c-0.8,0-1.5-0.7-1.5-1.5s0.7-1.5,1.5-1.5h20.8c11.4,0,20.7-9.2,20.7-20.7c0-11-8.6-20.1-19.6-20.7c-0.6,0-1.2-0.5-1.3-1.1c-4.6-17.7-22.6-28.3-40.3-23.7c-6.9,1.8-13,5.8-17.5,11.3c-0.3,0.4-0.8,0.6-1.3,0.5c-1-0.1-2.1-0.2-3.2-0.2c-15.1,0.3-27,12.8-26.6,27.9c0.3,14.6,12.1,26.3,26.6,26.6H504c0.8,0,1.5,0.7,1.5,1.5s-0.7,1.5-1.5,1.5h-17c-16.7,0-30.2-13.5-30.2-30.2s13.5-30.2,30.2-30.2l0,0c0.9,0,1.8,0,2.7,0.1c12.8-15.3,35.5-17.3,50.7-4.5c5.5,4.6,9.5,10.8,11.5,17.7c13,1.2,22.5,12.7,21.3,25.7C572.1,231.8,561.9,241.1,549.6,241L549.6,241z"/><path class="st1" d="M515.9,254.3c-0.8,0-1.5-0.7-1.5-1.5v-38c0-0.8,0.7-1.5,1.5-1.5s1.5,0.7,1.5,1.5v38C517.4,253.7,516.7,254.3,515.9,254.3z"/><path class="st1" d="M527,230c-0.5,0-0.9-0.2-1.2-0.6l-9.7-13c-0.1-0.1-0.2-0.1-0.3-0.1s-0.2,0.1-0.3,0.1L505.3,229c-0.5,0.6-1.4,0.7-2.1,0.2c-0.6-0.5-0.7-1.4-0.2-2.1l0,0l10.2-12.6c0.7-0.8,1.6-1.2,2.6-1.2s2,0.5,2.6,1.3l9.7,13c0.5,0.6,0.4,1.6-0.3,2l0,0C527.7,229.9,527.4,230,527,230z"/></g><g id="freepik--Progress--inject-18"><path class="st1" d="M487.4,320.6v-6.5h1.2v6.5c0,2.7,1.3,4,3.5,4s3.5-1.2,3.5-4v-6.5h1.2v6.5c0,3.3-1.8,5-4.7,5C489.2,325.6,487.4,323.9,487.4,320.6z"/><path class="st1" d="M508.9,321.2c0.1,2.3-1.6,4.2-3.9,4.4c-0.1,0-0.2,0-0.4,0c-1.3,0-2.5-0.6-3.3-1.7v4.8h-1.2V317h1.1v1.6c0.7-1.1,2-1.8,3.3-1.8c2.3-0.1,4.2,1.7,4.3,4C508.9,321,508.9,321.1,508.9,321.2z M507.8,321.2c-0.1-1.8-1.6-3.2-3.3-3.1c-1.8,0.1-3.2,1.6-3.1,3.3c0.1,1.7,1.5,3.1,3.2,3.1s3.2-1.4,3.2-3.1C507.8,321.3,507.8,321.3,507.8,321.2z"/><path class="st1" d="M511.3,313.4h1.2v12.1h-1.2V313.4z"/><path class="st1" d="M514.8,321.2c0-2.4,2-4.4,4.4-4.4s4.4,2,4.4,4.4s-2,4.4-4.4,4.4c-2.3,0.1-4.3-1.7-4.4-4.1C514.8,321.4,514.8,321.3,514.8,321.2z M522.4,321.2c-0.1-1.8-1.6-3.1-3.3-3c-1.8,0.1-3.1,1.6-3,3.3c0.1,1.7,1.5,3.1,3.2,3.1s3.2-1.4,3.2-3.1C522.4,321.4,522.4,321.3,522.4,321.2L522.4,321.2z"/><path class="st1" d="M532.4,320.2v5.3h-1.1v-1.3c-0.6,1-1.8,1.5-2.9,1.5c-1.9,0-3.1-1-3.1-2.5s0.8-2.4,3.3-2.4h2.7v-0.5c0-1.5-0.8-2.3-2.4-2.3c-1.1,0-2.1,0.3-2.9,1l-0.5-0.9c1-0.8,2.2-1.2,3.5-1.2c1.7-0.3,3.2,0.9,3.5,2.6C532.4,319.7,532.4,319.9,532.4,320.2z M531.2,322.9v-1.5h-2.7c-1.7,0-2.2,0.7-2.2,1.5c0,0.9,0.8,1.6,2.2,1.6C529.6,324.7,530.7,324,531.2,322.9L531.2,322.9z"/><path class="st1" d="M543.4,313.4v12.1h-1.1v-1.7c-0.7,1.2-2,1.8-3.3,1.8c-2.4,0-4.4-2-4.4-4.4s2-4.4,4.4-4.4c1.3,0,2.6,0.6,3.3,1.7v-5.2L543.4,313.4z M542.2,321.2c-0.1-1.8-1.6-3.1-3.3-3c-1.8,0.1-3.1,1.6-3,3.3c0.1,1.7,1.5,3.1,3.2,3.1s3.2-1.4,3.2-3.1C542.2,321.3,542.2,321.3,542.2,321.2L542.2,321.2z"/><path class="st1" d="M545.8,324.7c0-0.5,0.4-0.9,0.8-0.9l0,0c0.5,0,0.9,0.4,0.9,0.9l0,0c0,0.5-0.4,0.9-0.9,0.9C546.2,325.6,545.8,325.2,545.8,324.7L545.8,324.7z"/><path class="st1" d="M549.3,324.7c0-0.5,0.4-0.9,0.9-0.9l0,0c0.5,0,0.9,0.4,0.9,0.9l0,0c0,0.5-0.4,0.9-0.9,0.9S549.3,325.2,549.3,324.7L549.3,324.7z"/><path class="st1" d="M552.8,324.7c0-0.5,0.4-0.9,0.8-0.9l0,0c0.5,0,0.9,0.4,0.9,0.9l0,0c0,0.5-0.4,0.9-0.9,0.9S552.8,325.2,552.8,324.7L552.8,324.7z"/><path class="st11" d="M399.4,345h227.7c5.3,0,9.7,4.3,9.7,9.7v2.8c0,5.3-4.3,9.7-9.7,9.7H399.4c-5.3,0-9.7-4.3-9.7-9.7v-2.8C389.7,349.4,394,345,399.4,345z"/><path class="st8" d="M399.4,345h104.2c5.3,0,9.7,4.3,9.7,9.7v2.8c0,5.3-4.3,9.7-9.7,9.7H399.4c-5.3,0-9.7-4.3-9.7-9.7v-2.8C389.7,349.4,394,345,399.4,345z"/><g><path class="st1" d="M408.4,345l-13.1,20.9l2.1,0.9c0.6,0.3,1.2,0.4,1.9,0.4h4.2l14.3-22.2L408.4,345L408.4,345z"/></g><g><polygon class="st1" points="431.9,345 417.9,367.2 426.8,367.2 441.1,345 "/></g><g><polygon class="st1" points="455.4,345 441.4,367.2 450.3,367.2 464.6,345 "/></g><g><polygon class="st1" points="478.9,345 464.9,367.2 473.8,367.2 488.1,345 "/></g><g><path class="st1" d="M502.4,345l-14,22.2h8.9l11.2-17.5l1.3-1.9C508.2,345.9,505.5,345.2,502.4,345z"/></g><path class="st1" d="M627.4,367.2c0,0,0.5,0,1.3-0.1c1.3-0.2,2.6-0.6,3.7-1.3c1.8-1.1,3.2-2.8,4-4.8c0.5-1.3,0.7-2.6,0.6-4c0.1-1.5,0-3.1-0.4-4.6c-0.9-3.6-3.9-6.3-7.5-7c-1-0.1-2-0.2-3-0.2h-10h-31.9l-184.5,0.1c-4.5,0-8.3,3.2-9.2,7.6c-0.2,1.1-0.2,2.2-0.2,3.2c0,1.1,0,2.2,0.2,3.2c0.9,4.3,4.6,7.3,9,7.4H419h49l82.9,0.1l55.9,0.1L622,367h4h1.3H626h-4h-15.2l-55.9,0.1l-82.9,0.1h-49h-19.4c-4.7,0-8.8-3.4-9.8-8c-0.2-1.1-0.3-2.3-0.2-3.4c-0.1-1.1,0-2.3,0.2-3.4c0.9-4.8,5.1-8.2,10-8.2l184.5,0.1H616h10c1,0,2.1,0,3.1,0.2c3.8,0.7,6.8,3.5,7.7,7.2c0.3,1.5,0.4,3.1,0.3,4.7c0,1.4-0.2,2.8-0.7,4.1c-0.8,2-2.2,3.7-4.1,4.9c-1.1,0.7-2.4,1.1-3.7,1.3C628.2,366.9,627.8,367.1,627.4,367.2z"/></g><path class="st3" d="M607.9,92.1c0-0.1,0-0.1,0-0.2l-5-30.7l0,0l-0.9-5.5l0,0l-0.8-4.9l0,0l-0.9-5.5l-30,22.7l0.1,0.6h-0.1l5.3,32.8c-0.6,0-1.2,0-1.8,0.1l0,0c-4.5,0.8-7.6,5-6.8,9.6c0.8,4.5,5,7.6,9.6,6.8c4.5-0.8,7.6-5,6.8-9.6c-0.1-0.5-0.2-1-0.4-1.4l-4.4-27.3l18.6-14.1l3.2,19.6c-0.6,0-1.3,0-2,0.1l0,0c-4.5,0.8-7.6,5.1-6.8,9.6s5.1,7.6,9.6,6.8C605.6,100.9,608.6,96.6,607.9,92.1z M577.6,74.1l-0.8-4.9l18.6-14.1l0.8,4.9L577.6,74.1z"/></svg>