<?xml version="1.0" encoding="utf-8"?>
<!-- Generator: Adobe Illustrator 26.5.0, SVG Export Plug-In . SVG Version: 6.00 Build 0)  -->
<svg version="1.1" id="Layer_1" xmlns="http://www.w3.org/2000/svg" xmlns:xlink="http://www.w3.org/1999/xlink" x="0px" y="0px"
	 viewBox="0 0 1027 600" style="enable-background:new 0 0 1027 600;" xml:space="preserve">
<style type="text/css">
	.st0{fill:#EBEBEB;}
	.st1{fill:#DBDBDB;}
	.st2{fill:#C7C7C7;}
	.st3{fill:#263238;}
	.st4{fill:#37474F;}
	.st5{fill:#FFFFFF;}
	.st6{fill:#00C5CD;}
	.st7{opacity:0.2;}
	.st8{fill:#455A64;}
	.st9{opacity:0.3;}
	.st10{opacity:0.5;}
	.st11{opacity:0.9;fill:#FFFFFF;enable-background:new    ;}
	.st12{fill:#A6A6A6;}
	.st13{fill:#D3766A;}
	.st14{opacity:0.1;enable-background:new    ;}
</style>
<g>
	<g id="freepik--background-complete--inject-61">
		<rect x="728.5" y="150.14" class="st0" width="25.64" height="106.66"/>
		<polygon class="st0" points="720.47,154.64 762.16,154.64 741.32,130.16 		"/>
		<rect x="272.86" y="85.51" class="st0" width="25.64" height="43.34"/>
		<polygon class="st0" points="264.84,90.01 306.53,90.01 285.68,65.53 		"/>
		<rect x="685.81" y="109.22" class="st0" width="25.64" height="43.34"/>
		<polygon class="st0" points="677.78,113.74 719.47,113.74 698.63,89.25 		"/>
		<path class="st0" d="M296.63,342.01l-17.52,0.37l-8.89,0.15c-2.98,0.07-5.97,0-8.95,0.08h-0.59v-0.6l-0.08-14.94v-0.67h0.67
			l17.68,0.09c5.9,0,11.79,0.15,17.68,0.21h0.37v0.36c0,2.54-0.12,5.06-0.17,7.56L296.63,342.01z M296.63,342.01l-0.19-7.54
			c0-2.48-0.15-4.95-0.17-7.4l0.36,0.37c-5.89,0-11.78,0.2-17.68,0.21l-17.68,0.08l0.67-0.67v14.94l-0.6-0.59
			c2.91,0,5.82,0,8.75,0.07l8.79,0.15L296.63,342.01z"/>
		<path class="st0" d="M276.91,360.85l-17.52,0.37l-8.95,0.13c-2.98,0.07-5.97,0-8.95,0.08h-0.53v-0.6l-0.08-14.94v-0.67h0.67
			l17.68,0.09c5.89,0,11.79,0.15,17.68,0.21h0.37v0.36c0,2.54-0.11,5.06-0.17,7.56L276.91,360.85z M276.91,360.85l-0.19-7.5
			c-0.07-2.48-0.15-4.95-0.17-7.4l0.36,0.37c-5.89,0.07-11.79,0.2-17.68,0.21l-17.68,0.08l0.67-0.67l-0.07,14.94l-0.6-0.59
			c2.91,0,5.82,0,8.75,0.07l8.79,0.15L276.91,360.85z"/>
		<path class="st0" d="M785.45,360.85l-17.53,0.37l-8.89,0.15c-2.96,0.07-5.96,0-8.93,0.08h-0.6v-0.6l-0.07-14.94v-0.67h0.67
			l17.68,0.09c5.89,0,11.79,0.15,17.68,0.21h0.36v0.36c0,2.54-0.11,5.06-0.17,7.56L785.45,360.85z M785.45,360.85l-0.19-7.54
			c0-2.48-0.16-4.95-0.17-7.4l0.36,0.37c-5.89,0.07-11.79,0.2-17.68,0.21l-17.68,0.08l0.67-0.67l-0.08,14.94l-0.59-0.59
			c2.91,0,5.82,0,8.73,0.07l8.79,0.15L785.45,360.85z"/>
		<path class="st0" d="M765.73,39.27l-17.53,0.37l-8.89,0.15c-2.96,0-5.96,0-8.93,0.08h-0.55v-0.6V24.33v-0.67h0.68l17.68,0.09
			c5.89,0,11.78,0.15,17.68,0.21h0.36v0.36c0,2.54-0.12,5.06-0.17,7.56L765.73,39.27z M765.73,39.27l-0.19-7.54
			c-0.07-2.48-0.16-4.95-0.19-7.4l0.37,0.37c-5.9,0-11.79,0.2-17.68,0.21l-17.68,0.08l0.67-0.67l-0.08,14.94l-0.59-0.59
			c2.91,0,5.81,0,8.73,0l8.79,0.15L765.73,39.27z"/>
		<path class="st0" d="M785.45,58.11l-17.53,0.37l-8.89,0.15c-2.96,0-5.96,0-8.93,0.08h-0.6v-0.6l-0.07-14.94V42.5h0.67l17.68,0.09
			c5.89,0,11.79,0.15,17.68,0.21h0.36v0.36c0,2.54-0.11,5.06-0.17,7.56L785.45,58.11z M785.45,58.11l-0.19-7.54
			c0-2.48-0.16-4.95-0.17-7.4l0.36,0.36c-5.89,0.08-11.79,0.21-17.68,0.23l-17.68,0.08l0.67-0.67l-0.08,14.94l-0.59-0.59
			c2.91,0,5.82,0,8.73,0.07l8.79,0.15L785.45,58.11z"/>
		<path class="st0" d="M553.19,419.04l-17.53,0.37l-8.89,0.16c-2.98,0-5.96,0-8.95,0h-0.59v-0.6v-14.93v-0.68h0.67l17.68,0.08
			c5.9,0,11.79,0.15,17.69,0.21h0.29v0.43c0,2.52-0.12,5.05-0.17,7.54L553.19,419.04z M553.19,419.04l-0.2-7.54
			c0-2.48-0.15-4.94-0.17-7.38l0.37,0.36c-5.9,0-11.79,0.21-17.69,0.21l-17.68,0.08l0.67-0.65v14.93l-0.6-0.59
			c2.92,0,5.82,0,8.75,0.07l8.79,0.16L553.19,419.04z"/>
		<path class="st0" d="M573.39,437.88l-17.52,0.37l-8.89,0.16c-2.98,0-5.97,0-8.95,0.07h-0.59v-0.6l-0.08-14.94v-0.67h0.67
			l17.68,0.08c5.89,0,11.79,0.15,17.68,0.21h0.37v0.35c0,2.54-0.11,5.06-0.17,7.56L573.39,437.88z M573.39,437.88l-0.19-7.54
			c0-2.48-0.15-4.94-0.17-7.4l0.36,0.37c-5.89,0.07-11.79,0.21-17.68,0.21l-17.68,0.08l0.67-0.67l-0.07,14.94l-0.6-0.59
			c2.91,0,5.82,0,8.75,0.07l8.79,0.16L573.39,437.88z"/>
		<path class="st0" d="M533.26,437.88l-17.52,0.37l-8.89,0.16c-2.98,0-5.96,0-8.95,0.07h-0.59v-0.6l-0.08-14.94v-0.67h0.67
			l17.68,0.08c5.9,0,11.79,0.15,17.68,0.21h0.37v0.35c0,2.54-0.12,5.06-0.17,7.56L533.26,437.88z M533.26,437.88l-0.19-7.54
			c0-2.48-0.15-4.94-0.17-7.4l0.36,0.37c-5.89,0.07-11.78,0.21-17.68,0.21l-17.68,0.08l0.67-0.67v14.94l-0.6-0.59
			c2.92,0,5.82,0,8.75,0.07l8.79,0.16L533.26,437.88z"/>
		<path class="st0" d="M296.63,39.27l-17.52,0.37l-8.89,0.15c-2.98,0-5.97,0-8.95,0.08h-0.59v-0.6l-0.08-14.94v-0.67h0.67
			l17.68,0.09c5.9,0,11.79,0.15,17.68,0.21h0.37v0.36c0,2.54-0.12,5.06-0.17,7.56L296.63,39.27z M296.63,39.27l-0.19-7.54
			c0-2.48-0.15-4.95-0.17-7.4l0.36,0.37c-5.89,0-11.78,0.2-17.68,0.21l-17.68,0.08l0.67-0.67v14.94l-0.6-0.59c2.91,0,5.82,0,8.75,0
			l8.79,0.15L296.63,39.27z"/>
		<rect x="584.36" y="381.51" class="st0" width="138.91" height="192.24"/>
		<rect x="577.63" y="374.36" class="st1" width="152.37" height="7.13"/>
		<rect x="730.02" y="374.36" class="st0" width="47.92" height="7.13"/>
		<rect x="723.29" y="381.51" class="st1" width="47.07" height="192.24"/>
		<path class="st2" d="M708.32,470.46H599.33v-61.58h108.99V470.46z M599.67,470.13h108.32v-60.92H599.67V470.13z"/>
		<rect x="638.62" y="426.88" class="st2" width="21.22" height="12.19"/>
		<path class="st2" d="M666.27,438.32h-21.55v-10.68h21.55L666.27,438.32z M645.05,437.99h20.88v-10.03h-20.88V437.99z"/>
		<path class="st2" d="M708.32,547.86H599.33v-61.58h108.99V547.86z M599.67,547.52h108.32v-60.92H599.67V547.52z"/>
		<rect x="638.62" y="504.27" class="st2" width="21.22" height="12.19"/>
		<path class="st2" d="M666.27,515.72h-21.55v-10.68h21.55L666.27,515.72z M645.05,515.38h20.88v-10.03h-20.88V515.38z"/>
	</g>
	<g id="freepik--Floor--inject-61">
		<polygon class="st3" points="227.89,573.74 299.29,573.42 370.7,573.3 513.5,573.07 656.3,573.3 727.71,573.42 799.11,573.74 
			727.71,574.07 656.3,574.18 513.5,574.4 370.7,574.18 299.29,574.07 		"/>
	</g>
	<g id="freepik--Window--inject-61">
		<rect x="331.79" y="37.92" class="st3" width="363.43" height="261.79"/>
		<path class="st2" d="M695.54,300.05H331.46V37.58h364.08V300.05z M332.13,299.38h362.75V38.21H332.13L332.13,299.38z"/>
		<rect x="331.79" y="37.92" class="st4" width="363.43" height="11.96"/>
		<path class="st2" d="M341.25,43.9c-0.03,1.64-1.38,2.94-3.02,2.91c-1.64-0.03-2.94-1.38-2.91-3.02c0.03-1.63,1.37-2.93,3-2.91
			c1.63,0.01,2.94,1.35,2.92,2.98C341.25,43.87,341.25,43.89,341.25,43.9z"/>
		<path class="st5" d="M353.4,43.9c-0.03,1.64-1.38,2.94-3.02,2.91c-1.64-0.03-2.94-1.38-2.91-3.02c0.03-1.62,1.35-2.91,2.96-2.91
			c1.63-0.01,2.96,1.31,2.97,2.94C353.4,43.85,353.4,43.87,353.4,43.9z"/>
		<path class="st6" d="M365.51,43.9c-0.03,1.64-1.38,2.94-3.02,2.91c-1.64-0.03-2.94-1.38-2.91-3.02c0.03-1.64,1.38-2.94,3.02-2.91
			c0,0,0.01,0,0.01,0c1.63,0.03,2.93,1.37,2.9,3C365.51,43.89,365.51,43.9,365.51,43.9z"/>
		<path class="st6" d="M431.63,169.14c0,11.04,8.51,20.21,19.52,21.03l0,0h119.43c13.69-0.36,24.5-11.74,24.14-25.43
			c-0.32-12.3-9.61-22.5-21.82-23.97c-0.74-23.06-20.03-41.15-43.08-40.41c-17.01,0.54-31.99,11.35-37.86,27.32
			c-3.43-1.75-7.22-2.66-11.07-2.67c-13.09,0-23.93,10.18-24.74,23.25c-1.13-0.19-2.28-0.28-3.43-0.28
			c-11.64,0-21.08,9.44-21.08,21.08C431.63,169.09,431.63,169.11,431.63,169.14z"/>
		<rect x="500.68" y="159.54" class="st5" width="25.64" height="30.69"/>
		<polygon class="st5" points="492.66,164.04 534.34,164.04 513.5,139.56 		"/>
		<rect x="443.86" y="221.64" class="st0" width="139.27" height="10.26"/>
		<rect x="445.16" y="222.95" class="st6" width="3.83" height="7.64"/>
		<rect x="450.05" y="222.95" class="st6" width="3.83" height="7.64"/>
		<rect x="454.93" y="222.95" class="st6" width="3.83" height="7.64"/>
		<rect x="459.82" y="222.95" class="st6" width="3.83" height="7.64"/>
		<rect x="464.69" y="222.95" class="st6" width="3.83" height="7.64"/>
		<rect x="469.58" y="222.95" class="st6" width="3.83" height="7.64"/>
		<rect x="474.47" y="222.95" class="st6" width="3.83" height="7.64"/>
		<rect x="479.36" y="222.95" class="st6" width="3.83" height="7.64"/>
		<rect x="484.24" y="222.95" class="st6" width="3.83" height="7.64"/>
		<rect x="489.12" y="222.95" class="st6" width="3.83" height="7.64"/>
		<rect x="494" y="222.95" class="st6" width="3.83" height="7.64"/>
		<rect x="498.89" y="222.95" class="st6" width="3.83" height="7.64"/>
		<rect x="503.78" y="222.95" class="st6" width="3.83" height="7.64"/>
		<rect x="508.67" y="222.95" class="st6" width="3.83" height="7.64"/>
		<rect x="513.54" y="222.95" class="st6" width="3.83" height="7.64"/>
		<path class="st3" d="M496.47,214.57c-1.33,0.01-2.41-1.06-2.42-2.39c0-0.01,0-0.02,0-0.03v-3.02c-0.01-0.25,0.19-0.46,0.44-0.47
			c0,0,0.01,0,0.01,0c0.26,0,0.47,0.21,0.48,0.47v2.98c-0.08,0.82,0.53,1.55,1.35,1.63c0.82,0.08,1.55-0.53,1.63-1.35
			c0.01-0.09,0.01-0.19,0-0.28v-2.98c-0.04-0.25,0.13-0.5,0.38-0.54c0.25-0.04,0.5,0.13,0.54,0.38c0.01,0.05,0.01,0.11,0,0.16v2.98
			c0.03,1.33-1.02,2.43-2.35,2.46C496.52,214.57,496.5,214.57,496.47,214.57z"/>
		<path class="st3" d="M502.82,212.3h-1.03v1.82c0,0.26-0.21,0.47-0.47,0.47c-0.26,0-0.47-0.21-0.47-0.47v-4.98
			c0-0.26,0.21-0.47,0.47-0.47l0,0h1.5c0.99-0.09,1.87,0.65,1.95,1.64c0.09,0.99-0.65,1.87-1.64,1.95c-0.1,0.01-0.21,0.01-0.31,0
			V212.3z M501.79,211.36h1.03c0.48,0.06,0.91-0.28,0.97-0.75c0.06-0.48-0.28-0.91-0.75-0.97c-0.07-0.01-0.14-0.01-0.21,0h-1.03
			V211.36z"/>
		<path class="st3" d="M505.76,214.11v-4.98c-0.04-0.25,0.13-0.5,0.38-0.54c0.25-0.04,0.5,0.13,0.54,0.38
			c0.01,0.05,0.01,0.11,0,0.16v4.47h2.27c0.26,0,0.47,0.21,0.47,0.47v0c-0.01,0.25-0.21,0.45-0.47,0.45h-2.74
			C505.97,214.53,505.78,214.35,505.76,214.11z"/>
		<path class="st3" d="M514.76,209.44c0.55,0.57,0.85,1.32,0.85,2.11c0,0.79-0.31,1.55-0.85,2.12c-0.51,0.57-1.24,0.9-2,0.89
			c-0.78,0-1.52-0.33-2.04-0.89c-0.54-0.57-0.84-1.34-0.83-2.12c-0.01-0.78,0.29-1.54,0.83-2.11c0.52-0.57,1.27-0.9,2.04-0.89
			C513.52,208.54,514.25,208.87,514.76,209.44z M514.65,211.55c0-0.54-0.2-1.06-0.56-1.46c-0.34-0.38-0.83-0.6-1.34-0.6
			c-0.51,0-1,0.22-1.34,0.6c-0.37,0.39-0.58,0.91-0.57,1.46c-0.01,0.54,0.2,1.07,0.57,1.46c0.34,0.39,0.82,0.61,1.34,0.61
			c0.51-0.01,1-0.23,1.34-0.61C514.45,212.61,514.65,212.09,514.65,211.55z"/>
		<path class="st3" d="M519.91,213.14h-2.03l-0.41,1.08c-0.07,0.18-0.24,0.29-0.43,0.29h-0.16c-0.24-0.09-0.37-0.36-0.28-0.6
			c0,0,0,0,0,0l1.84-4.93c0.07-0.18,0.26-0.3,0.45-0.29c0.19-0.01,0.37,0.11,0.44,0.29l1.86,4.93c0.08,0.24-0.04,0.51-0.28,0.6
			h-0.16c-0.19,0.01-0.36-0.11-0.43-0.29L519.91,213.14z M519.58,212.22l-0.73-1.75l-0.68,1.8L519.58,212.22z"/>
		<path class="st3" d="M522.34,214.11v-4.98c-0.01-0.25,0.19-0.46,0.44-0.47c0,0,0.01,0,0.01,0h0.99c1.62,0.11,2.84,1.51,2.73,3.13
			c-0.1,1.47-1.27,2.63-2.73,2.73h-0.93c-0.25,0.03-0.48-0.15-0.51-0.4C522.34,214.12,522.34,214.12,522.34,214.11z M523.26,213.64
			h0.52c1.11-0.01,2-0.91,1.99-2.02c0,0,0,0,0,0c0-1.1-0.89-1.99-1.99-1.99h-0.52V213.64z"/>
		<path class="st3" d="M528.46,213.38c0.35-0.01,0.63,0.27,0.64,0.61c0.01,0.35-0.27,0.63-0.61,0.64c-0.35,0.01-0.63-0.27-0.64-0.61
			c0,0,0-0.01,0-0.01C527.84,213.66,528.11,213.38,528.46,213.38z"/>
		<path class="st3" d="M530.39,213.38c0.35,0,0.63,0.28,0.63,0.63c0,0.35-0.28,0.63-0.63,0.63c-0.35,0-0.63-0.28-0.63-0.63
			C529.76,213.66,530.04,213.38,530.39,213.38z"/>
		<path class="st3" d="M532.31,213.38c0.35,0,0.63,0.28,0.63,0.63c0,0.35-0.28,0.63-0.63,0.63s-0.63-0.28-0.63-0.63
			C531.69,213.66,531.97,213.38,532.31,213.38L532.31,213.38z"/>
	</g>
	<g id="freepik--Files--inject-61">
		<rect x="631.86" y="251.81" class="st6" width="122.91" height="89.1"/>
		<polygon class="st6" points="675.3,242.58 631.86,242.58 631.86,251.81 677.78,251.81 		"/>
		<g class="st7">
			<rect x="631.86" y="251.81" width="122.91" height="89.1"/>
			<polygon points="675.3,242.58 631.86,242.58 631.86,251.81 677.78,251.81 			"/>
		</g>
		<rect x="636.13" y="245.37" class="st5" width="35.52" height="5.37"/>
		
			<rect x="677.81" y="201.33" transform="matrix(0.2549 -0.967 0.967 0.2549 302.1721 868.3671)" class="st8" width="73.54" height="73.54"/>
		<path class="st5" d="M702.99,255.39c-0.97,3.4-4.52,5.38-7.92,4.41s-5.38-4.52-4.41-7.92s4.52-5.38,7.92-4.41c0,0,0.01,0,0.01,0
			c3.4,0.97,5.37,4.51,4.4,7.9C703,255.38,702.99,255.38,702.99,255.39z"/>
		
			<rect x="689.56" y="233.81" transform="matrix(0.2707 -0.9627 0.9627 0.2707 287.1404 851.5415)" class="st5" width="32.09" height="4.87"/>
		<path class="st5" d="M725.48,252.11c-0.97,3.4-4.51,5.36-7.91,4.4c-3.4-0.97-5.36-4.51-4.4-7.91c0.97-3.4,4.51-5.36,7.91-4.4
			c0,0,0,0,0,0C724.48,245.19,726.44,248.72,725.48,252.11z"/>
		
			<rect x="711.51" y="233.43" transform="matrix(0.2746 -0.9615 0.9615 0.2746 300.9774 870.7205)" class="st5" width="32.18" height="4.89"/>
		<polygon class="st5" points="734.33,221.18 705.97,227.16 707.16,223.02 735.51,217.04 		"/>
		<polygon class="st5" points="732.1,228.97 703.75,234.96 704.93,230.82 733.28,224.83 		"/>
		<polygon class="st6" points="754.46,340.91 631.54,340.91 622.06,259.21 744.97,259.21 		"/>
		<polygon class="st6" points="664.51,250.74 621.07,250.74 622.06,259.21 667.98,259.21 		"/>
		<polygon class="st0" points="642.36,158.79 575.42,179.51 548.81,93.57 598.52,78.18 620.83,89.22 		"/>
		<polygon class="st1" points="598.52,78.18 620.83,89.22 603.58,94.55 		"/>
		
			<rect x="559.27" y="100.13" transform="matrix(0.9553 -0.2957 0.2957 0.9553 -4.0686 175.6719)" class="st1" width="38.96" height="2.31"/>
		
			<rect x="561" y="105.7" transform="matrix(0.9553 -0.2957 0.2957 0.9553 -5.637 176.432)" class="st1" width="38.96" height="2.31"/>
		
			<rect x="562.73" y="111.28" transform="matrix(0.9553 -0.2957 0.2957 0.9553 -7.2094 177.1927)" class="st1" width="38.96" height="2.31"/>
		
			<rect x="564.03" y="114.16" transform="matrix(0.9553 -0.2957 0.2957 0.9553 -7.5976 180.3881)" class="st1" width="57.1" height="2.31"/>
		
			<rect x="565.76" y="119.72" transform="matrix(0.9553 -0.2957 0.2957 0.9553 -9.1661 181.1482)" class="st1" width="57.1" height="2.31"/>
		
			<rect x="567.49" y="125.3" transform="matrix(0.9553 -0.2957 0.2957 0.9553 -10.7385 181.9089)" class="st1" width="57.1" height="2.31"/>
		
			<rect x="569.22" y="130.87" transform="matrix(0.9553 -0.2957 0.2957 0.9553 -12.3069 182.6689)" class="st1" width="57.1" height="2.31"/>
		
			<rect x="570.95" y="136.45" transform="matrix(0.9553 -0.2957 0.2957 0.9553 -13.8793 183.4296)" class="st1" width="57.1" height="2.31"/>
		
			<rect x="572.66" y="142.02" transform="matrix(0.9553 -0.2957 0.2957 0.9553 -15.4495 184.1861)" class="st1" width="57.1" height="2.31"/>
		
			<rect x="574.38" y="147.58" transform="matrix(0.9553 -0.2957 0.2957 0.9553 -17.0185 184.9422)" class="st1" width="57.1" height="2.31"/>
		
			<rect x="576.1" y="153.15" transform="matrix(0.9553 -0.2957 0.2957 0.9553 -18.5873 185.7012)" class="st1" width="57.1" height="2.31"/>
		
			<rect x="577.83" y="158.71" transform="matrix(0.9553 -0.2957 0.2957 0.9553 -20.1558 186.4612)" class="st1" width="57.1" height="2.31"/>
		
			<rect x="640.24" y="143" transform="matrix(0.9775 -0.211 0.211 0.9775 -21.6391 146.9476)" class="st6" width="75.18" height="63.77"/>
		<polygon class="st6" points="675.7,189.62 717.48,180.61 691.03,159.38 		"/>
		<g class="st9">
			<polygon class="st5" points="675.7,189.62 717.48,180.61 691.03,159.38 			"/>
		</g>
		<polygon class="st6" points="655.14,194.08 692.19,186.08 670.05,173.32 		"/>
		<g class="st10">
			<polygon class="st5" points="655.14,194.08 692.19,186.08 670.05,173.32 			"/>
		</g>
		
			<rect x="645.04" y="188.29" transform="matrix(0.9775 -0.211 0.211 0.9775 -26.2504 148.4644)" class="st6" width="75.18" height="17.92"/>
		<g class="st10">
			
				<rect x="645.04" y="188.29" transform="matrix(0.9775 -0.211 0.211 0.9775 -26.2504 148.4644)" class="st5" width="75.18" height="17.92"/>
		</g>
		<path class="st11" d="M652.87,174.55c3.2-0.05,5.75-2.69,5.7-5.89c-0.05-3.2-2.69-5.75-5.89-5.7s-5.75,2.69-5.7,5.89
			c0.01,0.76,0.18,1.52,0.48,2.22C648.39,173.21,650.52,174.58,652.87,174.55z"/>
	</g>
	<g id="freepik--Character--inject-61">
		<polygon class="st1" points="388.9,399.2 392.63,421.58 417.91,573.74 421.98,573.74 403.59,421.58 400.88,399.2 		"/>
		<polygon class="st12" points="400.88,399.2 388.9,399.2 392.63,421.58 403.59,421.58 		"/>
		<polygon class="st1" points="309.56,573.74 313.63,573.74 338.9,421.58 342.62,399.2 330.64,399.2 327.93,421.58 		"/>
		<polygon class="st12" points="330.64,399.2 327.93,421.58 338.9,421.58 342.62,399.2 		"/>
		<polygon class="st1" points="233.77,573.74 237.84,573.74 263.1,421.58 266.84,399.2 254.85,399.2 252.14,421.58 		"/>
		<polygon class="st12" points="252.14,421.58 263.1,421.58 266.84,399.2 254.85,399.2 		"/>
		<polygon class="st1" points="240.23,409.71 425.37,409.71 425.37,390.2 356.07,390.2 332.77,254.68 247.28,254.68 		"/>
		<polygon class="st12" points="240.23,409.71 250.32,409.71 256.89,254.68 247.28,254.68 		"/>
		<path class="st13" d="M424.96,575.95c-3.35,0.32-94.54-21.5-97.41-24.46c-0.35-0.32,1.46-8.61,4.1-19.91v-0.23
			c1.7-7.09,28.3-65.1,28.3-65.1l59.13,16.61l-26.91,53.68c0,0,11.11,8.01,20.64,15.68l0,0c5.89,4.69,10.96,8.89,12.02,10.27
			C427.65,566.08,428.29,575.67,424.96,575.95z"/>
		<path class="st5" d="M424.94,575.95c-3.34,0.32-94.53-21.5-97.4-24.45c-0.35-0.35,1.46-8.61,4.1-19.92v-0.21
			c0.6-2.67,4.7-12.42,9.59-23.57c9.72,2.67,44.59,12.08,57.26,16.02l-6.38,12.74c0,0,11.12,8.01,20.66,15.69l0,0
			c5.88,4.69,10.96,8.91,12.02,10.26C427.65,566.1,428.29,575.67,424.94,575.95z"/>
		<path class="st6" d="M425.25,576.34c-3.45,0.29-94.7-21.78-97.64-24.81c-1.12-1.15,0.91-15.56,5.92-30.81l58.75,14.3
			c0,0,30.03,23.81,32.9,27.49C428.05,566.2,428.69,576.1,425.25,576.34z"/>
		<path class="st3" d="M424.82,572.43c-15.21-4.1-76.9-19.08-92.26-21.95c-0.12,0-0.15,0.07,0,0.09
			c14.96,4.41,76.78,18.87,92.2,22.11C425.09,572.75,425.14,572.51,424.82,572.43z"/>
		<path class="st3" d="M420.16,557.87c-3.42-0.92-7.06-0.37-10.05,1.52c-2.66,1.67-4.57,4.29-5.34,7.33c0,0.09,0.15,0.13,0.19,0
			c2.56-5.97,8.76-9.52,15.21-8.72c0.04,0.04,0.1,0.04,0.13,0c0.04-0.04,0.04-0.1,0-0.13C420.26,557.84,420.2,557.84,420.16,557.87z
			"/>
		<path class="st3" d="M396.77,537.76c-6.1-1.56-13.73-1.12-18.69,2.98c-0.2,0.15,0,0.43,0.24,0.37c6.03-1.51,12.2-2.37,18.41-2.56
			c0.22-0.03,0.38-0.23,0.35-0.45C397.05,537.94,396.93,537.8,396.77,537.76z"/>
		<path class="st3" d="M401.05,540.75c-6.1-1.56-13.73-1.12-18.69,2.96c-0.19,0.16,0,0.43,0.24,0.39
			c6.03-1.52,12.21-2.38,18.43-2.58c0.22-0.05,0.35-0.26,0.3-0.48C401.3,540.91,401.19,540.8,401.05,540.75z"/>
		<path class="st3" d="M405.34,543.74c-6.1-1.58-13.73-1.12-18.69,2.96c-0.2,0.16,0,0.43,0.24,0.37c6.03-1.51,12.2-2.37,18.41-2.56
			c0.21,0.01,0.4-0.15,0.41-0.37C405.72,543.94,405.55,543.76,405.34,543.74L405.34,543.74z"/>
		<path class="st3" d="M409.61,546.72c-6.1-1.56-13.73-1.12-18.69,2.96c-0.19,0.16,0,0.44,0.24,0.39
			c6.03-1.51,12.21-2.37,18.43-2.56c0.22-0.03,0.37-0.24,0.34-0.45C409.9,546.89,409.78,546.76,409.61,546.72z"/>
		<path class="st3" d="M339.98,536.89c-6.88-1.64-9.44,9.04-2.55,10.68C344.32,549.22,346.87,538.54,339.98,536.89z"/>
		<path class="st3" d="M407.33,523.03c-2.47-3.32-6.98-1.75-9.53,0.45c-4.31,3.87-7.54,8.81-9.35,14.31c0,0.12,0,0.2,0.16,0.21
			c-0.02,0.42,0.31,0.77,0.73,0.79c0.08,0,0.17-0.01,0.25-0.03c5.09-1.96,10.78-3.43,15.1-6.89
			C407.21,529.87,409.68,526.17,407.33,523.03z M396.65,534.22c-2.47,1.03-4.99,1.92-7.44,3.04c1.84-2.79,3.54-5.63,5.65-8.24
			c1-1.27,2.08-2.47,3.23-3.59c1.83-1.7,9.07-5.34,8.01,1.44c-0.47,3.75-6.48,6.13-9.43,7.34H396.65z"/>
		<path class="st3" d="M372.68,536.39c5.14,2.11,11,1.92,16.44,2.38c0.42,0,0.76-0.34,0.76-0.76c0-0.08-0.01-0.16-0.04-0.24
			c0.09,0,0.16-0.15,0.08-0.25c-3.28-4.78-7.75-8.62-12.98-11.12c-3.07-1.34-7.85-1.63-9.35,2.24
			C366.1,532.5,369.69,535.16,372.68,536.39z M369.83,532.01c-2.88-6.25,5.1-4.77,7.33-3.65c1.44,0.77,2.82,1.63,4.14,2.58
			c2.75,1.9,5.18,4.17,7.73,6.32c-2.67-0.39-5.34-0.53-8.01-0.83C377.83,536.04,371.41,535.45,369.83,532.01L369.83,532.01z"/>
		<path class="st3" d="M398.85,531.63l-63.32-18.99c0,0,52.2-108.76,50.54-114.29c-1.09-3.7-79.34-4.01-102.27-24.54
			c-23.74-21.32-5.31-63.2-5.31-63.2l65.79-0.33c0,0-1.14,13.73,1.34,15.86c1.66,1.43,91.6,9.35,108.83,42.41
			C470.17,398.58,398.85,531.63,398.85,531.63z"/>
		<path class="st3" d="M386.09,398.34c0.28,0.93-0.99,4.85-3.31,10.68l47.28,58.09c16.86-38.43,32.71-82.79,24.49-98.56
			c-17.24-33.06-107.17-40.98-108.84-42.41c-2.5-2.14-1.34-15.86-1.34-15.86l-41.85,0.23l69.44,85.25
			C380.33,396.66,385.79,397.41,386.09,398.34z"/>
		<path class="st8" d="M400.43,518.24c-1.68-0.76-3.4-1.4-5.17-1.92c-1.83-0.61-3.65-1.24-5.49-1.84c-3.61-1.16-7.24-2.27-10.9-3.3
			c-7.34-2.08-14.69-4.13-22.11-6.01c-3.87-0.97-12.14-3.11-12.65-3.03c-0.25,0-0.31,0.44-0.09,0.52c7.16,2.56,14.43,4.75,21.7,6.97
			c7.26,2.22,14.51,4.41,21.87,6.26c2.04,0.51,4.09,0.96,6.13,1.46c2.14,0.61,4.31,1.05,6.52,1.34
			C400.44,518.76,400.65,518.36,400.43,518.24z"/>
		<path class="st8" d="M282.08,323.17c0.2-2.2,0.44-4.39,0.69-6.58c0-0.25,0.43-0.25,0.4,0c-0.88,8.91-1.78,18.01-0.13,26.88
			c1.49,8.19,5.62,15.66,11.75,21.28c13.05,12.18,31.3,15.76,48.3,18.69c9.75,1.66,19.54,2.92,29.38,3.9
			c4.81,0.47,9.64,0.85,14.46,1.15c4.82,0.29,9.59,0.35,14.37,0.61c1.51,0.08,2.87,0.77,2.67,2.51c-0.25,1.05-0.64,2.07-1.15,3.02
			c-0.51,1.16-1.03,2.32-1.55,3.49c-1.91,4.34-3.83,8.68-5.78,13.02c-4.01,8.9-8.07,17.8-12.19,26.71
			c-8.17,17.64-16.66,35.14-25.45,52.48c-1.09,2.15-2.18,4.3-3.27,6.45c0,0.13-0.28,0-0.21-0.13c8.4-17.56,16.7-35.18,24.88-52.84
			c4.06-8.76,8.11-17.53,12.14-26.32c2-4.39,4-8.79,5.98-13.19l2.96-6.61l1.48-3.3c0.4-0.92,1.9-3.12,0.87-4.01
			c-0.68-0.57-2.11-0.37-2.94-0.4l-3.82-0.12c-2.42-0.08-4.83-0.17-7.25-0.29c-4.89-0.25-9.78-0.59-14.69-1.01
			c-9.56-0.83-19.09-2.02-28.58-3.57c-16.89-2.67-35.27-5.78-48.79-17.12c-6.05-4.93-10.56-11.5-12.98-18.92
			C281.04,340.62,281.29,331.74,282.08,323.17z"/>
		<path class="st13" d="M564.07,492.59c-2.38,2.39-86.53,43.73-90.63,43.28c-0.48,0-4.38-7.56-9.55-17.95l-0.11-0.21
			c-3.3-6.57-33.24-61.85-33.24-61.85l52.36-26.51l30.71,53.8c0,0,13.7-0.89,25.9-1.08l0,0c7.52-0.13,14.11-0.13,15.81,0.24
			C559.85,483.27,566.46,490.24,564.07,492.59z"/>
		<path class="st5" d="M564.07,492.59c-2.38,2.38-86.53,43.73-90.64,43.28c-0.47,0-4.37-7.56-9.53-17.95l-0.11-0.2l-0.71-1.34
			c-0.16-0.33-0.33-0.66-0.52-1l-0.79-1.48c-2.28-4.31-6.02-11.31-10.15-18.97l53.41-26.91l8.67,15.18c0,0,13.7-0.88,25.9-1.09l0,0
			c7.52-0.13,14.13-0.13,15.81,0.24C559.85,483.27,566.46,490.24,564.07,492.59z"/>
		<path class="st6" d="M564.58,492.74c-2.47,2.43-86.79,43.62-91.04,43.16c-1.59-0.16-9.21-12.55-15.08-27.51l54.41-26.49
			c0,0,38.31-0.8,42.88,0.2C560.32,483.1,567.03,490.32,564.58,492.74z"/>
		<path class="st3" d="M561.72,489.96c-14.31,6.56-71.41,34.36-85.06,41.93c-0.11,0-0.08,0.13,0,0.08
			c14.33-6.18,71.2-34.45,85.13-41.78C562.12,490.03,562.01,489.81,561.72,489.96z"/>
		<path class="st3" d="M548.85,481.72c-3.23,1.46-5.69,4.21-6.78,7.58c-1,2.99-0.81,6.24,0.53,9.09c0,0.08,0.2,0,0.16-0.09
			c-1.79-6.23,0.72-12.9,6.17-16.41C549.03,481.83,548.95,481.67,548.85,481.72z"/>
		<path class="st3" d="M518,481.15c-5.69,2.67-11.28,7.89-12.54,14.23c0,0.25,0.31,0.32,0.43,0.15c3.68-5.01,7.89-9.61,12.55-13.73
			c0.16-0.15,0.16-0.41,0.01-0.57C518.33,481.11,518.15,481.08,518,481.15z"/>
		<path class="st3" d="M523.21,480.72c-5.7,2.67-11.28,7.89-12.54,14.23c0,0.25,0.29,0.31,0.43,0.15
			c3.68-5.02,7.88-9.62,12.55-13.73c0.16-0.15,0.16-0.41,0.01-0.57C523.54,480.69,523.36,480.65,523.21,480.72z"/>
		<path class="st3" d="M528.4,480.29c-5.69,2.67-11.28,7.89-12.54,14.23c0,0.24,0.31,0.31,0.43,0.15
			c3.68-5.01,7.89-9.61,12.55-13.73c0.16-0.15,0.16-0.41,0.01-0.57C528.74,480.26,528.56,480.22,528.4,480.29z"/>
		<path class="st3" d="M533.61,479.86c-5.7,2.67-11.28,7.88-12.54,14.23c0,0.24,0.29,0.31,0.43,0.13
			c3.68-5.01,7.89-9.61,12.55-13.73c0.18-0.12,0.22-0.36,0.1-0.54C534.03,479.79,533.79,479.74,533.61,479.86L533.61,479.86z"/>
		<path class="st3" d="M473.71,516.69c-6.34,3.12-1.51,12.98,4.85,9.85C484.91,523.42,480.12,513.58,473.71,516.69z"/>
		<path class="st3" d="M516.74,463.07c-4.01-0.97-6.5,3.1-7.06,6.44c-0.85,5.73-0.19,11.59,1.92,16.99
			c0.03,0.08,0.12,0.13,0.21,0.09c0.02-0.01,0.03-0.02,0.05-0.03c0.26,0.34,0.74,0.41,1.08,0.16c0.06-0.04,0.11-0.1,0.16-0.16
			c2.67-4.75,6.12-9.51,7.25-14.93C521,468.41,520.55,463.99,516.74,463.07z M515.68,478.49c-1.26,2.36-2.67,4.66-3.79,7.08
			c-0.36-3.31-0.87-6.6-0.91-9.95c-0.04-1.61,0.03-3.22,0.21-4.82c0.31-2.47,3.55-9.92,7.13-4.01
			C520.28,470.01,517.17,475.66,515.68,478.49L515.68,478.49z"/>
		<path class="st3" d="M498.57,495.45c5.34-1.64,9.69-5.53,14.17-8.65c0.32-0.27,0.37-0.75,0.1-1.07c-0.05-0.06-0.11-0.11-0.18-0.16
			c0-0.11,0-0.21-0.09-0.25c-5.57-1.59-11.47-1.68-17.09-0.28c-3.26,0.88-7.09,3.74-5.73,7.65
			C491.03,496.38,495.47,496.41,498.57,495.45z M493.58,493.9c-6.2-2.99,0.89-6.93,3.32-7.49c1.58-0.34,3.17-0.56,4.78-0.67
			c3.33-0.17,6.66-0.17,9.99,0c-2.3,1.34-4.45,2.96-6.68,4.45C502.32,491.9,497,495.54,493.58,493.9z"/>
		<path class="st3" d="M513.42,474.44L450.29,506c0,0-49.27-100.15-54.68-106.64c-7.21-8.63-101.1,3.54-123.21-24.25
			c-22.9-28.74-3.26-64.43-3.26-64.43h71.44c0,0,0.21,7.93-3.9,19.52c0,0,81.69-4.86,104.82,17.61
			C459.23,365,513.42,474.44,513.42,474.44z"/>
		<path class="st8" d="M323.63,337.32c3.66-2.52,7.46-4.84,11.38-6.94c2.74-1.44,5.62-2.61,8.6-3.49c2.08-0.51,3-0.65,1.04,0.27
			l-5.25,2.5h1.11l4.21-0.16c2.75-0.07,5.5,0,8.25-0.07c5.57,0,11.1,0.49,16.65,0.77c0.15,0,0.15,0.24,0,0.23
			c-5.55-0.17-11.12,0.12-16.68,0.09c-2.75,0-5.5,0-8.25,0.12l-4.01,0.07c-1.14,0.06-2.28,0.06-3.42,0l-1.54,0.72
			c-4.01,1.91-8.01,3.89-12.02,6.09C323.65,337.59,323.53,337.44,323.63,337.32z"/>
		<path class="st8" d="M342.26,307.94c-0.73,3.38-1.34,6.77-2.2,10.12c-0.39,1.52-0.76,3.08-1.34,4.58
			c-0.45,1.34-1.14,2.67-2.56,3.03c-1.66,0.39-2.18-1.03-2.08-2.4c0.15-1.54,0.38-3.08,0.69-4.59c0.28-1.75,0.57-3.5,0.84-5.25
			c0.12-0.88,0.25-1.75,0.37-2.67c0-0.21,0.13-1.9,0.24-2.38c0,0,0,0.08,0.09,0.07l0,0c0.05,0,0.09-0.03,0.11-0.08
			c0-0.13,0-0.16-0.09-0.25c-0.04-0.03-0.1-0.03-0.15,0c-0.32,0.19-0.32,0.61-0.41,0.93c-0.24,0.85-0.49,1.71-0.71,2.58
			c-0.42,1.61-0.81,3.23-1.16,4.85c-0.35,1.63-0.69,3.24-1.03,4.87c-0.39,1.2-0.45,2.49-0.2,3.73c0.34,1.2,1.42,2.03,2.67,2.06
			l-0.17,0.32c-0.13,0.33-0.23,0.69-0.33,1.04c-0.12,0.35-0.23,0.7-0.31,1.05c-0.04,0.17-0.07,0.35-0.08,0.52c0,0.19,0,0.37,0,0.57
			s0.39,0.47,0.52,0.17c0.09-0.17,0.19-0.33,0.29-0.48c0.1-0.18,0.17-0.37,0.23-0.57c0.09-0.33,0.19-0.67,0.25-1.01
			s0.17-0.68,0.23-1.03c0.05-0.35,0-0.41,0-0.61c0.69-0.09,1.35-0.37,1.9-0.8c0.92-0.84,1.58-1.92,1.9-3.12
			c0.45-1.4,0.8-2.86,1.15-4.3c0.9-3.56,1.49-7.18,1.76-10.84C342.89,307.69,342.34,307.56,342.26,307.94z"/>
		<path class="st8" d="M307.86,317.56c-0.25,1.67-0.39,3.35-0.71,5.01s-0.71,3.24-1.19,4.83c-0.42,1.54-1.06,3.02-1.9,4.38
			c-0.87,1.28-1.92,2.43-3.12,3.4c-2.32,1.96-4.95,3.53-7.77,4.65c-1.41,0.56-2.86,1.03-4.33,1.42c-0.76,0.2-1.54,0.36-2.31,0.49
			c-0.65,0.04-1.28,0.21-1.87,0.49c-0.18,0.11-0.23,0.35-0.12,0.53c0.03,0.05,0.07,0.09,0.12,0.12c1.14,0.3,2.34,0.3,3.49,0
			c1.25-0.17,2.48-0.43,3.69-0.77c2.44-0.73,4.77-1.81,6.92-3.19c2.17-1.33,4.09-3.02,5.69-4.99c1.49-2.07,2.49-4.45,2.91-6.97
			c0.67-3.07,0.9-6.21,0.71-9.35C308.02,317.55,307.93,317.52,307.86,317.56z"/>
		<path class="st8" d="M500.6,462.96c-1.74,0.59-3.44,1.31-5.07,2.15c-1.75,0.8-3.51,1.6-5.25,2.43c-3.42,1.64-6.82,3.32-10.19,5.07
			c-6.77,3.54-13.53,7.12-20.2,10.83c-3.49,1.94-10.96,6.06-11.28,6.46c-0.32,0.4,0.09,0.53,0.31,0.44
			c6.96-3.04,13.74-6.44,20.55-9.81s13.58-6.77,20.2-10.47c1.83-1.03,3.63-2.11,5.46-3.15c1.98-1.02,3.88-2.17,5.69-3.46
			C500.97,463.32,500.85,462.84,500.6,462.96z"/>
		<path class="st8" d="M269.14,327.29c0-0.13,0.11-0.24,0.24-0.24c0.13,0,0.24,0.11,0.24,0.24c-0.13,15.52,2.26,32.86,14.19,43.98
			c13.1,12.2,31.98,13.66,48.98,13.51c9.76-0.08,19.51-0.33,29.26,0c9.75,0.33,19.71,0.79,29.44,2.03c3.79,0.36,7.33,2.05,9.99,4.78
			c2.58,2.91,4.82,6.11,6.68,9.52c4.91,8.14,9.67,16.36,14.26,24.66c9.15,16.52,17.61,33.39,25.37,50.61
			c0.96,2.14,1.92,4.28,2.87,6.42c0,0.13-0.15,0.25-0.21,0.11c-7.91-17.27-16.41-34.24-25.52-50.92
			c-4.52-8.34-9.21-16.6-14.07-24.77c-2.27-3.85-4.47-7.77-7.02-11.44c-2.24-3.24-5.05-6.3-8.93-7.48c-2.38-0.6-4.81-0.95-7.26-1.05
			c-2.5-0.23-4.99-0.44-7.49-0.61c-4.86-0.36-9.73-0.62-14.61-0.8c-9.83-0.36-19.66-0.24-29.5,0c-17.08,0.31-35.73-0.28-49.9-11.15
			c-6.05-4.74-10.61-11.12-13.15-18.37c-2.54-7.46-3.84-15.29-3.85-23.17C269.14,331.2,269.14,329.31,269.14,327.29z"/>
		<path class="st8" d="M371.42,395.25c3.49,0,6.97,0.2,10.44,0.32c2.9-0.05,5.8,0.21,8.65,0.77c2.67,0.65,4.73,0.97,6.89,3.93
			c2.67,3.69,17.36,32.05,23.51,44.56c1.71,3.49,3.41,6.97,5.06,10.47c1.66,3.5,3.22,7.33,4.91,10.95c0.01,0.07-0.03,0.13-0.1,0.14
			c-0.04,0.01-0.07-0.01-0.1-0.03c-1.51-3.02-3.18-5.97-4.74-8.97c-1.56-3-3.07-6.04-4.59-9.07c-3.04-6.12-6.1-12.23-9.17-18.33
			c-3.06-6.06-6.76-12.02-9.85-17.99c-2.59-5.07-6.14-12.02-8.61-13.02c-3.46-1.38-7.09-2.27-10.79-2.67
			c-3.85-0.27-7.68-0.51-11.52-0.84c-0.06,0.04-0.14,0.02-0.18-0.04s-0.02-0.14,0.04-0.18C371.31,395.2,371.38,395.21,371.42,395.25
			z"/>
		<path class="st3" d="M313.2,173.41c-12.89,11.04-9.35,27.16-14.69,35.89c-3.28,5.34-14.01,10.99-16.13,17.15
			c-3.51,10.12,5.07,13.75,3.15,19.26c-2.67,7.78-13.15,7.18-15.02,19.92c-1.87,12.74,12.14,26.31,45.4,29.98
			c33.26,3.67,51.57-8.51,52.76-19.32c1.19-10.82-9.88-14.42-10.68-22.49c-0.48-5.17,6.36-8.76,6.68-18.25
			c0.32-9.49-8.92-12.59-10.24-20.66s2.95-27.67-8.91-37.67C333.66,167.22,319.49,167.95,313.2,173.41z"/>
		<path class="st3" d="M314.63,173.69c-3.6,2.56-6.54,5.94-8.56,9.87c-2.09,4.16-3.68,8.55-4.75,13.09
			c-0.56,2.7-1.43,5.33-2.59,7.84c-1.15,2.09-2.66,3.95-4.46,5.51c-3.61,3.26-7.9,5.73-11.14,9.35c-3.23,3.62-5.45,8.11-4.22,12.83
			c0.67,2.56,2.35,4.66,3.41,7.05c1.05,2.39,1.34,5.1-0.55,6.98c-1.67,1.62-4.01,2.35-5.97,3.67c-1.86,1.3-3.5,2.89-4.86,4.71
			c-2.77,3.64-3.89,8.29-3.06,12.79c1.96,10.36,11.67,16.25,20.64,20.03c1.24,0.51,2.5,1.01,3.77,1.51c0.19,0.08,0.36-0.2,0.16-0.28
			c-9-4.01-19.46-8.76-22.9-18.83c-1.6-4.45-1.02-9.39,1.55-13.35c1.26-1.95,2.85-3.65,4.71-5.03c1.8-1.34,3.9-2.15,5.74-3.43
			c1.88-1.18,2.98-3.27,2.87-5.49c-0.29-2.39-1.14-4.68-2.48-6.68c-1.38-2.03-2.12-4.43-2.12-6.89c0.26-2.43,1.18-4.74,2.67-6.68
			c2.79-4.01,6.94-6.57,10.68-9.57c3.82-2.78,6.66-6.71,8.11-11.2c0.69-2.38,1.12-4.82,1.71-7.21c0.54-2.2,1.2-4.38,1.96-6.52
			c1.47-4.33,3.87-8.29,7.04-11.59c0.84-0.85,1.76-1.6,2.75-2.26C314.85,173.8,314.74,173.63,314.63,173.69z"/>
		<path class="st3" d="M370.12,268.35c-0.41-1.76-1.2-3.42-2.31-4.85c-1.15-1.47-2.55-2.67-3.83-4.01
			c-1.29-1.22-2.21-2.77-2.67-4.49c-0.24-2.11,0.28-4.24,1.47-6.01c1.13-1.86,2.12-3.8,2.98-5.8c2.28-6.18,1.51-13.07-2.08-18.59
			c-1.14-1.86-2.42-3.62-3.57-5.47c-1.26-2.02-2.25-4.19-2.95-6.46c-1.5-5.01-1.82-10.3-3.04-15.37c-1.26-5.2-3.05-10.26-5.34-15.1
			c0-0.12-0.23,0-0.17,0.11c2.03,4.35,3.6,8.91,4.67,13.59c1.05,4.45,1.47,8.99,2.26,13.49c0.34,2.21,0.9,4.39,1.68,6.49
			c0.8,1.93,1.76,3.79,2.88,5.55c2.26,3.67,4.58,7.29,5.19,11.64c0.63,4.27-0.12,8.64-2.14,12.46c-1.75,3.31-4.21,6.96-2.67,10.83
			c1.34,3.28,4.42,5.25,6.49,8.01c2.22,3.02,3.04,6.85,2.26,10.52c-1.79,9.35-11.14,13.94-19.87,14.41c-0.12,0-0.21,0.1-0.21,0.21
			c0,0.12,0.1,0.21,0.21,0.21l0,0c7.61-0.09,15.88-3.43,19.44-10.55C370.49,275.85,370.96,272.01,370.12,268.35z"/>
		<path class="st13" d="M318.8,240.72c3.18,13.07,24.04,58.75,31.38,63.71c8.56,5.73,53.89,28.64,62.45,25.88
			c2.95-0.96,15.62-32.59,9.93-35.05c-17.36-7.53-50.1-13.21-54.75-17.24c-3.06-2.67-21.55-24.28-38.51-42.44
			C322.93,228.72,316.76,232.29,318.8,240.72z"/>
		<path class="st6" d="M316.38,239.92c1.6,8.48,8.96,24.57,8.96,24.57l31.83-5.34c0,0-18.33-21.14-31.74-28.55
			C320.05,227.67,314.77,231.34,316.38,239.92z"/>
		<path class="st6" d="M316.38,239.92c1.6,8.48,8.96,24.57,8.96,24.57l31.83-5.34c0,0-18.33-21.14-31.74-28.55
			C320.05,227.67,314.77,231.34,316.38,239.92z"/>
		<path class="st5" d="M326.32,247.85c0,1.35-1.09,2.44-2.44,2.44c-1.35,0-2.44-1.09-2.44-2.44c0-1.35,1.09-2.44,2.44-2.44
			c1.34-0.01,2.44,1.07,2.44,2.42C326.32,247.84,326.32,247.85,326.32,247.85z"/>
		<path class="st3" d="M324.85,260.15c4.67-1.09,9.35-2.12,14.09-2.95c2.35-0.42,4.71-0.79,7.09-1.12c2.38-0.33,4.78-0.43,7.14-0.8
			c0.13,0,0.15,0.19,0,0.2c-2.38,0.24-4.74,0.81-7.1,1.19l-7.09,1.18c-4.71,0.8-9.44,1.6-14.14,2.51
			C324.73,260.38,324.71,260.18,324.85,260.15z"/>
		<path class="st14" d="M350.09,260.38l-24.76,4.11c0,0-7.34-16.09-8.93-24.58c-0.81-4.37,0.15-7.46,2.02-9.07L350.09,260.38z"/>
		<path class="st6" d="M343.45,322.89l-86.55,2.84c0,0,26.27-75.38,45.29-93.38c8.67-8.19,16.53-6.38,22.91-0.37
			c1.6,1.5,20.8,29.2,22.01,38.52c1.07,8.23-6.1,16.86-6.1,16.86L343.45,322.89z"/>
		<path class="st5" d="M281.02,270.9c0,1.35-1.09,2.44-2.44,2.44l0,0c-0.23,0-0.45-0.03-0.67-0.11c0.67-1.47,1.34-2.92,2.02-4.37
			C280.62,269.32,281.03,270.08,281.02,270.9z M308.77,268.46c-1.35,0-2.44,1.09-2.44,2.44c0,1.35,1.09,2.44,2.44,2.44
			c1.35,0,2.44-1.09,2.44-2.44C311.21,269.55,310.12,268.46,308.77,268.46L308.77,268.46z M338.98,268.46
			c-1.35-0.01-2.45,1.08-2.46,2.43c-0.01,1.35,1.08,2.45,2.43,2.46c1.35,0.01,2.45-1.08,2.46-2.43c0,0,0-0.01,0-0.01
			C341.41,269.56,340.32,268.47,338.98,268.46z M293.68,245.37c-1.35,0-2.44,1.09-2.44,2.44c0,1.35,1.09,2.44,2.44,2.44
			c1.33,0,2.42-1.07,2.44-2.4c0.02-1.35-1.05-2.46-2.4-2.48C293.71,245.37,293.7,245.37,293.68,245.37z M323.87,245.37
			c-1.35,0-2.44,1.09-2.44,2.44s1.09,2.44,2.44,2.44c1.35,0,2.44-1.09,2.44-2.44c0-1.34-1.09-2.44-2.43-2.44H323.87z M278.58,315.68
			c-1.35,0-2.44,1.09-2.44,2.44c0,1.35,1.09,2.44,2.44,2.44s2.44-1.09,2.44-2.44l0,0C281.02,316.77,279.93,315.68,278.58,315.68z
			 M308.77,315.68c-1.35,0-2.44,1.09-2.44,2.44c0,1.35,1.09,2.44,2.44,2.44c1.35,0,2.44-1.09,2.44-2.44l0,0
			C311.21,316.77,310.12,315.68,308.77,315.68z M338.98,315.68c-1.35-0.01-2.45,1.08-2.46,2.43c-0.01,1.35,1.08,2.45,2.43,2.46
			s2.45-1.08,2.46-2.43c0,0,0-0.01,0-0.01C341.41,316.77,340.32,315.68,338.98,315.68z M293.68,292.59c-1.35,0-2.44,1.09-2.44,2.44
			c0,1.35,1.09,2.44,2.44,2.44c1.35,0,2.44-1.09,2.44-2.44S295.03,292.59,293.68,292.59L293.68,292.59z M323.87,292.59
			c-1.35,0-2.44,1.09-2.44,2.44s1.09,2.44,2.44,2.44c1.35,0,2.44-1.09,2.44-2.44c0-1.34-1.09-2.44-2.43-2.44H323.87z"/>
		<path class="st3" d="M335.68,287.27c-1.74-0.25-3.51-0.3-5.26-0.16c-0.83,0.06-1.65,0.16-2.47,0.31
			c-0.92,0.19-1.82,0.44-2.67,0.64c-0.16,0-0.08,0.25,0,0.23c0.91-0.17,1.83-0.28,2.75-0.33c0.83-0.07,1.66-0.17,2.5-0.24
			c1.71-0.12,3.42-0.24,5.13-0.32C335.73,287.38,335.74,287.29,335.68,287.27z"/>
		<path class="st3" d="M336.4,283.56c-3.89,0.14-7.75,0.76-11.5,1.84c-3.89,1.14-7.77,2.67-11.8,3.12c-0.16,0-0.15,0.27,0,0.25
			c1.94-0.21,3.86-0.43,5.78-0.73c1.92-0.31,3.82-0.77,5.72-1.19c4.01-0.88,7.8-2.36,11.82-2.99c0.08-0.03,0.13-0.12,0.1-0.2
			C336.49,283.61,336.45,283.57,336.4,283.56z"/>
		<path class="st13" d="M310.37,229.56c0,1.58,4.67,12.97,11.54,14.34c2.23,0.44,5.19-11.66,5.19-11.66l0.43-0.84l5.9-11.82
			l-12.34-13.13l-1.82-1.78c0,0-1.34,3.34-3.11,7.52c-0.08,0.19-0.16,0.37-0.24,0.59s-0.2,0.45-0.29,0.68l-0.77,1.88
			c-0.19,0.49-0.39,0.96-0.57,1.47c-0.19,0.51-0.37,1.01-0.57,1.54C312.35,222.01,311.24,225.76,310.37,229.56z"/>
		<path class="st3" d="M316.17,212.26c0.79,7.74,4.95,14.74,11.36,19.15l5.9-11.82l-12.34-13.13l-1.82-1.78
			C319.28,204.68,317.88,208.08,316.17,212.26z"/>
		<path class="st13" d="M356.54,205.9c-4.69,22.7-18.8,22.45-23.7,21.36c-4.43-0.92-19.44-4.62-17.13-27.68
			c2.31-23.06,14.35-28.04,24.62-26.48S361.28,183.2,356.54,205.9z"/>
		<path class="st3" d="M347.62,223.51c0.96-0.82,1.82-1.75,2.55-2.78c0.75-1.01,1.42-2.07,2.02-3.18c1.19-2.22,2.15-4.56,2.84-6.98
			c0.73-2.41,1.3-4.86,1.71-7.34l0.52-3.77l0.39-3.78v3.81l-0.35,3.81c-0.33,2.53-0.86,5.03-1.58,7.48
			c-0.73,2.45-1.75,4.81-3.03,7.02C351.43,220.04,349.7,221.99,347.62,223.51z"/>
		<path class="st3" d="M354.6,199.24c-0.52-0.19-0.96-0.44-1.46-0.67c-0.54-0.17-1.01-0.51-1.34-0.97
			c-0.15-0.34-0.06-0.74,0.23-0.97c0.64-0.38,1.43-0.38,2.07,0c0.7,0.27,1.27,0.79,1.6,1.46c0.18,0.45-0.04,0.96-0.49,1.15
			C355.02,199.3,354.8,199.31,354.6,199.24z"/>
		<path class="st3" d="M338.67,197.71c0.55,0,1.05,0,1.6,0c0.56,0.08,1.13-0.02,1.63-0.28c0.29-0.23,0.39-0.64,0.23-0.97
			c-0.41-0.62-1.12-0.97-1.86-0.92c-0.74-0.06-1.48,0.16-2.07,0.61c-0.38,0.31-0.44,0.86-0.13,1.24
			C338.22,197.57,338.43,197.69,338.67,197.71z"/>
		<path class="st3" d="M340.98,204.08c0-0.07-0.15,0-0.15,0.11c-0.27,1.56-0.84,3.3-2.35,3.53v0.08
			C340.24,207.9,340.97,205.59,340.98,204.08z"/>
		<path class="st3" d="M339.91,202.19c-2.44-0.71-3.66,4.25-1.4,4.89C340.77,207.72,341.98,202.76,339.91,202.19z"/>
		<path class="st3" d="M338.9,202.2c-0.51,0.17-1.05,0.56-1.59,0.49s-0.93-0.72-1.22-1.34c0,0-0.08,0-0.09,0
			c-0.39,0.9-0.02,1.95,0.85,2.4c0.89,0.35,1.76-0.32,2.24-1.22C339.18,202.45,339.1,202.13,338.9,202.2z"/>
		<path class="st3" d="M349.56,205.85c0,0,0.11,0.11,0.09,0.17c-0.44,1.51-0.68,3.32,0.56,4.18c0,0,0,0.11,0,0.08
			C348.56,209.63,348.91,207.22,349.56,205.85z"/>
		<path class="st3" d="M351.34,204.6c2.51,0.44,1.44,5.42-0.88,5.01C348.14,209.2,349.26,204.23,351.34,204.6z"/>
		<path class="st3" d="M352.32,205.13c0.33,0.35,0.61,0.91,1.08,1.04c0.47,0.13,1.05-0.31,1.51-0.75c0,0,0.08,0,0.07,0.08
			c-0.17,0.95-0.69,1.88-1.66,1.87s-1.34-0.96-1.34-1.96C351.93,205.25,352.17,205.01,352.32,205.13z"/>
		<path class="st3" d="M337.71,216.61c0.25,0.47,0.47,1.05,1,1.34c0.57,0.16,1.17,0.19,1.75,0.09 M340.46,218.14
			c-0.62,0.47-1.45,0.56-2.16,0.25c-0.58-0.35-0.9-1.02-0.8-1.7c-0.03-0.06,0-0.13,0.06-0.15c0.06-0.03,0.13,0,0.15,0.06
			L340.46,218.14z"/>
		<path class="st3" d="M345.43,212.56c0,0-0.21,2.36-0.47,3.45c0,0.11-0.31,0.09-0.68,0l0,0c-1.97-0.09-3.73-1.29-4.54-3.08
			c-0.03-0.05-0.01-0.12,0.04-0.15c0.05-0.03,0.12-0.01,0.15,0.04c1.16,1.26,2.7,2.12,4.39,2.44c0.15-0.29,0.24-4.01,0.41-4.01
			c0.82,0.27,1.61,0.65,2.32,1.14c0.6-4.93,0.4-9.91,1.08-14.8c0-0.08,0.07-0.15,0.15-0.15c0.08,0,0.15,0.07,0.15,0.15
			c0.37,5.34,0.21,10.71-0.48,16.02C347.92,214.18,345.81,212.84,345.43,212.56z"/>
		<path class="st3" d="M317.02,201.76c2.51,0.27,10.13-5.47,12.36-17.44c0,0-2.75,10.6-3.82,12.02c-1.07,1.42,4.26-3.23,6.2-12.86
			c2.67,2.7,5.72,5,9.05,6.82c4.35,2.06,7.16,2.48,7.54,2.22c0.39-0.27-5.98-3.54-7.45-5.94c0,0,11.2,7.7,16.73,9.08
			c0.64,0.16,3.66-13.03-4.01-20.15c-7.66-7.12-22.46-3.34-26.71-0.4c0,0-4.43-0.11-10.23,5.5
			C310.91,186.22,314.33,201.47,317.02,201.76z"/>
		<path class="st6" d="M334.93,210.6c-3.8-1.32-5.8-5.47-4.48-9.27c1.32-3.8,5.47-5.8,9.27-4.48c3.15,1.1,5.15,4.2,4.86,7.52l0,0
			c-0.35,4-3.88,6.95-7.88,6.6c0,0,0,0,0,0C336.09,210.93,335.5,210.8,334.93,210.6z M339.42,197.79c-0.49-0.18-1.01-0.29-1.54-0.33
			c-3.47-0.31-6.54,2.25-6.85,5.73c-0.31,3.47,2.25,6.54,5.73,6.85c3.47,0.31,6.54-2.25,6.85-5.73
			C343.87,201.44,342.14,198.75,339.42,197.79z"/>
		<path class="st6" d="M351.23,214.15c-2.67-0.92-4.01-4.45-3.24-8.15c0.38-1.78,1.31-3.4,2.67-4.62c1.72-1.81,4.57-1.88,6.38-0.16
			c0.54,0.51,0.94,1.15,1.18,1.86c0.7,1.69,0.84,3.56,0.4,5.34c-0.88,3.91-4.01,6.57-6.88,5.92
			C351.57,214.29,351.4,214.23,351.23,214.15z M355,201.12l-0.35-0.11c-1.24-0.22-2.51,0.18-3.41,1.07
			c-1.18,1.1-1.99,2.53-2.31,4.11c-0.76,3.39,0.56,6.58,2.96,7.12c2.4,0.53,4.95-1.79,5.72-5.18c0.37-1.56,0.26-3.21-0.33-4.7
			C356.88,202.37,356.05,201.53,355,201.12z"/>
		<path class="st6" d="M344.16,205.13l-0.45-0.87c1.34-0.65,4.01-1.34,5.34,0.92l-0.83,0.49
			C347.04,203.68,344.26,205.13,344.16,205.13z"/>
		<path class="st6" d="M312.12,199.89l-0.75-0.63c0.29-0.35,2.91-3.39,5.1-3.26c2.19,0.13,14.5,4.17,15.04,4.34l-0.31,0.92
			c-3.57-1.16-13.19-4.19-14.78-4.29C314.83,196.89,312.83,199.05,312.12,199.89z"/>
		<path class="st13" d="M313.94,208.01c0.29,0.23,0.61,0.42,0.95,0.57c0.33,0.16,0.68,0.27,1.04,0.33c0.44,0.1,0.9,0.1,1.34,0
			c0.36-0.08,0.71-0.21,1.03-0.4c0.46-0.25,0.87-0.59,1.22-0.99l0.55-6.3c0,0-2.79-8.39-6.45-7.58
			C309.95,194.44,310.65,205.54,313.94,208.01z"/>
		<path class="st3" d="M313.94,196.79c0,0-0.09,0,0,0.09c2.28,1.82,2.92,4.63,3.14,7.4c-0.28-1.16-1.45-1.87-2.61-1.59
			c-0.11,0.03-0.22,0.06-0.32,0.11c-0.08,0,0,0.15,0,0.16c1.02-0.02,1.95,0.6,2.31,1.56c0.28,0.78,0.48,1.59,0.6,2.42
			c0,0.27,0.51,0.27,0.49,0v-0.07C318.55,203.56,317.38,198.18,313.94,196.79z"/>
		<path class="st5" d="M314.54,207.17c-0.06,0.59,0.38,1.11,0.97,1.17c0.59,0.06,1.11-0.38,1.17-0.97c0.06-0.59-0.38-1.11-0.97-1.17
			C315.12,206.14,314.6,206.58,314.54,207.17z"/>
		<path class="st5" d="M312.87,204.98c-0.04,0.42,0.27,0.79,0.69,0.83c0,0,0,0,0.01,0c0.41,0.04,0.78-0.26,0.81-0.68c0,0,0,0,0-0.01
			c0.05-0.41-0.25-0.78-0.66-0.83c-0.01,0-0.01,0-0.02,0C313.28,204.26,312.91,204.56,312.87,204.98z"/>
		<polygon class="st6" points="326.76,193.78 321.36,187.94 319.93,189.49 325.93,194.63 		"/>
		<polygon class="st6" points="325.5,195.38 319.16,190.58 318.02,192.37 324.85,196.37 		"/>
		<path class="st13" d="M297.18,236.58c-9.55,8.96-38.64,44.15-38.6,54.21c0.08,15.34,53.75,35.69,62.16,40.77
			c3.58,2.18,16.2-35.12,12.42-37.51c-3.3-2.08-39.57-11.07-39.48-12.73c0-1.34,7.89-18.69,13.79-39.86
			C312.08,224.91,302.15,231.91,297.18,236.58z"/>
		<path class="st13" d="M346.15,307.08c-1.68-1.75-0.77-2.67,3.51-2.04c4.29,0.63,20.7,6.68,22.31,0.73
			c1.62-5.94-21.67-14.09-28.87-14.54s-19.03,1.34-19.03,1.34C328.29,295.03,337.93,302.07,346.15,307.08z"/>
		<path class="st3" d="M352.2,305.58c2.36,0.33,4.7,0.77,7.01,1.34c2.29,0.57,4.61,1.02,6.94,1.34c1.12,0.15,2.25,0.07,3.34-0.24
			c1-0.34,1.74-1.19,1.95-2.23c0.06-1.06-0.36-2.09-1.15-2.8c-0.8-0.84-1.7-1.59-2.67-2.22c-1.95-1.31-3.99-2.47-6.12-3.47
			c-2.13-1.01-4.31-1.9-6.53-2.67c-2.23-0.78-4.49-1.5-6.77-2.14c-2.25-0.74-4.59-1.19-6.96-1.34c2.39-0.06,4.77,0.23,7.08,0.85
			c2.32,0.53,4.62,1.16,6.89,1.87c2.29,0.73,4.52,1.63,6.68,2.67c2.2,0.95,4.32,2.09,6.33,3.39c1.02,0.69,1.95,1.5,2.78,2.4
			c0.98,0.93,1.47,2.26,1.34,3.61c-0.29,1.34-1.27,2.43-2.56,2.87c-1.21,0.34-2.48,0.39-3.71,0.17
			C361.28,308.26,356.87,306.5,352.2,305.58z"/>
		<rect x="316.66" y="329.35" class="st2" width="88.93" height="3.99"/>
		<polygon class="st12" points="352.48,329.35 349.43,333.34 422.38,333.34 422.38,329.35 		"/>
		<polygon class="st2" points="356.27,333.34 442.94,333.34 450.17,274.47 363.49,274.47 		"/>
		<path class="st5" d="M397.94,303.94c-0.1,2.84,2.12,5.23,4.96,5.34c0.07,0,0.14,0,0.22,0c2.95,0,5.34-2.39,5.34-5.34
			c0.06-2.85-2.21-5.21-5.06-5.27c-0.04,0-0.08,0-0.12,0C400.36,298.66,397.98,301.01,397.94,303.94z"/>
		<path class="st13" d="M309.2,325.4c12.36,8.35,26.83,15.57,42.4,15.05c1.73-0.01,3.41-0.6,4.77-1.68
			c6.98-0.11,9.03-3.45,9.03-3.45c6.48-2.08,8.11-5.78,8.11-5.78s8.2-0.21,8.89-5.19c0.79-5.58-10.88-4.18-17.77-7.34
			c-15.77-7.24-36.17-21.93-40.53-24.46L309.2,325.4z"/>
		<path class="st3" d="M342.74,321.04c4.59,2.18,9.32,4.05,14.17,5.59c5.41,1.35,10.9,2.28,16.45,2.8c0.07,0,0.13,0.06,0.13,0.13
			s-0.06,0.13-0.13,0.13c-10.81,0.06-21.44-2.84-30.71-8.4C342.43,321.12,342.5,320.94,342.74,321.04z"/>
		<path class="st3" d="M336.99,329.92c4.67,1.74,12.9,4.71,28.4,5.23v0.09c-9.78,0.97-19.64-0.79-28.48-5.1
			C336.63,330.02,336.68,329.82,336.99,329.92z"/>
		<path class="st3" d="M334,334.76c8.01,2.67,13.46,3.28,22.31,4.01c0,0,0.07,0.09,0,0.09c-10.16,0.28-13.87-0.76-22.46-3.79
			C333.57,334.92,333.67,334.65,334,334.76z"/>
		<path class="st6" d="M270.37,262.34l32.73,3.58c0,0,5.69-15.54,7.61-24.6c2.55-12.02-1.34-15.72-13.35-6.68
			C289.36,240.6,270.37,262.34,270.37,262.34z"/>
		<path class="st6" d="M270.37,262.34l32.73,3.58c0,0,5.69-15.54,7.61-24.6c2.55-12.02-1.34-15.72-13.35-6.68
			C289.36,240.6,270.37,262.34,270.37,262.34z"/>
		<path class="st5" d="M296.13,247.85c0,1.35-1.09,2.44-2.44,2.44c-1.35,0-2.44-1.09-2.44-2.44c0-1.35,1.09-2.44,2.44-2.44
			c1.34-0.01,2.44,1.07,2.44,2.42C296.13,247.84,296.13,247.85,296.13,247.85z"/>
		<path class="st3" d="M299.1,265.49c0.36,0,3.74,0.23,4.01,0.32c0.61-1.84,1.22-3.7,1.86-5.54c0.32-0.92,0.65-1.83,1-2.74
			c0.35-0.91,0.77-2.16,1.12-3.04c0-0.13,0.23-0.08,0.19,0c-0.32,1.2-0.6,2.08-0.89,3.11c-0.29,1.03-0.55,1.84-0.84,2.75
			c-0.64,1.92-1.24,4.01-1.98,5.89c-1.5-0.13-2.98-0.36-4.45-0.68C299.12,265.56,299.05,265.49,299.1,265.49z"/>
		<path class="st3" d="M275.42,258.54c4.62,0.19,9.21,0.44,13.82,0.89c2.28,0.23,4.58,0.48,6.86,0.77c2.28,0.29,4.54,0.83,6.82,1.09
			c0.12,0,0.09,0.21,0,0.19c-2.27-0.37-4.61-0.45-6.89-0.71c-2.28-0.25-4.58-0.51-6.88-0.75c-4.58-0.47-9.16-0.93-13.74-1.34
			C275.26,258.72,275.3,258.54,275.42,258.54z"/>
		<path class="st3" d="M290.05,241.54c0.08-0.09,0-0.23-0.13-0.15c-1.51,1.34-2.98,2.67-4.45,4.01c0.41-0.64,0.88-1.24,1.42-1.78
			l0,0c-0.76,0.72-1.43,1.52-2.02,2.39c-1.91,1.78-3.78,3.59-5.59,5.42c-3.38,3.38-6.54,6.99-9.44,10.79
			c-0.1,0.17-0.03,0.39,0.14,0.49c0.04,0.02,0.09,0.04,0.14,0.04c1.55,0.16,3.18,0.27,4.7,0.57c0.07,0,0.12-0.05,0.12-0.12
			c0-0.07-0.05-0.12-0.12-0.12c0,0,0,0,0,0c-1.37-0.22-2.73-0.51-4.07-0.88c3.15-3.32,6.12-6.84,9.27-10.19
			C283.16,248.67,286.62,244.9,290.05,241.54z"/>
		<path class="st13" d="M448.82,284.42c3.27,5.05,11.34,10.94,12.45,15.26c0.64,2.17-0.22,4.5-2.11,5.74c0,0,4.67,1.6,5.03,5.7
			c0.17,2.1-3.02,4.25-3.02,4.25s3.69,1.46,3.78,5.11c0.08,2.91-3.14,4.62-3.14,4.62s2.88,3.04,2.02,6.04
			c-1.78,6.08-26.59,9.35-31.63,0.72c-2.35-4.01,3.75-4.5,3.75-4.5s-8.93-1.44-9.75-6.54c-0.81-5.1,7.17-5.22,7.17-5.22
			s-8.65-1.48-8.96-6.85c-0.32-5.58,7.68-4.35,7.68-4.35s-6.01-3.02-5.34-7.18c1.16-6.86,15.32,0.44,20.6-1.58L448.82,284.42z"/>
		<path class="st3" d="M461.34,325.45c0.08,0,0.12,0.09,0,0.12c-8.2,3.22-17.18,3.87-25.76,1.86c-0.28,0-0.28-0.53,0-0.52
			C444.2,327.67,452.87,327.18,461.34,325.45z"/>
		<path class="st3" d="M461.29,315.41c0.09,0,0.13,0.13,0,0.17c-8.16,3.11-19.01,3.89-28.23,0.27c-0.32-0.12-0.48-0.55-0.11-0.43
			C439.31,317.36,453.41,317.14,461.29,315.41z"/>
		<path class="st3" d="M431.5,303.94c8.96,3.12,18.03,3.06,27.32,1.66c0.12,0,0.13,0.15,0,0.19c-4.37,1.94-10.39,2.22-15.09,2.03
			c-4.37-0.09-8.64-1.31-12.39-3.55C431.23,304.14,431.3,303.84,431.5,303.94z"/>
	</g>
	<g id="freepik--Plant--inject-61">
		<path class="st6" d="M751.8,460.92c-1.4,5.12-2.32,10.36-2.76,15.65c0.15,0.25,0.12,1.23,0,0.96c0,0.85-1.34,0.69-1.34-0.15
			c0-0.55,0-1.11,0-1.64c-3.06-3.79-7.49-6.2-11.08-9.49c-2.89-2.59-4.99-5.94-6.08-9.67c-2.98-10.24-0.19-21.11-3.77-31.34
			c-3.08-8.81-8.61-16.48-13.35-24.46c-4.94-8.45-8.59-17.36-8.95-27.23c-0.29-7.57,0.61-17.67,6.38-23.34
			c6.12-6.04,13.7-1.52,18.39,3.86c13.65,15.58,19.92,35.33,22.47,55.36c1.34,11.15,2.84,22.35,2.51,33.61
			C754.02,449.06,753.2,455.05,751.8,460.92z"/>
		<path class="st3" d="M749.1,480.65c0.74-10.52,0.61-21.08-0.37-31.58c0,0,0,0,0-0.11c0.16-8.53,0.84-17.04,0.51-25.58
			c-0.41-9.24-1.67-18.43-3.75-27.44c-0.02-0.05-0.07-0.07-0.12-0.05c-0.02,0.01-0.04,0.03-0.05,0.05
			c1.67,8.86,2.66,17.83,2.98,26.84c0.17,4.82,0.13,9.65-0.12,14.46c-0.08,1.56-0.23,3.15-0.33,4.73l0,0
			c-3.54-23.96-12.2-46.88-25.37-67.21c-0.17-0.27-0.67,0-0.49,0.31c9.42,15.45,16.39,32.26,20.67,49.83
			c-6.53-12.1-16.4-22.05-23.71-33.68c0-0.07-0.15,0-0.11,0.07c6.57,12.94,17.44,23.15,24.36,35.91c1.2,5.19,2.19,10.44,2.91,15.72
			c0.98,7.24,1.51,14.53,1.58,21.83c-4.01-7.42-8.11-14.54-11.35-22.41c-0.09-0.21-0.39-0.07-0.32,0.15
			c2.76,8.17,6.49,16.96,11.7,23.93c0,5.17-0.12,10.35-0.43,15.5c-0.81,13.79-3.16,27.39-4.26,41.13c0.04,0.17,0.21,0.28,0.38,0.25
			c0.13-0.03,0.22-0.12,0.25-0.25C746.41,509.06,748.24,494.89,749.1,480.65z"/>
		<path class="st3" d="M734.45,374.33c0-0.09-0.19,0-0.15,0.08c2.51,6.96,3.94,14.01,5.76,21.15c0.05,0.14,0.2,0.22,0.34,0.17
			c0.11-0.04,0.19-0.15,0.18-0.26C739.85,388.24,737.26,381.01,734.45,374.33z"/>
		<path class="st6" d="M798.4,409.57c-1.69,4.07-3.64,8.04-5.82,11.87c-4.54,8.24-9.27,15.77-10.12,25.37
			c-0.39,4.29-0.52,8.59-1.82,12.71c-1.2,3.55-2.91,6.9-5.07,9.95c-4.91,7.16-11.06,13.35-15.61,20.75
			c-4.74,7.75-8.23,16.18-10.36,25.01c-0.12,0.48-0.88,0.36-0.76-0.12c0,0,0-0.08,0-0.12c-0.01-0.03-0.01-0.06,0-0.09
			c-0.72-20.56,0.92-41.27,7.2-60.97c2.77-8.66,6.1-17.14,9.96-25.37c3.35-7.14,7.54-14.01,13.45-19.35
			c3.82-3.45,12.12-9.97,17.57-6.52C799.62,404.38,799.43,407.01,798.4,409.57z"/>
		<path class="st3" d="M777.73,456.16c-3.62,5.96-7.61,11.7-11.94,17.17c-1.99,2.6-4.01,5.18-6,7.78c-0.95,1.23-1.99,2.44-2.86,3.77
			c0.55-2.16,1.07-4.33,1.63-6.49c2.67-10.38,5.19-20.86,9.15-30.85c4.04-9.69,8.82-19.07,14.27-28.04c0.13-0.23-0.24-0.4-0.39-0.17
			c-4.34,7.14-8.75,14.27-12.4,21.81c-2.02,4.2-3.77,8.52-5.26,12.94c1.67-9.37,4.01-18.61,7.01-27.64c0-0.08-0.09-0.15-0.12-0.07
			c-3.92,9.15-6.38,18.85-7.28,28.76l0,0c-0.89,2.67-1.71,5.34-2.47,8.08c-3.24,11.5-6.09,23.11-8.72,34.78
			c-0.05-7.66,0.61-15.32,1.98-22.86c0-0.17-0.23-0.21-0.27,0c-2.01,7.87-2.68,16.01-1.99,24.1c-0.99,4.45-1.96,8.9-2.91,13.35
			c-2.02,9.48-4.5,19.12-5.69,28.75c0,0.11,0.09,0.2,0.21,0.2c0.08,0,0.15-0.05,0.18-0.13c1.4-5.19,2.26-10.56,3.42-15.82
			c1.16-5.26,2.34-10.52,3.57-15.77c1.78-7.65,3.64-15.28,5.57-22.9c1.27-2.79,3.73-5.27,5.58-7.61c2.02-2.58,4.01-5.15,6.01-7.76
			c3.69-4.83,7-9.94,9.88-15.29C777.98,456.16,777.8,456.07,777.73,456.16z"/>
		<path class="st3" d="M778.61,447.39c-4.52,5.77-8.44,12-11.68,18.57c0,0.08,0.08,0.17,0.13,0.09c3.94-6.17,7.8-12.39,11.74-18.56
			C778.86,447.39,778.69,447.28,778.61,447.39z"/>
		<path class="st6" d="M686.72,433.69c2.84,4.49,6.1,9.87,5.17,15.42c-0.59,3.51-3.03,6.44-3.35,10.01
			c-0.72,7.88,7.29,12.77,13.1,16.25c14.46,8.71,34.13,16.21,37.39,35.01c0.12,0.65,1.27,0.45,1.16-0.2c0.01-0.04,0.01-0.09,0-0.13
			c0,0,0.08,0,0.07-0.11c1.5-9.61,1.04-19.42-1.34-28.86c-2.48-9.65-7.08-18.25-12.43-26.61c-9.05-14.15-18.61-28.63-31.89-39.22
			c-3.67-2.94-11.16-8.17-13.71-1.14C678.33,421.16,683.24,428.23,686.72,433.69z"/>
		<path class="st3" d="M700.82,463.89c9.75,9.76,24.84,14.86,33.38,25.89c-5.17-17.1-14.31-32.74-26.67-45.64
			c-0.32-0.33,0.15-0.85,0.49-0.53c8.92,8.03,16.18,17.74,21.36,28.56c-2.52-7.6-5.73-14.96-9.59-21.98
			c-0.15-0.27,0.24-0.52,0.4-0.25c4.74,7.64,8.25,15.98,10.39,24.72c11.6,25.26,13.75,55.35,12.58,82.5c0,0.39-0.6,0.43-0.6,0
			c-0.23-21.36-1.42-43.04-7.33-63.67c-0.13-0.44-0.27-0.85-0.39-1.34c-9.24-11.86-24.26-16.95-34.22-28.16
			C700.58,463.96,700.71,463.79,700.82,463.89z"/>
		<path class="st3" d="M698.32,455.28c5.09,4.31,10.09,8.73,15.18,13.05c0,0,0,0.13,0,0.09c-5.71-3.54-10.89-7.85-15.4-12.83
			c-0.05-0.11-0.01-0.23,0.1-0.29C698.24,455.28,698.28,455.28,698.32,455.28z"/>
		<path class="st3" d="M696.78,435.8c4.62,6.95,9.79,13.52,15.48,19.63c0,0.08,0,0.21-0.12,0.13c-6.32-5.56-11.61-12.2-15.61-19.6
			c-0.04-0.07-0.02-0.16,0.05-0.21C696.65,435.71,696.74,435.73,696.78,435.8z"/>
		<polygon class="st8" points="723.2,573.74 766.23,573.74 760.42,515.84 729.82,515.84 		"/>
		<polygon class="st3" points="728.74,525.25 761.37,525.25 760.44,515.84 729.82,515.84 		"/>
		<rect x="724.54" y="509.43" class="st8" width="40.34" height="9.24"/>
	</g>
</g>
</svg>
