<?xml version="1.0" encoding="UTF-8"?>
<svg xmlns="http://www.w3.org/2000/svg" xmlns:xlink="http://www.w3.org/1999/xlink" version="1.2" id="Layer_1" viewBox="0 0 512 512" style="enable-background:new 0 0 512 512;" xml:space="preserve" baseProfile="tiny-ps">
<style>
	.st0{fill:#C9F500;}
	.st1{fill:#1E1E1E;}
</style>
<path class="st0" d="M0,0h512v512H0V0z"/>
<g>
	<path class="st1" d="M125.3,246.9L125.3,246.9C125.3,246.9,125.3,246.9,125.3,246.9L125.3,246.9L125.3,246.9z"/>
	<path class="st1" d="M439.8,133.2c-0.1,0-4.4,0-10.2,0c-12.3,0-31.4,0-31.4,0c-11.2,17.4-136.3,213.5-138,216.1c0,0,0,29.1,0,29.4   c0.1,0,39.2,0,41.3,0c0.1,0,19.4-30.1,30.5-47.5c2.2-3.5,4.3-7,6.5-10.5l0,0c1-1.6,2.1-3.2,3.1-4.8c9.8-15.4,19.6-30.7,29.5-46.1   c3.4-5.4,6.8-10.7,10.3-16.1l4.9-7.6l2.2-3.4c7.3-11.4,14.5-22.7,21.8-34.1c8.1-12.6,16.1-25.3,24.2-37.9c0.1-0.2,0.2-0.4,0.3-0.5   c1.7-2.6,3.3-5.2,5-7.9C439.8,162.4,439.9,133.5,439.8,133.2L439.8,133.2z"/>
	<g>
		<path class="st1" d="M345.5,133.2c-0.1,0-41.5,0-41.5,0c-10.4,16.2-17.9,27.9-27.9,43.5l-5.3,8.1c-0.3,0.8-5.7,9.1-6.7,10.7    c-9.8,15.4-19.6,30.7-29.5,46.1c-5.8,9-11.5,18.1-17.3,27.1c-7.3,11.4-14.4,22.7-21.6,34.1c-8.1,12.6-16.3,25.3-24.4,37.9    c-0.1,0.2-0.2,0.4-0.3,0.5c-1.7,2.6-3.3,5.6-5,8.2c0,0-0.1,29,0,29.3c0.1,0,40.3,0,41.3,0c1-1.7,80.4-126.2,81.1-127.3    c0,0,0.1,0,0.1,0c1.5-2.3,3-4.6,4.4-6.9c0.4-0.6,0.8-1.3,1.3-2c7.3-11.4,14.5-22.7,21.8-34.1c8.1-12.6,16.1-25.3,24.2-37.9    c0.1-0.2,0.2-0.4,0.3-0.5c1.7-2.6,3.3-5.2,5-7.9C345.5,162.2,345.6,133.5,345.5,133.2L345.5,133.2z"/>
		<path class="st1" d="M251.5,133.2c-0.1,0-4.4,0-10.2,0c-12.3,0-31.4,0-31.4,0c0,0-0.1,0.1-0.1,0.1    C224.4,133.2,239.3,133.2,251.5,133.2C251.5,133.2,251.5,133.2,251.5,133.2L251.5,133.2z"/>
		<path class="st1" d="M113.4,378.7c0.1,0,19.4-30.1,30.5-47.5c2.2-3.5,4.3-7,6.5-10.5l0,0c1-1.6,2.1-3.2,3.1-4.8    c9.8-15.4,19.6-30.7,29.5-46.1c3.4-5.4,6.8-10.7,10.3-16.1l0.2-0.3C184.8,267,123.5,362.3,113.4,378.7L113.4,378.7L113.4,378.7z"/>
		<path class="st1" d="M251.5,133.2c-12.2,0-27.2,0-41.6,0.1c-14,0-41.5,0.1-51.7,0.1c-1.5,0-2.9,0-4.4,0.1    c-4.2,0.3-6.5,2.5-7.1,6.5c-0.1,0.7-0.1,1.5-0.1,2.2c0,3.4,0,6.9,0,10.3c0,7.7-0.1,13.9,0,20.8c0.1,5.2,2.4,8.1,7.3,8.4    c2.4,0.1,18.8,0.1,21.2,0.2c0,0,1.3,0,3.5,0C138.2,245.5,73.2,347.4,72,349.3c0,0,0,0.1,0,0.2c2.2-3.4,21.5-33.7,29.4-46.2    c7.1-11.1,14.1-22.1,21.2-33.2l1.7-2.6l5.2-8.1c3.7-5.8,7.4-11.5,11-17.3c9.8-15.4,19.6-30.7,29.5-46.1c0.8-1.3,1.6-2.5,2.4-3.8    c-23,36-98.6,154.4-100.4,157.2c0,0-0.1,0.1-0.1,0.1c0,0-0.1,28.9,0,29.2c0.1,0,39.2,0,41.3,0c0,0,0.1-0.1,0.1-0.1    c10.2-16.4,133.1-208.3,133.2-208.4c1.7-2.6,3.3-5.2,5-7.9C251.5,162.4,251.6,134.5,251.5,133.2L251.5,133.2z"/>
	</g>
	<path class="st1" d="M113,246.9c-0.1-2-0.2-4.1-0.2-6.1c0-24.4,0-48.7,0.1-73h0c0-3.3,0-6.6,0-9.8c0-0.9,0-1.7,0-2.6   c0-0.4-0.4-0.9-0.8-1.2c-6.6-6.7-13.3-13.3-20-19.9c-0.4-0.4-2-0.9-2.2-0.9c-5-0.1-10.1,0-15.1,0c-0.9,0-1.7,0-2.7,0   c0,2.6,0,113.7,0,113.7l0,17.8h29.5L113,246.9C113,246.9,113,246.9,113,246.9L113,246.9z"/>
	<path class="st1" d="M440.1,247.9h-29.9l-11.3,17.6l0,0l0,0c0,2.1,0,4.2,0,6.4c0,29.2,0,58.4-0.1,87.6c0,3.2-0.1,6.5,0,9.7   c0,3.1,0,6.2,0,9.4c0.5,0,0.8,0.1,1.1,0.1c5.1,0,10.3,0,15.4,0c0.5,0,1,0,1.5,0c0.7,0,1.6-0.5,2.1-1c5.2-5.2,10.5-10.4,15.6-15.6   c1.7-1.7,4.1-3.2,4.9-5.2c0.1-0.3,0.2-0.7,0.3-1.1c0-3.9,0.1-63.6,0.1-67.5C439.9,269.3,440.1,247.9,440.1,247.9L440.1,247.9z"/>
	<polygon class="st1" points="257.4,169.4 278.2,169.4 270.1,181.9 249.4,181.9  "/>
	<polygon class="st1" points="238.1,187.6 258.8,187.6 250.8,200.1 230.1,200.1  "/>
	<polygon class="st1" points="352,169.4 372.7,169.4 364.7,181.9 343.9,181.9  "/>
	<polygon class="st1" points="332,187.6 352.7,187.6 344.7,200.1 324,200.1  "/>
</g>
<title>mixviberecords</title></svg>
