<?xml version="1.0" encoding="UTF-8"?><svg id="Layer_1" xmlns="http://www.w3.org/2000/svg" viewBox="0 0 1645.69 863.93"><g><path d="M1152.61,276.75h-123.05c3.19-3.32,5.24-5.52,7.34-7.63,41.12-41.43,82.2-82.91,123.46-124.21,4.31-4.32,6.3-8.73,6.24-14.87-.26-26.24-.11-52.49-.11-78.73,0-13,.06-26-.03-39-.04-5.97-2.65-9.75-7.4-11.47-2.39-.86-4.86-.53-7.29-.54-39.03-.02-78.06,.15-117.09-.17-6.77-.06-13.27,2.61-18.04,7.43-38.33,38.68-76.9,77.12-115.5,115.53-2.03,2.02-3.75,5.61-7.09,5.25-.24-25.67-.1-51.35-.1-77.03,0-13,.06-26-.03-39-.04-5.97-2.65-9.75-7.4-11.47-2.39-.86-4.86-.53-7.29-.54-39.03-.02-78.06,.15-117.09-.17-6.77-.06-13.27,2.61-18.04,7.43-38.33,38.68-76.9,77.12-115.5,115.53-2.25,2.24-4.12,6.44-8.24,5-4.65-1.63-3.08-6.16-3.09-9.62-.08-35.56-.03-71.13-.06-106.69,0-6.48-5.25-11.75-11.73-11.77-15.4-.05-30.79,0-46.19-.01-6.25,0-12.52,.56-18.6,2.02-35.88,8.6-61.07,39.54-61.93,76.19-.37,15.93-.16,31.88-.13,47.83,.01,9.91,2.64,12.44,12.75,12.45,35.33,.01,70.65,0,105.98,0,1.96,0,3.95-.16,5.88,.1,4.15,.57,5.41,3.46,2.93,6.74-1.17,1.55-2.71,2.83-4.1,4.22-39.03,39.02-78.01,78.1-117.17,116.99-4.31,4.28-6.33,8.58-6.29,14.78,.25,40.22,.3,80.45,0,120.67-.07,9.82,2.87,13.63,13.23,13.54,39-.34,78.01-.16,117.02-.16,6.89,0,8.33,1.45,8.34-8.7,.04-85.11,.02-170.22,.03-255.33,0-10.03,2.6-12.62,12.56-12.63,37.78-.02,75.56,0,113.34,0,.98,0,1.97-.05,2.94,.01,5.96,.35,9,3.25,9.38,9.06,.13,1.95,.03,3.92,.03,5.89,0,41.29,0,82.2-.04,122.8v93.91c0,.65,0,1.31,0,1.96,0,.73,0,1.46,0,2.19v41.08h124.59c8.03,0,14.55-6.51,14.55-14.55v-110.04c0-8.03-6.51-14.55-14.55-14.55h-122.75c3.03-3.16,5.04-5.31,7.08-7.36,29.94-29.37,58.82-59.8,88.67-89.26,9.92-9.79,19.97-19.6,29.39-29.87,5.07-5.26,8.53-9.7,16.31-10.62,11.9-1.4,23.78-.6,35.72-.6,26.65,0,53.3-.07,79.95-.07h1.27c.98,0,1.97-.05,2.94,.01,5.96,.35,9,3.25,9.38,9.06,.13,1.95,.03,3.92,.03,5.89,0,41.02,0,82.05,0,123.07v139.14h124.59c8.03,0,14.55-6.51,14.55-14.55v-110.04c0-8.03-6.51-14.55-14.55-14.55Z" fill="#e81840"/><path d="M575.52,46.83c-6.73-6.88-15.6-10.74-24.96-10.87-.16,0-.32,0-.49,0-9.3,0-18.14,3.69-24.89,10.38-6.76,6.7-10.53,15.54-10.61,24.89-.09,10.07,3.46,19.27,10.01,25.89,6.51,6.58,15.57,10.21,25.53,10.22h.06c9.64,0,18.65-3.65,25.39-10.27,6.72-6.61,10.42-15.44,10.42-24.88,0-9.46-3.71-18.46-10.46-25.35Zm-25.09,49.63c-.12,0-.24,0-.35,0-13.28,0-24.25-10.82-24.45-24.12-.1-6.58,2.37-12.79,6.95-17.48,4.55-4.66,10.63-7.25,17.13-7.31h.23c13.64,0,24.37,10.57,24.43,24.07,.06,13.96-10.23,24.64-23.94,24.84Z" fill="#fff"/><path d="M1112.17,39.35c-.3,0-.6,0-.9,0-6.43,0-12.86,.01-19.29-.01-.69,0-1.19,.18-1.68,.68-1.81,1.86-3.67,3.66-5.48,5.52-.41,.42-.81,.59-1.39,.59-12.5-.01-25.01-.02-37.51,0-.79,0-1.02-.18-1.02-1,.03-6.93,.03-13.86,0-20.78,0-.73,.17-.96,.93-.96,27.25,.02,54.49,.02,81.74,0,.62,0,1.06,.17,1.5,.61,4.91,4.94,9.83,9.86,14.77,14.77,.44,.43,.63,.87,.63,1.49-.01,27.28-.01,54.57,0,81.85,0,.66-.16,.82-.82,.81-7-.03-14-.02-20.99,0-.66,0-.9-.12-.9-.86,.03-12.58,.02-25.15,0-37.73,0-.6,.21-.98,.62-1.38,1.87-1.84,3.73-3.71,5.59-5.56,.3-.3,.56-.57,.56-1.07-.02-6.82-.01-13.64-.02-20.46,0-.05-.07-.11-.19-.3-.93,.95-1.83,1.89-2.74,2.81-21.29,21.29-42.58,42.58-63.85,63.89-.61,.61-.9,.55-1.47-.03-4.87-4.92-9.78-9.81-14.69-14.68-.52-.51-.55-.77-.01-1.31,17.99-17.97,35.96-35.96,53.93-53.94,4.09-4.09,8.18-8.19,12.27-12.29,.16-.16,.44-.26,.4-.68Z" fill="#fff"/></g><g><path d="M4.12,857.58c38.28-59.91,58.71-91.5,61.12-94.59h27.47l47.38,75.71c10.13,16.31,15.28,24.72,15.28,25.24h-27.12c-14.59-22.83-30.9-49.1-49.27-78.97h-.17c-19.06,29.53-28.84,44.63-29.36,45.15-13.39,21.29-20.77,32.62-21.97,33.82H0c0-.52,1.37-2.58,4.12-6.35Z" fill="#e5e5e5"/><path d="M338.51,762.99c.34,0,.51,.17,.51,.52v65.58c0,7.73,4.46,11.5,13.22,11.5h52.36c6.52,0,10.47-1.89,12.02-5.84,.86-1.37,1.2-3.78,1.2-7.21v-64.03c0-.34,.17-.52,.51-.52h22.32c.34,0,.52,.17,.52,.52v68.5c0,9.44-4.64,18.03-13.73,25.58-6.18,4.29-12.19,6.35-18.2,6.35h-61.29c-10.81,0-19.91-5.15-27.3-15.45-3.61-5.15-5.32-12.02-5.32-20.77v-64.21c.17-.34,.34-.52,.51-.52h22.66Z" fill="#e5e5e5"/><path d="M691.19,762.99c17.85,0,32.1,7.9,42.92,23.86,4.98,8.41,7.38,16.65,7.38,24.72v2.75c0,13.56-5.84,25.75-17.51,36.57-9.44,8.07-20.6,12.02-33.65,12.02h-73.65c-.34,0-.51-.17-.51-.51v-98.88c.17-.34,.34-.52,.51-.52h74.51Zm-51.67,76.22h52.7c8.07,0,14.94-3.6,20.77-10.99,3.26-4.46,4.81-9.27,4.81-14.42v-1.72c0-10.47-5.66-18.54-16.99-23.86-2.92-1.03-5.67-1.54-8.24-1.54h-53.05v52.53Z" fill="#e5e5e5"/><path d="M990.64,762.99c.34,0,.52,.17,.52,.52v98.88c0,.34-.17,.51-.52,.51h-22.49c-.34,0-.51-.17-.51-.51v-98.88c0-.34,.17-.52,.51-.52h22.49Z" fill="#e5e5e5"/><path d="M1306.5,762.99c17,0,31.07,7.9,42.23,23.69,4.98,8.93,7.55,17.51,7.55,25.92,0,15.62-6.52,29.01-19.57,39.83-8.93,7.04-19.4,10.47-31.42,10.47h-50.64c-20.6,0-36.05-9.78-46.35-29.18-3.09-7.55-4.63-14.42-4.63-20.77,0-15.97,7.21-29.7,21.46-41.03,9.27-6.01,18.71-8.93,28.33-8.93h53.05Zm-63.35,74.16c3.26,1.37,6.7,2.06,10.3,2.06h53.05c10.13,0,18.03-4.98,23.52-14.94,1.72-3.6,2.58-7.38,2.58-11.33,0-10.82-5.49-18.89-16.31-24.38-3.26-1.2-6.35-1.89-9.1-1.89h-54.42c-8.76,0-15.97,4.29-21.63,12.87-2.58,4.64-3.78,9.1-3.78,13.39,0,10.47,5.32,18.54,15.79,24.21Z" fill="#e5e5e5"/><path d="M1546.98,762.99l74.85,74.51v-73.99c.17-.34,.34-.52,.69-.52h22.32c.34,0,.52,.17,.52,.52v99.91c0,.34-.17,.52-.52,.52h-29.7c-48.93-48.93-74.16-73.99-75.71-75.37v74.85c0,.34-.17,.52-.51,.52h-22.66c-.34,0-.51-.17-.51-.52v-99.91c.17-.34,.34-.52,.51-.52h30.73Z" fill="#e5e5e5"/><g><path d="M298.79,697.38h36.69c1.12,0,1.68-.47,1.68-1.4v-193.22c0-.93-.56-1.4-1.68-1.4h-36.69c-.56,0-1.03,.47-1.4,1.4v193.22c0,.93,.47,1.4,1.4,1.4Z" fill="#fff"/><path d="M978.89,501.36c-36.78,73.55-56.29,111.83-58.53,114.81-9.9,22.4-16.15,33.6-18.76,33.6,0-.56-.28-.84-.84-.84-1.12-.56-8.77-15.03-22.96-43.41-34.35-68.89-52.27-103.61-53.77-104.17h-41.16l-1.4,.84,83.17,164.1c7.09,20.72,19.13,31.08,36.12,31.08h3.08c9.52,0,18.2-3.92,26.04-11.76,52.83-103.8,83.64-165.21,92.41-184.26h-43.4Z" fill="#fff"/><path d="M1102.12,697.38c1.12,0,1.68-.47,1.68-1.4v-193.22c0-.93-.56-1.4-1.68-1.4h-36.69c-.56,0-1.03,.47-1.4,1.4v193.22c0,.93,.47,1.4,1.4,1.4h36.69Z" fill="#fff"/><g><path d="M562.44,622.09c-7.36-8.11-19.33-7.77-26.52,.52-.09,.09-.17,.21-.26,.3-6.67,7.51-6.44,19.55,.12,27.19h-.03l40.68,47.28h54.34l-68.33-75.29Z" fill="#fff"/><path d="M473.47,576.12c.09-.09,.17-.21,.27-.3h0c6.72-7.56,6.51-19.66-.1-27.34l-40.44-46.83-.26-.3h-54.34l68.3,75.26c7.37,8.13,19.39,7.81,26.57-.49Z" fill="#fff"/><path d="M535.61,575.84c.09,.09,.17,.21,.26,.3,7.18,8.3,19.16,8.63,26.52,.52h.03l68.33-75.29h-54.34l-40.68,47.28c-6.57,7.64-6.79,19.66-.12,27.19Z" fill="#fff"/><path d="M378.6,697.4h54.34l40.7-47.11c6.62-7.68,6.82-19.77,.1-27.34-.09-.09-.17-.21-.27-.3-7.2-8.3-19.2-8.61-26.57-.49v-.02l-68.3,75.26Z" fill="#fff"/></g><path d="M1364.71,599.37c7.27-4.29,13.09-10.11,17.48-17.48,4.38-7.36,6.57-15.8,6.57-25.31,0-7.64-1.45-14.82-4.33-21.53-2.89-6.71-6.81-12.53-11.74-17.48-4.94-4.94-10.76-8.85-17.48-11.74-6.71-2.89-13.89-4.33-21.53-4.33h-185.2v195.73h185.2c7.64,0,14.82-1.44,21.53-4.33,6.71-2.89,12.53-6.8,17.48-11.74,4.94-4.94,8.85-10.77,11.74-17.48,2.89-6.71,4.33-13.88,4.33-21.53,0-9.51-2.19-17.94-6.57-25.31-4.38-7.36-10.21-13.19-17.48-17.48Zm-13.14,49.77c-1.31,2.98-3.08,5.5-5.31,7.55-2.24,2.05-4.89,3.73-7.97,5.03-3.08,1.31-6.48,1.96-10.21,1.96h-140.27v-48.37h140.27c3.73,0,7.13,.61,10.21,1.82,3.08,1.21,5.73,2.94,7.97,5.17,2.24,2.24,4.01,4.8,5.31,7.69,1.3,2.89,1.96,6.11,1.96,9.65,0,3.35-.66,6.53-1.96,9.51Zm0-80.53c-1.31,2.98-3.08,5.59-5.31,7.83-2.24,2.24-4.89,3.96-7.97,5.17-3.08,1.21-6.48,1.82-10.21,1.82h-140.27v-48.37h140.27c3.73,0,7.13,.65,10.21,1.96,3.08,1.31,5.73,2.98,7.97,5.03,2.24,2.05,4.01,4.57,5.31,7.55,1.3,2.98,1.96,6.15,1.96,9.51s-.66,6.53-1.96,9.51Z" fill="#fff"/><path d="M1645.69,535.14v-30.48c0-1.78-1.45-3.23-3.23-3.23h-209.79v195.88h213.03v-33.71h-173.89v-48.59h173.89v-32.09h-173.89v-47.8h173.89Z" fill="#fff"/><path d="M248.7,696.93h-41.09v-155.58h-1.3l-65.02,146.17h-34.07l-66.06-148.25h-1.3v157.66H.57v-195.12H66.63l57.22,131.61h1.04l56.7-131.61h67.1v195.12Z" fill="#fff"/></g></g></svg>