<svg xmlns="http://www.w3.org/2000/svg" width="120" height="120" viewBox="0 0 120 120">
    <g id="prefix__Artists" transform="translate(-149 -556.001)">
        <rect id="prefix__Tile" width="120" height="120" rx="60" transform="translate(149 556.001)" style="fill:#151a1f"/>
        <g id="prefix__Artist" transform="translate(191 595.059)">
            <path id="prefix__Union_74" d="M.008 40.958V38.7H0v-1.318a18 18 0 1 1 36 0V38.7h-.014v2.313zm33.358-2.511v-1.065a15.366 15.366 0 1 0-30.732 0v.974zM8.341 9.236a9.22 9.22 0 1 1 9.22 9.235 9.248 9.248 0 0 1-9.22-9.235zm2.634 0a6.585 6.585 0 1 0 6.585-6.6 6.571 6.571 0 0 0-6.584 6.6z" data-name="Union 74" style="fill:#454b52"/>
        </g>
    </g>
</svg>
