<?xml version="1.0" encoding="UTF-8"?>
<svg xmlns="http://www.w3.org/2000/svg" id="Layer_1" viewBox="0 0 512 512" version="1.2" baseProfile="tiny-ps">
  <defs>
    <style>.cls-1{fill:#c9f401;}.cls-2{fill:#1e1e1e;}</style>
  </defs>
  <rect class="cls-1" width="512" height="512"/>
  <g>
    <path class="cls-2" d="M451.97,296.89h-73.12c1.9-1.98,3.11-3.28,4.36-4.54,24.44-24.62,48.85-49.27,73.37-73.81,2.56-2.57,3.75-5.19,3.71-8.84-.15-15.59-.07-31.19-.07-46.79,0-7.73,.03-15.45-.02-23.18-.03-3.55-1.57-5.79-4.4-6.81-1.42-.51-2.89-.32-4.33-.32-23.19-.01-46.39,.09-69.58-.1-4.02-.03-7.89,1.55-10.72,4.41-22.78,22.99-45.7,45.83-68.64,68.66-1.2,1.2-2.23,3.34-4.21,3.12-.14-15.26-.06-30.52-.06-45.77,0-7.72,.03-15.45-.02-23.18-.03-3.55-1.57-5.79-4.4-6.81-1.42-.51-2.89-.32-4.33-.32-23.19-.01-46.39,.09-69.58-.1-4.02-.03-7.89,1.55-10.72,4.41-22.78,22.99-45.7,45.83-68.64,68.66-1.34,1.33-2.45,3.82-4.9,2.97-2.76-.97-1.83-3.66-1.84-5.72-.05-21.13-.02-42.27-.04-63.4,0-3.85-3.12-6.98-6.97-7-9.15-.03-18.3,0-27.45,0-3.72,0-7.44,.33-11.05,1.2-21.32,5.11-36.29,23.5-36.8,45.28-.22,9.47-.09,18.95-.08,28.42,0,5.89,1.57,7.39,7.58,7.4,20.99,0,41.99,0,62.98,0,1.17,0,2.35-.1,3.49,.06,2.47,.34,3.22,2.06,1.74,4.01-.7,.92-1.61,1.68-2.44,2.51-23.19,23.19-46.36,46.41-69.63,69.52-2.56,2.54-3.76,5.1-3.74,8.78,.15,23.9,.18,47.81,0,71.71-.04,5.83,1.71,8.1,7.86,8.05,23.18-.2,46.36-.1,69.54-.1,4.1,0,4.95,.86,4.95-5.17,.03-50.58,.01-101.15,.02-151.73,0-5.96,1.54-7.5,7.47-7.5,22.45,0,44.9,0,67.35,0,.58,0,1.17-.03,1.75,0,3.54,.21,5.35,1.93,5.58,5.38,.08,1.16,.02,2.33,.02,3.5,0,24.54,0,48.85-.02,72.97v55.81c0,.39,0,.78,0,1.17,0,.43,0,.87,0,1.3v24.41h74.04c4.77,0,8.65-3.87,8.65-8.65v-65.39c0-4.77-3.87-8.65-8.65-8.65h-72.95c1.8-1.88,3-3.15,4.2-4.37,17.79-17.46,34.95-35.54,52.69-53.04,5.9-5.82,11.86-11.64,17.46-17.75,3.01-3.12,5.07-5.77,9.7-6.31,7.07-.83,14.13-.36,21.23-.36,15.84,0,31.68-.04,47.51-.04h.75c.58,0,1.17-.03,1.75,0,3.54,.21,5.35,1.93,5.58,5.38,.08,1.16,.02,2.33,.02,3.5,0,24.38,0,48.76,0,73.14v82.69h74.04c4.77,0,8.65-3.87,8.65-8.65v-65.39c0-4.77-3.87-8.65-8.65-8.65Z"/>
    <path class="cls-1" d="M109.02,160.26c-4-4.09-9.27-6.38-14.83-6.46-.1,0-.19,0-.29,0-5.53,0-10.78,2.19-14.79,6.17-4.02,3.98-6.26,9.24-6.31,14.79-.06,5.99,2.06,11.45,5.95,15.38,3.87,3.91,9.25,6.07,15.17,6.07h.03c5.73,0,11.08-2.17,15.09-6.11,3.99-3.93,6.19-9.18,6.19-14.79,0-5.62-2.21-10.97-6.21-15.06Zm-14.91,29.49c-.07,0-.14,0-.21,0-7.89,0-14.41-6.43-14.53-14.33-.06-3.91,1.41-7.6,4.13-10.39,2.7-2.77,6.32-4.31,10.18-4.34h.13c8.11,0,14.48,6.28,14.52,14.3,.04,8.3-6.08,14.64-14.22,14.76Z"/>
    <path class="cls-1" d="M427.94,155.81c-.18,0-.36,0-.53,0-3.82,0-7.64,0-11.46,0-.41,0-.71,.11-1,.41-1.07,1.1-2.18,2.18-3.26,3.28-.24,.25-.48,.35-.82,.35-7.43,0-14.86-.01-22.29,0-.47,0-.61-.11-.6-.59,.02-4.12,.02-8.23,0-12.35,0-.43,.1-.57,.55-.57,16.19,.01,32.38,.01,48.57,0,.37,0,.63,.1,.89,.36,2.92,2.93,5.84,5.86,8.78,8.78,.26,.26,.37,.52,.37,.88,0,16.21,0,32.43,0,48.64,0,.39-.1,.48-.49,.48-4.16-.02-8.32-.01-12.48,0-.39,0-.54-.07-.53-.51,.01-7.47,.01-14.95,0-22.42,0-.35,.13-.58,.37-.82,1.11-1.09,2.21-2.2,3.32-3.31,.18-.18,.33-.34,.33-.64-.01-4.05,0-8.11-.01-12.16,0-.03-.04-.06-.11-.18-.55,.57-1.09,1.12-1.63,1.67-12.65,12.65-25.3,25.3-37.95,37.97-.36,.37-.53,.33-.87-.01-2.9-2.92-5.81-5.83-8.73-8.72-.31-.31-.32-.46,0-.78,10.69-10.68,21.37-21.37,32.05-32.05,2.43-2.43,4.86-4.87,7.29-7.3,.1-.1,.26-.15,.24-.4Z"/>
  </g>
<title>Mix Vibe Records</title></svg>
